<?xml version="1.0" encoding="UTF-8"?>
<svg width="96px" height="96px" viewBox="0 0 96 96" version="1.1" xmlns="http://www.w3.org/2000/svg" xmlns:xlink="http://www.w3.org/1999/xlink">
    <!-- Generator: Sketch 53.2 (72643) - https://sketchapp.com -->
    <title>components-illu</title>
    <desc>Created with Sketch.</desc>
    <defs>
        <polygon id="path-1" points="0.0002 0.8001 55.5992 0.8001 55.5992 16 0.0002 16"></polygon>
    </defs>
    <g id="Welcome" stroke="none" stroke-width="1" fill="none" fill-rule="evenodd">
        <g id="DS-home-page" transform="translate(-880.000000, -731.000000)">
            <g id="components-illu" transform="translate(880.000000, 731.000000)">
                <path d="M70.8008,12.9996 L75.8008,12.9996 L93.9998,12.9996 C95.1048,12.9996 95.9998,13.8956 95.9998,14.9996 L95.9998,23.1996 L95.9998,28.1996 L95.9998,46.3996 C95.9998,47.5046 95.1048,48.3996 93.9998,48.3996 L82.7998,48.3996 C81.6958,48.3996 80.8008,47.5046 80.8008,46.3996 L80.8008,30.1996 C80.8008,29.0956 79.9048,28.1996 78.8008,28.1996 L75.8008,28.1996 L70.8008,28.1996 L62.6008,28.1996 C61.4948,28.1996 60.6008,27.3046 60.6008,26.1996 L60.6008,14.9996 C60.6008,13.8956 61.4948,12.9996 62.6008,12.9996 L70.8008,12.9996 Z" id="Fill-1" fill="#12344D"></path>
                <path d="M30.4004,20.1998 L35.4004,20.1998 L53.6004,20.1998 C54.7054,20.1998 55.6004,21.0958 55.6004,22.1998 L55.6004,33.3998 C55.6004,34.5048 54.7054,35.3998 53.6004,35.3998 L37.4004,35.3998 C36.2964,35.3998 35.4004,36.2948 35.4004,37.3998 L35.4004,53.5998 C35.4004,54.7038 34.5044,55.5998 33.4004,55.5998 L22.2004,55.5998 C21.0954,55.5998 20.2004,54.7038 20.2004,53.5998 L20.2004,35.3998 L20.2004,30.3998 L20.2004,22.1998 C20.2004,21.0958 21.0954,20.1998 22.2004,20.1998 L30.4004,20.1998 Z" id="Fill-3" fill="#5CA6F4"></path>
                <path d="M53.6006,35.4 L37.4006,35.4 C36.2956,35.4 35.4006,36.295 35.4006,37.4 L35.4006,53.6 C35.4006,54.704 34.5046,55.6 33.4006,55.6 L22.2006,55.6" id="Stroke-5" stroke="#2C5CC5" stroke-width="1.5" stroke-linecap="round" stroke-linejoin="round"></path>
                <path d="M30.4004,60.5997 L35.4004,60.5997 L38.4004,60.5997 C39.5044,60.5997 40.4004,59.7037 40.4004,58.5997 L40.4004,42.3997 C40.4004,41.2947 41.2964,40.3997 42.4004,40.3997 L50.6004,40.3997 L55.6004,40.3997 L73.8004,40.3997 C74.9054,40.3997 75.8004,41.2947 75.8004,42.3997 L75.7994,53.5997 C75.7994,54.7037 74.9054,55.5997 73.7994,55.5997 L57.5994,55.5997 C56.4954,55.5997 55.5994,56.4957 55.5994,57.5997 L55.5994,60.5997 L55.5994,65.5997 L55.5994,73.7997 C55.5994,74.9047 54.7054,75.7997 53.5994,75.7997 L35.4004,75.7997 L30.4004,75.7997 L22.2004,75.7997 C21.0954,75.7997 20.2004,74.9047 20.2004,73.7997 L20.2004,62.5997 C20.2004,61.4957 21.0954,60.5997 22.2004,60.5997 L30.4004,60.5997 Z" id="Fill-7" fill="#4DC4AA"></path>
                <path d="M13.2002,20.1998 C14.3042,20.1998 15.2002,21.0958 15.2002,22.1998 L15.2002,30.3998 L15.2002,35.3998 L15.2002,50.5998 L15.2002,55.5998 L15.2002,73.7998 C15.2002,74.9048 14.3042,75.7998 13.2002,75.7998 L2.0002,75.7998 C0.8952,75.7998 0.0002,74.9048 0.0002,73.7998 L0.0002,55.5998 L0.0002,50.5998 L0.0002,35.3998 L0.0002,30.3998 L0.0002,22.1998 C0.0002,21.0958 0.8952,20.1998 2.0002,20.1998 L13.2002,20.1998 Z" id="Fill-9" fill="#FF5959"></path>
                <path d="M15.2002,30.3995 L15.2002,35.3995 L15.2002,50.5995 L15.2002,55.5995 L15.2002,73.7995 C15.2002,74.9045 14.3042,75.7995 13.2002,75.7995 L2.0002,75.7995" id="Stroke-11" stroke="#C82124" stroke-width="1.5"></path>
                <path d="M70.7998,60.5997 L75.7998,60.5997 L93.9998,60.5997 C95.1048,60.5997 95.9998,61.4957 95.9998,62.5997 L95.9998,70.7997 L95.9998,75.7997 L95.9998,93.9997 C95.9998,95.1047 95.1048,95.9997 93.9998,95.9997 L75.7998,95.9997 L70.7998,95.9997 L62.5998,95.9997 C61.4948,95.9997 60.5998,95.1047 60.5998,93.9997 L60.5998,85.7997 L60.5998,80.7997 L60.5998,62.5997 C60.5998,61.4957 61.4948,60.5997 62.5998,60.5997 L70.7998,60.5997 Z" id="Fill-13" fill="#CFD7DF"></path>
                <path d="M60.5996,85.7999 L60.5996,80.7999 L60.5996,62.5999 C60.5996,61.4949 61.4956,60.5999 62.5996,60.5999 L70.7996,60.5999 L75.7996,60.5999 L83.9996,60.5999" id="Stroke-15" stroke="#92A2B1" stroke-width="1.5" stroke-linecap="round" stroke-linejoin="round"></path>
                <g id="Group-19" transform="translate(0.000000, 79.999800)">
                    <mask id="mask-2" fill="white">
                        <use xlink:href="#path-1"></use>
                    </mask>
                    <g id="Clip-18"></g>
                    <path d="M10.2002,0.8001 L15.2002,0.8001 L30.4002,0.8001 L35.4002,0.8001 L53.5992,0.8001 C54.7052,0.8001 55.5992,1.6961 55.5992,2.8001 L55.5992,14.0001 C55.5992,15.1051 54.7052,16.0001 53.5992,16.0001 L35.4002,16.0001 L30.4002,16.0001 L15.2002,16.0001 L10.2002,16.0001 L2.0002,16.0001 C0.8952,16.0001 0.0002,15.1051 0.0002,14.0001 L0.0002,2.8001 C0.0002,1.6961 0.8952,0.8001 2.0002,0.8001 L10.2002,0.8001 Z" id="Fill-17" fill="#F69A3C" mask="url(#mask-2)"></path>
                </g>
                <path d="M10.2002,80.7999 L15.2002,80.7999 L30.4002,80.7999 L35.4002,80.7999 L53.5992,80.7999 C54.7052,80.7999 55.5992,81.6959 55.5992,82.7999 L55.5992,93.9999" id="Stroke-20" stroke="#E86F25" stroke-width="1.5" stroke-linecap="round" stroke-linejoin="round"></path>
                <g id="Group-4" transform="translate(77.000000, 0.000000)" fill="#12344D">
                    <path d="M6.5,9.894 L6.5,4.77272727 C6.5,4.34618182 6.164,4 5.75,4 C5.336,4 5,4.34618182 5,4.77272727 L5,9.894 C5,10.3205455 5.336,10.6667273 5.75,10.6667273 C6.164,10.6667273 6.5,10.3205455 6.5,9.894 Z" id="Fill-22" transform="translate(5.750000, 7.333364) scale(-1, 1) translate(-5.750000, -7.333364) "></path>
                    <path d="M1.5,8.13809091 L1.5,0.772727273 C1.5,0.346181818 1.164,5.68434189e-14 0.75,5.68434189e-14 C0.336,5.68434189e-14 0,0.346181818 0,0.772727273 L0,8.13809091 C0,8.56463636 0.336,8.91081818 0.75,8.91081818 C1.164,8.91081818 1.5,8.56463636 1.5,8.13809091 Z" id="Fill-24"></path>
                </g>
                <path d="M63.7998,55.5997 L57.5998,55.5997 C56.4948,55.5997 55.5998,56.4957 55.5998,57.5997 L55.5998,60.5997 L55.5998,65.5997 L55.5998,73.7997 C55.5998,74.9047 54.7048,75.7997 53.5998,75.7997 L35.4008,75.7997 L30.4008,75.7997" id="Stroke-27" stroke="#00A886" stroke-width="1.5" stroke-linecap="round" stroke-linejoin="round"></path>
            </g>
        </g>
    </g>
</svg>