<?xml version="1.0" encoding="UTF-8"?>
<svg width="97px" height="97px" viewBox="0 0 97 97" version="1.1" xmlns="http://www.w3.org/2000/svg" xmlns:xlink="http://www.w3.org/1999/xlink">
    <!-- Generator: Sketch 53.2 (72643) - https://sketchapp.com -->
    <title>foundations-illu</title>
    <desc>Created with Sketch.</desc>
    <g id="Welcome" stroke="none" stroke-width="1" fill="none" fill-rule="evenodd">
        <g id="DS-home-page" transform="translate(-479.000000, -731.000000)">
            <g id="foundations-illu" transform="translate(479.000000, 731.000000)">
                <path d="M89.5061443,70.3292041 L89.5061443,95.7523794" id="Stroke-1" stroke="#92A2B1" stroke-width="1.5" stroke-linecap="round" stroke-linejoin="round"></path>
                <path d="M89.5061443,0.742070103 L89.5061443,53.0996784" id="Stroke-3" stroke="#92A2B1" stroke-width="1.5" stroke-linecap="round" stroke-linejoin="round"></path>
                <path d="M34.3917526,7.00156701 L0.742268041,7.00156701" id="Stroke-5" stroke="#92A2B1" stroke-width="1.5" stroke-linecap="round" stroke-linejoin="round"></path>
                <path d="M95.7525773,7.00156701 L62.1030928,7.00156701" id="Stroke-7" stroke="#92A2B1" stroke-width="1.5" stroke-linecap="round" stroke-linejoin="round"></path>
                <path d="M13.2864,89.4932784 L0.742070103,89.4932784" id="Stroke-9" stroke="#92A2B1" stroke-width="1.5" stroke-linecap="round" stroke-linejoin="round"></path>
                <path d="M95.7525773,89.4932784 L83.2082474,89.4932784" id="Stroke-11" stroke="#92A2B1" stroke-width="1.5" stroke-linecap="round" stroke-linejoin="round"></path>
                <path d="M74.9777814,95.7678186 L22.8725443,95.7678186 C21.1000082,95.7678186 19.6619876,94.3307876 19.6619876,92.5582515 L19.6619876,82.8592825 L78.1873485,82.8592825 L78.1873485,92.5582515 C78.1873485,94.3307876 76.7503175,95.7678186 74.9777814,95.7678186" id="Fill-13" fill="#B1BDC7"></path>
                <path d="M20.892767,95.084932 C20.1435711,94.4970557 19.6625814,93.5835711 19.6625814,92.5582515 L19.6625814,82.8582928" id="Stroke-15" stroke="#92A2B1" stroke-width="1.5" stroke-linecap="round" stroke-linejoin="round"></path>
                <path d="M63.9751918,89.9451711 C62.355068,89.9451711 60.9259546,91.2535423 60.9259546,92.8687175 L60.9259546,95.7378309 L67.0244289,95.7378309 L67.0244289,92.8687175 C67.0244289,91.2535423 65.5963052,89.9451711 63.9751918,89.9451711 M48.9635629,89.9798103 L48.8685526,89.9798103 C47.2484289,89.9798103 45.840099,91.2535423 45.840099,92.8687175 L45.840099,95.7378309 L51.9385732,95.7378309 L51.9385732,92.8687175 C51.9385732,91.2535423 50.5836866,89.9798103 48.9635629,89.9798103 M36.8527175,92.8687175 L36.8527175,95.7378309 L31.0749031,95.7378309 L31.0749031,92.8687175 C31.0749031,91.2535423 32.3347794,89.9798103 33.9558928,89.9798103 L33.9024495,89.9798103 C35.5225732,89.9798103 36.8527175,91.2535423 36.8527175,92.8687175" id="Fill-17" fill="#92A2B1"></path>
                <path d="M80.3476454,84.2467299 L16.3779959,84.2467299 C14.3897072,84.2467299 12.7794804,82.6345237 12.7794804,80.6462351 C12.7794804,78.6589361 14.3897072,77.0467299 16.3779959,77.0467299 L80.3476454,77.0467299 C82.3369237,77.0467299 83.9481402,78.6589361 83.9481402,80.6462351 C83.9481402,82.6345237 82.3369237,84.2467299 80.3476454,84.2467299" id="Fill-19" fill="#EBEFF3"></path>
                <path d="M88.3250474,57.8638515 L8.40059381,57.8638515 C7.69197526,57.8638515 7.00117113,58.3032742 7.00117113,59.0109031 L7.00117113,64.2008412 C7.00117113,64.9074804 7.69197526,65.5408825 8.40059381,65.5408825 L13.3767588,65.5408825 L18.8774598,77.0470268 L78.5795629,77.0470268 L83.3508619,65.5408825 L88.3250474,65.5408825 C89.0346557,65.5408825 89.4938722,64.9074804 89.4938722,64.2008412 L89.4938722,59.0109031 C89.4938722,58.3032742 89.0346557,57.8638515 88.3250474,57.8638515" id="Fill-21" fill="#EBEFF3"></path>
                <polygon id="Fill-23" fill="#B1BDC7" points="78.5798598 77.0468289 81.3648495 70.3288082 15.6662103 70.3288082 18.8777567 77.0468289"></polygon>
                <path d="M71.9719918,25.9496907 L50.4402804,0.757113402 L46.6962804,0.757113402 L25.1645691,25.9496907 C25.1645691,25.9496907 29.551868,32.0946804 31.8964454,38.5454845 C34.2410227,44.995299 34.323167,47.9416082 34.323167,47.9416082 L62.8143835,47.9416082 C62.8143835,47.9416082 63.0063835,44.6904742 65.2401155,38.5454845 C67.4748371,32.3995052 71.9719918,25.9496907 71.9719918,25.9496907" id="Fill-25" fill="#82D5C2"></path>
                <path d="M71.9719918,25.9496907 C71.9719918,25.9496907 67.5846928,32.0946804 65.2401155,38.5454845 C63.6496825,42.9228866 63.1004041,45.6841237 62.9123629,47.0083299 L48.2471258,47.0083299 L48.2471258,0.757113402 L50.4402804,0.757113402 L71.9719918,25.9496907 Z" id="Fill-27" fill="#4DC4AA"></path>
                <path d="M29.4442887,48.8725113 C29.4442887,47.843233 30.2795876,47.0089237 31.3167835,47.0089237 L65.8203711,47.0089237 C66.8545979,47.0089237 67.6918763,47.8363052 67.6918763,48.8725113 L67.6918763,52.6076041 C67.6918763,53.6378722 66.857567,54.4721814 65.8203711,54.4721814 L31.3167835,54.4721814 C30.2825567,54.4721814 29.4442887,53.6448 29.4442887,52.6076041 L29.4442887,48.8725113 Z M50.4405773,22.6061196 L50.4405773,0.757707216 L46.6965773,0.757707216 L46.6965773,22.6061196 C45.0428041,23.3256247 43.8878351,24.969501 43.8878351,26.8825732 C43.8878351,29.4587381 45.9830103,31.5479753 48.5680825,31.5479753 C51.1541443,31.5479753 53.2493196,29.4587381 53.2493196,26.8825732 C53.2493196,24.969501 52.0943505,23.3256247 50.4405773,22.6061196 L50.4405773,22.6061196 Z" id="Fill-29" fill="#12344D"></path>
                <path d="M38.4674969,10.3847258 L25.1650639,25.9495918 C25.1650639,25.9495918 31.0072082,33.7176742 33.4636206,43.3810144" id="Stroke-31" stroke="#00A886" stroke-width="1.5" stroke-linecap="round" stroke-linejoin="round"></path>
                <path d="M44.511934,3.31338557 L40.6501608,7.8323134" id="Stroke-33" stroke="#00A886" stroke-width="1.5" stroke-linecap="round" stroke-linejoin="round"></path>
                <polyline id="Stroke-35" stroke="#92A2B1" stroke-width="1.5" stroke-linecap="round" stroke-linejoin="round" points="18.1111423 75.443332 15.6656165 70.3296 77.3292866 70.3296"></polyline>
                <path d="M6.98870103,70.3292041 L6.98870103,95.7523794" id="Stroke-37" stroke="#92A2B1" stroke-width="1.5" stroke-linecap="round" stroke-linejoin="round"></path>
                <path d="M6.98870103,0.742070103 L6.98870103,53.0996784" id="Stroke-39" stroke="#92A2B1" stroke-width="1.5" stroke-linecap="round" stroke-linejoin="round"></path>
                <path d="M9.77992577,7.00156701 C9.77992577,5.45962887 8.52994639,4.20964948 6.98899794,4.20964948 C5.4460701,4.20964948 4.19609072,5.45962887 4.19609072,7.00156701 C4.19609072,8.54350515 5.4460701,9.79348454 6.98899794,9.79348454 C8.52994639,9.79348454 9.77992577,8.54350515 9.77992577,7.00156701" id="Fill-41" fill="#FFFFFF"></path>
                <path d="M9.77992577,7.00156701 C9.77992577,5.45962887 8.52994639,4.20964948 6.98899794,4.20964948 C5.4460701,4.20964948 4.19609072,5.45962887 4.19609072,7.00156701 C4.19609072,8.54350515 5.4460701,9.79348454 6.98899794,9.79348454 C8.52994639,9.79348454 9.77992577,8.54350515 9.77992577,7.00156701 Z" id="Stroke-43" stroke="#2C5CC5" stroke-width="1.5" stroke-linecap="round" stroke-linejoin="round"></path>
                <path d="M92.2983588,7.00156701 C92.2983588,5.45962887 91.0483794,4.20964948 89.5064412,4.20964948 C87.9645031,4.20964948 86.7145237,5.45962887 86.7145237,7.00156701 C86.7145237,8.54350515 87.9645031,9.79348454 89.5064412,9.79348454 C91.0483794,9.79348454 92.2983588,8.54350515 92.2983588,7.00156701" id="Fill-45" fill="#FFFFFF"></path>
                <path d="M92.2983588,7.00156701 C92.2983588,5.45962887 91.0483794,4.20964948 89.5064412,4.20964948 C87.9645031,4.20964948 86.7145237,5.45962887 86.7145237,7.00156701 C86.7145237,8.54350515 87.9645031,9.79348454 89.5064412,9.79348454 C91.0483794,9.79348454 92.2983588,8.54350515 92.2983588,7.00156701 Z" id="Stroke-47" stroke="#2C5CC5" stroke-width="1.5" stroke-linecap="round" stroke-linejoin="round"></path>
                <path d="M92.2983588,89.4932784 C92.2983588,87.9513402 91.0483794,86.7013608 89.5064412,86.7013608 C87.9645031,86.7013608 86.7145237,87.9513402 86.7145237,89.4932784 C86.7145237,91.0352165 87.9645031,92.2851959 89.5064412,92.2851959 C91.0483794,92.2851959 92.2983588,91.0352165 92.2983588,89.4932784" id="Fill-49" fill="#FFFFFF"></path>
                <path d="M92.2983588,89.4932784 C92.2983588,87.9513402 91.0483794,86.7013608 89.5064412,86.7013608 C87.9645031,86.7013608 86.7145237,87.9513402 86.7145237,89.4932784 C86.7145237,91.0352165 87.9645031,92.2851959 89.5064412,92.2851959 C91.0483794,92.2851959 92.2983588,91.0352165 92.2983588,89.4932784 Z" id="Stroke-51" stroke="#2C5CC5" stroke-width="1.5" stroke-linecap="round" stroke-linejoin="round"></path>
                <path d="M9.77992577,89.4932784 C9.77992577,87.9513402 8.52994639,86.7013608 6.98899794,86.7013608 C5.4460701,86.7013608 4.19609072,87.9513402 4.19609072,89.4932784 C4.19609072,91.0352165 5.4460701,92.2851959 6.98899794,92.2851959 C8.52994639,92.2851959 9.77992577,91.0352165 9.77992577,89.4932784" id="Fill-53" fill="#FFFFFF"></path>
                <path d="M9.77992577,89.4932784 C9.77992577,87.9513402 8.52994639,86.7013608 6.98899794,86.7013608 C5.4460701,86.7013608 4.19609072,87.9513402 4.19609072,89.4932784 C4.19609072,91.0352165 5.4460701,92.2851959 6.98899794,92.2851959 C8.52994639,92.2851959 9.77992577,91.0352165 9.77992577,89.4932784 Z" id="Stroke-55" stroke="#2C5CC5" stroke-width="1.5" stroke-linecap="round" stroke-linejoin="round"></path>
            </g>
        </g>
    </g>
</svg>