<svg version="1.1" xmlns="http://www.w3.org/2000/svg" xmlns:xlink="http://www.w3.org/1999/xlink" width="11" height="14" viewBox="0 0 11 14">
<path d="M10.141 10.328q0 0.312-0.219 0.531l-1.062 1.062q-0.219 0.219-0.531 0.219t-0.531-0.219l-2.297-2.297-2.297 2.297q-0.219 0.219-0.531 0.219t-0.531-0.219l-1.062-1.062q-0.219-0.219-0.219-0.531t0.219-0.531l2.297-2.297-2.297-2.297q-0.219-0.219-0.219-0.531t0.219-0.531l1.062-1.062q0.219-0.219 0.531-0.219t0.531 0.219l2.297 2.297 2.297-2.297q0.219-0.219 0.531-0.219t0.531 0.219l1.062 1.062q0.219 0.219 0.219 0.531t-0.219 0.531l-2.297 2.297 2.297 2.297q0.219 0.219 0.219 0.531z"></path>
</svg>
