<svg xmlns="http://www.w3.org/2000/svg" xmlns:xlink="http://www.w3.org/1999/xlink" width="7" height="6" viewBox="0 0 7 6">
  <defs>
    <path id="close-thick-a" d="M4.10034936,3.2 L6.00019821,5.09984885 C6.24882282,5.34847346 6.24882282,5.7515736 6.00019821,6.00019821 C5.7515736,6.24882282 5.34847346,6.24882282 5.09984885,6.00019821 L3.2,4.10034936 L1.30015115,6.00019821 C1.05152654,6.24882282 0.648426401,6.24882282 0.399801791,6.00019821 C0.151177181,5.7515736 0.151177181,5.34847346 0.399801791,5.09984885 L2.29965064,3.2 L0.399801791,1.30015115 C0.151177181,1.05152654 0.151177181,0.648426401 0.399801791,0.399801791 C0.648426401,0.151177181 1.05152654,0.151177181 1.30015115,0.399801791 L3.2,2.29965064 L5.09984885,0.399801791 C5.34847346,0.151177181 5.7515736,0.151177181 6.00019821,0.399801791 C6.24882282,0.648426401 6.24882282,1.05152654 6.00019821,1.30015115 L4.10034936,3.2 Z"/>
  </defs>
  <use fill="#576C7D" transform="rotate(-180 3.5 3.1)" xlink:href="#close-thick-a"/>
</svg>
