<svg xmlns="http://www.w3.org/2000/svg" width="20" height="20" viewBox="0 0 20 20">
  <path fill="#264966" d="M14.96,2.49998028 L5.04,2.49998028 C3.63719674,2.49998028 2.49998013,3.63717701 2.49998013,5.03998028 L2.49998013,14.9599803 C2.49732882,15.6344455 2.76407733,16.2820576 3.241,16.7589803 C3.71792267,17.2359029 4.36553478,17.5026515 5.04,17.5000001 L14.96,17.5000001 C15.6344652,17.5026515 16.2820773,17.2359029 16.759,16.7589803 C17.2359227,16.2820576 17.5026712,15.6344455 17.5000199,14.9599803 L17.5000199,5.03998028 C17.5000199,3.63717701 16.3628033,2.49998028 14.96,2.49998028 Z M5.04,3.89998028 L14.96,3.89998028 C15.5896046,3.89998028 16.1,4.41037566 16.1,5.03998028 L16.1,10.3399803 L13.97,8.20998028 C13.6932022,7.93542471 13.2467978,7.93542471 12.97,8.20998028 L8.75,12.4399803 L6.75,10.4399803 C6.61974694,10.3030159 6.43901085,10.22548 6.25,10.22548 C6.06098915,10.22548 5.88025306,10.3030159 5.75,10.4399803 L3.9,12.3399803 L3.9,5.03998028 C3.9,4.41037566 4.41039539,3.89998028 5.04,3.89998028 Z M5.04,16.0999803 C4.59930192,16.0797937 4.20981026,15.8071495 4.04,15.3999803 C3.97702729,15.2620345 3.94625122,15.1115737 3.95,14.9599803 L3.95,14.3199803 L6.28,11.9399803 L8.28,13.9399803 C8.41025306,14.0769447 8.59098915,14.1544805 8.78,14.1544805 C8.96901085,14.1544805 9.14974694,14.0769447 9.28,13.9399803 L13.5,9.69998028 L16.1,12.3199803 L16.1,14.9599803 C16.1037488,15.1115737 16.0729727,15.2620345 16.01,15.3999803 C15.8401897,15.8071495 15.4506981,16.0797937 15.01,16.0999803 L5.04,16.0999803 Z"/>
</svg>
