<svg xmlns="http://www.w3.org/2000/svg" width="20" height="20" viewBox="0 0 20 20">
  <path fill="#264966" d="M18,2.70003576 L18,5.22003576 C18,5.60663509 17.6865993,5.92003576 17.3,5.92003576 C16.9134007,5.92003576 16.6,5.60663509 16.6,5.22003576 L16.6,3.40003576 L14.78,3.40003576 C14.3934007,3.40003576 14.08,3.08663509 14.08,2.70003576 C14.08,2.31343644 14.3934007,2.00003576 14.78,2.00003576 L17.3,2.00003576 C17.6865993,2.00003576 18,2.31343644 18,2.70003576 Z M5.23,2.00003576 L2.71,2.00003576 C2.52262191,1.99735866 2.34199434,2.06992492 2.20854807,2.20149166 C2.0751018,2.33305841 2,2.51263855 2,2.70003576 L2,5.22003576 C2,5.60663509 2.31340068,5.92003576 2.7,5.92003576 C3.08659933,5.92003576 3.4,5.60663509 3.4,5.22003576 L3.4,3.40003576 L5.23,3.40003576 C5.61659933,3.40003576 5.93,3.08663509 5.93,2.70003576 C5.93,2.31343644 5.61659933,2.00003576 5.23,2.00003576 Z M5.23,16.6000358 L3.41,16.6000358 L3.41,14.7800358 C3.41,14.3934364 3.09659933,14.0800358 2.71,14.0800358 C2.32340068,14.0800358 2.01,14.3934364 2.01,14.7800358 L2.01,17.3000358 C2.01,17.6866351 2.32340068,18.0000358 2.71,18.0000358 L5.23,18.0000358 C5.61659933,18.0000358 5.93,17.6866351 5.93,17.3000358 C5.93,16.9134364 5.61659933,16.6000358 5.23,16.6000358 Z M17.3,14.0800358 C16.9134007,14.0800358 16.6,14.3934364 16.6,14.7800358 L16.6,16.6000358 L14.78,16.6000358 C14.3934007,16.6000358 14.08,16.9134364 14.08,17.3000358 C14.08,17.6866351 14.3934007,18.0000358 14.78,18.0000358 L17.3,18.0000358 C17.6865993,18.0000358 18,17.6866351 18,17.3000358 L18,14.7800358 C18,14.3934364 17.6865993,14.0800358 17.3,14.0800358 L17.3,14.0800358 Z M11.49,2.00003576 L8.49,2.00003576 C8.10340068,2.00003576 7.79,2.31343644 7.79,2.70003576 C7.79,3.08663509 8.10340068,3.40003576 8.49,3.40003576 L11.49,3.40003576 C11.8765993,3.40003576 12.19,3.08663509 12.19,2.70003576 C12.19,2.31343644 11.8765993,2.00003576 11.49,2.00003576 L11.49,2.00003576 Z M11.49,16.6000358 L8.49,16.6000358 C8.10340068,16.6000358 7.79,16.9134364 7.79,17.3000358 C7.79,17.6866351 8.10340068,18.0000358 8.49,18.0000358 L11.49,18.0000358 C11.8765993,18.0000358 12.19,17.6866351 12.19,17.3000358 C12.19,16.9134364 11.8765993,16.6000358 11.49,16.6000358 Z M17.29,12.2000358 C17.6765993,12.2000358 17.99,11.8866351 17.99,11.5000358 L17.99,8.50003576 C17.99,8.11343644 17.6765993,7.80003576 17.29,7.80003576 C16.9034007,7.80003576 16.59,8.11343644 16.59,8.50003576 L16.59,11.5000358 C16.59,11.8866351 16.9034007,12.2000358 17.29,12.2000358 L17.29,12.2000358 Z M2.7,12.2000358 C3.08659933,12.2000358 3.4,11.8866351 3.4,11.5000358 L3.4,8.50003576 C3.4,8.11343644 3.08659933,7.80003576 2.7,7.80003576 C2.31340068,7.80003576 2,8.11343644 2,8.50003576 L2,11.5000358 C2,11.8866351 2.31340068,12.2000358 2.7,12.2000358 Z"/>
</svg>
