<svg xmlns="http://www.w3.org/2000/svg" width="20" height="20" viewBox="0 0 20 20">
  <path fill="#264966" d="M17.7627311,5.27340925 C17.5576336,5.075034 17.2515879,5.02336394 16.9927311,5.14340925 L16.8327311,5.20340925 C16.9349562,4.82848163 16.9887272,4.44200241 16.9927311,4.05340925 C16.9885168,3.81560448 16.8638414,3.5962092 16.6616988,3.47088075 C16.4595561,3.34555231 16.2076056,3.33143957 15.9927311,3.43340925 C15.5916102,3.71440741 15.1345172,3.90543136 14.6527311,3.99340925 C13.9119631,3.17999793 12.8062314,2.80261507 11.7227311,2.99340925 C10.7497506,3.12603386 9.8780889,3.66355859 9.32273113,4.47340925 C8.82615565,5.21747928 8.57763754,6.09954356 8.61273113,6.99340925 C6.8506787,6.68125384 5.33077907,5.57453081 4.49273113,3.99340925 C4.36042425,3.79257171 4.13308927,3.67511531 3.89273113,3.68340925 C3.63787984,3.64025362 3.38403474,3.76516153 3.26273113,3.99340925 C2.52756921,5.26550494 2.46769522,6.81848665 3.10273113,8.14340925 C2.90459783,8.04356923 2.67086443,8.04356923 2.47273113,8.14340925 C2.26001061,8.26585851 2.12432211,8.48823688 2.11273113,8.73340925 C2.10845719,9.88645637 2.76541201,10.9399165 3.80273113,11.4434092 L3.63273113,11.4434092 C3.39176986,11.4025873 3.14743544,11.4942127 2.99273113,11.6834092 C2.8290291,11.8693356 2.7757874,12.1279382 2.85273113,12.3634092 C3.18138099,13.2171391 3.94688381,13.8257139 4.85273113,13.9534092 C4.20110007,14.2587511 3.47828804,14.3797962 2.76273113,14.3034092 C2.43991561,14.2695669 2.1352524,14.4589521 2.02273113,14.7634092 C1.91394013,15.0715449 2.02951551,15.4141433 2.30273113,15.5934092 C3.79513572,16.5489779 5.53062013,17.0557393 7.30273113,17.0534092 C9.88042433,17.1049839 12.3654739,16.0921544 14.1727311,14.2534092 C15.7570032,12.5985515 16.6386814,10.3943559 16.6327311,8.10340925 C17.2518927,7.52195889 17.7188857,6.79743304 17.9927311,5.99340925 C18.0660234,5.72902672 17.9757209,5.44634059 17.7627311,5.27340925 Z M15.5127311,7.21340925 C15.3179718,7.34908832 15.2080547,7.5765029 15.2227311,7.81340925 C15.3002276,9.84154735 14.5535318,11.8146999 13.1527311,13.2834092 C11.6175081,14.8581254 9.49081466,15.7146095 7.29273113,15.6434092 C6.56966762,15.6424544 5.84997092,15.5449254 5.15273113,15.3534092 C5.97578189,15.0152766 6.74413922,14.5569582 7.43273113,13.9934092 C7.66544741,13.8074115 7.75729929,13.4959139 7.66273113,13.2134092 C7.56218468,12.9327598 7.29056086,12.7503258 6.99273113,12.7634092 C6.29199074,12.77262 5.59296027,12.6919626 4.91273113,12.5234092 C5.30875317,12.3553644 5.67380997,12.1221337 5.99273113,11.8334092 C6.18144037,11.6536419 6.25465092,11.3839188 6.18273113,11.1334092 C6.10781639,10.8841867 5.9058914,10.6936915 5.65273113,10.6334092 C4.91164778,10.537955 4.22810296,10.1837867 3.72273113,9.63340925 C4.0628088,9.59505534 4.39795659,9.52132283 4.72273113,9.41340925 C4.98186252,9.33579432 5.17034688,9.11196914 5.20273113,8.84340925 C5.23883131,8.57832454 5.12285834,8.31545246 4.90273113,8.16340925 C4.25435118,7.64357217 3.9401653,6.81212906 4.08273113,5.99340925 C5.43615668,7.52087017 7.35359406,8.43084045 9.39273113,8.51340925 C9.62246766,8.53916817 9.84925434,8.44467372 9.99273113,8.26340925 C10.1325237,8.09723599 10.1845443,7.87429051 10.1327311,7.66340925 C9.9269372,6.86255907 10.0608111,6.01227893 10.5027311,5.31340925 C10.8294966,4.81570314 11.361018,4.48945896 11.9527311,4.42340925 C12.609009,4.26466499 13.2990865,4.48441033 13.7427311,4.99340925 C13.8640763,5.1807462 14.0696314,5.29660452 14.2927311,5.30340925 C14.6291777,5.31979604 14.9661918,5.28609463 15.2927311,5.20340925 C15.2354999,5.28231265 15.1643308,5.35009274 15.0827311,5.40340925 C14.8005122,5.57066958 14.6750813,5.91351402 14.7827311,6.22340925 C14.8925442,6.53580048 15.2037192,6.73080343 15.5327311,6.69340925 C15.6859032,6.68346453 15.839559,6.68346453 15.9927311,6.69340925 C15.8562378,6.88705078 15.694852,7.06188547 15.5127311,7.21340925 Z"/>
</svg>
