<svg xmlns="http://www.w3.org/2000/svg" width="20" height="20" viewBox="0 0 20 20">
  <path fill="#264966" d="M16,8 C15.9969602,7.78039859 15.8938573,7.57419268 15.72,7.44 L14.22,6.34 L15,4.61 C15.09984,4.4118667 15.09984,4.1781333 15,3.98 C14.88836,3.7879627 14.6910954,3.66141558 14.47,3.64 L12.62,3.43 L12.42,1.58 C12.3754512,1.34748396 12.2179396,1.15246957 12,1.06 C11.8018667,0.960159985 11.5681333,0.960159985 11.37,1.06 L9.67,1.81 L8.56,0.27 C8.42330571,0.100849447 8.21747928,0.00254833996 8,0.00254833996 C7.78252072,0.00254833996 7.57669429,0.100849447 7.44,0.27 L6.33,1.77 L4.63,1 C4.4318667,0.900159985 4.1981333,0.900159985 4,1 C3.80899391,1.10966421 3.67969706,1.3017624 3.65,1.52 L3.45,3.37 L1.6,3.64 C1.37495222,3.66573112 1.17686656,3.80027987 1.07,4 C0.970159985,4.1981333 0.970159985,4.4318667 1.07,4.63 L1.81,6.34 L0.28,7.42 C0.10355525,7.55427631 -2.90707501e-05,7.76327297 -2.90707501e-05,7.985 C-2.90707501e-05,8.20672703 0.10355525,8.41572369 0.28,8.55 L1.78,9.65 L1,11.36 C0.900159985,11.5581333 0.900159985,11.7918667 1,11.99 C1.11163997,12.1820373 1.30890459,12.3085844 1.53,12.33 L3.38,12.54 L3.58,14.38 C3.60967157,14.6008218 3.73856492,14.7960032 3.93,14.91 C4.1281333,15.00984 4.3618667,15.00984 4.56,14.91 L6.26,14.16 L7.37,15.66 C7.50219807,15.8362641 7.70966989,15.94 7.93,15.94 C8.15033011,15.94 8.35780193,15.8362641 8.49,15.66 L9.6,14.16 L11.3,14.91 C11.4981333,15.00984 11.7318667,15.00984 11.93,14.91 C12.1214351,14.7960032 12.2503284,14.6008218 12.28,14.38 L12.48,12.54 L14.33,12.33 C14.5510954,12.3085844 14.74836,12.1820373 14.86,11.99 C14.95984,11.7918667 14.95984,11.5581333 14.86,11.36 L14.12,9.65 L15.62,8.55 C15.8292587,8.44014606 15.9712796,8.23458949 16,8 L16,8 Z M12.71,9.7 L13.3,11 L11.84,11.17 C11.5134649,11.2056041 11.2556041,11.4634649 11.22,11.79 L11.06,13.24 L9.72,12.7 C9.41985019,12.5683545 9.06859329,12.659268 8.87,12.92 L8,14.1 L7.13,12.92 C6.99364813,12.7433895 6.78312125,12.6399728 6.56,12.64 C6.46365033,12.6415785 6.36853649,12.66196 6.28,12.7 L4.94,13.28 L4.78,11.83 C4.74439585,11.5034649 4.48653513,11.2456041 4.16,11.21 L2.7,11 L3.29,9.7 C3.42204681,9.40087233 3.32601171,9.05013546 3.06,8.86 L1.88,8 L3.06,7.13 C3.32601171,6.93986454 3.42204681,6.58912767 3.29,6.29 L2.7,4.92 L4.16,4.76 C4.48653513,4.72439585 4.74439585,4.46653513 4.78,4.14 L4.94,2.68 L6.28,3.27 C6.58014981,3.40164551 6.93140671,3.31073196 7.13,3.05 L8,1.86 L8.87,3.05 C9.06859329,3.31073196 9.41985019,3.40164551 9.72,3.27 L11.06,2.68 L11.22,4.14 C11.2556041,4.46653513 11.5134649,4.72439585 11.84,4.76 L13.3,4.92 L12.71,6.27 C12.5779532,6.56912767 12.6739883,6.91986454 12.94,7.11 L14.12,8 L12.94,8.88 C12.6836739,9.06777188 12.5887171,9.4063134 12.71,9.7 Z" transform="translate(2 2)"/>
</svg>
