<svg xmlns="http://www.w3.org/2000/svg" width="20" height="20" viewBox="0 0 20 20">
  <path  d="M10,2 C5.581722,2 2,5.581722 2,10 C2,14.418278 5.581722,18 10,18 C14.418278,18 18,14.418278 18,10 C18,7.87826808 17.1571453,5.84343678 15.6568542,4.34314575 C14.1565632,2.84285472 12.1217319,2 10,2 Z M10,16.6 C6.35492065,16.6 3.4,13.6450793 3.4,10 C3.4,6.35492065 6.35492065,3.4 10,3.4 C13.6450793,3.4 16.6,6.35492065 16.6,10 C16.5944931,13.6427959 13.6427959,16.5944931 10,16.6 Z M12.67,8.07 C12.6644282,9.28365136 11.84395,10.3420682 10.67,10.65 L10.67,11 C10.6018346,11.3239548 10.3160487,11.5558646 9.985,11.5558646 C9.65395135,11.5558646 9.36816545,11.3239548 9.3,11 L9.3,10 C9.3,9.61340068 9.61340068,9.3 10,9.3 C10.5172524,9.29974338 10.9826693,8.98581005 11.1766653,8.50631483 C11.3706613,8.0268196 11.2544713,7.47757753 10.882914,7.1177229 C10.5113568,6.75786827 9.95867876,6.65930896 9.48563526,6.8685456 C9.01259176,7.07778224 8.71370865,7.55300414 8.73,8.07 C8.72999999,8.45659932 8.41659932,8.76999998 8.03,8.76999998 C7.64340068,8.76999998 7.33,8.45659932 7.33,8.07 C7.33,6.59539972 8.52539972,5.4 10,5.4 C11.4746003,5.4 12.67,6.59539972 12.67,8.07 L12.67,8.07 Z M10,12.5 C9.57135417,12.4795654 9.17341231,12.7220288 8.99502278,13.1123261 C8.81663325,13.5026234 8.89370231,13.9621956 9.18965585,14.2729468 C9.48560939,14.583698 9.94087788,14.6830803 10.3394079,14.5239304 C10.7379378,14.3647806 10.9995132,13.9791324 11,13.55 C11.0137058,13.2762314 10.9144311,13.0088386 10.7253888,12.810344 C10.5363464,12.6118495 10.2741113,12.4996571 10,12.5 Z"/>
</svg>
