<svg xmlns="http://www.w3.org/2000/svg" width="20" height="20" viewBox="0 0 20 20">
  <path fill="#264966" d="M10,2 C5.581722,2 2,5.581722 2,10 C2,14.418278 5.581722,18 10,18 C14.418278,18 18,14.418278 18,10 C18,7.87826808 17.1571453,5.84343678 15.6568542,4.34314575 C14.1565632,2.84285472 12.1217319,2 10,2 Z M10,16.6 C6.35492065,16.6 3.4,13.6450793 3.4,10 C3.4,6.35492065 6.35492065,3.4 10,3.4 C13.6450793,3.4 16.6,6.35492065 16.6,10 C16.5944931,13.6427959 13.6427959,16.5944931 10,16.6 Z M13.65,9.39 L8.7,6.54 C8.4882723,6.43926639 8.24017213,6.45122705 8.03911632,6.57186053 C7.83806051,6.69249402 7.71075396,6.90577739 7.69997822,7.14 L7.69997822,12.86 C7.69801188,13.108997 7.83227792,13.3391673 8.05,13.46 C8.2641152,13.5939288 8.5358848,13.5939288 8.75,13.46 L13.75,10.61 C13.9649748,10.4819603 14.096682,10.2502166 14.096682,10 C14.096682,9.74978341 13.9649748,9.51803972 13.75,9.39 L13.65,9.39 Z M9.05,11.65 L9.05,8.35 L11.9,10 L9.05,11.65 Z"/>
</svg>
