<svg xmlns="http://www.w3.org/2000/svg" width="20" height="20" viewBox="0 0 20 20">
  <path fill="#264966" d="M18,10 C18,10.3865993 17.6865993,10.7 17.3,10.7 L2.69999999,10.7 C2.31340066,10.7 1.99999999,10.3865993 1.99999999,10 C1.99999999,9.61340068 2.31340066,9.3 2.69999999,9.3 L17.3,9.3 C17.6865993,9.3 18,9.61340068 18,10 L18,10 Z M17.3,14.6 L2.69999999,14.6 C2.31340067,14.6 2.00000001,14.9134007 2.00000001,15.3 C2.00000001,15.6865993 2.31340067,16 2.69999999,16 L17.3,16 C17.6865993,16 18,15.6865993 18,15.3 C18,14.9134007 17.6865993,14.6 17.3,14.6 L17.3,14.6 Z M2.69999999,5.4 L17.3,5.4 C17.6865993,5.4 18,5.08659932 18,4.7 C18,4.31340068 17.6865993,4 17.3,4 L2.69999999,4 C2.31340066,4 1.99999999,4.31340068 1.99999999,4.7 C1.99999999,5.08659932 2.31340066,5.4 2.69999999,5.4 Z"/>
</svg>
