<svg xmlns="http://www.w3.org/2000/svg" width="20" height="20" viewBox="0 0 20 20">
  <path fill="#264966" d="M0,0.7 C0,0.313400675 0.313400675,0 0.7,0 L15.3,0 C15.6865993,0 16,0.313400675 16,0.7 C16,1.08659932 15.6865993,1.4 15.3,1.4 L0.7,1.4 C0.313400675,1.4 0,1.08659932 0,0.7 Z M15.3,5.3 L0.7,5.3 C0.313400675,5.3 0,5.61340068 0,6 C0,6.38659932 0.313400675,6.7 0.7,6.7 L15.3,6.7 C15.6865993,6.7 16,6.38659932 16,6 C16,5.61340068 15.6865993,5.3 15.3,5.3 L15.3,5.3 Z M8.00000003,10.6 L0.7,10.6 C0.313400687,10.6 2.9502794e-08,10.9134007 2.9502794e-08,11.3 C2.9502794e-08,11.6865993 0.313400687,12 0.7,12 L8.00000003,12 C8.38659932,12 8.7,11.6865993 8.7,11.3 C8.7,10.9134007 8.38659932,10.6 8.00000003,10.6 L8.00000003,10.6 Z" transform="translate(2 4)"/>
</svg>
