<svg xmlns="http://www.w3.org/2000/svg" width="20" height="20" viewBox="0 0 20 20">
  <path fill="#264966" d="M18.375,14.3370258 L17.745,13.7070258 C17.1091997,13.0859324 16.7489893,12.2358358 16.745,11.3470258 L16.745,8.84702581 C16.7911628,5.38572905 14.3004418,2.41046502 10.885,1.84702581 L10.885,0.747025812 C10.885,0.360426487 10.5715993,0.0470258116 10.185,0.0470258116 C9.79840068,0.0470258116 9.485,0.360426487 9.485,0.747025812 L9.485,1.85702581 C5.9597463,2.12374441 3.23538407,5.06169665 3.235,8.59702581 L3.235,11.3470258 C3.22659614,12.2349231 2.86707392,13.0833955 2.235,13.7070258 L1.615,14.3370258 C1.20921324,14.7403806 1.08740325,15.3489629 1.30668299,15.8774271 C1.52596274,16.4058912 2.04285308,16.7494526 2.615,16.7470258 L6.615,16.7470258 C6.71276622,18.545101 8.19926882,19.9529742 10,19.9529742 C11.8007312,19.9529742 13.2872338,18.545101 13.385,16.7470258 L17.385,16.7470258 C17.9571469,16.7494526 18.4740373,16.4058912 18.693317,15.8774271 C18.9125967,15.3489629 18.7907868,14.7403806 18.385,14.3370258 L18.375,14.3370258 Z M10.015,18.6470274 C8.94833302,18.6483599 8.06833256,17.8123595 8.015,16.7470258 L12.015,16.7470258 C11.9616674,17.8123595 11.081667,18.6483599 10.015,18.6470274 Z M17.365,15.3470258 L3.955,15.3470258 L2.645,15.3470258 L3.235,14.6970258 C4.13236357,13.8118396 4.64288093,12.60745 4.655,11.3470258 L4.655,8.59702581 C4.64967366,7.17557304 5.21130129,5.81065745 6.21548832,4.80459344 C7.21967534,3.79852943 8.58353976,3.23435392 10.005,3.23701636 L10.175,3.23701636 C13.1243953,3.42341503 15.4082247,5.89206304 15.365,8.84702581 L15.365,11.3470258 C15.3625763,12.6044696 15.8630617,13.8106755 16.755,14.6970258 L17.385,15.3470258 L17.365,15.3470258 Z"/>
</svg>
