<svg xmlns="http://www.w3.org/2000/svg" width="20" height="20" viewBox="0 0 20 20">
  <path fill="#264966" d="M17.9281123,16.9149335 L13.6281123,8.31493352 C13.5126177,8.07144529 13.2676018,7.91587966 12.9981123,7.91493352 C12.7331059,7.91301194 12.4911257,8.06522527 12.3781123,8.30493352 L10.9981123,11.0649335 C10.0890844,10.7570394 9.23250923,10.3118902 8.45811228,9.74493352 C9.87189526,8.34911797 10.8602308,6.58051755 11.3081123,4.64493352 L12.0481123,4.64493352 C12.4347116,4.64493352 12.7481123,4.33153284 12.7481123,3.94493352 C12.7481123,3.55833419 12.4347116,3.24493352 12.0481123,3.24493352 L8.04811228,3.24493352 L8.04811228,2.61493352 C7.97088824,2.29649721 7.68577863,2.07226552 7.35811228,2.07226552 C7.03044593,2.07226552 6.74533632,2.29649721 6.66811228,2.61493352 L6.66811228,3.24493352 L2.69811228,3.24493352 C2.31151296,3.24493353 1.99811229,3.5583342 1.99811229,3.94493352 C1.99811229,4.33153284 2.31151296,4.64493351 2.69811228,4.64493352 L9.85811228,4.64493352 C9.42262773,6.23544607 8.56176137,7.67713793 7.36811228,8.81493352 C6.48984715,7.95669603 5.78383085,6.93840329 5.28811228,5.81493352 C5.12242685,5.45870986 4.69933594,5.30424809 4.34311228,5.46993352 C3.98688861,5.63561894 3.83242685,6.05870986 3.99811229,6.41493352 C4.55329966,7.65406961 5.33310834,8.77970649 6.29811228,9.73493352 C5.45071203,10.3697473 4.50008821,10.8535167 3.48811228,11.1649335 C3.15644899,11.2652802 2.9481132,11.59318 2.9981682,11.9360567 C3.0482232,12.2789335 3.34160372,12.5335901 3.68811228,12.5349335 L3.88811228,12.5349335 C5.15694231,12.1539021 6.34380484,11.5401246 7.38811228,10.7249335 C8.29394629,11.4260663 9.3069608,11.9764709 10.3881123,12.3549335 L8.06811228,16.9149335 C7.901501,17.2631575 8.04364141,17.6806949 8.38811228,17.8549335 C8.48518993,17.8993447 8.59147456,17.919916 8.69811228,17.9149335 C8.96533935,17.9158434 9.20976972,17.7645294 9.32811228,17.5249335 L10.8881123,14.4149335 L15.1181123,14.4149335 L16.6681123,17.5249335 C16.7751697,17.7532277 16.9967356,17.9063024 17.2481411,17.9256621 C17.4995465,17.9450217 17.7419365,17.8276742 17.8826844,17.6184625 C18.0234323,17.4092508 18.0407853,17.140509 17.9281123,16.9149335 Z M11.5881123,13.0149335 L12.9981123,10.1849335 L14.4181123,13.0149335 L11.5881123,13.0149335 Z"/>
</svg>
