<svg xmlns="http://www.w3.org/2000/svg" width="20" height="20" viewBox="0 0 20 20">
  <path fill="#264966" d="M10.1558173,1.99997403 C7.7001777,2.00149291 5.37414626,3.1021387 3.81581729,4.99997403 C2.29782445,6.82263459 1.68412393,9.23333846 2.14581729,11.559974 C2.77193806,14.8031853 5.34053157,17.3200087 8.59581729,17.879974 C9.05841251,17.9582283 9.52665263,17.9983632 9.99581729,18.0000002 C11.3990397,18.0035622 12.7785225,17.6379993 13.9958173,16.939974 C14.1678933,16.8463529 14.292866,16.6849107 14.3403776,16.4948641 C14.3878893,16.3048175 14.353592,16.1035578 14.2458173,15.939974 C14.1544699,15.765523 13.9929379,15.6384135 13.8018975,15.5906534 C13.610857,15.5428932 13.4085125,15.5790337 13.2458173,15.689974 C11.4100536,16.7262869 9.19047814,16.8263254 7.26893165,15.9593584 C5.34738516,15.0923913 3.95362913,13.362083 3.51581729,11.299974 C3.13020643,9.36815026 3.63730278,7.36548715 4.89581729,5.84997403 C6.19433281,4.28752442 8.12425086,3.38860822 10.1558173,3.39997403 C13.5870893,3.51181557 16.3711381,6.21359857 16.5858173,9.63997403 C16.6131009,10.1720526 16.5795503,10.7055066 16.4858173,11.229974 C16.3674237,11.7939164 15.8815411,12.2056813 15.3058173,12.229974 C14.9660431,12.2567998 14.6310752,12.1366483 14.3858173,11.899974 C14.1335464,11.6692276 13.9916753,11.3418327 13.9958173,10.999974 L13.9958173,7.08997403 C14.0206701,6.70889755 13.7318938,6.37982684 13.3508173,6.35497403 C12.9697408,6.33012121 12.6406701,6.61889755 12.6158173,6.99997403 C11.3913062,5.9197906 9.63316299,5.69233502 8.17407574,6.42533433 C6.71498849,7.15833364 5.84791475,8.70461524 5.98351618,10.3318325 C6.11911762,11.9590497 7.23016799,13.3404876 8.79045392,13.8218725 C10.3507399,14.3032573 12.046985,13.7879361 13.0758173,12.519974 C13.178938,12.6736023 13.2997678,12.8145704 13.4358173,12.939974 C14.1485655,13.5902964 15.1567229,13.8054932 16.0728826,13.5028703 C16.9890422,13.2002474 17.6706632,12.4268885 17.8558173,11.479974 C17.9787965,10.8512101 18.0257999,10.2099498 17.9958173,9.56997403 C17.7290324,5.40086933 14.3317089,2.12054548 10.1558173,1.99997403 Z M9.99581729,12.599974 C8.55987694,12.599974 7.39581729,11.4359144 7.39581729,9.99997403 C7.39581729,8.56403368 8.55987694,7.39997403 9.99581729,7.39997403 C11.4317576,7.39997403 12.5958173,8.56403368 12.5958173,9.99997403 C12.5958173,10.6895369 12.3218895,11.3508571 11.8342949,11.8384517 C11.3467003,12.3260462 10.6853802,12.599974 9.99581729,12.599974 Z"/>
</svg>
