<svg xmlns="http://www.w3.org/2000/svg" width="20" height="20" viewBox="0 0 20 20">
  <path fill="#264966" d="M1.88,11.88 C1.02311879,12.7379473 0.766967219,14.0273683 1.2308521,15.1476941 C1.69473697,16.2680198 2.78743338,16.9989335 4,17 C4.7953814,16.9992998 5.55793057,16.6827699 6.12,16.12 L6.12,16.12 C7.22143544,14.937961 7.1889355,13.0959611 6.0464872,11.9535128 C4.90403889,10.8110645 3.06203902,10.7785646 1.88,11.88 Z M5.13,15.13 L5.13,15.13 C4.59208113,15.6638273 3.75216675,15.7438139 3.12315608,15.3211157 C2.49414541,14.8984174 2.25088534,14.0905322 2.54192424,13.3908003 C2.83296313,12.6910685 3.57740054,12.2939955 4.32064087,12.4420565 C5.0638812,12.5901175 5.599325,13.2421558 5.60000063,14 C5.60037791,14.4242888 5.43116082,14.8311299 5.13,15.13 L5.13,15.13 Z M9.68,8.34 C11.81916,10.4819059 12.5661227,13.647789 11.61,16.52 C11.5221179,16.7884071 11.2815471,16.9777088 11,17 C10.9273625,17.0142863 10.8526375,17.0142863 10.78,17 C10.413159,16.8807561 10.2119171,16.4872163 10.33,16.12 C11.1494325,13.7468341 10.5469789,11.1141916 8.7769981,9.33358661 C7.00701727,7.55298165 4.37802725,6.93478414 2,7.74 C1.63018782,7.85867365 1.23365139,7.6581777 1.11,7.29 C0.991917112,6.92278368 1.19315905,6.5292439 1.56,6.41 C4.41345331,5.45683012 7.56059154,6.20485682 9.68,8.34 Z M16.77,16.43 C16.7117432,16.7598723 16.4249769,17.00025 16.09,17.0000002 L16,17.0000002 C15.8167237,16.9660503 15.6545559,16.8604067 15.5494367,16.7064822 C15.4443176,16.5525577 15.4049288,16.3630651 15.44,16.18 C16.1479814,12.3986444 14.9385509,8.51199146 12.21,5.8 C9.4986576,3.07189794 5.60549273,1.87544361 1.83,2.61 C1.57507991,2.68236481 1.30115032,2.60457754 1.12230663,2.40903765 C0.943462932,2.21349775 0.890368569,1.93373131 0.985138062,1.68626482 C1.07990756,1.43879833 1.30629231,1.2660609 1.57,1.24 C5.80275093,0.410835535 10.1699775,1.75026842 13.21,4.81 C16.245567,7.8560941 17.5783203,12.2062606 16.77,16.43 Z" transform="translate(1 1)"/>
</svg>
