<svg xmlns="http://www.w3.org/2000/svg" width="20" height="20" viewBox="0 0 20 20">
  <path fill="#264966" d="M12.7949772,7.18 C13.0695328,7.45679776 13.0695328,7.90320224 12.7949772,8.18 L8.1449772,12.82 C7.86883482,13.0961424 7.42111957,13.0961424 7.1449772,12.82 C6.86883482,12.5438576 6.86883482,12.0961424 7.1449772,11.82 L11.8049772,7.18 C12.0805619,6.91199214 12.5193925,6.91199214 12.7949772,7.18 Z M10.9749772,14 L9.3049772,15.58 C7.94911813,16.935859 5.75083628,16.935859 4.39497724,15.58 C3.03911819,14.2241409 3.03911817,12.0258591 4.3949772,10.67 L6.0249772,9 C6.30111956,8.72385762 6.30111955,8.27614238 6.02497718,8.00000001 C5.74883482,7.72385765 5.30111958,7.72385764 5.0249772,8 L3.3949772,9.68 C1.50651238,11.5923588 1.50651238,14.6676412 3.3949772,16.58 C5.30510598,18.4738889 8.38484842,18.4738889 10.2949772,16.58 L11.9749772,14.94 C12.2511196,14.6638576 12.2511196,14.2161424 11.9749772,13.94 C11.6988348,13.6638576 11.2511196,13.6638576 10.9749772,13.94 L10.9749772,14 Z M16.5549772,3.42 C14.6448484,1.52611108 11.565106,1.52611108 9.6549772,3.42 L8.0249772,5.06 C7.74883482,5.33614237 7.74883482,5.78385763 8.0249772,6.06 C8.30111957,6.33614237 8.74883482,6.33614237 9.0249772,6.06 L10.6449772,4.42 C12.0008363,3.06414097 14.1991181,3.06414099 15.5549772,4.42000004 C16.9108362,5.77585908 16.9108362,7.97414093 15.5549772,9.33 L13.9749772,11 C13.7004216,11.2767978 13.7004216,11.7232022 13.9749772,12 C14.1076752,12.1316377 14.288101,12.203808 14.4749772,12.2 C14.6590588,12.2046071 14.8366953,12.1321024 14.9649772,12 L16.6049772,10.37 C17.5210872,9.44232324 18.0306236,8.18837723 18.0212442,6.88463117 C18.0118647,5.58088511 17.4843396,4.33439998 16.5549772,3.42 Z"/>
</svg>
