<svg xmlns="http://www.w3.org/2000/svg" width="20" height="20" viewBox="0 0 20 20">
  <path fill="#264966" d="M14.9599879,3.4149399 L14.2899879,3.4149399 L14.2899879,3.1949399 C14.2899879,2.80834057 13.9765872,2.4949399 13.5899879,2.4949399 C13.2033886,2.4949399 12.8899879,2.80834057 12.8899879,3.1949399 L12.8899879,3.4149399 L7.1099879,3.4149399 L7.1099879,3.1949399 C7.1099879,2.80834057 6.79658723,2.4949399 6.4099879,2.4949399 C6.02338858,2.4949399 5.7099879,2.80834057 5.7099879,3.1949399 L5.7099879,3.4149399 L5.0399879,3.4149399 C3.63718464,3.4149399 2.4999879,4.55213663 2.4999879,5.9549399 L2.4999879,14.9549399 C2.4999879,16.3577432 3.63718464,17.4949399 5.0399879,17.4949399 L8.3399879,17.4949399 C8.72658723,17.4949399 9.0399879,17.1815392 9.0399879,16.7949399 C9.0399879,16.4083406 8.72658723,16.0949399 8.3399879,16.0949399 L5.0399879,16.0949399 C4.41038329,16.0949399 3.8999879,15.5845445 3.8999879,14.9549399 L3.8999879,8.1649399 L16.0999879,8.1649399 L16.0999879,8.3349399 C16.0999879,8.72153922 16.4133886,9.0349399 16.7999879,9.0349399 C17.1865872,9.0349399 17.4999879,8.72153922 17.4999879,8.3349399 L17.4999879,5.9549399 C17.4999879,4.55213663 16.3627912,3.4149399 14.9599879,3.4149399 Z M3.8999879,6.7649399 L3.8999879,5.9549399 C3.8999879,5.32533528 4.41038329,4.8149399 5.0399879,4.8149399 L5.7099879,4.8149399 L5.7099879,5.0949399 C5.7099879,5.48153922 6.02338858,5.7949399 6.4099879,5.7949399 C6.79658723,5.7949399 7.1099879,5.48153922 7.1099879,5.0949399 L7.1099879,4.8149399 L12.8899879,4.8149399 L12.8899879,5.0949399 C12.8899879,5.48153922 13.2033886,5.7949399 13.5899879,5.7949399 C13.9765872,5.7949399 14.2899879,5.48153922 14.2899879,5.0949399 L14.2899879,4.8149399 L14.9599879,4.8149399 C15.5895925,4.8149399 16.0999879,5.32533528 16.0999879,5.9549399 L16.0999879,6.7649399 L3.8999879,6.7649399 Z M13.3499879,9.2049399 C11.6705606,9.2049399 10.1566912,10.2171452 9.51494042,11.769122 C8.87318962,13.3210988 9.2300827,15.1068696 10.4190487,16.2929707 C11.6080148,17.4790718 13.3946415,17.8316556 14.9450655,17.1861624 C16.4954895,16.5406693 17.5040347,15.0243623 17.5,13.3449399 C17.4944745,11.0568644 15.63807,9.2049399 13.3499879,9.2049399 Z M13.3499879,16.0949399 C11.8312048,16.0949399 10.5999879,14.863723 10.5999879,13.3449399 C10.5999879,11.8261568 11.8312048,10.5949399 13.3499879,10.5949399 C14.868771,10.5949399 16.0999879,11.8261568 16.0999879,13.3449399 C16.0999879,14.0742852 15.8102566,14.7737585 15.2945316,15.2894835 C14.7788065,15.8052086 14.0793332,16.0949399 13.3499879,16.0949399 L13.3499879,16.0949399 Z M15.2799879,13.3449399 C15.2799879,13.7315392 14.9665872,14.0449399 14.5799879,14.0449399 L13.3499879,14.0449399 C12.9633886,14.0449399 12.6499879,13.7315392 12.6499879,13.3449399 L12.6499879,11.8349399 C12.6499879,11.4483406 12.9633886,11.1349399 13.3499879,11.1349399 C13.7365872,11.1349399 14.0499879,11.4483406 14.0499879,11.8349399 L14.0499879,12.6449399 L14.5799879,12.6449399 C14.9665872,12.6449399 15.2799879,12.9583406 15.2799879,13.3449399 L15.2799879,13.3449399 Z"/>
</svg>
