<svg xmlns="http://www.w3.org/2000/svg" width="20" height="20" viewBox="0 0 20 20">
  <path fill="#264966" d="M16.92,4.82 C15.3869227,1.86118246 12.3324056,0.00365690574 9,0.00365690574 C5.66759438,0.00365690574 2.61307728,1.86118246 1.08,4.82 C0.969741939,5.02263954 0.969741939,5.26736046 1.08,5.47 C2.61307728,8.42881754 5.66759438,10.2863431 9,10.2863431 C12.3324056,10.2863431 15.3869227,8.42881754 16.92,5.47 C17.0302581,5.26736046 17.0302581,5.02263954 16.92,4.82 Z M9,8.89001792 C6.32030168,8.8958491 3.84163482,7.46966232 2.5,5.15 C3.84253547,2.83015285 6.3196843,1.40166187 9,1.40166187 C11.6803157,1.40166187 14.1574645,2.83015285 15.5,5.15 C14.156855,7.46814819 11.6791482,8.89378257 9,8.89001792 Z M9,2.35 C7.4536027,2.35 6.2,3.6036027 6.2,5.15 C6.2,6.6963973 7.4536027,7.95 9,7.95 C10.5463973,7.95 11.8,6.6963973 11.8,5.15 C11.8,4.40739383 11.5050008,3.69520287 10.979899,3.17010101 C10.4547971,2.64499915 9.74260617,2.35 9,2.35 Z M9,6.55 C8.22680135,6.55 7.6,5.92319865 7.6,5.15 C7.6,4.37680135 8.22680135,3.75 9,3.75 C9.77319865,3.75 10.4,4.37680135 10.4,5.15 C10.4,5.52130309 10.2525004,5.87739856 9.98994949,6.13994949 C9.72739856,6.40250042 9.37130309,6.55 9,6.55 L9,6.55 Z" transform="translate(1 4.5)"/>
</svg>
