<svg xmlns="http://www.w3.org/2000/svg" width="20" height="20" viewBox="0 0 20 20">
  <path fill="#264966" d="M14.96,2.5 L5.04,2.5 C3.63719674,2.5 2.5,3.63719674 2.5,5.04 L2.5,14.96 C2.5,16.3628033 3.63719674,17.5 5.04,17.5 L14.96,17.5 C16.3628033,17.5 17.5,16.3628033 17.5,14.96 L17.5,5.04 C17.5,3.63719674 16.3628033,2.5 14.96,2.5 Z M16.1,14.96 C16.1,15.5896046 15.5896046,16.1 14.96,16.1 L5.04,16.1 C4.41039539,16.1 3.9,15.5896046 3.9,14.96 L3.9,5.04 C3.9,4.41039539 4.41039539,3.9 5.04,3.9 L14.96,3.9 C15.5896046,3.9 16.1,4.41039539 16.1,5.04 L16.1,14.96 Z M13.57,7.5 C13.8445556,7.77679776 13.8445556,8.22320224 13.57,8.5 L9.5,12.5 C9.36913372,12.6282222 9.19321279,12.7000267 9.01,12.7 C8.82028824,12.7031363 8.63700685,12.6312612 8.5,12.5 L6.43,10.41 C6.25136721,10.2313672 6.18160316,9.97100423 6.2469873,9.7269873 C6.31237144,9.48297036 6.50297036,9.29237144 6.7469873,9.2269873 C6.99100423,9.16160316 7.25136721,9.23136721 7.43,9.41 L9.03,11.03 L12.58,7.5 C12.8555847,7.23199214 13.2944153,7.23199214 13.57,7.5 Z"/>
</svg>
