<svg xmlns="http://www.w3.org/2000/svg" width="20" height="20" viewBox="0 0 20 20">
  <path fill="#264966" d="M9.625,7.40223065 L5.995,7.40223065 C5.60840068,7.40223065 5.295,7.08882998 5.295,6.70223065 C5.295,6.31563133 5.60840068,6.00223065 5.995,6.00223065 L10.995,6.00223065 L9.625,7.40223065 Z M5.295,9.70223065 C5.295,10.08883 5.60840068,10.4022307 5.995,10.4022307 L6.625,10.4022307 L7.995,9.00223065 L5.995,9.00223065 C5.60840068,9.00223065 5.295,9.31563133 5.295,9.70223065 L5.295,9.70223065 Z M4.185,12.8422307 C3.70967128,12.4818848 3.41998751,11.9281855 3.395,11.3322307 L3.395,4.67223065 C3.395,3.97082902 3.96359837,3.40223065 4.665,3.40223065 L13.665,3.40223065 L14.995,2.00223065 L4.665,2.00223065 C3.19267707,2.00771422 2.00048357,3.19990772 1.995,4.67223065 L1.995,11.3322307 C2.01493417,12.3004664 2.44801959,13.2139491 3.185,13.8422307 L4.185,12.8422307 Z M17.635,3.35223065 C17.8711503,3.75200738 17.995489,4.20791594 17.995,4.67223065 L17.995,17.3022307 C17.9970234,17.5807857 17.8313533,17.8332353 17.575,17.9422307 C17.4870812,17.9821752 17.3915666,18.0026426 17.295,18.0022504 C17.1212584,18.0035452 16.9534164,17.9392652 16.825,17.8222307 L12.995,14.4022307 L6.585,14.4022307 L3.195,17.7922307 C3.06332072,17.9265704 2.88311326,18.0022504 2.695,18.0022504 C2.50965043,18.0030218 2.3322544,17.9269949 2.205,17.7922307 C2.06803562,17.6619776 1.99049974,17.4812415 1.99049974,17.2922307 C1.99049974,17.1032198 2.06803562,16.9224837 2.205,16.7922307 L4.615,14.3822307 L4.615,14.3822307 L5.995,13.0022307 L5.995,13.0022307 L8.595,10.4022307 L8.595,10.4022307 L9.995,9.00223065 L9.995,9.00223065 L11.595,7.40223065 L11.595,7.40223065 L12.995,6.00223065 L12.995,6.00223065 L15.545,3.45223065 L15.545,3.45223065 L16.645,2.36223065 L16.645,2.36223065 L16.795,2.21223065 C16.9252531,2.07526627 17.1059892,1.99773039 17.295,1.99773039 C17.4840108,1.99773039 17.6647469,2.07526627 17.795,2.21223065 C17.9319644,2.34248371 18.0095003,2.52321981 18.0095003,2.71223065 C18.0095003,2.9012415 17.9319644,3.0819776 17.795,3.21223065 L17.635,3.35223065 Z M16.555,4.43223065 L14.555,6.38223065 C14.6682799,6.59456729 14.660886,6.85096526 14.535558,7.05642103 C14.41023,7.2618768 14.1856378,7.38578382 13.945,7.38223065 L13.535,7.38223065 L11.535,9.38223065 C11.6529541,9.5851844 11.6578902,9.83462338 11.5480577,10.0420847 C11.4382252,10.2495461 11.2291576,10.385689 10.995,10.4022307 L10.585,10.4022307 L7.995,13.0022307 L13.295,13.0022307 C13.4687416,13.0009161 13.6365836,13.0651961 13.765,13.1822307 L16.595,15.7322307 L16.595,4.67223065 C16.5865497,4.591493 16.5731917,4.51134473 16.555,4.43223065 Z"/>
</svg>
