<svg xmlns="http://www.w3.org/2000/svg" width="20" height="20" viewBox="0 0 20 20">
  <g fill="none" fill-rule="evenodd">
    <rect width="20" height="20"/>
    <g stroke="#264966" stroke-linecap="round" stroke-linejoin="round" stroke-width="1.4" transform="translate(2 3.5)">
      <path d="M1.7486,7.9385 C0.2756,6.2135 0.3546,3.6165 1.9856,1.9855 C3.6996,0.2715 6.4806,0.2715 8.1946,1.9855 C9.00539895,2.79579815 9.43272017,3.84511152 9.47668928,4.90748084 C9.52051749,5.96644621 9.18344627,7.038384 8.4656,7.8995 C8.3806,8.0005 5.0906,12.2995 5.0906,12.2995 C5.0906,12.2995 1.8226,8.0265 1.7486,7.9385 Z"/>
      <path d="M6.3902,4.9405 C6.3902,5.6585 5.8082,6.2405 5.0902,6.2405 C4.3722,6.2405 3.7902,5.6585 3.7902,4.9405 C3.7902,4.2215 4.3722,3.6395 5.0902,3.6395 C5.8082,3.6395 6.3902,4.2215 6.3902,4.9405 Z"/>
    </g>
    <path stroke="#FFF" stroke-linejoin="round" stroke-width="1.68" d="M16.9602146,9.16311619 L10.2698211,15.8528321 L7.66794741,16.2251852 L8.03936585,13.6226027 L14.7297593,6.93288681 C15.1400698,6.52261794 15.806095,6.52261794 16.2164054,6.93288681 L16.9602146,7.67662067 C17.370525,8.08688955 17.370525,8.75187511 16.9602146,9.16311619 Z M13.6679474,7.82518516 L16.0679474,10.2251852"/>
    <path stroke="#264966" stroke-linejoin="round" stroke-width="1.4" d="M16.4508718,9.97885644 L10.8755439,15.5536197 L8.70731582,15.8639139 L9.01683119,13.6950952 L14.5921591,8.12033196 C14.9340844,7.77844123 15.4891055,7.77844123 15.8310308,8.12033196 L16.4508718,8.74011017 C16.7927972,9.0820009 16.7927972,9.63615554 16.4508718,9.97885644 Z M13.7073158,8.86391391 L15.7073158,10.8639139"/>
  </g>
</svg>
