<svg xmlns="http://www.w3.org/2000/svg" width="20" height="20" viewBox="0 0 20 20">
  <path fill="#264966" d="M18,10 C18,10.3865993 17.6865993,10.7 17.3,10.7 L2.7,10.7 C2.31340068,10.7 2,10.3865993 2,10 C2,9.61340068 2.31340068,9.3 2.7,9.3 L17.3,9.3 C17.4856515,9.3 17.6636993,9.37374979 17.7949747,9.50502525 C17.9262502,9.63630072 18,9.81434846 18,10 Z M6.7,6.7 L13.3,6.7 C14.7911688,6.7 16,5.49116882 16,4 L16,2.7 C16,2.31340068 15.6865993,2 15.3,2 C14.9134007,2 14.6,2.31340068 14.6,2.7 L14.6,4 C14.6,4.71797017 14.0179702,5.3 13.3,5.3 L6.7,5.3 C6.35521856,5.3 6.02455848,5.16303611 5.78076118,4.91923882 C5.53696389,4.67544152 5.4,4.34478144 5.4,4 L5.4,2.7 C5.39999999,2.31340068 5.08659932,2 4.7,2 C4.31340068,2 4,2.31340068 4,2.7 L4,4 C4,5.49116882 5.20883118,6.7 6.7,6.7 Z M13.3,13.3 L6.7,13.3 C5.20883118,13.3 4,14.5088312 4,16 L4,17.3 C4,17.6865993 4.31340068,18 4.7,18 C5.08659932,18 5.39999999,17.6865993 5.4,17.3 L5.4,16 C5.4,15.2820298 5.98202983,14.7 6.7,14.7 L13.3,14.7 C14.0179702,14.7 14.6,15.2820298 14.6,16 L14.6,17.3 C14.6,17.6865993 14.9134007,18 15.3,18 C15.6865993,18 16,17.6865993 16,17.3 L16,16 C16,14.5088312 14.7911688,13.3 13.3,13.3 Z"/>
</svg>
