<svg xmlns="http://www.w3.org/2000/svg" width="20" height="20" viewBox="0 0 20 20">
  <path fill="#264966" d="M16.7,6.60179489 C16.7095335,6.54217358 16.7095335,6.48141619 16.7,6.42179489 L16.7,6.36179489 C16.6725353,6.28313513 16.6281604,6.21145259 16.57,6.15179489 L12.56,2.21179489 C12.5026194,2.15309713 12.4347926,2.10561838 12.36,2.07179489 L12.29,2.00179489 C12.2300955,1.99700852 12.1699045,1.99700852 12.11,2.00179489 L5.96,2.00179489 C4.48767707,2.00727846 3.29548357,3.19947195 3.29,4.67179489 L3.29,15.3317949 C3.29548357,16.8041178 4.48767707,17.9963113 5.96,18.0017949 L14.04,18.0017949 C15.5123229,17.9963113 16.7045164,16.8041178 16.71,15.3317949 L16.71,6.65179489 C16.71,6.65179489 16.7,6.62179489 16.7,6.60179489 Z M12.77,4.39179489 L14.29,6.00179489 L12.77,6.00179489 L12.77,4.39179489 Z M14.04,16.6017949 L5.96,16.6017949 C5.25859837,16.6017949 4.69,16.0331965 4.69,15.3317949 L4.69,4.67179489 C4.69,3.97039325 5.25859837,3.40179489 5.96,3.40179489 L11.36,3.40179489 L11.36,6.65179489 C11.3653763,7.03614524 11.6756496,7.34641857 12.06,7.35179489 L15.29,7.35179489 L15.29,15.3517949 C15.2792814,16.037662 14.7258671,16.5910763 14.04,16.6017949 Z M12.92,11.0017949 C12.92,11.3883942 12.6065993,11.7017949 12.22,11.7017949 L10.7,11.7017949 L10.7,13.2217949 C10.7,13.6083942 10.3865993,13.9217949 10,13.9217949 C9.61340068,13.9217949 9.3,13.6083942 9.3,13.2217949 L9.3,11.7017949 L7.78,11.7017949 C7.39340068,11.7017949 7.08,11.3883942 7.08,11.0017949 C7.08,10.6151956 7.39340068,10.3017949 7.78,10.3017949 L9.29,10.3017949 L9.29,8.78179489 C9.29,8.39519556 9.60340068,8.08179489 9.99,8.08179489 C10.3765993,8.08179489 10.69,8.39519556 10.69,8.78179489 L10.69,10.3017949 L12.22,10.3017949 C12.6065993,10.3017949 12.92,10.6151956 12.92,11.0017949 L12.92,11.0017949 Z"/>
</svg>
