<svg xmlns="http://www.w3.org/2000/svg" width="20" height="20" viewBox="0 0 20 20">
  <path fill="#264966" d="M14.93,2.55 L5.07,2.55 C3.67824243,2.55 2.55,3.67824243 2.55,5.07 L2.55,14.93 C2.55,16.3217576 3.67824243,17.45 5.07,17.45 L8.89,17.45 C9.27659932,17.45 9.59,17.1365993 9.59,16.75 L9.59,12.84 C9.59,12.6543485 9.51625021,12.4763007 9.38497475,12.3450253 C9.25369928,12.2137498 9.07565154,12.14 8.89,12.14 L7.55,12.14 L7.55,11.32 L8.89,11.32 C9.27659932,11.32 9.59,11.0065993 9.59,10.62 L9.59,8.98 C9.59,7.73183647 10.6018365,6.72 11.85,6.72 L12.49,6.72 L12.49,7.55 L11.85,7.55 C11.0608299,7.55536785 10.4208671,8.19088649 10.41,8.98 L10.41,10.62 C10.41,11.0065993 10.7234007,11.32 11.11,11.32 L12.4,11.32 L12.31,12.14 L11.11,12.14 C10.7234007,12.14 10.41,12.4534007 10.41,12.84 L10.41,16.75 C10.41,17.1365993 10.7234007,17.45 11.11,17.45 L14.93,17.45 C16.3217576,17.45 17.45,16.3217576 17.45,14.93 L17.45,5.07 C17.45,3.67824243 16.3217576,2.55 14.93,2.55 Z M16.05,14.93 C16.05,15.5485589 15.5485589,16.05 14.93,16.05 L11.81,16.05 L11.81,13.55 L12.93,13.55 C13.2856981,13.5478586 13.5849171,13.282836 13.63,12.93 L13.88,10.71 C13.9061706,10.5106548 13.8440912,10.3098097 13.71,10.16 C13.5755617,10.0152397 13.3875472,9.93207944 13.19,9.93 L11.83,9.93 L11.83,8.93 L13.17,8.93 C13.5565993,8.93 13.87,8.61659932 13.87,8.23 L13.87,6.02 C13.8646237,5.63564964 13.5543504,5.32537631 13.17,5.32 L11.85,5.32 C9.83091794,5.32549413 8.19549413,6.96091794 8.19,8.98 L8.19,9.92 L6.81,9.92 C6.42340068,9.92 6.11,10.2334007 6.11,10.62 L6.11,12.84 C6.11,13.2265993 6.42340068,13.54 6.81,13.54 L8.19,13.54 L8.19,16.05 L5.07,16.05 C4.45144108,16.05 3.95,15.5485589 3.95,14.93 L3.95,5.07 C3.95,4.45144108 4.45144108,3.95 5.07,3.95 L14.93,3.95 C15.5485589,3.95 16.05,4.45144108 16.05,5.07 L16.05,14.93 Z"/>
</svg>
