<svg xmlns="http://www.w3.org/2000/svg" width="20" height="20" viewBox="0 0 20 20">
  <path fill="#264966" d="M17.4934087,7.50225013 C17.5109854,7.40974432 17.5109854,7.31475595 17.4934087,7.22225013 C17.4580155,7.13454561 17.40333,7.05593516 17.3334087,6.99225013 L13.0034087,2.71225013 C12.8731557,2.57528575 12.6924196,2.49774987 12.5034087,2.49774987 C12.3143979,2.49774987 12.1336618,2.57528575 12.0034087,2.71225013 C11.7288532,2.9890479 11.7288532,3.43545237 12.0034087,3.71225013 L15.0934087,6.79225013 L6.92340874,6.79225013 C4.48295626,6.79772193 2.50439566,8.77181625 2.49340874,11.2122501 L2.49340874,16.8022501 C2.49340874,17.1888495 2.80680942,17.5022501 3.19340874,17.5022501 C3.58000807,17.5022501 3.89340874,17.1888495 3.89340874,16.8022501 L3.89340874,11.2122501 C3.89340874,9.55539588 5.23655449,8.21225013 6.89340874,8.21225013 L15.0734087,8.21225013 L12.0134087,11.2722501 C11.7441732,11.5512176 11.7441732,11.9932826 12.0134087,12.2722501 C12.2902065,12.5468057 12.736611,12.5468057 13.0134087,12.2722501 L17.2934087,7.98225013 C17.3778958,7.92310889 17.4465722,7.84413098 17.4934087,7.75225013 C17.5072088,7.66948813 17.5072088,7.58501214 17.4934087,7.50225013 Z"/>
</svg>
