<svg xmlns="http://www.w3.org/2000/svg" width="20" height="20" viewBox="0 0 20 20">
  <path fill="#264966" d="M15.684981,19.9989771 C14.4270216,19.9967525 13.1741705,19.8388866 11.954981,19.5289771 C6.25313804,18.0154371 1.93947286,13.343274 0.884981011,7.53897707 C0.710046788,6.60921404 0.622996366,5.66505177 0.62494783,4.71897707 C0.623905247,3.5683838 0.751362232,2.42127094 1.00498101,1.29897707 C1.18353348,0.545773663 1.85098412,0.0101651212 2.62498101,-0.00102293178 L5.78498101,-0.00102293178 C7.26994381,0.0154167753 8.46507201,1.22392328 8.46498101,2.70897707 L8.46498101,4.70897707 C8.46264238,4.9891397 8.29347726,5.24092033 8.03498101,5.34897707 L5.85498101,6.34897707 C5.73066903,6.39397764 5.6525278,6.51735854 5.66498101,6.64897707 C6.35648388,10.4644634 9.12461715,13.5723396 12.834981,14.6989771 C12.9810687,14.7466391 13.1389735,14.672073 13.194981,14.5289771 L14.044981,12.5289771 C14.1544445,12.2671293 14.4111789,12.0972896 14.694981,12.0989771 L16.694981,12.0989771 C18.1838489,12.1154495 19.3805664,13.3300285 19.375033,14.8189771 L19.375033,18.1789771 C19.3814754,19.0147962 18.7794142,19.7313338 17.954981,19.8689771 C17.2025207,19.967861 16.4438106,20.0113114 15.684981,19.9989771 Z M2.62498101,1.39897707 C2.4914826,1.39382162 2.3717361,1.4805346 2.33498101,1.60897707 C2.12013012,2.63148262 2.01619567,3.67417981 2.02498101,4.71897707 C2.02173608,5.57807589 2.10211501,6.43545114 2.26498101,7.27897707 C3.20399008,12.5412852 7.10160797,16.7857911 12.264981,18.1689771 C14.034281,18.6279756 15.8788233,18.7198624 17.684981,18.4389771 C17.8252451,18.4095483 17.922977,18.2820719 17.914981,18.1389771 L17.914981,14.7789771 C17.9203263,14.4341838 17.788463,14.101393 17.5484077,13.853836 C17.3083524,13.606279 16.9797756,13.4642408 16.634981,13.4589771 L15.154981,13.4589771 L14.484981,15.0489771 C14.1621816,15.8355443 13.3079144,16.2626779 12.484981,16.0489771 C8.24059892,14.7809042 5.07259312,11.2299526 4.29498101,6.86897707 C4.14711177,6.08804564 4.56338853,5.30960811 5.29498101,4.99897707 L7.06498101,4.22897707 L7.06498101,2.70897707 C7.0705586,1.99485587 6.49903981,1.4099421 5.78498101,1.39897707 L2.62498101,1.39897707 Z"/>
</svg>
