<svg xmlns="http://www.w3.org/2000/svg" width="20" height="20" viewBox="0 0 20 20">
  <path fill="#264966" d="M14.8,2.5 L5.2,2.5 C3.70883118,2.5 2.5,3.70883118 2.5,5.2 L2.5,14.8 C2.5,15.5160845 2.78446347,16.2028401 3.29081169,16.7091883 C3.79715991,17.2155365 4.48391548,17.5 5.2,17.5 L14.8,17.5 C15.5160845,17.5 16.2028401,17.2155365 16.7091883,16.7091883 C17.2155365,16.2028401 17.5,15.5160845 17.5,14.8 L17.5,5.2 C17.5,3.70883118 16.2911688,2.5 14.8,2.5 Z M3.9,14.8 L3.9,5.2 C3.9,4.85521856 4.03696389,4.52455848 4.28076118,4.28076118 C4.52455848,4.03696389 4.85521856,3.9 5.2,3.9 L6.2,3.9 L6.2,16.1 L5.2,16.1 C4.48202983,16.1 3.9,15.5179702 3.9,14.8 Z M16.1,14.8 C16.1,15.5179702 15.5179702,16.1 14.8,16.1 L7.58,16.1 L7.58,3.9 L14.8,3.9 C15.1447814,3.9 15.4754415,4.03696389 15.7192388,4.28076118 C15.9630361,4.52455848 16.1,4.85521856 16.1,5.2 L16.1,14.8 Z M13.31,8.5 L11.85,10 L13.31,11.5 C13.5845556,11.7767978 13.5845556,12.2232022 13.31,12.5 C13.1820578,12.6337757 13.0051081,12.7096113 12.82,12.71 C12.6318867,12.71 12.4516793,12.6343397 12.32,12.5 L10.36,10.5 C10.0907645,10.2210325 10.0907645,9.77896751 10.36,9.5 L12.36,7.55 C12.4916623,7.41562276 12.6718719,7.33989795 12.86,7.33989795 C13.0481281,7.33989795 13.2283377,7.41562276 13.36,7.55 C13.5893071,7.8326695 13.5677127,8.24296313 13.31,8.5 L13.31,8.5 Z"/>
</svg>
