<svg xmlns="http://www.w3.org/2000/svg" width="20" height="20" viewBox="0 0 20 20">
  <path fill="#264966" d="M17.3439806,3.7692867 L16.2139806,2.6392867 C15.3120641,1.80087529 13.9158972,1.80087529 13.0139806,2.6392867 L11.4939806,4.1092867 L11.4939806,4.1092867 L2.78398064,12.8292867 C2.67536985,12.9371644 2.60511636,13.0776714 2.58398064,13.2292867 L2.01398064,17.1892867 C1.98134151,17.4067216 2.05584932,17.6265197 2.21398064,17.7792867 C2.34360353,17.9166243 2.52516648,17.9928807 2.71398064,17.9894082 L2.81398064,17.9894082 L6.81398064,17.4292867 C6.96346804,17.4105993 7.10157166,17.339777 7.20398064,17.2292867 L17.3439806,6.9892867 L17.3439806,6.9892867 C18.2100885,6.09067607 18.2100885,4.66789732 17.3439806,3.7692867 Z M6.34398064,16.0592867 L3.54398064,16.4592867 L3.94398064,13.6592867 L11.9439806,5.5992867 L14.3939806,7.9892867 L6.34398064,16.0592867 Z M16.3439806,6.0592867 L16.3439806,6.0592867 L15.3439806,7.0592867 L13.0139806,4.6092867 L14.0139806,3.6092867 C14.369428,3.27023857 14.9285333,3.27023857 15.2839806,3.6092867 L16.4139806,4.7392867 C16.5810225,4.91838942 16.6688206,5.15726271 16.6575291,5.40191201 C16.6462376,5.64656131 16.5368098,5.87633186 16.3539806,6.0392867 L16.3439806,6.0592867 Z"/>
</svg>
