<svg xmlns="http://www.w3.org/2000/svg" width="20" height="20" viewBox="0 0 20 20">
  <path fill="#264966" d="M15.2897593,5.39002247 L13.7197593,5.39002247 L13.7197593,4.71002247 C13.7197653,4.12215729 13.4855544,3.55851435 13.0689337,3.14377029 C12.652313,2.72902623 12.0876184,2.49736244 11.4997593,2.49999981 L8.49975926,2.49999981 C7.9119001,2.49736244 7.34720552,2.72902623 6.9305848,3.14377029 C6.51396407,3.55851435 6.27975324,4.12215729 6.27975926,4.71002247 L6.27975926,5.39002247 L4.70975926,5.39002247 C3.48920996,5.39002247 2.49966847,6.37947317 2.49966847,7.60002247 L2.49966847,9.60002247 C2.4939422,10.2394923 2.76792392,10.8495582 3.24975926,11.2700225 L3.24975926,14.5000225 C3.24975926,16.1568767 4.59290501,17.5000225 6.24975926,17.5000225 L13.8097593,17.5000225 C15.4666135,17.5000225 16.8097593,16.1568767 16.8097593,14.5000225 L16.8097593,11.2700225 C17.2640909,10.8432788 17.515052,10.2431545 17.4997593,9.62002247 L17.4997593,7.62002247 C17.5050951,7.03043643 17.2746142,6.46316259 16.859579,6.04437148 C16.4445439,5.62558036 15.8793694,5.38999832 15.2897593,5.39002247 Z M7.67975926,4.71002247 C7.67975926,4.49345322 7.76645314,4.28589647 7.92052732,4.13370124 C8.0746015,3.98150602 8.28320651,3.89734877 8.49975926,3.90002247 L11.4997593,3.90002247 C11.9471099,3.90002247 12.3097593,4.26267182 12.3097593,4.71002247 L12.3097593,5.39002247 L7.67975926,5.39002247 L7.67975926,4.71002247 Z M15.3397914,14.5000225 C15.3424226,14.9154901 15.1792424,15.3148561 14.8863965,15.6095792 C14.5935506,15.9043023 14.1952354,16.0700225 13.7797593,16.0700225 L6.21975926,16.0700225 C5.80428308,16.0700225 5.40596795,15.9043023 5.11312204,15.6095792 C4.82027612,15.3148561 4.65709595,14.9154901 4.65972716,14.5000225 L4.65972716,11.8300225 L7.31975926,11.8300225 C7.42073778,12.6824647 8.14136696,13.3258836 8.99975926,13.3300225 L10.9997593,13.3300225 C11.8581516,13.3258836 12.5787807,12.6824647 12.6797593,11.8300225 L15.3397914,11.8300225 L15.3397914,14.5000225 Z M8.69975926,11.6400225 L8.69975926,10.6400225 C8.69693566,10.5596251 8.72763505,10.4816674 8.7845196,10.4247828 C8.84140416,10.3678983 8.91936192,10.3371989 8.99975926,10.3400225 L10.9997593,10.3400225 C11.0801566,10.3371989 11.1581144,10.3678983 11.2149989,10.4247828 C11.2718835,10.4816674 11.3025829,10.5596251 11.2997593,10.6400225 L11.2997593,11.6400225 C11.2997593,11.8057079 11.1654447,11.9400225 10.9997593,11.9400225 L8.99975926,11.9400225 C8.83407383,11.9400225 8.69975926,11.8057079 8.69975926,11.6400225 Z M16.0997593,9.64002247 C16.0997593,10.0890193 15.7387227,10.4545469 15.2897593,10.4600225 L12.6797593,10.4600225 C12.5925479,9.59743369 11.8667452,8.94075506 10.9997593,8.94002247 L8.99975926,8.94002247 C8.13964376,8.93965887 7.41645856,9.58535993 7.31975926,10.4400225 L4.70975926,10.4400225 C4.26079582,10.4345469 3.89975926,10.0690193 3.89975926,9.62002247 L3.89975926,7.62002247 C3.89975926,7.17267182 4.26240861,6.81002247 4.70975926,6.81002247 L15.2897593,6.81002247 C15.5045846,6.81002247 15.7106113,6.89536151 15.8625157,7.04726597 C16.0144202,7.19917044 16.0997593,7.40519711 16.0997593,7.62002247 L16.0997593,9.64002247 Z"/>
</svg>
