<svg xmlns="http://www.w3.org/2000/svg" width="20" height="20" viewBox="0 0 20 20">
  <path fill="#264966" d="M10.2386177,16.7700082 C10.2386177,17.4480117 9.68992505,17.9981406 9.01192394,17.9999676 C8.33392283,18.0017856 7.78230304,17.4546143 7.77861729,16.7766207 C7.7749683,16.0986271 8.32063652,15.5455204 8.99861767,15.5400082 C9.32656314,15.5373419 9.64199361,15.6657528 9.87483069,15.8967121 C10.1076678,16.1276715 10.2386177,16.4420519 10.2386177,16.7700082 Z M13.9986177,15.5400082 C13.3193074,15.5400082 12.7686177,16.0906979 12.7686177,16.7700082 C12.7686177,17.4493184 13.3193074,18.0000082 13.9986177,18.0000082 C14.6779279,18.0000082 15.2286177,17.4493184 15.2286177,16.7700082 C15.2286177,16.0906979 14.6779279,15.5400082 13.9986177,15.5400082 Z M17.9286177,7.69000819 L16.4286177,13.1400082 C16.2268942,13.8749364 15.5607162,14.3858091 14.7986177,14.3900082 L8.20861767,14.3900082 C7.38985476,14.3892875 6.68792124,13.8050434 6.53861767,13 L4.79861767,3.64000819 C4.77041236,3.50176873 4.64969299,3.40186305 4.50861767,3.40000819 L2.69861767,3.40000819 C2.31201835,3.40000819 1.99861767,3.08660751 1.99861767,2.70000819 C1.99861767,2.51435665 2.07236746,2.33630891 2.20364292,2.20503344 C2.33491839,2.07375798 2.51296613,1.99999997 2.69861767,1.99999997 L4.50861767,1.99999997 C5.32654343,1.99746792 6.02743137,2.58435601 6.16861767,3.39000819 L6.57861767,5.54000819 L16.2986177,5.54000819 C16.8288009,5.53921779 17.3286256,5.78727893 17.6486177,6.21000819 C17.9752243,6.62911558 18.0828998,7.17863206 17.9386177,7.69000819 L17.9286177,7.69000819 Z M16.5786177,7.32000819 C16.6016605,7.23022486 16.5833175,7.13484101 16.5286177,7.06000819 C16.4742413,6.98178417 16.3838227,6.93657485 16.2886177,6.94000819 L6.83861767,6.94000819 L7.91861767,12.7400082 C7.93871663,12.8843815 8.06285867,12.9914005 8.20861767,12.9900216 L14.8086177,12.9900216 C14.9412864,12.9893559 15.0565954,12.898756 15.0886177,12.7700082 L16.5786177,7.32000819 Z"/>
</svg>
