<svg xmlns="http://www.w3.org/2000/svg" width="20" height="20" viewBox="0 0 20 20">
  <path fill="#264966" d="M8,4 C8,4.38659932 7.68659932,4.7 7.3,4.7 L4.7,4.7 L4.7,7.3 C4.7,7.68659932 4.38659932,8 4,8 C3.61340068,8 3.3,7.68659932 3.3,7.3 L3.3,4.7 L0.7,4.7 C0.313400675,4.7 0,4.38659932 0,4 C0,3.61340068 0.313400675,3.3 0.7,3.3 L3.3,3.3 L3.3,0.7 C3.3,0.313400675 3.61340068,0 4,0 C4.38659932,0 4.7,0.313400675 4.7,0.7 L4.7,3.3 L7.3,3.3 C7.68659932,3.3 8,3.61340068 8,4 Z" transform="translate(6 6)"/>
</svg>
