<svg xmlns="http://www.w3.org/2000/svg" width="20" height="20" viewBox="0 0 20 20">
  <path fill="#264966" d="M1,1.55 C0.991973824,1.14514346 1.1458249,0.753819687 1.42742614,0.462831746 C1.70902737,0.171843804 2.09509793,0.00524855584 2.5,0 C2.90490207,0.00524855584 3.29097263,0.171843804 3.57257386,0.462831746 C3.8541751,0.753819687 4.00802618,1.14514346 4,1.55 C4.00533937,1.9531393 3.85029552,2.34188452 3.56898349,2.6306982 C3.28767146,2.91951189 2.90314022,3.08473043 2.5,3.09 C2.09685978,3.08473043 1.71232854,2.91951189 1.43101651,2.6306982 C1.14970448,2.34188452 0.994660632,1.9531393 1,1.55 Z M2.5,12.91 C1.69480257,12.974832 1.07439855,13.6471968 1.07439855,14.455 C1.07439855,15.2628032 1.69480257,15.935168 2.5,16 C3.30519743,15.935168 3.92560145,15.2628032 3.92560145,14.455 C3.92560145,13.6471968 3.30519743,12.974832 2.5,12.91 L2.5,12.91 Z M2.5,6.45 C1.64395864,6.45 0.95,7.14395864 0.95,8 C0.95,8.85604136 1.64395864,9.55 2.5,9.55 C3.35604134,9.55 4.04999995,8.85604134 4.04999995,8 C4.04999995,7.14395866 3.35604134,6.45 2.5,6.45 L2.5,6.45 Z" transform="translate(7.5 2)"/>
</svg>
