<svg xmlns="http://www.w3.org/2000/svg" width="20" height="20" viewBox="0 0 20 20">
  <path fill="#264966" d="M8.42,17.4946831 C8.27773956,17.4950784 8.13855027,17.4533216 8.02,17.3746831 C7.83042658,17.2426918 7.7181756,17.0256732 7.72,16.7946831 L7.72,12.3346831 L2.92,7.49468308 C2.65590833,7.22823338 2.50536539,6.86979782 2.5,6.49468308 L2.5,3.94468308 C2.5,3.14387019 3.14918711,2.49468308 3.95,2.49468308 L16.05,2.49468308 C16.8508129,2.49468308 17.5,3.14387019 17.5,3.94468308 L17.5,6.49468308 C17.4946346,6.86979782 17.3440917,7.22823338 17.08,7.49468308 L12.3,12.2946831 L12.3,15.5846831 C12.3012936,15.8743231 12.1215584,16.1339406 11.85,16.2346831 L8.67,17.4946831 C8.58726975,17.5088615 8.50273025,17.5088615 8.42,17.4946831 Z M3.95,3.89468308 L3.9,6.49468308 L8.69,11.3046831 C8.95516221,11.5712891 9.10890419,11.9288285 9.12,12.3046831 L9.12,15.7446831 L10.88,15.0746831 L10.88,12.3346831 C10.8910958,11.9588285 11.0448378,11.6012891 11.31,11.3346831 L16.08,6.49468308 L16.08,3.91468308 L3.95,3.89468308 Z"/>
</svg>
