<svg xmlns="http://www.w3.org/2000/svg" width="20" height="20" viewBox="0 0 20 20">
  <path fill="#264966" d="M8.09420065,8.25408381 C9.36459072,8.270314 10.5187616,7.51700531 11.0152723,6.34754754 C11.511783,5.17808977 11.2521201,3.82451688 10.3580958,2.9218127 C9.46407141,2.01910851 8.11307047,1.74638 6.93887018,2.23156869 C5.7646699,2.71675738 5.00024523,3.86359622 5.00418537,5.13408381 C5.00952207,6.84333762 6.38507803,8.23224849 8.09420065,8.25408381 L8.09420065,8.25408381 Z M8.09420065,3.40408381 C9.04965326,3.40408381 9.82420065,4.17863119 9.82420065,5.13408381 C9.82420065,6.08953643 9.04965326,6.86408381 8.09420065,6.86408381 C7.13874803,6.86408381 6.36420065,6.08953643 6.36420065,5.13408381 C6.36420065,4.17863119 7.13874803,3.40408381 8.09420065,3.40408381 L8.09420065,3.40408381 Z M4.25420065,12.2340838 L3.53420065,16.6040838 L8.23420065,16.6040838 C8.62079997,16.6040838 8.93420065,16.9174845 8.93420065,17.3040838 C8.93420065,17.6906831 8.62079997,18.0041311 8.23420065,18.0041311 L2.70420065,18.0041311 C2.49852496,18.0065235 2.30312627,17.9143543 2.17420065,17.7540838 C2.03303379,17.600257 1.97035736,17.3901066 2.00420065,17.1840838 L2.87420065,12.0040838 C3.1241435,10.5104183 4.41977955,9.4180193 5.93420065,9.42405869 L10.2542006,9.42405869 C10.6257029,9.42347681 10.9329724,9.7131881 10.9542006,10.0840838 C10.9775625,10.454583 10.7035947,10.7771581 10.3342006,10.8140838 L5.93420065,10.8140838 C5.10063221,10.8083124 4.38735751,11.4111993 4.25420065,12.2340838 Z M14.1342006,11.6940838 C15.3105672,11.6940838 16.2642006,10.7404503 16.2642006,9.56408381 C16.2642006,8.3877173 15.3105672,7.43408381 14.1342006,7.43408381 C12.9578341,7.43408381 12.0042006,8.3877173 12.0042006,9.56408381 C12.0042006,10.7404503 12.9578341,11.6940838 14.1342006,11.6940838 L14.1342006,11.6940838 Z M14.1342006,8.83408381 C14.5373685,8.83408381 14.8642006,9.16091594 14.8642006,9.56408381 C14.8642006,9.96725168 14.5373685,10.2940838 14.1342006,10.2940838 C13.7310328,10.2940838 13.4042006,9.96725168 13.4042006,9.56408381 C13.4042006,9.16091594 13.7310328,8.83408381 14.1342006,8.83408381 L14.1342006,8.83408381 Z M17.4842006,14.1340838 C17.3172042,13.1162005 16.435685,12.3702996 15.4042006,12.3740695 L12.8542006,12.3740695 C11.8227163,12.3702996 10.9411971,13.1162005 10.7742006,14.1340838 L10.2642006,17.1340838 C10.2129016,17.3534555 10.2687601,17.5841549 10.414726,17.7557634 C10.5606919,17.927372 10.7794403,18.0195213 11.0042006,18.0040838 L17.3042006,18.0040838 C17.5098763,18.0065235 17.705275,17.9143543 17.8342006,17.7540838 C17.9717857,17.5984899 18.0307167,17.3885483 17.9942006,17.1840838 L17.4842006,14.1340838 Z M11.7842006,16.6040838 L12.1542006,14.3640838 C12.2126627,14.0231594 12.5083,13.7739794 12.8542006,13.7740838 L15.4042006,13.7740838 C15.7501013,13.7739794 16.0457386,14.0231594 16.1042006,14.3640838 L16.4742006,16.6040838 L11.7842006,16.6040838 Z"/>
</svg>
