<svg xmlns="http://www.w3.org/2000/svg" width="20" height="20" viewBox="0 0 20 20">
  <path fill="#264966" d="M10,18 C9.61340068,18 9.3,17.6865993 9.3,17.3 L9.3,2.7 C9.3,2.31340068 9.61340068,2 10,2 C10.3865993,2 10.7,2.31340068 10.7,2.7 L10.7,17.3 C10.7,17.6865993 10.3865993,18 10,18 L10,18 Z M5.4,17.3 L5.4,2.7 C5.4,2.51434846 5.32625021,2.33630072 5.19497475,2.20502525 C5.06369928,2.07374979 4.88565154,2 4.7,2 C4.31340068,2 4,2.31340068 4,2.7 L4,17.3 C4,17.6865993 4.31340068,18 4.7,18 C5.08659932,18 5.4,17.6865993 5.4,17.3 L5.4,17.3 Z M14.6,2.7 L14.6,17.3 C14.6,17.6865993 14.9134007,18 15.3,18 C15.6865993,18 16,17.6865993 16,17.3 L16,2.7 C16,2.31340068 15.6865993,2 15.3,2 C14.9134007,2 14.6,2.31340068 14.6,2.7 L14.6,2.7 Z"/>
</svg>
