<svg xmlns="http://www.w3.org/2000/svg" width="20" height="20" viewBox="0 0 20 20">
  <path fill="#264966" d="M17.88,16.7300316 C17.88,17.1166309 17.5665993,17.4300316 17.18,17.4300316 L14.35,17.4300316 C13.1223411,17.4256731 11.9236927,17.80309 10.92,18.5100316 L10.4,18.8700316 C10.1615394,19.0434862 9.83846059,19.0434862 9.6,18.8700316 L9.08,18.5100316 C8.07571655,17.8042851 6.87745839,17.426991 5.65,17.4300316 L2.82,17.4300316 C2.43340068,17.4300316 2.12,17.1166309 2.12,16.7300316 C2.12,16.3434323 2.43340068,16.0300316 2.82,16.0300316 L5.65,16.0300316 C7.16309751,16.0286336 8.6399582,16.4929893 9.88,17.3600316 L10,17.4500316 L10.11,17.3700316 C11.3469259,16.4844452 12.8287448,16.0056499 14.35,16.0000313 L17.18,16.0000313 C17.3709682,15.9998561 17.5537178,16.0777097 17.6858908,16.2155473 C17.8180638,16.3533848 17.8881844,16.5392388 17.88,16.7300316 L17.88,16.7300316 Z M19,1.7000316 L19,13.8400316 C19,14.2266309 18.6865993,14.5400316 18.3,14.5400316 L13.79,14.5400316 C12.5824241,14.5277249 11.3986239,14.8759015 10.39,15.5400316 L10.31,15.5400316 L10.24,15.5400316 C10.0869697,15.6068195 9.91303028,15.6068195 9.76,15.5400316 L9.69,15.5400316 L9.61,15.5400316 C8.60137612,14.8759015 7.41757587,14.5277249 6.21,14.5400316 L1.7,14.5400316 C1.31340068,14.5400316 1,14.2266309 1,13.8400316 L1,1.7000316 C1,1.31343228 1.31340068,1.0000316 1.7,1.0000316 L6.21,1.0000316 C7.53964196,0.991508432 8.84764728,1.33662857 10,2.0000316 C11.1523527,1.33662857 12.460358,0.991508432 13.79,1.0000316 L18.3,1.0000316 C18.4856515,1.0000316 18.6636993,1.07378139 18.7949747,1.20505686 C18.9262502,1.33633232 19,1.51438006 19,1.7000316 Z M6.21,13.1400316 C7.27600739,13.1403272 8.32960506,13.3687771 9.3,13.8100316 L9.3,3.2500316 C8.36397673,2.69680909 7.29728262,2.4033819 6.21,2.4000316 L2.4,2.4000316 L2.4,13.1400316 L6.21,13.1400316 Z M17.6,2.4000316 L13.79,2.4000316 C12.7027174,2.4033819 11.6360233,2.69680909 10.7,3.2500316 L10.7,13.8100316 C11.6703949,13.3687771 12.7239926,13.1403272 13.79,13.1400316 L17.6,13.1400316 L17.6,2.4000316 Z"/>
</svg>
