<svg xmlns="http://www.w3.org/2000/svg" width="20" height="20" viewBox="0 0 20 20">
  <path fill="#264966" d="M18,8.12048263 C17.9140128,7.86695607 17.6944616,7.68207083 17.43,7.64048263 L12.72,6.96048263 L10.63,2.72048263 C10.4990362,2.49675351 10.2592417,2.35926441 10,2.35926441 C9.74075832,2.35926441 9.50096385,2.49675351 9.37,2.72048263 L7.28,6.96048263 L2.6,7.64048263 C2.32420487,7.6714727 2.0907746,7.85821691 2,8.12048263 C1.91906495,8.37209072 1.98896908,8.64782367 2.18,8.83048263 L5.6,12.1304826 L4.8,16.8004826 C4.75214694,17.0624202 4.86158025,17.3281868 5.08,17.4804826 C5.29194587,17.6402815 5.57824541,17.6598911 5.81,17.5304826 L10,15.3604826 L14.19,17.5604826 C14.2872961,17.6160297 14.3980107,17.6437084 14.51,17.6404826 C14.6572398,17.6433867 14.8013347,17.5976981 14.92,17.5104826 C15.1384198,17.3581868 15.2478531,17.0924202 15.2,16.8304826 L14.4,12.1604826 L17.79,8.86048263 C18.0037537,8.6793325 18.0867391,8.38690776 18,8.12048263 Z M13.16,11.3604826 C12.9968589,11.5225636 12.922324,11.7536219 12.96,11.9804826 L13.58,15.6004826 L10.33,13.9204826 C10.1229546,13.8137118 9.87704544,13.8137118 9.67,13.9204826 L6.42,15.6304826 L7,12.0104826 C7.05856113,11.7806918 6.99853469,11.5368345 6.84,11.3604826 L4.2,8.82048263 L7.84,8.29048263 C8.06984428,8.26231992 8.2695587,8.11912845 8.37,7.91048263 L10,4.61048263 L11.63,7.91048263 C11.7304413,8.11912845 11.9301557,8.26231992 12.16,8.29048263 L15.8,8.82048263 L13.16,11.3604826 Z"/>
</svg>
