<svg xmlns="http://www.w3.org/2000/svg" width="20" height="20" viewBox="0 0 20 20">
  <path fill="#264966" d="M10.2,1.51 L4.31,7.4 C4.20785021,7.51117068 4.1416297,7.65058228 4.12,7.8 L3.73,10.48 C3.70519006,10.696668 3.77855037,10.913081 3.93,11.07 C4.06332891,11.2006734 4.24333186,11.2726746 4.43,11.2700719 L4.53,11.2700719 L7.2,10.88 C7.34941772,10.8583703 7.48882932,10.7921498 7.6,10.69 L14.48,3.81 C14.8109011,3.47380772 14.9974793,3.02171436 15.000002,2.55 C15.0007163,2.07764073 14.8136508,1.62436652 14.48,1.29 L13.71,0.52 C13.0122904,-0.171444623 11.8877096,-0.171444623 11.19,0.52 L10.19,1.52 L10.2,1.51 Z M6.77,9.51 L5.25,9.73 L5.47,8.21 L10.7,3 L12,4.3 L6.77,9.51 Z M12.77,1.51 L13.54,2.28 C13.6120742,2.35115201 13.6518316,2.44873821 13.65,2.55 C13.6486061,2.65063354 13.609328,2.74704334 13.54,2.82 L13.04,3.31 L11.69,2 L12.18,1.5 C12.2526929,1.42924312 12.3506596,1.39048914 12.4520858,1.3923674 C12.553512,1.39424566 12.6499766,1.43660023 12.72,1.51 L12.77,1.51 Z M15,8.13 L15,12.46 C15,13.8628033 13.8628033,15 12.46,15 L2.54,15 C1.13719674,15 0,13.8628033 0,12.46 L0,2.54 C0,1.13719674 1.13719674,0 2.54,0 L6.87,0 C7.25659932,0 7.57,0.313400675 7.57,0.7 C7.57,1.08659932 7.25659932,1.4 6.87,1.4 L2.54,1.4 C1.91039539,1.4 1.4,1.91039539 1.4,2.54 L1.4,12.46 C1.4,13.0896046 1.91039539,13.6 2.54,13.6 L12.46,13.6 C13.0896046,13.6 13.6,13.0896046 13.6,12.46 L13.6,8.13 C13.6,7.74340068 13.9134007,7.43 14.3,7.43 C14.6865993,7.43 15,7.74340068 15,8.13 Z" transform="translate(2.5 2.5)"/>
</svg>
