<svg xmlns="http://www.w3.org/2000/svg" width="20" height="20" viewBox="0 0 20 20">
  <path fill="#264966" d="M16.8,6.23 L6.93,6.23 C6.54340068,6.23 6.23,6.54340068 6.23,6.93 L6.23,16.8 C6.23,17.1865993 6.54340068,17.5 6.93,17.5 L16.8,17.5 C17.1865993,17.5 17.5,17.1865993 17.5,16.8 L17.5,6.93 C17.5,6.54340068 17.1865993,6.23 16.8,6.23 Z M16.1,16.1 L7.63,16.1 L7.63,7.63 L16.1,7.63 L16.1,16.1 Z M4.83,14.01 C4.83,14.3965993 4.51659932,14.71 4.13,14.71 L3.2,14.71 C2.81340068,14.71 2.5,14.3965993 2.5,14.01 L2.5,3.2 C2.5,2.81340068 2.81340068,2.5 3.2,2.5 L13.07,2.5 C13.4565993,2.5 13.77,2.81340068 13.77,3.2 L13.77,4.13 C13.77,4.51659932 13.4565993,4.83 13.07,4.83 C12.6834007,4.83 12.37,4.51659932 12.37,4.13 L12.37,3.9 L3.9,3.9 L3.9,13.31 L4.13,13.31 C4.51659932,13.31 4.83,13.6234007 4.83,14.01 Z"/>
</svg>
