<svg xmlns="http://www.w3.org/2000/svg" width="20" height="20" viewBox="0 0 20 20">
  <path fill="#264966" d="M2.075,10.3222441 C1.96464638,10.1231817 1.96464638,9.8813064 2.075,9.68224406 C3.59912872,6.71327945 6.6576805,4.84802628 9.995,4.85223693 C10.6484624,4.86157089 11.298965,4.94204545 11.935,5.09224406 L10.715,6.30224406 C10.475,6.30224406 10.235,6.30224406 9.995,6.30224406 C7.32460448,6.29222238 4.84974532,7.70098836 3.495,10.0022441 C3.91989104,10.7282186 4.46419298,11.377324 5.105,11.9222441 L4.105,12.9222441 C3.2706736,12.1911148 2.58193686,11.308989 2.075,10.3222441 L2.075,10.3222441 Z M17.915,9.68224406 C18.0253536,9.8813064 18.0253536,10.1231817 17.915,10.3222441 C16.3908713,13.2912087 13.3323195,15.1564619 9.995,15.1522441 C8.8112629,15.1490454 7.64065956,14.9040354 6.555,14.4322441 L3.195,17.7922441 C3.06332072,17.9265838 2.88311326,18.0022502 2.695,18.0022502 C2.50965043,18.0030352 2.3322544,17.9270083 2.205,17.7922441 C2.06803562,17.661991 1.99049974,17.4812549 1.99049974,17.2922441 C1.99049974,17.1032332 2.06803562,16.9224971 2.205,16.7922441 L5.205,13.7922441 L5.205,13.7922441 L6.205,12.7922441 L6.205,12.7922441 L7.595,11.4122441 L7.595,11.4122441 L8.645,10.3622441 L8.645,10.3622441 L10.355,8.65224406 L10.355,8.65224406 L11.405,7.60224406 L11.405,7.60224406 L12.355,6.65224406 L12.355,6.65224406 L13.445,5.55224406 L13.445,5.55224406 L16.795,2.21224406 C16.9252531,2.07527968 17.1059892,1.9977438 17.295,1.9977438 C17.4840108,1.9977438 17.6647469,2.07527968 17.795,2.21224406 C17.9319644,2.34249712 18.0095003,2.52323322 18.0095003,2.71224406 C18.0095003,2.90125491 17.9319644,3.08199101 17.795,3.21224406 L14.795,6.21224406 C16.1251151,7.07082722 17.2021364,8.26866818 17.915,9.68224406 Z M11.335,9.68224406 L9.645,11.3422441 C9.75851585,11.3775678 9.87620037,11.3977423 9.995,11.4022441 C10.7681986,11.4022441 11.395,10.7754427 11.395,10.0022441 C11.3904982,9.88344444 11.3703238,9.76575992 11.335,9.65224406 L11.335,9.68224406 Z M16.495,10.0022441 C15.8276845,8.86114676 14.8680194,7.91874177 13.715,7.27224406 L12.405,8.58224406 C12.6616706,9.01132247 12.7965051,9.50225827 12.795,10.0022441 C12.7895146,11.5463635 11.5391195,12.7967587 9.995,12.8022441 C9.4950142,12.8037491 9.0040784,12.6689147 8.575,12.4122441 L7.635,13.3522441 C8.39496478,13.6119085 9.19191567,13.7469849 9.995,13.7522441 C12.6756581,13.7519009 15.1528862,12.3227308 16.495,10.0022441 Z M9.805,7.22224406 C8.41648444,7.31867452 7.31143046,8.4237285 7.215,9.81224406 L9.805,7.22224406 Z"/>
</svg>
