<svg xmlns="http://www.w3.org/2000/svg" width="20" height="20" viewBox="0 0 20 20">
  <path fill="#264966" d="M10,3.7 C10,2.76111593 9.23888407,2 8.3,2 L3.7,2 C2.76111593,2 2,2.76111593 2,3.7 L2,8.3 C2,9.23888407 2.76111593,10 3.7,10 L8.3,10 C9.23888407,10 10,9.23888407 10,8.3 L10,3.7 Z M8.6,8.3 C8.6,8.46568542 8.46568542,8.6 8.3,8.6 L3.7,8.6 C3.53431458,8.6 3.4,8.46568542 3.4,8.3 L3.4,3.7 C3.4,3.53431458 3.53431458,3.4 3.7,3.4 L8.3,3.4 C8.46568542,3.4 8.6,3.53431458 8.6,3.7 L8.6,8.3 Z M16.3,10 L11.7,10 C10.7611159,10 10,10.7611159 10,11.7 L10,16.3 C10,17.2388841 10.7611159,18 11.7,18 L16.3,18 C17.2388841,18 18,17.2388841 18,16.3 L18,11.7 C18,10.7611159 17.2388841,10 16.3,10 Z M16.6,16.3 C16.6,16.4656854 16.4656854,16.6 16.3,16.6 L11.7,16.6 C11.6204351,16.6 11.5441289,16.5683929 11.487868,16.512132 C11.4316071,16.4558711 11.4,16.3795649 11.4,16.3 L11.4,11.7 C11.4,11.6204351 11.4316071,11.5441289 11.487868,11.487868 C11.5441289,11.4316071 11.6204351,11.4 11.7,11.4 L16.3,11.4 C16.3795649,11.4 16.4558711,11.4316071 16.512132,11.487868 C16.5683929,11.5441289 16.6,11.6204351 16.6,11.7 L16.6,16.3 Z M16.3,2 L13.7,2 C12.7611159,2 12,2.76111593 12,3.7 L12,6.3 C12,7.23888407 12.7611159,8 13.7,8 L16.3,8 C17.2388841,8 18,7.23888407 18,6.3 L18,3.7 C18,2.76111593 17.2388841,2 16.3,2 Z M16.6,6.3 C16.6,6.46568542 16.4656854,6.6 16.3,6.6 L13.7,6.6 C13.5343146,6.6 13.4,6.46568542 13.4,6.3 L13.4,3.7 C13.4,3.62043505 13.4316071,3.54412888 13.487868,3.48786797 C13.5441289,3.43160705 13.6204351,3.4 13.7,3.4 L16.3,3.4 C16.4656854,3.4 16.6,3.53431458 16.6,3.7 L16.6,6.3 Z M6.3,12 L3.7,12 C2.76111593,12 2,12.7611159 2,13.7 L2,16.3 C2,17.2388841 2.76111593,18 3.7,18 L6.3,18 C7.23888407,18 8,17.2388841 8,16.3 L8,13.7 C8,12.7611159 7.23888407,12 6.3,12 Z M6.6,16.3 C6.6,16.4656854 6.46568542,16.6 6.3,16.6 L3.7,16.6 C3.53431458,16.6 3.4,16.4656854 3.4,16.3 L3.4,13.7 C3.4,13.5343146 3.53431458,13.4 3.7,13.4 L6.3,13.4 C6.37956495,13.4 6.45587112,13.4316071 6.51213203,13.487868 C6.56839295,13.5441289 6.6,13.6204351 6.6,13.7 L6.6,16.3 Z"/>
</svg>
