<svg xmlns="http://www.w3.org/2000/svg" width="20" height="20" viewBox="0 0 20 20">
  <path fill="#264966" d="M17.3156489,8.14974283 C16.7658475,7.51374024 15.9663508,7.14867323 15.1256489,7.14974283 L12.7456489,7.14974283 L13.5456489,5.14974283 C13.6525664,4.87568205 13.706848,4.58391835 13.7056489,4.28974283 C13.7149253,3.18643041 12.9361348,2.23337083 11.8530936,2.02264336 C10.7700523,1.81191588 9.69073148,2.40344248 9.28564886,3.42974283 L8.08564886,6.40974283 C7.87745635,6.93413963 7.43173154,7.32786321 6.88564886,7.46974283 L6.60564886,7.53974283 C6.30340946,7.01210101 5.7437035,6.68465398 5.13564886,6.67974283 L2.71564886,6.67974283 C2.32904954,6.67974283 2.01564886,6.99314351 2.01564886,7.37974283 L2.01564886,17.3197428 C2.01564886,17.7063422 2.32904954,18.0197428 2.71564886,18.0197428 L5.13564886,18.0197428 C5.80033756,18.0161438 6.40195925,17.6254804 6.67564886,17.0197428 L13.6756489,17.0197428 C15.6756489,17.0197428 17.0756489,16.0697428 17.3256489,14.4697428 L17.9456489,10.4697428 C18.0825195,9.64161571 17.8525911,8.79489491 17.3156489,8.14974283 L17.3156489,8.14974283 Z M5.13564886,16.6197428 L3.41564886,16.6197428 L3.41564886,8.07974278 L5.13564886,8.07974278 C5.21432603,8.07974278 5.28964558,8.1116184 5.34432796,8.16818637 C5.39901034,8.22475435 5.42836188,8.30111245 5.42564886,8.37974283 L5.42564886,8.37974283 L5.42564886,16.3197428 C5.42573881,16.4816003 5.29741641,16.6143476 5.13564886,16.6197428 L5.13564886,16.6197428 Z M16.5956489,10.2597428 L15.9856489,14.2597428 C15.8056489,15.3797428 14.6556489,15.6197428 13.7156489,15.6197428 L6.82564886,15.6197428 L6.82564886,8.92974283 L7.22564886,8.82974283 C8.20364664,8.57606772 9.00439595,7.87541208 9.38564886,6.93974283 L10.5856489,3.93974283 C10.6765013,3.72064021 10.8484659,3.54509303 11.0656489,3.44974283 C11.2833807,3.35973777 11.527917,3.35973777 11.7456489,3.44974283 C12.0868563,3.58290811 12.3099029,3.9134951 12.3056489,4.27974283 C12.3043706,4.39233635 12.2840854,4.50390537 12.2456489,4.60974283 L11.0656489,7.57974283 C10.9783454,7.79441661 11.0046398,8.03857964 11.1356489,8.22974283 C11.2653855,8.42311508 11.4827879,8.53931288 11.7156489,8.53974283 L15.1256489,8.53974283 C15.5606171,8.54036786 15.9735949,8.7310305 16.2561935,9.06169013 C16.5387922,9.39234976 16.6627921,9.8299876 16.5956489,10.2597428 L16.5956489,10.2597428 Z"/>
</svg>
