<svg xmlns="http://www.w3.org/2000/svg" width="20" height="20" viewBox="0 0 20 20">
  <path fill="#264966" d="M15.75,4.45 C15.7268657,4.40775456 15.700098,4.36760302 15.67,4.33 C15.632397,4.29990203 15.5922454,4.27313434 15.55,4.25 C12.3892511,1.38609913 7.53751325,1.50555469 4.52153397,4.52153397 C1.50555469,7.53751325 1.38609913,12.3892511 4.25,15.55 C4.27313434,15.5922454 4.29990203,15.632397 4.33,15.67 C4.36760302,15.700098 4.40775456,15.7268657 4.45,15.75 C7.61074893,18.6139009 12.4624868,18.4944453 15.478466,15.478466 C18.4944453,12.4624868 18.6139009,7.61074893 15.75,4.45 Z M10,3.39998829 C11.5083596,3.39714515 12.9711951,3.91655776 14.14,4.87 L4.87,14.14 C3.91655776,12.9711951 3.39714515,11.5083596 3.39998829,10 C3.40550688,6.35720411 6.35720411,3.40550688 10,3.39998829 Z M10,16.6000117 C8.49164038,16.6028549 7.02880486,16.0834422 5.86,15.13 L15.13,5.86 C16.0834422,7.02880486 16.6028549,8.49164038 16.6000117,10 C16.5944931,13.6427959 13.6427959,16.5944931 10,16.6000117 Z"/>
</svg>
