<svg xmlns="http://www.w3.org/2000/svg" width="20" height="20" viewBox="0 0 20 20">
  <path fill="#264966" d="M18,10.4 C18,10.7865993 17.6865993,11.1 17.3,11.1 L11.47,11.1 C11.0834007,11.1 10.77,10.7865993 10.77,10.4 C10.77,10.0134007 11.0834007,9.7 11.47,9.7 L17.3,9.7 C17.6865993,9.7 18,10.0134007 18,10.4 L18,10.4 Z M15.3,13 L11.47,13 C11.0834007,13 10.77,13.3134007 10.77,13.7 C10.77,14.0865993 11.0834007,14.4 11.47,14.4 L15.3,14.4 C15.6865993,14.4 16,14.0865993 16,13.7 C16,13.3134007 15.6865993,13 15.3,13 Z M8.16,14.1 L7.86,14.1 L7.86,5.9 L10.93,5.9 L10.93,6.2 C10.93,6.58659932 11.2434007,6.9 11.63,6.9 C12.0165993,6.9 12.33,6.58659932 12.33,6.2 L12.33,5.2 C12.33,4.81340068 12.0165993,4.5 11.63,4.5 L2.7,4.5 C2.31340068,4.5 2,4.81340068 2,5.2 L2,6.2 C2,6.58659932 2.31340068,6.9 2.7,6.9 C3.08659932,6.9 3.4,6.58659932 3.4,6.2 L3.4,5.9 L6.46,5.9 L6.46,14.1 L6.16,14.1 C5.77340068,14.1 5.46,14.4134007 5.46,14.8 C5.46,15.1865993 5.77340068,15.5 6.16,15.5 L8.16,15.5 C8.54659932,15.5 8.86,15.1865993 8.86,14.8 C8.86,14.4134007 8.54659932,14.1 8.16,14.1 Z"/>
</svg>
