<svg xmlns="http://www.w3.org/2000/svg" width="20" height="20" viewBox="0 0 20 20">
  <path fill="#264966" d="M17.5,12.41 L17.5,14.96 C17.5,16.3628033 16.3628033,17.5 14.96,17.5 L5.04,17.5 C3.63719674,17.5 2.5,16.3628033 2.5,14.96 L2.5,12.41 C2.5,12.0234007 2.81340068,11.71 3.2,11.71 C3.58659932,11.71 3.9,12.0234007 3.9,12.41 L3.9,14.96 C3.9,15.5896046 4.41039539,16.1 5.04,16.1 L14.96,16.1 C15.5896046,16.1 16.1,15.5896046 16.1,14.96 L16.1,12.41 C16.1,12.0234007 16.4134007,11.71 16.8,11.71 C17.1865993,11.71 17.5,12.0234007 17.5,12.41 Z M9.5,13.57 C9.57034291,13.6290844 9.64756965,13.6794497 9.73,13.72 C9.9037564,13.7870477 10.0962436,13.7870477 10.27,13.72 C10.3524303,13.6794497 10.4296571,13.6290844 10.5,13.57 L14.78,9.28 C14.9586328,9.10136721 15.0283969,8.84100423 14.9630127,8.59698729 C14.8976286,8.35297036 14.7070296,8.16237143 14.4630127,8.09698729 C14.2189958,8.03160315 13.9586328,8.1013672 13.78,8.28 L10.7,11.38 L10.7,3.2 C10.7,2.81340068 10.3865993,2.5 10,2.5 C9.61340068,2.5 9.3,2.81340068 9.3,3.2 L9.3,11.38 L6.21,8.29 C6.03136721,8.1113672 5.77100423,8.04160314 5.52698729,8.10698728 C5.28297035,8.17237142 5.09237142,8.36297035 5.02698728,8.60698729 C4.96160314,8.85100423 5.0313672,9.11136721 5.21,9.29 L9.5,13.57 Z"/>
</svg>
