<svg xmlns="http://www.w3.org/2000/svg" width="20" height="20" viewBox="0 0 20 20">
  <path fill="#264966" d="M16,8 C16,12.418278 12.418278,16 8,16 C7.61340068,16 7.3,15.6865993 7.3,15.3 C7.3,14.9134007 7.61340068,14.6 8,14.6 C11.0822536,14.6000363 13.7541143,12.4666936 14.4363644,9.46089547 C15.1186144,6.45509737 13.6295635,3.3773192 10.8493233,2.0466984 C8.06908313,0.716077596 4.73806041,1.48697231 2.8250742,3.90374103 C0.912087989,6.32050976 0.926586371,9.73954191 2.86,12.14 L2.86,11.14 C2.86,10.7534007 3.17340068,10.44 3.56,10.44 C3.94659932,10.44 4.26,10.7534007 4.26,11.14 L4.26,13.74 C4.26,13.74 4.26,13.81 4.26,13.84 C4.2645429,13.879871 4.2645429,13.920129 4.26,13.96 C4.24691754,14.0111246 4.22305022,14.0588593 4.19,14.1 C4.19,14.1 4.19,14.1 4.19,14.17 L4.19,14.17 C4.15476765,14.2115504 4.11445156,14.2485069 4.07,14.28 C4.04049292,14.305778 4.00663095,14.3260951 3.97,14.34 L3.85,14.34 C3.80380957,14.3494286 3.75619043,14.3494286 3.71,14.34 L1,14.34 C0.613400675,14.34 0.3,14.0265993 0.3,13.64 C0.3,13.2534007 0.613400675,12.94 1,12.94 L1.87,12.94 C0.699747135,11.5558315 0.0396845033,9.81213666 0,8 C0,3.581722 3.581722,0 8,0 C12.418278,0 16,3.581722 16,8 Z" transform="translate(2 2)"/>
</svg>
