<svg xmlns="http://www.w3.org/2000/svg" width="20" height="20" viewBox="0 0 20 20">
  <path fill="#264966" d="M7.15000007,9.97 L7.15000007,10.03 C7.15016148,10.392359 6.86219751,10.6891833 6.5,10.7 L6.42,10.7 C6.04996922,10.7 5.75,10.4000308 5.75,10.03 L5.75,9.97 C5.75,9.59996922 6.04996922,9.3 6.42,9.3 L6.5,9.3 C6.86219751,9.31081665 7.15016148,9.60764105 7.15000007,9.97 Z M14.15,12.37 L11.41,12.37 L13.25,10.22 C13.869874,9.50090332 14.0120119,8.48577177 13.6134788,7.62407857 C13.2149457,6.76238538 12.3493678,6.21332236 11.4,6.21993977 C10.1855959,6.22542117 9.20092859,7.20563293 9.19,8.42 C9.19,8.80659932 9.50340068,9.12 9.89,9.12 C10.2765993,9.12 10.59,8.80659932 10.59,8.42 C10.595475,7.97655947 10.9565257,7.6199662 11.4,7.62 C11.8061447,7.60054288 12.1836327,7.82894374 12.3548609,8.19774313 C12.5260892,8.56654253 12.456961,9.00230091 12.18,9.3 L9.36,12.62 C9.18581065,12.8275312 9.14702824,13.1169478 9.26043419,13.3630173 C9.37384014,13.6090868 9.61906566,13.7676128 9.89,13.77 L14.2,13.77 C14.5865993,13.77 14.9,13.4565993 14.9,13.07 C14.9,12.6834007 14.5865993,12.37 14.2,12.37 L14.15,12.37 Z M17.5,5.04 L17.5,14.96 C17.5,16.3628033 16.3628033,17.5 14.96,17.5 L5.04,17.5 C3.63719674,17.5 2.5,16.3628033 2.5,14.96 L2.5,5.04 C2.5,3.63719674 3.63719674,2.5 5.04,2.5 L14.96,2.5 C16.3628033,2.5 17.5,3.63719674 17.5,5.04 Z M16.1,5.04 C16.1,4.41039539 15.5896046,3.9 14.96,3.9 L5.04,3.9 C4.41039539,3.9 3.9,4.41039539 3.9,5.04 L3.9,14.96 C3.9,15.5896046 4.41039539,16.1 5.04,16.1 L14.96,16.1 C15.5896046,16.1 16.1,15.5896046 16.1,14.96 L16.1,5.04 Z"/>
</svg>
