<svg xmlns="http://www.w3.org/2000/svg" width="20" height="20" viewBox="0 0 20 20">
  <path fill="#264966" d="M12.8224519,7.1255141 C13.0970074,7.40231186 13.0970074,7.84871633 12.8224519,8.1255141 L8.17245186,12.7655141 C7.89630949,13.0416565 7.44859424,13.0416565 7.17245186,12.7655141 C6.89630949,12.4893717 6.89630949,12.0416565 7.17245186,11.7655141 L11.8324519,7.1255141 C12.1080366,6.85750624 12.5468672,6.85750624 12.8224519,7.1255141 Z M17.3524519,13.3855141 L15.8124519,12.4955141 C15.5954996,12.3535713 15.3178621,12.3431643 15.0908923,12.4684672 C14.8639226,12.5937701 14.7247968,12.8342589 14.7293146,13.0934802 C14.7338323,13.3527014 14.8812537,13.5881963 15.1124519,13.7055141 L16.6524519,14.5955141 C16.7597315,14.6543743 16.880086,14.6853226 17.0024519,14.6855141 C17.3150599,14.6808576 17.5866782,14.4694659 17.667957,14.1675732 C17.7492358,13.8656804 17.620466,13.546492 17.3524519,13.3855141 L17.3524519,13.3855141 Z M2.65245186,6.5055141 L4.19245186,7.4055141 C4.29973149,7.46437426 4.42008602,7.49532257 4.54245186,7.4955141 C4.79280892,7.49284298 5.02380308,7.36030535 5.15245186,7.1455141 C5.25946197,6.98066986 5.29224561,6.77843377 5.24279153,6.58822578 C5.19333746,6.3980178 5.0662016,6.23736077 4.89245186,6.1455141 L3.35245186,5.2955141 C3.18760763,5.188504 2.98537153,5.15572035 2.79516355,5.20517443 C2.60495556,5.2546285 2.44429854,5.38176436 2.35245186,5.5555141 C2.26217484,5.72049554 2.24315177,5.9151779 2.29978434,6.09451437 C2.35641691,6.27385084 2.48379745,6.42230048 2.65245186,6.5055141 Z M13.7624519,15.0555141 C13.6706052,14.8817644 13.5099482,14.7546285 13.3197402,14.7051744 C13.1295322,14.6557204 12.9272961,14.688504 12.7624519,14.7955141 C12.5909722,14.8895403 12.4658694,15.0501342 12.4166582,15.2394078 C12.3674471,15.4286813 12.3984859,15.629872 12.5024519,15.7955141 L13.4024519,17.3355141 C13.5232845,17.5532362 13.7534549,17.6875022 14.0024519,17.6855359 C14.1248177,17.6853226 14.2451722,17.6543743 14.3524519,17.5955141 C14.5262016,17.5036674 14.6533375,17.3430104 14.7027915,17.1528024 C14.7522456,16.9625944 14.719462,16.7603583 14.6124519,16.5955141 L13.7624519,15.0555141 Z M6.24245186,4.8355141 C6.36816809,5.05326944 6.60101575,5.18687056 6.85245186,5.18552433 C6.97481771,5.18532257 7.09517224,5.15437426 7.20245186,5.0955141 C7.37393153,5.00148789 7.49903436,4.84089397 7.54824548,4.65162044 C7.5974566,4.46234691 7.56641778,4.26115615 7.46245186,4.0955141 L6.56245186,2.5955141 C6.47220308,2.43373661 6.32069388,2.31504313 6.14201685,2.26614204 C5.96333981,2.21724096 5.77250421,2.24224008 5.61245186,2.3355141 C5.43870212,2.42736077 5.31156627,2.5880178 5.26211219,2.77822578 C5.21265811,2.96843377 5.24544176,3.17066986 5.35245186,3.3355141 L6.24245186,4.8355141 Z M11.0024519,13.9455141 L9.33245186,15.5255141 C7.9765928,16.8813731 5.77831095,16.8813731 4.4224519,15.5255141 C3.06659285,14.169655 3.06659284,11.9713732 4.42245186,10.6155141 L6.05245186,8.9455141 C6.32859422,8.66937172 6.32859422,8.22165648 6.05245185,7.94551411 C5.77630948,7.66937174 5.32859424,7.66937174 5.05245186,7.9455141 L3.42245186,9.6255141 C1.53398704,11.5378729 1.53398704,14.6131553 3.42245186,16.5255141 C5.33258064,18.419403 8.41232309,18.419403 10.3224519,16.5255141 L12.0024519,14.8855141 C12.2785942,14.6093717 12.2785942,14.1616565 12.0024519,13.8855141 C11.7263095,13.6093717 11.2785942,13.6093717 11.0024519,13.8855141 L11.0024519,13.9455141 Z M9.00245186,5.9955141 L10.6724519,4.3655141 C12.0283109,3.00965507 14.2265928,3.00965509 15.5824518,4.36551414 C16.9383109,5.72137318 16.9383109,7.91965503 15.5824519,9.2755141 L14.0024519,10.9455141 C13.7278963,11.2223119 13.7278963,11.6687163 14.0024519,11.9455141 C14.1351498,12.0771518 14.3155756,12.1493221 14.5024519,12.1455141 C14.6865335,12.1501212 14.86417,12.0776165 14.9924519,11.9455141 L16.6324519,10.3155141 C18.4737876,8.39951457 18.443615,5.36242809 16.5645764,3.48338955 C14.6855379,1.60435101 11.6484514,1.57417831 9.73245186,3.4155141 L8.05245186,5.0055141 C7.77630949,5.28165647 7.77630949,5.72937172 8.05245186,6.0055141 C8.32859424,6.28165647 8.77630949,6.28165647 9.05245186,6.0055141 L9.00245186,5.9955141 Z"/>
</svg>
