<svg xmlns="http://www.w3.org/2000/svg" width="20" height="20" viewBox="0 0 20 20">
  <path fill="#264966" d="M8.995,12.8722142 L8.995,12.8722142 C8.80833186,12.8748888 8.62832891,12.8028876 8.495,12.6722142 L6.205,10.4122142 C6.06803562,10.2819611 5.99049974,10.101225 5.99049974,9.91221416 C5.99049974,9.72320332 6.06803562,9.54246722 6.205,9.41221416 C6.48179776,9.1376586 6.92820224,9.1376586 7.205,9.41221416 L8.995,11.1822142 L12.795,7.34221416 C12.9252531,7.20524978 13.1059892,7.1277139 13.295,7.1277139 C13.4840108,7.1277139 13.6647469,7.20524978 13.795,7.34221416 C13.9319644,7.47246722 14.0095003,7.65320332 14.0095003,7.84221416 C14.0095003,8.03122501 13.9319644,8.21196111 13.795,8.34221416 L9.445,12.6722142 C9.32417466,12.7911836 9.16427265,12.8622512 8.995,12.8722142 Z"/>
</svg>
