<svg xmlns="http://www.w3.org/2000/svg" width="20" height="20" viewBox="0 0 20 20">
  <path fill="#264966" d="M12.3,0 L2.7,0 C1.20883118,0 0,1.20883118 0,2.7 L0,12.3 C0,13.0160845 0.284463469,13.7028401 0.790811691,14.2091883 C1.29715991,14.7155365 1.98391548,15 2.7,15 L12.3,15 C13.0160845,15 13.7028401,14.7155365 14.2091883,14.2091883 C14.7155365,13.7028401 15,13.0160845 15,12.3 L15,2.7 C15,1.20883118 13.7911688,0 12.3,0 Z M1.4,12.3 L1.4,2.7 C1.4,2.35521856 1.53696389,2.02455848 1.78076118,1.78076118 C2.02455848,1.53696389 2.35521856,1.4 2.7,1.4 L9.92,1.4 L9.92,13.6 L2.7,13.6 C1.98202983,13.6 1.4,13.0179702 1.4,12.3 Z M13.6,12.3 C13.6,13.0179702 13.0179702,13.6 12.3,13.6 L11.3,13.6 L11.3,1.4 L12.3,1.4 C12.6447814,1.4 12.9754415,1.53696389 13.2192388,1.78076118 C13.4630361,2.02455848 13.6,2.35521856 13.6,2.7 L13.6,12.3 Z M7.14,7 C7.40923553,7.27896751 7.40923553,7.72103249 7.14,8 L5.18,10 C5.04832072,10.1343397 4.86811326,10.21 4.68,10.21 C4.49489194,10.2096113 4.31794221,10.1337757 4.19,10 C3.91544444,9.72320224 3.91544444,9.27679776 4.19,9 L5.65,7.5 L4.19,6 C3.91385763,5.72385762 3.91385764,5.27614238 4.19000001,5.00000001 C4.46614238,4.72385764 4.91385762,4.72385763 5.19,5 L7.14,7 Z" transform="translate(2.5 2.5)"/>
</svg>
