<svg xmlns="http://www.w3.org/2000/svg" width="20" height="20" viewBox="0 0 20 20">
  <path fill="#264966" d="M14.8,2.5 L5.2,2.5 C3.70883118,2.5 2.5,3.70883118 2.5,5.2 L2.5,14.8 C2.5,15.5160845 2.78446347,16.2028401 3.29081169,16.7091883 C3.79715991,17.2155365 4.48391548,17.5 5.2,17.5 L14.8,17.5 C15.5160845,17.5 16.2028401,17.2155365 16.7091883,16.7091883 C17.2155365,16.2028401 17.5,15.5160845 17.5,14.8 L17.5,5.2 C17.5,3.70883118 16.2911688,2.5 14.8,2.5 Z M3.9,5.2 C3.9,4.85521856 4.03696389,4.52455848 4.28076118,4.28076118 C4.52455848,4.03696389 4.85521856,3.9 5.2,3.9 L14.8,3.9 C15.5179702,3.9 16.1,4.48202983 16.1,5.2 L16.1,5.8 C16.1,6.51797017 15.5179702,7.1 14.8,7.1 L10.7,7.1 L10.7,5.7 C10.7,5.31340068 10.3865993,5 10,5 C9.61340068,5 9.3,5.31340068 9.3,5.7 L9.3,7.1 L5.2,7.1 C4.85521856,7.1 4.52455848,6.96303611 4.28076118,6.71923882 C4.03696389,6.47544152 3.9,6.14478144 3.9,5.8 L3.9,5.2 Z M14.8,16.1 L5.2,16.1 C4.48202983,16.1 3.9,15.5179702 3.9,14.8 L3.9,8.15 C4.29562755,8.37748038 4.74363955,8.49809899 5.2,8.5 L9.3,8.5 L9.3,12.39 L7.86,10.95 C7.58385763,10.6738576 7.13614237,10.6738576 6.86,10.95 C6.58385763,11.2261424 6.58385763,11.6738576 6.86,11.95 L9.5,14.57 C9.63166227,14.7043772 9.81187187,14.7801021 10,14.7801021 C10.1881281,14.7801021 10.3683377,14.7043772 10.5,14.57 L13.13,11.94 C13.4061424,11.6638576 13.4061424,11.2161424 13.13,10.94 C12.8538576,10.6638576 12.4061424,10.6638576 12.13,10.94 L10.7,12.39 L10.7,8.5 L14.8,8.5 C15.2563605,8.49809899 15.7043725,8.37748038 16.1,8.15 L16.1,14.8 C16.1,15.5179702 15.5179702,16.1 14.8,16.1 L14.8,16.1 Z"/>
</svg>
