<svg xmlns="http://www.w3.org/2000/svg" width="20" height="20" viewBox="0 0 20 20">
  <path fill="#264966" d="M16.8,17.3 C16.8,17.6865993 16.4865993,18 16.1,18 L13.5,18 C13.1134007,18 12.8,17.6865993 12.8,17.3 C12.8,16.9134007 13.1134007,16.6 13.5,16.6 L14.1,16.6 L14.1,10.7 L5.9,10.7 L5.9,16.6 L6.5,16.6 C6.88659932,16.6 7.2,16.9134007 7.2,17.3 C7.2,17.6865993 6.88659932,18 6.5,18 L3.9,18 C3.51340068,18 3.2,17.6865993 3.2,17.3 C3.2,16.9134007 3.51340068,16.6 3.9,16.6 L4.5,16.6 L4.5,3.4 L3.9,3.4 C3.51340068,3.4 3.2,3.08659932 3.2,2.7 C3.2,2.31340068 3.51340068,2 3.9,2 L6.5,2 C6.88659932,2 7.2,2.31340068 7.2,2.7 C7.2,3.08659932 6.88659932,3.4 6.5,3.4 L5.9,3.4 L5.9,9.3 L14.1,9.3 L14.1,3.4 L13.5,3.4 C13.1134007,3.4 12.8,3.08659932 12.8,2.7 C12.8,2.31340068 13.1134007,2 13.5,2 L16.1,2 C16.4865993,2 16.8,2.31340068 16.8,2.7 C16.8,3.08659932 16.4865993,3.4 16.1,3.4 L15.5,3.4 L15.5,16.6 L16.1,16.6 C16.4865993,16.6 16.8,16.9134007 16.8,17.3 Z"/>
</svg>
