<svg xmlns="http://www.w3.org/2000/svg" width="20" height="20" viewBox="0 0 20 20">
  <path fill="#264966" d="M18.965,7.825 L18.195,7.825 L18.195,3.285 C18.53382,3.06184527 18.7456332,2.69024306 18.765,2.285 C18.765,1.58359837 18.1964016,1.015 17.495,1.015 C16.7935984,1.015 16.225,1.58359837 16.225,2.285 C16.2410948,2.69118701 16.4537006,3.06417961 16.795,3.285 L16.795,7.825 L16.335,7.825 C15.4946126,5.32621688 13.2763661,3.54537107 10.655,3.265 L10.655,2.765 C10.655,2.37840068 10.3415993,2.065 9.955,2.065 C9.56840068,2.065 9.255,2.37840068 9.255,2.765 L9.255,3.265 C6.65247889,3.56374946 4.45782763,5.34130004 3.625,7.825 L3.205,7.825 L3.205,3.285 C3.54381997,3.06184527 3.75563323,2.69024306 3.775,2.285 C3.77499999,1.58359838 3.20640162,1.015 2.505,1.015 C1.80359838,1.015 1.23500001,1.58359838 1.235,2.285 C1.25109481,2.69118701 1.46370059,3.06417961 1.805,3.285 L1.805,7.825 L1.035,7.825 C0.648400675,7.825 0.335,8.13840068 0.335,8.525 L0.335,11.445 C0.335,11.8315993 0.648400675,12.145 1.035,12.145 L3.275,12.145 L3.275,17.585 L1.695,17.585 C1.30840068,17.585 0.995,17.8984007 0.995,18.285 C0.995,18.6715993 1.30840068,18.985 1.695,18.985 L18.335,18.985 C18.7215993,18.985 19.035,18.6715993 19.035,18.285 C19.035,17.8984007 18.7215993,17.585 18.335,17.585 L16.725,17.585 L16.725,12.145 L18.965,12.145 C19.3493504,12.1396237 19.6596237,11.8293504 19.665,11.445 L19.665,8.525 C19.6596237,8.14064964 19.3493504,7.83037631 18.965,7.825 Z M4.675,11.445 L4.675,11.265 L15.335,11.265 L15.335,14.345 L12.505,14.345 L10.505,12.545 C10.2381375,12.3137198 9.84186247,12.3137198 9.575,12.545 L7.575,14.345 L4.675,14.345 L4.675,11.445 Z M9.335,4.695 L9.335,6.175 C9.335,6.56159932 9.64840068,6.875 10.035,6.875 C10.4215993,6.875 10.735,6.56159932 10.735,6.175 L10.735,4.695 C13.3328215,5.04936656 15.2851328,7.2435948 15.335,9.865 L4.685,9.865 C4.73419268,7.22530944 6.71526687,5.02269577 9.335,4.695 L9.335,4.695 Z M1.735,10.745 L1.735,9.225 L3.275,9.225 L3.275,10.745 L1.735,10.745 Z M4.675,17.585 L4.675,15.745 L7.755,15.745 C7.92365784,15.7447677 8.08672506,15.6845037 8.215,15.575 L9.995,13.985 L11.775,15.555 C11.9067834,15.6652036 12.0732107,15.7254007 12.245,15.725 L15.335,15.725 L15.335,17.585 L4.675,17.585 Z M18.265,10.745 L16.725,10.745 L16.725,9.225 L18.265,9.225 L18.265,10.745 Z"/>
</svg>
