<svg xmlns="http://www.w3.org/2000/svg" width="20" height="20" viewBox="0 0 20 20">
  <path fill="#264966" d="M16,1 L4,1 C2.34314575,1 1,2.34314575 1,4 L1,16 C1,17.6568542 2.34314575,19 4,19 L16,19 C17.6568542,19 19,17.6568542 19,16 L19,4 C19,2.34314575 17.6568542,1 16,1 Z M17.6001284,16 C17.6054272,16.425987 17.4385997,16.8361142 17.1373569,17.1373569 C16.8361142,17.4385997 16.425987,17.6054272 16,17.6001284 L4,17.6001284 C3.57401301,17.6054272 3.1638858,17.4385997 2.86264307,17.1373569 C2.56140034,16.8361142 2.39457275,16.425987 2.3998716,16 L2.3998716,4 C2.39457275,3.57401301 2.56140034,3.1638858 2.86264307,2.86264307 C3.1638858,2.56140034 3.57401301,2.39457275 4,2.3998716 L16,2.3998716 C16.425987,2.39457275 16.8361142,2.56140034 17.1373569,2.86264307 C17.4385997,3.1638858 17.6054272,3.57401301 17.6001284,4 L17.6001284,16 Z M15,9.09 L15,14.32 C15,14.7065993 14.6865993,15.02 14.3,15.02 C13.9134007,15.02 13.6,14.7065993 13.6,14.32 L13.6,9.09 C13.6,8.70340068 13.9134007,8.39 14.3,8.39 C14.6865993,8.39 15,8.70340068 15,9.09 L15,9.09 Z M10.7,5.68 L10.7,14.32 C10.7,14.7065993 10.3865993,15.02 10,15.02 C9.61340068,15.02 9.3,14.7065993 9.3,14.32 L9.3,5.68 C9.3,5.29340068 9.61340068,4.98 10,4.98 C10.3865993,4.98 10.7,5.29340068 10.7,5.68 Z M6.38,10.68 L6.38,14.32 C6.38,14.7065993 6.06659932,15.02 5.68,15.02 C5.29340068,15.02 4.98,14.7065993 4.98,14.32 L4.98,10.68 C4.98,10.2934007 5.29340068,9.98 5.68,9.98 C6.06659932,9.98 6.38,10.2934007 6.38,10.68 Z"/>
</svg>
