<svg xmlns="http://www.w3.org/2000/svg" width="20" height="20" viewBox="0 0 20 20">
  <path fill="#264966" d="M13.3,4 L6.7,4 C6.31340068,4 6,4.31340068 6,4.7 L6,9.3 C6,9.68659932 6.31340068,10 6.7,10 L13.3,10 C13.6865993,10 14,9.68659932 14,9.3 L14,4.7 C14,4.31340068 13.6865993,4 13.3,4 L13.3,4 Z M12.6,8.6 L7.4,8.6 L7.4,5.4 L12.6,5.4 L12.6,8.6 Z M19.3,5.4 C19.6865993,5.4 20,5.08659932 20,4.7 L20,2.7 C20,1.20883118 18.7911688,0 17.3,0 L2.7,0 C1.20883118,0 0,1.20883118 0,2.7 L0,4.7 C0,5.08659932 0.313400675,5.4 0.7,5.4 C1.5836556,5.4 2.3,6.1163444 2.3,7 C2.3,7.8836556 1.5836556,8.6 0.7,8.6 C0.313400675,8.6 0,8.91340068 0,9.3 L0,11.3 C0,12.0160845 0.284463469,12.7028401 0.790811691,13.2091883 C1.29715991,13.7155365 1.98391548,14 2.7,14 L17.3,14 C18.7911688,14 20,12.7911688 20,11.3 L20,9.3 C20,8.91340068 19.6865993,8.6 19.3,8.6 C18.4163444,8.6 17.7,7.8836556 17.7,7 C17.7,6.1163444 18.4163444,5.4 19.3,5.4 L19.3,5.4 Z M18.6,9.92 L18.6,11.3 C18.6,11.6447814 18.4630361,11.9754415 18.2192388,12.2192388 C17.9754415,12.4630361 17.6447814,12.6 17.3,12.6 L2.7,12.6 C2.35521856,12.6 2.02455848,12.4630361 1.78076118,12.2192388 C1.53696389,11.9754415 1.4,11.6447814 1.4,11.3 L1.4,9.92 C2.75463124,9.60074031 3.71181398,8.39174442 3.71181398,7 C3.71181398,5.60825558 2.75463124,4.39925969 1.4,4.08 L1.4,2.7 C1.4,1.98202983 1.98202983,1.4 2.7,1.4 L17.3,1.4 C18.0179702,1.4 18.6,1.98202983 18.6,2.7 L18.6,4.08 C17.2453688,4.39925969 16.288186,5.60825558 16.288186,7 C16.288186,8.39174442 17.2453688,9.60074031 18.6,9.92 L18.6,9.92 Z" transform="translate(0 3)"/>
</svg>
