<svg xmlns="http://www.w3.org/2000/svg" width="20" height="20" viewBox="0 0 20 20">
  <path fill="#264966" d="M14.3,2 L5.7,2 C4.20883118,2 3,3.20883118 3,4.7 L3,15.3 C3,16.7911688 4.20883118,18 5.7,18 L14.3,18 C15.7911688,18 17,16.7911688 17,15.3 L17,4.7 C17,3.20883118 15.7911688,2 14.3,2 Z M15.6,15.3 C15.6,15.6447814 15.4630361,15.9754415 15.2192388,16.2192388 C14.9754415,16.4630361 14.6447814,16.6 14.3,16.6 L5.7,16.6 C5.35521856,16.6 5.02455848,16.4630361 4.78076118,16.2192388 C4.53696389,15.9754415 4.4,15.6447814 4.4,15.3 L4.4,4.7 C4.4,3.98202983 4.98202983,3.4 5.7,3.4 L14.3,3.4 C14.6447814,3.4 14.9754415,3.53696389 15.2192388,3.78076118 C15.4630361,4.02455848 15.6,4.35521856 15.6,4.7 L15.6,15.3 Z M14.25,10 C14.25,10.3865993 13.9365993,10.7 13.55,10.7 L6.45,10.7 C6.06340068,10.7 5.75,10.3865993 5.75,10 C5.75,9.61340068 6.06340068,9.3 6.45,9.3 L13.55,9.3 C13.7356515,9.3 13.9136993,9.37374979 14.0449747,9.50502525 C14.1762502,9.63630072 14.25,9.81434846 14.25,10 Z M14.25,13.61 C14.25,13.9965993 13.9365993,14.31 13.55,14.31 L6.45,14.31 C6.06340068,14.31 5.75,13.9965993 5.75,13.61 C5.75,13.2234007 6.06340068,12.9099991 6.45,12.9099991 L13.55,12.9099991 C13.7427944,12.909685 13.9271833,12.9888999 14.0596717,13.1289592 C14.1921602,13.2690184 14.2610171,13.4575204 14.25,13.65 L14.25,13.61 Z M14.25,6.35 C14.25,6.73659932 13.9365993,7.05 13.55,7.05 L6.45,7.05 C6.06340068,7.05 5.75,6.73659932 5.75,6.35 C5.75,5.96340068 6.06340068,5.64999906 6.45,5.64999906 L13.55,5.64999906 C13.7427944,5.64968496 13.9271833,5.72889992 14.0596717,5.86895917 C14.1921602,6.00901841 14.2610171,6.19752036 14.25,6.39 L14.25,6.35 Z"/>
</svg>
