<svg xmlns="http://www.w3.org/2000/svg" width="20" height="20" viewBox="0 0 20 20">
  <path fill="#264966" d="M15.84,3.2 C15.84,3.58659932 15.5265993,3.9 15.14,3.9 L13.16,3.9 L8.36999997,16.1 L9.81999997,16.1 C10.2065993,16.1 10.52,16.4134007 10.52,16.8 C10.52,17.1865993 10.2065993,17.5 9.81999997,17.5 L4.85999997,17.5 C4.47340065,17.5 4.15999997,17.1865993 4.15999997,16.8 C4.15999997,16.4134007 4.47340065,16.1 4.85999997,16.1 L6.85999997,16.1 L11.64,3.9 L10.16,3.9 C9.77340065,3.9 9.45999997,3.58659932 9.45999997,3.2 C9.45999997,2.81340068 9.77340065,2.5 10.16,2.5 L15.16,2.5 C15.5387669,2.5108263 15.8401547,2.82107837 15.84,3.2 L15.84,3.2 Z"/>
</svg>
