<svg xmlns="http://www.w3.org/2000/svg" width="20" height="20" viewBox="0 0 20 20">
  <path fill="#264966" d="M17.8466254,7.99939279 C17.7165407,7.8193541 17.50873,7.71173787 17.2866254,7.70939279 L15.5266254,7.70939279 L15.5266254,6.99939279 C15.5319595,6.37532818 15.2877813,5.77498909 14.8483667,5.33181881 C14.4089521,4.88864854 13.8107128,4.63936999 13.1866254,4.63939279 L8.7166254,4.63939279 L7.2866254,3.20939279 C7.15560549,3.07408518 6.97496814,2.9982175 6.7866254,2.99937933 L4.3266254,2.99937933 C3.03427909,2.99937933 1.98662538,4.04704647 1.98662538,5.33939279 L1.98662538,14.6593928 C1.98662538,15.0908375 2.1078413,15.5136027 2.3366254,15.8793928 L2.3366254,15.8793928 C2.76085471,16.5775193 3.51971563,17.0024814 4.3366254,16.9993928 L13.3366254,16.9993928 C14.5441411,17.0359177 15.627901,16.262972 15.9866254,15.1093928 L17.9866254,8.63939279 C18.0506678,8.41609414 17.9980505,8.17555792 17.8466254,7.99939279 Z M4.3266254,4.39939279 L6.4966254,4.39939279 L7.9866254,5.82939279 C8.10963242,5.93454733 8.26487091,5.99452584 8.4266254,5.99939279 L13.1866254,5.99939279 C13.7057731,5.99939279 14.1266254,6.42024512 14.1266254,6.93939279 L14.1266254,7.68939279 L5.1266254,7.68939279 C4.82113118,7.69157065 4.55128023,7.88892432 4.4566254,8.17939279 L3.3866254,11.7193928 L3.3866254,5.33939279 C3.3866254,4.82024512 3.80747774,4.39939279 4.3266254,4.39939279 Z M14.5966254,14.6893928 C14.4263189,15.2309329 13.9243137,15.59934 13.3566254,15.5994245 L4.3566254,15.5994245 C4.12876021,15.6012729 3.90813492,15.519428 3.7366254,15.3693928 L5.7366254,9.12939279 L16.3366254,9.12939279 L14.5966254,14.6893928 Z"/>
</svg>
