<svg xmlns="http://www.w3.org/2000/svg" width="20" height="20" viewBox="0 0 20 20">
  <path fill="#264966" d="M17.7726452,5.17104977 C17.6417789,5.29927202 17.465858,5.37107648 17.2826452,5.37104977 C17.0967752,5.3695451 16.9182785,5.29814643 16.7826452,5.17104977 L16.0126452,4.39104977 L16.0126452,8.29104977 C16.0071537,10.1389243 14.5105197,11.6355583 12.6626452,11.6410498 C11.5773109,11.6407106 10.6897785,12.5060547 10.6626452,13.5910498 L10.6626452,17.3010498 C10.6626452,17.6876491 10.3492445,18.0010498 9.96264522,18.0010498 C9.5760459,18.0010498 9.26264522,17.6876491 9.26264522,17.3010498 L9.26264522,13.5910498 C9.23681588,12.5326852 8.3906873,11.6777884 7.33264522,11.6410498 C5.49649697,11.6191971 4.0179803,10.1273203 4.01264522,8.29104977 L4.01264522,4.39104977 L3.24264522,5.17104977 C2.96584746,5.44560534 2.51944299,5.44560534 2.24264522,5.17104977 C2.10568084,5.04079672 2.02814496,4.86006062 2.02814496,4.67104977 C2.02814496,4.48203893 2.10568084,4.30130283 2.24264522,4.17104977 L4.24264522,2.17104977 C4.29661616,2.12267126 4.35723008,2.08226198 4.42264522,2.05104977 C4.5924833,1.98158371 4.78280714,1.98158371 4.95264522,2.05104977 C5.03645768,2.08912836 5.114007,2.13970401 5.18264522,2.20104977 L7.18264522,4.20104977 C7.45720079,4.47784754 7.45720079,4.92425201 7.18264522,5.20104977 C7.05119173,5.32837558 6.87565023,5.40002517 6.69264522,5.40104977 C6.50677516,5.3995451 6.32827848,5.32814643 6.19264522,5.20104977 L5.41264522,4.42104977 L5.41264522,8.32104977 C5.41264522,9.42561927 6.30807572,10.3210498 7.41264522,10.3210498 C8.42451522,10.3197306 9.38175069,10.77994 10.0126452,11.5710498 C10.6410195,10.7396582 11.6205238,10.248058 12.6626452,10.2410498 C13.7479795,10.241389 14.6355119,9.37604489 14.6626452,8.29104977 L14.6626452,4.39104977 L13.8826452,5.17104977 C13.7040124,5.34968257 13.4436495,5.41944662 13.1996325,5.35406247 C12.9556156,5.28867833 12.7650167,5.09807941 12.6996325,4.85406247 C12.6342484,4.61004554 12.7040124,4.34968257 12.8826452,4.17104977 L14.8826452,2.17104977 C14.9219782,2.12692238 14.9655172,2.0867325 15.0126452,2.05104977 C15.1824833,1.98158371 15.3728071,1.98158371 15.5426452,2.05104977 C15.6277835,2.08667019 15.705722,2.13749966 15.7726452,2.20104977 L17.7726452,4.20104977 C18.0382583,4.46983389 18.0382583,4.90226565 17.7726452,5.17104977 Z"/>
</svg>
