<svg xmlns="http://www.w3.org/2000/svg" width="20" height="20" viewBox="0 0 20 20">
  <path fill="#264966" d="M17.3012711,9.30724707 L4.39127108,9.30724707 L7.79127108,5.90724707 C7.92823546,5.77699402 8.00577134,5.59625792 8.00577134,5.40724707 C8.00577134,5.21823623 7.92823546,5.03750013 7.79127108,4.90724707 C7.66101802,4.77028269 7.48028193,4.69274681 7.29127108,4.69274681 C7.10226023,4.69274681 6.92152413,4.77028269 6.79127108,4.90724707 L2.20127108,9.50724707 C2.14409023,9.56821311 2.09378784,9.63528297 2.05127108,9.70724707 C1.9812149,9.88043059 1.9812149,10.0740636 2.05127108,10.2472471 C2.08959281,10.3401463 2.14002991,10.4275706 2.20127108,10.5072471 L6.80127108,15.0972471 C6.93295036,15.2315868 7.11315782,15.3072532 7.30127108,15.3072532 C7.48662065,15.3080382 7.66401668,15.2320113 7.79127108,15.0972471 C7.92823546,14.966994 8.00577134,14.7862579 8.00577134,14.5972471 C8.00577134,14.4082362 7.92823546,14.2275001 7.79127108,14.0972471 L4.39127108,10.7072471 L17.3012711,10.7072471 C17.6878704,10.7072471 18.0012711,10.3938464 18.0012711,10.0072471 C18.0012711,9.62064776 17.6878704,9.30724709 17.3012711,9.30724707 Z"/>
</svg>
