<svg xmlns="http://www.w3.org/2000/svg" width="20" height="20" viewBox="0 0 20 20">
  <path fill="#264966" d="M17.2945003 1.71450026C17.1642472 1.57753588 16.9835111 1.5 16.7945003 1.5 16.6054894 1.5 16.4247533 1.57753588 16.2945003 1.71450026L16.0145003 2.00450026 16.0145003 2.00450026 14.6145003 3.40450026 14.6145003 3.40450026 7.93450026 10.0845003 7.93450026 10.0845003 6.50450026 11.5045003 6.50450026 11.5045003 1.71450026 16.3045003C1.57753588 16.4347533 1.5 16.6154894 1.5 16.8045003 1.5 16.9935111 1.57753588 17.1742472 1.71450026 17.3045003 1.84346637 17.4355855 2.02064157 17.5079019 2.20450026 17.5046151 2.39261352 17.5046151 2.57282098 17.42884 2.70450026 17.2945003L6.50450026 13.5045003 6.50450026 16.3045003C6.50450026 16.6910996 6.81790094 17.0045003 7.20450026 17.0045003L11.7445003 17.0045003C12.1310996 17.0045003 12.4445003 16.6910996 12.4445003 16.3045003L12.4445003 7.93450026 16.3045003 7.93450026C16.6910996 7.93450026 17.0045003 7.62109959 17.0045003 7.23450026L17.0045003 2.99450026 17.2945003 2.70450026C17.4282976 2.57456751 17.5037977 2.3960056 17.5037977 2.20950026 17.5037977 2.02299493 17.4282976 1.84443302 17.2945003 1.71450026zM7.93450026 15.6045003L7.93450026 12.0645003 11.0745003 8.92450026 11.0745003 15.6045003 7.93450026 15.6045003zM15.6045003 6.50450026L13.5045003 6.50450026 15.6045003 4.39450026 15.6045003 6.50450026zM2.70450026 7.93450026L6.50450026 7.93450026 6.50450026 9.50450026 7.90450026 8.10450026 7.90450026 7.23450026C7.90450026 6.84790094 7.59109959 6.53450026 7.20450026 6.53450026L3.40450026 6.53450026 3.40450026 3.40450026 12.6345003 3.40450026 14.0345003 2.00450026 2.70450026 2.00450026C2.31790094 2.00450026 2.00450026 2.31790094 2.00450026 2.70450026L2.00450026 7.23450026C2.00450026 7.62109959 2.31790094 7.93450026 2.70450026 7.93450026z"/>
</svg>
