<svg xmlns="http://www.w3.org/2000/svg" width="20" height="20" viewBox="0 0 20 20">
  <path  d="M18.0796361,9.92182461 C18.1141837,13.4966898 15.7953972,16.6692978 12.3788081,17.7218061 C8.96221904,18.7743145 5.26011803,17.4564906 3.27704699,14.481884 C1.29397595,11.5072774 1.50140806,7.58309805 3.78702699,4.83413443 C6.07264592,2.0851708 9.89304805,1.16498631 13.1796361,2.57182461 C13.5358597,2.72370292 13.7015144,3.13560094 13.5496361,3.4918246 C13.3977578,3.84804826 12.9858597,4.0137029 12.6296361,3.86182461 C11.8251571,3.51042956 10.9574978,3.32668995 10.0796361,3.32182461 C6.43455674,3.32182461 3.47963609,6.27674526 3.47963609,9.92182461 C3.47963609,13.566904 6.43455674,16.5218246 10.0796361,16.5218246 C13.7247154,16.5218246 16.6796361,13.566904 16.6796361,9.92182461 C16.6828865,9.58677106 16.6561128,9.25209998 16.5996361,8.92182461 C16.5639095,8.67352502 16.6633631,8.42502685 16.8605335,8.26993695 C17.057704,8.11484705 17.3226365,8.07672726 17.5555335,8.16993695 C17.7884306,8.26314663 17.9539095,8.47352502 17.9896361,8.72182461 C18.0487722,9.11910438 18.078852,9.52016843 18.0796361,9.92182461 Z M7.21963609,9.34182461 C7.08938303,9.20486022 6.90864693,9.12732434 6.71963609,9.12732434 C6.53062524,9.12732434 6.34988914,9.20486022 6.21963609,9.34182461 C5.94508052,9.61862237 5.94508052,10.0650268 6.21963609,10.3418246 L8.51963609,12.6318246 C8.64689048,12.7665889 8.82428652,12.8426157 9.00963609,12.8418307 C9.19774935,12.8418307 9.3779568,12.7661643 9.50963609,12.6318246 L16.2796361,5.86182461 C16.5557784,5.58568223 16.5557784,5.13796699 16.2796361,4.86182463 C16.0034937,4.58568226 15.5557785,4.58568225 15.2796361,4.86182461 L9.01963609,11.1418246 L7.21963609,9.34182461 Z"/>
</svg>
