<svg xmlns="http://www.w3.org/2000/svg" width="20" height="20" viewBox="0 0 20 20">
  <g fill="none" fill-rule="evenodd">
    <rect width="20" height="20"/>
    <path  fill-rule="nonzero" d="M10,2 C12.1217319,2 14.1565632,2.84285472 15.6568542,4.34314575 C17.1571453,5.84343678 18,7.87826808 18,10 C18,14.418278 14.418278,18 10,18 C5.581722,18 2,14.418278 2,10 C2,5.581722 5.581722,2 10,2 Z M10,3.4 C6.35492065,3.4 3.4,6.35492065 3.4,10 C3.4,13.6450793 6.35492065,16.6 10,16.6 C13.6427959,16.5944931 16.5944931,13.6427959 16.6,10 C16.6,6.35492065 13.6450793,3.4 10,3.4 Z"/>
    <path  fill-rule="nonzero" d="M10.0004875,8.72682394 C10.3880008,8.72682394 10.7021425,9.04096559 10.7021425,9.42847894 L10.7021425,13.1651689 C10.7021425,13.5203895 10.4381762,13.8139575 10.0956979,13.8604187 L10.0004867,13.8668239 C9.61297332,13.8668239 9.29883168,13.5526823 9.29883168,13.1651689 L9.29883168,9.42847894 C9.29883168,9.07325837 9.56279792,8.77969041 9.90527625,8.73322923 L10.0004875,8.72682394 Z M10,5.78682394 C10.5522847,5.78682394 11,6.23453919 11,6.78682394 C11,7.33910869 10.5522847,7.78682394 10,7.78682394 C9.44771525,7.78682394 9,7.33910869 9,6.78682394 C9,6.23453919 9.44771525,5.78682394 10,5.78682394 Z" transform="rotate(-180 10 9.827)"/>
  </g>
</svg>
