<svg xmlns="http://www.w3.org/2000/svg" width="20" height="20" viewBox="0 0 20 20">
  <path fill="#264966" d="M15.5758859,3.49746891 C13.7663925,1.70002136 10.8453793,1.70002136 9.03588589,3.49746891 L3.84588589,8.68746891 C3.57133033,8.96426668 3.57133033,9.41067115 3.84588589,9.68746891 C3.97613895,9.8244333 4.15687505,9.90196918 4.34588589,9.90196918 C4.53489674,9.90196918 4.71563284,9.8244333 4.84588589,9.68746891 L10.0258859,4.48746891 C11.2850951,3.22825972 13.3266766,3.22825973 14.5858859,4.48746895 C15.8450951,5.74667816 15.8450951,7.78825968 14.5858859,9.04746891 L7.45588589,16.1474689 C6.69317749,16.6720677 5.66474366,16.5777544 5.01017204,15.9231828 C4.35560041,15.2686111 4.26128706,14.2401773 4.78588589,13.4774689 L11.5158859,6.69746891 C11.6314947,6.58554669 11.7850211,6.52127982 11.9458859,6.51746891 C12.1754192,6.53181494 12.3773739,6.67403742 12.4682228,6.88531403 C12.5590718,7.09659063 12.5233709,7.34100503 12.3758859,7.51746891 L7.06588589,12.8774689 C6.92892151,13.007722 6.85138563,13.1884581 6.85138563,13.3774689 C6.85138563,13.5664798 6.92892151,13.7472159 7.06588589,13.8774689 C7.34268366,14.1520245 7.78908813,14.1520245 8.06588589,13.8774689 L13.3658859,8.54746891 C14.1501302,7.76322457 14.1501302,6.49171326 13.3658859,5.70746891 C12.5816415,4.92322457 11.3101302,4.92322457 10.5258859,5.70746891 L3.78588589,12.4874689 C2.75405456,13.8090644 2.86957202,15.6925845 4.05517114,16.8781837 C5.24077027,18.0637828 7.12429038,18.1793002 8.44588589,17.1474689 L15.5758859,10.0074689 C17.3643873,8.20598703 17.3643873,5.2989508 15.5758859,3.49746891 L15.5758859,3.49746891 Z"/>
</svg>
