<svg xmlns="http://www.w3.org/2000/svg" width="20" height="20" viewBox="0 0 20 20">
  <path fill="#264966" d="M17.175,5.76992172 L17.175,5.69992172 C17.1212027,5.6242896 17.0532898,5.55977229 16.975,5.50992172 C16.975,5.50992172 16.975,5.50992172 16.975,5.50992172 L10.315,2.07992172 C10.1292798,1.98712493 9.91072017,1.98712493 9.725,2.07992172 L3.105,5.47992172 C3.105,5.47992172 3.105,5.47992172 3.105,5.47992172 C3.02671024,5.52977229 2.95879728,5.5942896 2.905,5.66992172 L2.855,5.73992172 C2.78084546,5.84644453 2.73601241,5.97059759 2.725,6.09992172 L2.725,13.8999217 C2.72818723,14.1606934 2.87407967,14.3987284 3.105,14.5199217 L9.725,17.9199217 L9.725,17.9199217 C9.91418746,18.0129273 10.1358125,18.0129273 10.325,17.9199217 L10.325,17.9199217 L16.895,14.5199217 C17.1259203,14.3987284 17.2718128,14.1606934 17.275,13.8999217 L17.275,6.09992172 C17.2681177,5.98358189 17.2338543,5.87051247 17.175,5.76992172 Z M9.995,3.48992172 L15.045,6.09992172 L9.995,8.70992172 L4.995,6.09992172 L9.995,3.48992172 Z M4.125,7.24992172 L9.295,9.91992172 L9.295,16.1499217 L4.125,13.4799217 L4.125,7.24992172 Z M10.725,16.1499217 L10.725,9.91992172 L15.895,7.24992172 L15.895,13.4799217 L10.725,16.1499217 Z"/>
</svg>
