<svg xmlns="http://www.w3.org/2000/svg" width="20" height="20" viewBox="0 0 20 20">
  <path fill="#264966" d="M7.3 14C6.91340068 14 6.6 13.6865993 6.6 13.3L6.6 6.7C6.6 6.31340068 6.91340068 6 7.3 6 7.48565154 6 7.66369928 6.07374979 7.79497475 6.20502525 7.92625021 6.33630072 8 6.51434846 8 6.7L8 13.3C8 13.6865993 7.68659932 14 7.3 14zM12.7 14C12.3134007 14 12 13.6865993 12 13.3L12 6.7C12 6.31340068 12.3134007 6 12.7 6 12.8856515 6 13.0636993 6.07374979 13.1949747 6.20502525 13.3262502 6.33630072 13.4 6.51434846 13.4 6.7L13.4 13.3C13.4 13.6865993 13.0865993 14 12.7 14z"/>
</svg>
