<svg xmlns="http://www.w3.org/2000/svg" width="20" height="20" viewBox="0 0 20 20">
  <path fill="#264966" d="M10.7006386,10.3699805 C10.7006386,10.7565798 10.3872379,11.0699805 10.0006386,11.0699805 C9.61403923,11.0699805 9.30063855,10.7565798 9.30063855,10.3699805 C9.30063855,9.9833812 9.61403923,9.66998052 10.0006386,9.66998052 C10.3872379,9.66998052 10.7006386,9.9833812 10.7006386,10.3699805 L10.7006386,10.3699805 Z M18.0006569,4.66998052 L18.0006569,17.2999805 C18.0026619,17.5785355 17.8369919,17.8309852 17.5806386,17.9399805 C17.4927198,17.9799251 17.3972052,18.0003925 17.3006386,18.0000003 C17.126897,18.001295 16.9590549,17.9370151 16.8306386,17.8199805 L13.0006386,14.3999805 L4.67063855,14.3999805 C3.11666226,14.2286814 1.95474659,12.892696 2.00063855,11.3299805 L2.00063855,4.66998052 C2.00612212,3.19765759 3.19831562,2.00546409 4.67063855,1.99998052 L15.3306386,1.99998052 C16.8029615,2.00546409 17.995155,3.19765759 18.0006569,4.66998052 Z M16.6006386,4.66998052 C16.6006386,3.96857889 16.0320402,3.39998052 15.3306386,3.39998052 L4.67063855,3.39998052 C3.96923692,3.39998052 3.40063855,3.96857889 3.40063855,4.66998052 L3.40063855,11.3299805 C3.40063855,12.0599805 4.00063855,12.9999805 4.67063855,12.9999805 L13.3006386,12.9999805 C13.4743801,12.998666 13.6422222,13.062946 13.7706386,13.1799805 L16.6006386,15.7299805 L16.6006386,4.66998052 Z M10.0006386,4.64998052 C9.61403923,4.64998052 9.30063855,4.9633812 9.30063855,5.34998052 L9.30063855,8.14998052 C9.30063855,8.53657984 9.61403924,8.84998049 10.0006386,8.84998049 C10.3872379,8.84998049 10.7006386,8.53657984 10.7006386,8.14998052 L10.7006386,5.34998052 C10.7006386,4.9633812 10.3872379,4.64998052 10.0006386,4.64998052 Z"/>
</svg>
