<svg xmlns="http://www.w3.org/2000/svg" width="20" height="20" viewBox="0 0 20 20">
  <path fill="#264966" d="M17.3736186,16.5360387 L10.5736186,2.89603869 C10.4662575,2.67636912 10.2431204,2.5370636 9.9986186,2.5370636 C9.75411682,2.5370636 9.53097968,2.67636912 9.4236186,2.89603869 L2.6436186,16.5360387 C2.48621745,16.8536024 2.61605487,17.2386375 2.9336186,17.3960387 C3.25118233,17.5534398 3.63621745,17.4236024 3.7936186,17.1060387 L6.3836186,11.8760387 L13.6336186,11.8760387 L16.2236186,17.0660387 C16.3260748,17.2878791 16.5492775,17.4288493 16.7936186,17.4260387 C16.8940733,17.4229171 16.9928012,17.3990862 17.0836186,17.3560387 C17.375859,17.1971713 17.5010048,16.8433106 17.3736186,16.5360387 Z M7.0236186,10.5960387 L10.0236186,4.59603869 L13.0236186,10.5960387 L7.0236186,10.5960387 Z"/>
</svg>
