<svg xmlns="http://www.w3.org/2000/svg" width="20" height="20" viewBox="0 0 20 20">
  <path fill="#264966" d="M17.5,3.2 L17.5,6.93 C17.5,7.31659932 17.1865993,7.63 16.8,7.63 C16.4134007,7.63 16.1,7.31659932 16.1,6.93 L16.1,4.93 L12.1,8.93 C11.9683207,9.06433974 11.7881133,9.14000611 11.6,9.14000611 C11.4146504,9.14079113 11.2372544,9.06476426 11.11,8.93 C10.9730356,8.79974694 10.8954997,8.61901085 10.8954997,8.43 C10.8954997,8.24098915 10.9730356,8.06025306 11.11,7.93 L15.11,3.93 L13.11,3.93 C12.7234007,3.93 12.41,3.61659932 12.41,3.23 C12.41,2.84340068 12.7234007,2.5299997 13.11,2.5299997 L16.8,2.5299997 C17.1751803,2.52965529 17.483921,2.82516423 17.5,3.2 Z M7.92,11.09 L3.92,15.09 L3.92,13.09 C3.92,12.7034007 3.60659932,12.39 3.22,12.39 C2.83340068,12.39 2.52,12.7034007 2.52,13.09 L2.52,16.8 C2.51437033,16.8531848 2.51437033,16.9068152 2.52,16.96 C2.52,16.96 2.52,17.03 2.52,17.07 C2.586932,17.2699854 2.74164459,17.4283816 2.94,17.5 L3.04,17.5 C3.09318477,17.5056297 3.14681523,17.5056297 3.2,17.5 L6.93,17.5 C7.31659932,17.5 7.63,17.1865993 7.63,16.8 C7.63,16.4134007 7.31659932,16.1 6.93,16.1 L4.93,16.1 L8.93,12.1 C9.06696438,11.9697469 9.14450026,11.7890108 9.14450026,11.6 C9.14450026,11.4109892 9.06696438,11.2302531 8.93,11.1 C8.79795741,10.9637033 8.61684757,10.8859382 8.42708852,10.8840246 C8.23732947,10.8821806 8.05471539,10.9563445 7.92,11.09 L7.92,11.09 Z M16.8,12.38 C16.4134007,12.38 16.1,12.6934007 16.1,13.08 L16.1,15.08 L12.1,11.08 C11.8238576,10.8038576 11.3761424,10.8038576 11.1,11.08 C10.8238576,11.3561424 10.8238576,11.8038576 11.1,12.08 L15.1,16.08 L13.1,16.08 C12.7134007,16.08 12.4,16.3934007 12.4,16.78 C12.4,17.1665993 12.7134007,17.48 13.1,17.48 L16.8,17.48 C17.1865993,17.48 17.5,17.1665993 17.5,16.78 L17.5,13.08 C17.5,12.6934007 17.1865993,12.38 16.8,12.38 L16.8,12.38 Z M4.89,3.9 L6.89,3.9 C7.27659932,3.9 7.59,3.58659932 7.59,3.2 C7.59,2.81340068 7.27659932,2.5 6.89,2.5 L3.2,2.5 C3.14681523,2.49437033 3.09318477,2.49437033 3.04,2.5 L2.94,2.5 C2.75003381,2.57997992 2.6065968,2.7418063 2.55,2.94 C2.55,2.94 2.55,3.01 2.55,3.04 C2.52748455,3.0913265 2.51071591,3.14498615 2.5,3.2 L2.5,6.93 C2.5,7.31659932 2.81340068,7.63 3.2,7.63 C3.58659932,7.63 3.9,7.31659932 3.9,6.93 L3.9,4.93 L7.9,8.93 C8.03167928,9.06433974 8.21188674,9.14000611 8.4,9.14000611 C8.58534957,9.14079113 8.7627456,9.06476426 8.89,8.93 C9.02696438,8.79974694 9.10450026,8.61901085 9.10450026,8.43 C9.10450026,8.24098915 9.02696438,8.06025306 8.89,7.93 L4.89,3.9 Z"/>
</svg>
