<svg xmlns="http://www.w3.org/2000/svg" width="20" height="20" viewBox="0 0 20 20">
  <path fill="#264966" d="M10,2 C5.581722,2 2,5.581722 2,10 C2,14.418278 5.581722,18 10,18 C14.418278,18 18,14.418278 18,10 C18,7.87826808 17.1571453,5.84343678 15.6568542,4.34314575 C14.1565632,2.84285472 12.1217319,2 10,2 Z M10,16.6 C6.35492065,16.6 3.4,13.6450793 3.4,10 C3.4,6.35492065 6.35492065,3.4 10,3.4 C13.6450793,3.4 16.6,6.35492065 16.6,10 C16.5944931,13.6427959 13.6427959,16.5944931 10,16.6 Z M12.69,12.54 C12.8437882,12.8934786 12.6828479,13.3047703 12.33,13.46 C12.2417104,13.4988093 12.1464397,13.5192245 12.05,13.52 C11.7722311,13.5193804 11.5211071,13.3545803 11.41,13.1 C11.1710573,12.5327839 10.6154898,12.1639697 10,12.1639697 C9.38451023,12.1639697 8.82894266,12.5327839 8.59,13.1 C8.50095322,13.3451013 8.28304277,13.5203848 8.02455281,13.5548362 C7.76606284,13.5892877 7.50985101,13.477195 7.35971888,13.2639714 C7.20958674,13.0507478 7.19042622,12.7717457 7.31,12.54 C7.77345627,11.4665366 8.83076286,10.7713785 10,10.7713785 C11.1692371,10.7713785 12.2265437,11.4665366 12.69,12.54 Z M7.69,8.67 C7.13771525,8.67 6.69,8.22228475 6.69,7.67 C6.69,7.11771525 7.13771525,6.67 7.69,6.67 C8.24228475,6.67 8.69,7.11771525 8.69,7.67 C8.69002742,8.21840296 8.24837554,8.66451597 7.7,8.67 L7.69,8.67 Z M13.34,7.67 C13.34,8.22228475 12.8922847,8.67 12.34,8.67 C11.7877153,8.67 11.34,8.22228475 11.34,7.67 C11.34,7.11771525 11.7877153,6.67 12.34,6.67 C12.8771936,6.66395747 13.3231726,7.08344268 13.35,7.62 L13.34,7.67 Z"/>
</svg>
