<svg xmlns="http://www.w3.org/2000/svg" width="20" height="20" viewBox="0 0 20 20">
  <path fill="#264966" d="M17.0226601,3.00019925 L15.7626601,2.28019925 C15.2847707,2.00317993 14.7163182,1.92762611 14.1826601,2.07019925 C13.6438737,2.22272747 13.1873143,2.582223 12.9126601,3.07019925 L8.71266015,10.3701992 C8.6431213,10.5023256 8.61194569,10.6512757 8.62266015,10.8001992 L9.02266015,14.2301992 C9.04407573,14.4512947 9.17062284,14.6485593 9.36266015,14.7601992 C9.46993977,14.8190594 9.5902943,14.8500077 9.71266015,14.8501992 C9.81929787,14.8551817 9.92558249,14.8346105 10.0226601,14.7901992 L13.2226601,13.4201992 C13.3632576,13.3601405 13.4795132,13.2544535 13.5526601,13.1201992 L17.7426601,5.83019925 C18.3051375,4.84706141 17.9865901,3.59499317 17.0226601,3.00019925 Z M14.5926601,3.45019925 C14.7719742,3.40857625 14.9603009,3.43344959 15.1226601,3.52019925 L16.3226601,4.22019925 C16.6538603,4.40810918 16.7702221,4.8288019 16.5826601,5.16019925 L16.5826601,5.16019925 L16.0326601,6.16019925 L13.5726601,4.71019925 L14.1226601,3.71019925 C14.2211736,3.56411943 14.3711521,3.46056285 14.5426601,3.42019925 L14.5926601,3.45019925 Z M12.5026601,12.2501992 L10.3726601,13.1701992 L10.0226601,10.8401992 L12.8526601,5.92019925 L15.2826601,7.30019925 L12.5026601,12.2501992 Z M9.29266015,15.6001992 C9.43956924,15.7193155 9.53202585,15.8928098 9.54897922,16.0811805 C9.56593258,16.2695513 9.50593979,16.456766 9.38266015,16.6001992 C8.73547402,17.4449689 7.74600726,17.9580258 6.68266015,18.0002435 C6.38114627,18.0018374 6.08110823,17.9580116 5.79266015,17.8701992 C4.32758878,17.3481483 3.30821817,16.0112046 3.19266015,14.4601992 C2.94266015,12.0001992 4.36266015,10.6401992 5.73266015,9.32019925 L6.21266015,8.86019925 C7.08516118,8.02168437 7.13817776,6.6432533 6.33266015,5.74019925 C5.5736003,4.72252755 4.13552835,4.50815658 3.11266015,5.26019925 C2.95535269,5.37217838 2.75877625,5.41420443 2.56943285,5.37633575 C2.38008944,5.33846707 2.21479814,5.22406746 2.11266015,5.06019925 C1.99976667,4.90414485 1.95616246,4.70846863 1.99211483,4.51924564 C2.0280672,4.33002265 2.14039908,4.16397428 2.30266015,4.06019925 C3.93291367,2.91727361 6.17341344,3.25620972 7.39266015,4.83019925 C8.66099089,6.29174199 8.55981266,8.49126873 7.16266015,9.83019925 L6.67266015,10.3101992 C5.34266015,11.5901992 4.37266015,12.5201992 4.55266015,14.3101992 C4.61977046,15.2981886 5.25067176,16.1588626 6.17266015,16.5201992 C6.98217678,16.7054064 7.82192534,16.3710989 8.28266015,15.6801992 C8.40170299,15.5291047 8.57841369,15.434561 8.77016892,15.4193725 C8.96192414,15.4041839 9.15131518,15.4697295 9.29266015,15.6001992 Z"/>
</svg>
