<svg xmlns="http://www.w3.org/2000/svg" width="20" height="20" viewBox="0 0 20 20">
  <path fill="#264966" d="M13.3,2 L9.39,2 L10.17,1.23 C10.4445556,0.953202235 10.4445556,0.506797765 10.17,0.23 C10.0397469,0.0930356182 9.85901085,0.0154997371 9.67,0.0154997371 C9.48098915,0.0154997371 9.30025306,0.0930356182 9.17,0.23 L7.17,2.23 C7.09991299,2.29151142 7.0480324,2.37106166 7.02,2.46 C6.94068421,2.62776432 6.94068421,2.82223568 7.02,2.99 C7.05051041,3.07774457 7.10200452,3.15670221 7.17,3.22 L9.17,5.22 C9.34863279,5.39863279 9.60899577,5.46839684 9.8530127,5.4030127 C10.0970296,5.33762856 10.2876286,5.14702964 10.3530127,4.9030127 C10.4183968,4.65899577 10.3486328,4.39863279 10.17,4.22 L9.39,3.44 L13.3,3.44 C14.0179702,3.44 14.6,4.02202983 14.6,4.74 L14.6,13.3 C14.6,13.6447814 14.4630361,13.9754415 14.2192388,14.2192388 C13.9754415,14.4630361 13.6447814,14.6 13.3,14.6 L4.67,14.6 C4.32521856,14.6 3.99455848,14.4630361 3.75076118,14.2192388 C3.50696389,13.9754415 3.37,13.6447814 3.37,13.3 L3.37,5.3 L4.65,5.3 C5.03435036,5.29462369 5.34462369,4.98435036 5.35,4.6 L5.35,0.7 C5.35,0.514348457 5.27625021,0.336300718 5.14497475,0.205025253 C5.01369928,0.0737497883 4.83565154,0 4.65,0 L0.7,0 C0.313400675,0 0,0.313400675 0,0.7 L0,4.7 C0,4.88565154 0.0737497883,5.06369928 0.205025253,5.19497475 C0.336300718,5.32625021 0.514348457,5.4 0.7,5.4 L2,5.4 L2,13.4 C2.05330728,14.8404261 3.22866616,15.9849704 4.67,16 L13.3,16 C14.7911688,16 16,14.7911688 16,13.3 L16,4.67 C15.9835608,3.1905601 14.7795312,1.99990867 13.3,2 Z M1.4,1.4 L4,1.4 L4,4 L1.4,4 L1.4,1.4 Z" transform="translate(2 2)"/>
</svg>
