<svg xmlns="http://www.w3.org/2000/svg" width="20" height="20" viewBox="0 0 20 20">
  <path fill="#264966" d="M14.96,2.49999694 L5.04,2.49999694 C3.63719674,2.49999694 2.5,3.63719368 2.5,5.03999694 L2.5,13.1199969 C2.5,14.5228002 3.63719674,15.6599969 5.04,15.6599969 L7.92,15.6599969 L9.55,17.2899969 C9.6772544,17.4247612 9.85465043,17.5007881 10.04,17.4999969 C10.2281133,17.4999969 10.4083207,17.4243367 10.54,17.2899969 L12.17,15.6599969 L14.96,15.6599969 C16.3628033,15.6599969 17.5,14.5228002 17.5,13.1199969 L17.5,5.03999694 C17.5,3.63719368 16.3628033,2.49999694 14.96,2.49999694 Z M16.1,13.1199969 C16.1,13.7496016 15.5896046,14.2599969 14.96,14.2599969 L11.88,14.2599969 C11.6955897,14.2636923 11.5198554,14.339007 11.39,14.4699969 L10.04,15.8099969 L8.7,14.4999969 C8.57014456,14.369007 8.39441027,14.2936923 8.21,14.2899969 L5.04,14.2899969 C4.73238286,14.2901035 4.43777863,14.1658873 4.22310346,13.9455628 C4.0084283,13.7252383 3.89190479,13.4275076 3.9,13.1199969 L3.9,5.03999694 C3.9,4.41039233 4.41039539,3.89999694 5.04,3.89999694 L14.96,3.89999694 C15.5896046,3.89999694 16.1,4.41039233 16.1,5.03999694 L16.1,13.1199969 Z M13.17,7.76999694 L11.41,7.49999694 L10.63,5.91999694 C10.4952739,5.70135397 10.2568187,5.56819792 10,5.56819792 C9.74318127,5.56819792 9.50472606,5.70135397 9.37,5.91999694 L8.59,7.49999694 L6.83,7.75999694 C6.56984965,7.79899548 6.35352623,7.98055264 6.27,8.22999694 C6.19772216,8.49736232 6.28751339,8.78235188 6.5,8.95999694 L7.72,10.1999969 L7.42,11.9499969 C7.37252617,12.2096488 7.47734317,12.4736323 7.69,12.6299969 C7.91580925,12.7734519 8.20419075,12.7734519 8.43,12.6299969 L10,11.8599969 L11.57,12.6799969 C11.6672961,12.735544 11.7780107,12.7632227 11.89,12.7599969 C12.0401298,12.7615136 12.1869783,12.7160605 12.31,12.6299969 C12.5226568,12.4736323 12.6274738,12.2096488 12.58,11.9499969 L12.28,10.1999969 L13.55,8.95999694 C13.7406436,8.77295418 13.8101948,8.49474929 13.73,8.23999694 C13.6464738,7.99055264 13.4301504,7.80899548 13.17,7.76999694 Z M11.04,9.49999694 C10.8783025,9.66296013 10.8040109,9.89326389 10.84,10.1199969 L10.96,10.8299969 L10.33,10.4999969 C10.1229546,10.3932261 9.87704544,10.3932261 9.67,10.4999969 L9.04,10.8299969 L9.16,10.1199969 C9.19598907,9.89326389 9.12169753,9.66296013 8.96,9.49999694 L8.44,8.99999694 L9.15,8.89999694 C9.3819715,8.86257801 9.58040603,8.7128161 9.68,8.49999694 L10,7.85999694 L10.32,8.49999694 C10.4221246,8.70895884 10.6201189,8.85465279 10.85,8.88999694 L11.56,8.98999694 L11.04,9.49999694 Z"/>
</svg>
