<svg xmlns="http://www.w3.org/2000/svg" width="20" height="20" viewBox="0 0 20 20">
  <path fill="#264966" d="M5.69,7.81 C5.67316357,8.13677637 5.88495219,8.43161935 6.2,8.52 C9.98,9.52 10.46,9.67 11.2,13.42 C11.2574513,13.7562338 11.5488932,14.0021017 11.89,14.0021017 C12.2311068,14.0021017 12.5225487,13.7562338 12.58,13.42 C13.29,9.6 13.65,9.23 17.48,8.53 C17.8162338,8.47254872 18.0621017,8.18110677 18.0621017,7.84 C18.0621017,7.49889323 17.8162338,7.20745128 17.48,7.15 C13.65,6.45 13.29,6.08 12.58,2.26 C12.5225487,1.92376618 12.2311068,1.67789826 11.89,1.67789826 C11.5488932,1.67789826 11.2574513,1.92376618 11.2,2.26 C10.5,6.08 10.13,6.45 6.31,7.15 C5.9676863,7.18465126 5.70320992,7.46619064 5.69,7.81 Z M11.84,5.24 C12.2333696,6.47725168 13.2027483,7.44663042 14.44,7.84 C13.1810421,8.2396915 12.2005716,9.23513106 11.82,10.5 C11.3348803,9.24653448 10.2915601,8.29200743 9,7.92 C10.3413832,7.56876977 11.4116634,6.55878707 11.84,5.24 Z M4.66,12.74 L4.66,11.74 C4.66,11.3534007 4.97340068,11.04 5.36,11.04 C5.74659932,11.04 6.06,11.3534007 6.06,11.74 L6.06,12.74 L7.06,12.74 C7.44659932,12.74 7.76,13.0534007 7.76,13.44 C7.76,13.8265993 7.44659932,14.14 7.06,14.14 L6.06,14.14 L6.06,15.14 C6.06,15.5265993 5.74659932,15.84 5.36,15.84 C4.97340068,15.84 4.66,15.5265993 4.66,15.14 L4.66,14.14 L3.66,14.14 C3.27340068,14.14 2.96,13.8265993 2.96,13.44 C2.96,13.0534007 3.27340068,12.74 3.66,12.74 L4.66,12.74 Z M5.23,1.84 C5.23,1.45340068 5.54340068,1.14 5.93,1.14 L6.37,1.14 L6.37,0.7 C6.37,0.313400675 6.68340068,7.28306304e-13 7.07,7.28306304e-13 C7.45659932,7.28306304e-13 7.77,0.313400675 7.77,0.7 L7.77,1.14 L8.2,1.14 C8.58659932,1.14 8.9,1.45340068 8.9,1.84 C8.9,2.22659932 8.58659932,2.54 8.2,2.54 L7.77,2.54 L7.77,3 C7.77,3.38659932 7.45659932,3.7 7.07,3.7 C6.68340068,3.7 6.37,3.38659932 6.37,3 L6.37,2.54 L5.93,2.54 C5.54340068,2.54 5.23,2.22659932 5.23,1.84 L5.23,1.84 Z M18,11.65 L18,16.65 C18,18.3068542 16.6568542,19.65 15,19.65 L3,19.65 C1.34314575,19.65 1.59872116e-13,18.3068542 1.59872116e-13,16.65 L1.59872116e-13,4.65 C1.59872116e-13,2.99314575 1.34314575,1.65 3,1.65 C3.25008592,1.65 3.48117484,1.78341924 3.60621779,2 C3.73126075,2.21658075 3.73126075,2.48341925 3.60621779,2.7 C3.48117484,2.91658076 3.25008592,3.05000001 3,3.05 C2.57843675,3.04194317 2.17135054,3.20378977 1.87039779,3.49909966 C1.56944504,3.79440955 1.39992302,4.19835977 1.4,4.62 L1.4,16.67 C1.39996615,17.0925304 1.56917258,17.4974705 1.86981983,17.7943597 C2.17046709,18.0912488 2.57750344,18.2553485 3,18.25 L15,18.25 C15.8687021,18.2445018 16.5700174,17.5387195 16.57,16.67 L16.57,11.67 C16.57,11.2834007 16.8834007,10.97 17.27,10.97 C17.6565993,10.97 17.97,11.2834007 17.97,11.67 L18,11.65 Z" transform="translate(.969)"/>
</svg>
