<svg xmlns="http://www.w3.org/2000/svg" width="20" height="20" viewBox="0 0 20 20">
  <path fill="#264966" d="M8,0 C3.581722,0 0,3.581722 0,8 C0,12.418278 3.581722,16 8,16 C12.418278,16 16,12.418278 16,8 C16,5.87826808 15.1571453,3.84343678 13.6568542,2.34314575 C12.1565632,0.842854723 10.1217319,0 8,0 Z M8,14.6 C4.35492065,14.6 1.4,11.6450793 1.4,8 C1.4,4.35492065 4.35492065,1.4 8,1.4 C11.6450793,1.4 14.6,4.35492065 14.6,8 C14.5944931,11.6427959 11.6427959,14.5944931 8,14.6 Z M12,8.00000003 C12,8.38659932 11.6865993,8.7 11.3,8.7 L8,8.7 C7.61340068,8.7 7.3,8.38659932 7.3,8.00000003 L7.3,4.7 C7.3,4.31340069 7.61340069,4.00000003 8,4.00000003 C8.38659931,4.00000003 8.69999998,4.31340069 8.7,4.7 L8.7,7.3 L11.3,7.3 C11.6865993,7.3 12,7.61340068 12,8.00000003 L12,8.00000003 Z" transform="translate(2 2)"/>
</svg>
