<svg xmlns="http://www.w3.org/2000/svg" width="20" height="20" viewBox="0 0 20 20">
  <path fill="#264966" d="M2.71406494,11.8502572 C3.26386629,12.4862598 4.06336304,12.8513268 4.90406494,12.8502572 L7.28406494,12.8502572 L6.48406494,14.8502572 C6.37714741,15.1243179 6.32286579,15.4160817 6.32406494,15.7102572 C6.31478851,16.8135696 7.09357903,17.7666292 8.17662024,17.9773566 C9.25966146,18.1880841 10.3389823,17.5965575 10.7440649,16.5702572 L11.9440649,13.5702572 C12.1522574,13.0458604 12.5979823,12.6521368 13.1440649,12.5102572 L13.4240649,12.4402572 C13.7263043,12.967899 14.2860103,13.295346 14.8940649,13.3002572 L17.3140649,13.3002572 C17.7006643,13.3002572 18.0140649,12.9868565 18.0140649,12.6002572 L18.0140649,2.68025717 C18.0140649,2.29365784 17.7006643,1.98025717 17.3140649,1.98025717 L14.8940649,1.98025717 C14.2293762,1.98385616 13.6277546,2.37451959 13.3540649,2.98025717 L6.35406494,2.98025717 C4.27406494,2.98025717 2.91406494,3.98025717 2.66406494,5.53025717 L2.01406494,9.53025717 C1.89624823,10.3687964 2.15211722,11.2168193 2.71406494,11.8502572 Z M14.8940649,3.38025717 L16.6140649,3.38025717 L16.6140649,11.9202572 L14.8940649,11.9202572 C14.8153878,11.9202572 14.7400682,11.8883816 14.6853858,11.8318136 C14.6307035,11.7752456 14.6013519,11.6988876 14.6040649,11.6202572 L14.6040649,11.6202572 L14.6040649,3.68025717 C14.603975,3.5183997 14.7322974,3.38565239 14.8940649,3.38025717 Z M3.43406494,9.74025717 L4.04406494,5.74025717 C4.22406494,4.62025717 5.37406494,4.38025717 6.31406494,4.38025717 L13.2040649,4.38025717 L13.2040649,11.0702572 L12.8040649,11.1702572 C11.8260672,11.4239323 11.0253179,12.1245879 10.6440649,13.0602572 L9.44406494,16.0602572 C9.35321253,16.2793598 9.18124795,16.454907 8.96406494,16.5502572 C8.7463331,16.6402622 8.50179678,16.6402622 8.28406494,16.5502572 C7.94285751,16.4170919 7.71981086,16.0865049 7.72406494,15.7202572 C7.72534317,15.6076637 7.74562845,15.4960946 7.78406494,15.3902572 L9.01406494,12.4202572 C9.10136843,12.2055834 9.07507395,11.9614204 8.94406494,11.7702572 C8.81432827,11.5768849 8.59692593,11.4606871 8.36406494,11.4602572 L4.90406494,11.4602572 C4.46909668,11.4596321 4.05611891,11.2689695 3.77352028,10.9383099 C3.49092164,10.6076502 3.36692167,10.1700124 3.43406494,9.74025717 Z"/>
</svg>
