<svg xmlns="http://www.w3.org/2000/svg" width="20" height="20" viewBox="0 0 20 20">
  <path fill="#264966" d="M16.07,8.40468308 L14.5,9.99468308 L16.08,11.5846831 C16.2169644,11.7149361 16.2945003,11.8956722 16.2945003,12.0846831 C16.2945003,12.2736939 16.2169644,12.45443 16.08,12.5846831 C15.9491337,12.7129053 15.7732128,12.7846831 15.59,12.7846831 C15.4041299,12.7831784 15.2256333,12.7117797 15.09,12.5846831 L13.5,10.9846831 L11.91,12.5746831 C11.6332022,12.8492386 11.1867978,12.8492386 10.91,12.5746831 C10.6354444,12.2978853 10.6354444,11.8514808 10.91,11.5746831 L12.5,9.99468308 L10.92,8.40468308 C10.7413672,8.22605029 10.6716031,7.96568731 10.7369873,7.72167037 C10.8023714,7.47765343 10.9929703,7.2870545 11.2369873,7.22167036 C11.4810042,7.15628622 11.7413672,7.22605028 11.92,7.40468308 L13.5,9.00468308 L15.08,7.41468308 C15.3567978,7.14012752 15.8032022,7.14012752 16.08,7.41468308 C16.2124939,7.54596252 16.2861966,7.72528895 16.2843127,7.91179735 C16.2824288,8.09830575 16.2051187,8.2761068 16.07,8.40468308 L16.07,8.40468308 Z M16.07,2.49468308 L3.95,2.49468308 C3.14918711,2.49468308 2.5,3.14387019 2.5,3.94468308 L2.5,6.49468308 C2.50536539,6.86979782 2.65590833,7.22823338 2.92,7.49468308 L7.72,12.3146831 L7.72,16.7946831 C7.7181756,17.0256732 7.83042658,17.2426918 8.02,17.3746831 C8.13855027,17.4533216 8.27773956,17.4950784 8.42,17.4946831 C8.50273025,17.5088615 8.58726975,17.5088615 8.67,17.4946831 L11.83,16.2846831 C12.1015584,16.1839406 12.2812936,15.9243231 12.28,15.6346831 L12.28,13.3146831 C12.0231046,13.4976242 11.715376,13.5955379 11.4,13.5946831 C11.2184988,13.5962735 11.0384431,13.5623008 10.87,13.4946831 L10.87,15.1046831 L9.11,15.7746831 L9.11,12.3346831 C9.09890419,11.9588285 8.94516221,11.6012891 8.68,11.3346831 L3.9,6.49468308 L3.95,3.89468308 L16.05,3.89468308 L16.05,6.49468308 C16.2614175,6.56605984 16.4531975,6.68592236 16.61,6.84468308 C16.8031228,7.04230178 16.9410437,7.2871114 17.01,7.55468308 L17.01,7.55468308 C17.3146835,7.28564582 17.4924558,6.90107719 17.5,6.49468308 L17.5,3.94468308 C17.5,3.14387019 16.8508129,2.49468308 16.05,2.49468308 L16.07,2.49468308 Z"/>
</svg>
