<svg xmlns="http://www.w3.org/2000/svg" width="20" height="20" viewBox="0 0 20 20">
  <path fill="#264966" d="M10.985,10.1248965 C10.4111644,10.5249087 9.64883562,10.5249087 9.075,10.1248965 L4.295,6.91489655 C4.13504132,6.80922622 4.0246132,6.64336045 3.98882836,6.45501916 C3.95304351,6.26667787 3.99494359,6.07186974 4.105,5.91489655 C4.20841312,5.75181942 4.37543013,5.63953849 4.565478,5.60532987 C4.75552587,5.57112126 4.95121241,5.61811555 5.105,5.73489655 L9.835,8.96489655 C9.93427751,9.03358348 10.0657225,9.03358348 10.165,8.96489655 L14.895,5.75489655 C15.1004277,5.61556297 15.3645843,5.59640781 15.5879646,5.70464664 C15.8113449,5.81288547 15.960012,6.03207423 15.9779646,6.27964664 C15.9959172,6.52721905 15.8804277,6.76556297 15.675,6.90489655 L10.985,10.1248965 Z M16.285,3.03489655 L3.685,3.03489655 C2.74611593,3.03489655 1.985,3.79601247 1.985,4.73489655 L1.985,13.3348965 C1.985,14.2737806 2.74611593,15.0348965 3.685,15.0348965 L9.145,15.0348965 C9.04029639,14.8163574 8.98563695,14.5772224 8.985,14.3348965 C8.98735432,14.0938432 9.03837451,13.8557489 9.135,13.6348965 L3.685,13.6348965 C3.60543505,13.6348965 3.52912888,13.6032895 3.47286797,13.5470286 C3.41660705,13.4907677 3.385,13.4144615 3.385,13.3348965 L3.385,4.73489655 C3.385,4.56921112 3.51931458,4.43489655 3.685,4.43489655 L16.285,4.43489655 C16.4506854,4.43489655 16.585,4.56921112 16.585,4.73489655 L16.585,11.2348965 L17.985,12.6348965 L17.985,4.73489655 C17.985,3.79601247 17.2238841,3.03489655 16.285,3.03489655 Z M17.985,14.3348965 C18.0076759,14.236182 18.0076759,14.1336111 17.985,14.0348965 C17.944443,13.9500891 17.8904092,13.8724155 17.825,13.8048965 L15.825,11.8048965 C15.6463672,11.6262637 15.3860042,11.5564997 15.1419873,11.6218838 C14.8979704,11.687268 14.7073714,11.8778669 14.6419873,12.1218838 C14.5766031,12.3659008 14.6463672,12.6262638 14.825,12.8048965 L15.605,13.5848965 L10.685,13.5848965 C10.2984007,13.5848965 9.985,13.8982972 9.985,14.2848965 C9.985,14.6714959 10.2984007,14.9848965 10.685,14.9848965 L15.595,14.9848965 L14.815,15.7648965 C14.5404444,16.0416943 14.5404444,16.4880988 14.815,16.7648965 C14.947698,16.8965342 15.1281238,16.9687045 15.315,16.9648965 C15.4990816,16.9695036 15.6767181,16.8969989 15.805,16.7648965 L17.805,14.7648965 C17.8724038,14.7029072 17.926794,14.6281207 17.965,14.5448965 C17.9922649,14.4640378 18.0090681,14.3800219 18.015,14.2948965 L17.985,14.3348965 Z"/>
</svg>
