<svg xmlns="http://www.w3.org/2000/svg" width="20" height="20" viewBox="0 0 20 20">
  <path fill="#264966" d="M17.7864386,10.9 L14.5764386,14.11 C14.4468146,14.2401005 14.2700781,14.3122378 14.0864386,14.31 C13.9001762,14.3105177 13.7209611,14.2388316 13.5864386,14.11 L11.9264386,12.44 C11.6502962,12.1638576 11.6502962,11.7161424 11.9264386,11.44 C12.2025809,11.1638576 12.6502962,11.1638576 12.9264386,11.44 L14.0964386,12.61 L16.7964386,9.91 C16.9750714,9.73136721 17.2354343,9.66160316 17.4794513,9.7269873 C17.7234682,9.79237144 17.9140671,9.98297036 17.9794513,10.2269873 C18.0448354,10.4710042 17.9750714,10.7313672 17.7964386,10.91 L17.7864386,10.9 Z M12.3264386,6.2 L12.3264386,5.2 C12.3264386,4.81340068 12.0130379,4.5 11.6264386,4.5 L2.69643856,4.5 C2.30983923,4.5 1.99643856,4.81340068 1.99643856,5.2 L1.99643856,6.2 C1.99643856,6.58659932 2.30983923,6.9 2.69643856,6.9 C3.08303788,6.9 3.39643856,6.58659932 3.39643856,6.2 L3.39643856,5.9 L6.45643856,5.9 L6.45643856,14.1 L6.15643856,14.1 C5.76983923,14.1 5.45643856,14.4134007 5.45643856,14.8 C5.45643856,15.1865993 5.76983923,15.5 6.15643856,15.5 L8.15643856,15.5 C8.54303788,15.5 8.85643856,15.1865993 8.85643856,14.8 C8.85643856,14.4134007 8.54303788,14.1 8.15643856,14.1 L7.85643856,14.1 L7.85643856,5.9 L10.9264386,5.9 L10.9264386,6.2 C10.9264386,6.58659932 11.2398392,6.9 11.6264386,6.9 C12.0130379,6.9 12.3264386,6.58659932 12.3264386,6.2 L12.3264386,6.2 Z"/>
</svg>
