<svg xmlns="http://www.w3.org/2000/svg" width="20" height="20" viewBox="0 0 20 20">
  <path fill="#264966" d="M9.7,14.66 C10.0773102,14.6551108 10.4478418,14.559047 10.78,14.38 L11.46,15.06 C11.7367978,15.3345556 12.1832022,15.3345556 12.46,15.06 C12.7345556,14.7832022 12.7345556,14.3367978 12.46,14.06 L11.78,13.38 C12.2597381,12.4418875 12.0564195,11.2991272 11.2825488,10.5840553 C10.508678,9.86898345 9.35344318,9.75641351 8.45608313,10.3086351 C7.55872308,10.8608567 7.1386153,11.9428682 7.42822269,12.9559483 C7.71783008,13.9690284 8.64635235,14.6655095 9.7,14.66 L9.7,14.66 Z M9.7,11.35 C10.2522847,11.35 10.7000002,11.7977153 10.7000002,12.35 C10.70018,12.6018229 10.5993109,12.8431882 10.42,13.02 L10.42,13.02 C10.2396404,13.193988 10.0005282,13.2939154 9.75,13.3 C9.33932225,13.4275491 8.89308547,13.2782626 8.64183332,12.9292679 C8.39058116,12.5802731 8.39058116,12.1097269 8.64183332,11.7607321 C8.89308547,11.4117374 9.33932225,11.2624509 9.75,11.39 L9.7,11.35 Z M11.96,5.81 C11.96,6.19659932 11.6465993,6.51 11.26,6.51 C10.8734007,6.51 10.56,6.19659932 10.56,5.81 C10.56,5.42340068 10.8734007,5.11 11.26,5.11 C11.4456515,5.11 11.6236993,5.18374979 11.7549747,5.31502525 C11.8862502,5.44630072 11.96,5.62434846 11.96,5.81 Z M14.8,2.5 L5.2,2.5 C3.70883118,2.5 2.5,3.70883118 2.5,5.2 L2.5,14.96 C2.5,16.3628033 3.63719674,17.5 5.04,17.5 L14.96,17.5 C16.3628033,17.5 17.5,16.3628033 17.5,14.96 L17.5,5.2 C17.5,3.70883118 16.2911688,2.5 14.8,2.5 Z M16.1,14.96 C16.1,15.5896046 15.5896046,16.1 14.96,16.1 L5.04,16.1 C4.41039539,16.1 3.9,15.5896046 3.9,14.96 L3.9,9.12 L16.1,9.12 L16.1,14.96 Z M16.1,7.72 L3.9,7.72 L3.9,5.2 C3.9,4.85521856 4.03696389,4.52455848 4.28076118,4.28076118 C4.52455848,4.03696389 4.85521856,3.9 5.2,3.9 L14.8,3.9 C15.5179702,3.9 16.1,4.48202983 16.1,5.2 L16.1,7.72 Z M9.17,5.81 C9.17,6.19659932 8.85659932,6.51 8.47,6.51 C8.08340068,6.51 7.77,6.19659932 7.77,5.81 C7.77,5.42340068 8.08340068,5.11 8.47,5.11 C8.85659932,5.11 9.17,5.42340068 9.17,5.81 L9.17,5.81 Z M6.37,5.81 C6.37,6.19659932 6.05659932,6.51 5.67,6.51 C5.28340068,6.51 4.97,6.19659932 4.97,5.81 C4.97,5.42340068 5.28340068,5.11 5.67,5.11 C6.05659932,5.11 6.37,5.42340068 6.37,5.81 L6.37,5.81 Z"/>
</svg>
