<svg xmlns="http://www.w3.org/2000/svg" width="20" height="20" viewBox="0 0 20 20">
  <path fill="#264966" d="M15.68,2.06 C15.4791069,1.92334248 15.2217189,1.90063176 15,2 L12,3.29 L12,1.69 C12.000574,0.779576867 11.2798494,0.0323225403 10.37,0 L1.69,0 C0.756638773,0 0,0.756638773 0,1.69 L0,10.31 C0,10.7582159 0.17805306,11.188074 0.49498954,11.5050105 C0.811926019,11.8219469 1.24178413,12 1.69,12 L10.37,12 C11.2994536,11.9945002 12.0500163,11.2394699 12.05,10.31 L12.05,8.7 L15,10 C15.213449,10.1007517 15.4641654,10.081758 15.66,9.95 C15.8708253,9.82357505 16,9.59582631 16,9.35 L16,2.65 C16.0007219,2.41168309 15.8801461,2.18937153 15.68,2.06 Z M14.6,8.29 L11.63,7 C11.4247479,6.88607821 11.1752521,6.88607821 10.97,7 C10.7698539,7.12937153 10.6492781,7.35168309 10.65,7.59 L10.65,10.26 C10.6527152,10.3359777 10.6244184,10.4097932 10.571611,10.4644865 C10.5188037,10.5191799 10.4460261,10.5500001 10.37,10.5500001 L1.69,10.5500001 C1.52983742,10.5500001 1.4,10.4201626 1.4,10.26 L1.4,1.69 C1.4,1.52983742 1.52983742,1.39999994 1.69,1.39999994 L10.37,1.39999994 C10.4460261,1.39999994 10.5188037,1.43082015 10.571611,1.48551348 C10.6244184,1.54020681 10.6527152,1.61402234 10.65,1.69 L10.65,4.36 C10.6375097,4.62206686 10.7726143,4.86911531 11,5 C11.2052521,5.11392179 11.4547479,5.11392179 11.66,5 L14.66,3.71 L14.6,8.29 Z" transform="translate(2 4)"/>
</svg>
