<svg xmlns="http://www.w3.org/2000/svg" width="20" height="20" viewBox="0 0 20 20">
  <path fill="#264966" d="M7.7,15.5020401 C7.51312377,15.5058481 7.33269796,15.4336778 7.2,15.3020401 L2.2,10.3020401 C2.06303562,10.171787 1.98549974,9.99105094 1.98549974,9.80204009 C1.98549974,9.61302924 2.06303562,9.43229315 2.2,9.30204009 C2.47679776,9.02748453 2.92320224,9.02748453 3.2,9.30204009 L7.7,13.8020401 L16.8,4.71204009 C16.9302531,4.57507571 17.1109892,4.49753983 17.3,4.49753983 C17.4890108,4.49753983 17.6697469,4.57507571 17.8,4.71204009 C17.9369644,4.84229315 18.0145003,5.02302924 18.0145003,5.21204009 C18.0145003,5.40105094 17.9369644,5.58178704 17.8,5.71204009 L8.2,15.3120401 C8.06565881,15.4400243 7.88543372,15.5085099 7.7,15.5020401 Z"/>
</svg>
