<svg xmlns="http://www.w3.org/2000/svg" width="20" height="20" viewBox="0 0 20 20">
  <path fill="#264966" d="M14.8,2.5 L5.2,2.5 C3.70883118,2.5 2.5,3.70883118 2.5,5.2 L2.5,14.8 C2.5,15.5160845 2.78446347,16.2028401 3.29081169,16.7091883 C3.79715991,17.2155365 4.48391548,17.5 5.2,17.5 L14.8,17.5 C15.5160845,17.5 16.2028401,17.2155365 16.7091883,16.7091883 C17.2155365,16.2028401 17.5,15.5160845 17.5,14.8 L17.5,5.2 C17.5,3.70883118 16.2911688,2.5 14.8,2.5 Z M8.43,11.57 L8.43,8.43 L11.57,8.43 L11.57,11.57 L8.43,11.57 Z M11.57,12.97 L11.57,16.1 L8.43,16.1 L8.43,12.97 L11.57,12.97 Z M3.9,8.43 L7.03,8.43 L7.03,11.57 L3.9,11.57 L3.9,8.43 Z M8.43,7.03 L8.43,3.9 L11.57,3.9 L11.57,7.03 L8.43,7.03 Z M12.97,8.43 L16.1,8.43 L16.1,11.57 L12.97,11.57 L12.97,8.43 Z M16.1,5.2 L16.1,7.03 L12.97,7.03 L12.97,3.9 L14.8,3.9 C15.5179702,3.9 16.1,4.48202983 16.1,5.2 L16.1,5.2 Z M5.2,3.9 L7.03,3.9 L7.03,7.03 L3.9,7.03 L3.9,5.2 C3.9,4.85521856 4.03696389,4.52455848 4.28076118,4.28076118 C4.52455848,4.03696389 4.85521856,3.9 5.2,3.9 Z M3.9,14.8 L3.9,12.97 L7.03,12.97 L7.03,16.1 L5.2,16.1 C4.48202983,16.1 3.9,15.5179702 3.9,14.8 Z M14.8,16.1 L12.97,16.1 L12.97,12.97 L16.1,12.97 L16.1,14.8 C16.1,15.5179702 15.5179702,16.1 14.8,16.1 L14.8,16.1 Z"/>
</svg>
