<svg xmlns="http://www.w3.org/2000/svg" width="20" height="20" viewBox="0 0 20 20">
  <g fill="none" fill-rule="evenodd">
    <path fill="#264966" fill-rule="nonzero" d="M14.96,17.5 L5.04,17.5 C3.63719674,17.5 2.5,16.3628033 2.5,14.96 L2.5,5.04 C2.5,3.63719674 3.63719674,2.5 5.04,2.5 L14.96,2.5 C16.3628033,2.5 17.5,3.63719674 17.5,5.04 L17.5,14.96 C17.5,16.3628033 16.3628033,17.5 14.96,17.5 Z M5.04,3.9 C4.41039539,3.9 3.9,4.41039539 3.9,5.04 L3.9,14.96 C3.9,15.5896046 4.41039539,16.1 5.04,16.1 L14.96,16.1 C15.5896046,16.1 16.1,15.5896046 16.1,14.96 L16.1,5.04 C16.1,4.41039539 15.5896046,3.9 14.96,3.9 L5.04,3.9 Z"/>
    <path fill="#264966" fill-rule="nonzero" d="M10.0061924,12.1167977 C9.75719541,12.1182007 9.52702505,12.0234511 9.40619237,11.8698079 L6.73619237,8.62365673 C6.6170253,8.46973398 6.6170253,8.28359995 6.73619237,8.1296772 C6.8634042,7.97707309 7.09530144,7.88317761 7.34619237,7.88268744 L12.6461924,7.88268744 C12.8981852,7.88022697 13.1320342,7.97491272 13.2561924,8.1296772 C13.3855131,8.28169229 13.3855131,8.47164165 13.2561924,8.62365673 L10.6461924,11.8768648 C10.5111163,12.0334379 10.265659,12.1254586 10.0061924,12.1167977 Z M8.55619237,8.8706465 L10.0061924,10.641916 L11.4561924,8.8706465 L8.55619237,8.8706465 Z"/>
  </g>
</svg>
