<svg xmlns="http://www.w3.org/2000/svg" width="20" height="20" viewBox="0 0 20 20">
  <path fill="#264966" d="M10.005,8.25492675 C11.2718754,8.25492675 12.4138146,7.49123374 12.8976873,6.32040474 C13.3815601,5.14957573 13.1119326,3.80252594 12.2146842,2.90814417 C11.3174359,2.0137624 9.96953015,1.74844687 8.80025553,2.23606378 C7.63098091,2.7236807 6.87095247,3.86805777 6.87498391,5.13492675 C6.88051039,6.85967149 8.28024646,8.25492675 10.005,8.25492675 Z M10.005,3.40492675 C10.9604526,3.40492675 11.735,4.17947413 11.735,5.13492675 C11.735,6.09037937 10.9604526,6.86492675 10.005,6.86492675 C9.04954738,6.86492675 8.275,6.09037937 8.275,5.13492675 C8.275,4.17947413 9.04954738,3.40492675 10.005,3.40492675 L10.005,3.40492675 Z M15.135,12.0049268 C14.8895269,10.5128114 13.597163,9.41959868 12.085,9.42490736 L7.925,9.42490736 C6.41435745,9.42376428 5.12432898,10.5150015 4.875,12.0049268 L4.005,17.1849268 C3.96848393,17.3893912 4.02741491,17.5993328 4.165,17.7549268 C4.29608892,17.9180074 4.49583802,18.0104839 4.705,18.0049268 L15.305,18.0049268 C15.5106757,18.0073664 15.7060744,17.9151972 15.835,17.7549268 C15.9725851,17.5993328 16.0315161,17.3893912 15.995,17.1849268 L15.135,12.0049268 Z M5.535,16.6049268 L6.255,12.2349268 C6.39574467,11.4219432 7.0999271,10.8273939 7.925,10.8249268 L12.085,10.8249268 C12.9100729,10.8273939 13.6142553,11.4219432 13.755,12.2349268 L14.475,16.6049268 L5.535,16.6049268 Z"/>
</svg>
