<svg xmlns="http://www.w3.org/2000/svg" width="20" height="20" viewBox="0 0 20 20">
  <path fill="#264966" d="M10,2 C5.581722,2 2,5.581722 2,10 C2,14.418278 5.581722,18 10,18 C14.418278,18 18,14.418278 18,10 C18,7.87826808 17.1571453,5.84343678 15.6568542,4.34314575 C14.1565632,2.84285472 12.1217319,2 10,2 Z M10,16.6 C6.35492065,16.6 3.4,13.6450793 3.4,10 C3.4,6.35492065 6.35492065,3.4 10,3.4 C13.6450793,3.4 16.6,6.35492065 16.6,10 C16.5944931,13.6427959 13.6427959,16.5944931 10,16.6 Z M7.7,8.67 C7.14771525,8.67 6.7,8.22228475 6.7,7.67 C6.7,7.11771525 7.14771525,6.67 7.7,6.67 C8.25228475,6.67 8.7,7.11771525 8.7,7.67 C8.7,8.22228475 8.25228475,8.67 7.7,8.67 Z M13.35,7.6699992 C13.35,8.22228475 12.9022847,8.6699992 12.35,8.6699992 C11.7977153,8.6699992 11.35,8.22228475 11.35,7.6699992 C11.35,7.11771525 11.7977153,6.6699992 12.35,6.6699992 C12.8833335,6.66933294 13.3233337,7.08733315 13.35,7.62 L13.35,7.6699992 Z M12.8,12.19 C12.8,12.5765993 12.4865993,12.89 12.1,12.89 L7.9,12.89 C7.51340068,12.89 7.2,12.5765993 7.2,12.19 C7.2,11.8034007 7.51340068,11.4899977 7.9,11.4899977 L12.1,11.4899977 C12.4678861,11.4890604 12.7737235,11.7730523 12.8,12.14 L12.8,12.19 Z"/>
</svg>
