<svg xmlns="http://www.w3.org/2000/svg" width="20" height="20" viewBox="0 0 20 20">
  <path fill="#264966" d="M14.45,1 C14.8548565,0.991973824 15.2461803,1.1458249 15.5371683,1.42742614 C15.8281562,1.70902737 15.9947514,2.09509793 16,2.5 C15.935168,3.30519743 15.2628032,3.92560145 14.455,3.92560145 C13.6471968,3.92560145 12.974832,3.30519743 12.91,2.5 C12.9152696,2.09685978 13.0804881,1.71232854 13.3693018,1.43101651 C13.6581155,1.14970448 14.0468607,0.994660632 14.45,1 L14.45,1 Z M3.09,2.5 C3.08473043,2.09685978 2.91951189,1.71232854 2.6306982,1.43101651 C2.34188452,1.14970448 1.9531393,0.994660632 1.55,1 C1.14514346,0.991973824 0.753819687,1.1458249 0.462831746,1.42742614 C0.171843804,1.70902737 0.00524855584,2.09509793 0,2.5 C0.00524855584,2.90490207 0.171843804,3.29097263 0.462831746,3.57257386 C0.753819687,3.8541751 1.14514346,4.00802618 1.55,4 C1.9531393,4.00533937 2.34188452,3.85029552 2.6306982,3.56898349 C2.91951189,3.28767146 3.08473043,2.90314022 3.09,2.5 Z M9.55,2.5 C9.55,1.64395866 8.85604134,0.950000046 8,0.950000046 C7.14395866,0.950000046 6.45,1.64395866 6.45,2.5 C6.45,3.35604134 7.14395866,4.04999995 8,4.04999995 C8.85604134,4.04999995 9.55,3.35604134 9.55,2.5 Z" transform="translate(2 7.5)"/>
</svg>
