<svg xmlns="http://www.w3.org/2000/svg" width="20" height="20" viewBox="0 0 20 20">
  <path fill="#264966" d="M9.30181986,6.49999999 L9.30181986,2.70000001 C9.30181986,2.44991409 9.4352391,2.21882517 9.65181986,2.09378221 C9.86840061,1.96873924 10.1352391,1.96873924 10.3518199,2.09378221 C10.5684006,2.21882517 10.7018199,2.44991409 10.7018199,2.70000001 L10.7018199,6.49999999 C10.7018199,6.88659934 10.3884192,7.20000001 10.0018199,7.20000001 C9.61522054,7.20000001 9.30181986,6.88659934 9.30181986,6.49999999 L9.30181986,6.49999999 Z M10.0018199,10 C10.5541046,10 11.0018199,9.55228476 11.0018199,9.00000001 C11.0018199,8.44771526 10.5541046,8.00000001 10.0018199,8.00000001 C9.44953511,8.00000001 9.00181986,8.44771526 9.00181986,9.00000001 C9.00181986,9.55228476 9.44953511,10 10.0018199,10 Z M18.0018199,11.7 L18.0018199,17.3 C18.0018199,17.6865993 17.6884192,18 17.3018199,18 L2.70181986,18 C2.31522054,18 2.00181986,17.6865993 2.00181986,17.3 L2.00181986,11.7 C1.99801968,11.666775 1.99801968,11.633225 2.00181986,11.6 C1.99696689,11.5701963 1.99696689,11.5398038 2.00181986,11.51 L4.00181986,4.51000001 C4.089359,4.19873168 4.37870183,3.98792476 4.70181986,4.00000001 L7.90181986,4.00000001 L7.90181986,5.40000001 L5.23181986,5.40000001 L3.63181986,11 L7.20181986,11 C7.58841919,11 7.90181986,11.3134007 7.90181986,11.7 C7.90181986,12.859798 8.84202189,13.8 10.0018199,13.8 C11.1616178,13.8 12.1018199,12.859798 12.1018199,11.7 C12.1018199,11.3134007 12.4152205,11 12.8018199,11 L16.3718199,11 L14.7718199,5.40000001 L12.1018199,5.40000001 L12.1018199,4.00000001 L15.3018199,4.00000001 C15.6138633,4.00166002 15.8871256,4.20966564 15.9718199,4.51000001 L17.9718199,11.51 C17.9766728,11.5398038 17.9766728,11.5701963 17.9718199,11.6 C17.9857531,11.6320246 17.995824,11.6655942 18.0018199,11.7 Z M16.6018199,12.4 L13.4318199,12.4 C13.1005851,14.0312268 11.666337,15.2035088 10.0018199,15.2035088 C8.33730274,15.2035088 6.90305459,14.0312268 6.57181986,12.4 L3.40181986,12.4 L3.40181986,16.6 L16.6018199,16.6 L16.6018199,12.4 Z"/>
</svg>
