<svg xmlns="http://www.w3.org/2000/svg" width="20" height="20" viewBox="0 0 20 20">
  <path  d="M10.995,10.0071927 L17.295,3.70719273 C17.4319644,3.57693967 17.5095003,3.39620358 17.5095003,3.20719273 C17.5095003,3.01818188 17.4319644,2.83744578 17.295,2.70719273 C17.1647469,2.57022835 16.9840108,2.49269247 16.795,2.49269247 C16.6059892,2.49269247 16.4252531,2.57022835 16.295,2.70719273 L10.005,9.01719273 L3.705,2.71719273 C3.57474694,2.58022835 3.39401085,2.50269247 3.205,2.50269247 C3.01598915,2.50269247 2.83525306,2.58022835 2.705,2.71719273 C2.56803562,2.84744578 2.49049974,3.02818188 2.49049974,3.21719273 C2.49049974,3.40620358 2.56803562,3.58693967 2.705,3.71719273 L9.005,10.0171927 L2.715,16.3071927 C2.57803562,16.4374458 2.50049974,16.6181819 2.50049974,16.8071927 C2.50049974,16.9962036 2.57803562,17.1769397 2.715,17.3071927 C2.84396611,17.4382779 3.02114131,17.5105943 3.205,17.5073075 C3.39311326,17.5073075 3.57332072,17.4315325 3.705,17.2971927 L10.005,10.9971927 L16.305,17.2971927 C16.4366793,17.4315325 16.6168867,17.5073075 16.805,17.5073075 C16.9903496,17.5079839 17.1677456,17.431957 17.295,17.2971927 C17.4319644,17.1669397 17.5095003,16.9862036 17.5095003,16.7971927 C17.5095003,16.6081819 17.4319644,16.4274458 17.295,16.2971927 L10.995,10.0071927 Z"/>
</svg>
