<svg xmlns="http://www.w3.org/2000/svg" width="20" height="20" viewBox="0 0 20 20">
  <path  d="M10,18 C5.581722,18 2,14.418278 2,10 C2,5.581722 5.581722,2 10,2 C14.418278,2 18,5.581722 18,10 C18,12.1217319 17.1571453,14.1565632 15.6568542,15.6568542 C14.1565632,17.1571453 12.1217319,18 10,18 Z M10,3.4 C6.35492065,3.4 3.4,6.35492065 3.4,10 C3.4,13.6450793 6.35492065,16.6 10,16.6 C13.6450793,16.6 16.6,13.6450793 16.6,10 C16.5944931,6.35720411 13.6427959,3.40550688 10,3.4 Z M14,10 C14,9.61340068 13.6865993,9.3 13.3,9.3 L6.7,9.3 C6.44991408,9.3 6.21882516,9.43341923 6.09378219,9.64999999 C5.96873923,9.86658075 5.96873923,10.1334193 6.09378219,10.35 C6.21882516,10.5665808 6.44991408,10.7 6.7,10.7 L13.3,10.7 C13.6865993,10.7 14,10.3865993 14,10 L14,10 Z"/>
</svg>
