<svg xmlns="http://www.w3.org/2000/svg" width="20" height="20" viewBox="0 0 20 20">
  <path fill="#264966" d="M17.52,12.71 L17.52,12.71 C18.15979,10.9737296 18.15979,9.06627044 17.52,7.33 L17.52,7.33 C16.3915494,4.14270485 13.3811492,2.00900362 10,2 L10,2 C6.62918515,2.00295472 3.62186267,4.11847811 2.48,7.29 L2.48,7.29 C1.84021004,9.02627044 1.84021004,10.9337296 2.48,12.67 L2.48,12.67 C3.60845056,15.8572952 6.61885079,17.9909964 10,18 L10,18 C13.3708148,17.9970453 16.3781373,15.8815219 17.52,12.71 Z M8.09,13.13 L11.92,13.13 C11.4986338,14.3075111 10.8458071,15.3887552 10,16.31 C9.15379523,15.3908498 8.50389099,14.3088103 8.09,13.13 L8.09,13.13 Z M7.7,11.73 C7.48660194,10.5865378 7.48660194,9.41346222 7.7,8.27 L12.31,8.27 C12.5100269,9.41466048 12.5100269,10.5853395 12.31,11.73 L7.7,11.73 Z M3.4,10 C3.4026514,9.4152222 3.48336443,8.83341584 3.64,8.27 L6.29,8.27 C6.19411393,8.84176526 6.1439551,9.42026385 6.14,10 C6.1439551,10.5797361 6.19411393,11.1582347 6.29,11.73 L3.64,11.73 C3.48336443,11.1665842 3.4026514,10.5847778 3.4,10 Z M10,3.69 C10.8458071,4.61124483 11.4986338,5.69248895 11.92,6.87 L8.09,6.87 C8.50389099,5.69118968 9.15379523,4.60915015 10,3.69 L10,3.69 Z M13.71,8.27 L16.36,8.27 C16.6797495,9.40117155 16.6797495,10.5988285 16.36,11.73 L13.71,11.73 C13.9233981,10.5865378 13.9233981,9.41346222 13.71,8.27 L13.71,8.27 Z M15.81,6.87 L13.4,6.87 C13.0441776,5.71160341 12.4929005,4.62257757 11.77,3.65 C13.4971874,4.13188183 14.9550093,5.29380917 15.81,6.87 L15.81,6.87 Z M8.24,3.65 C7.51333394,4.62024391 6.96171236,5.70995033 6.61,6.87 L4.19,6.87 C5.04907942,5.29320516 6.51014654,4.13156662 8.24,3.65 L8.24,3.65 Z M4.19,13.13 L6.61,13.13 C6.96171236,14.2900497 7.51333394,15.3797561 8.24,16.35 C6.51014654,15.8684334 5.04907942,14.7067948 4.19,13.13 L4.19,13.13 Z M11.77,16.35 C12.4929005,15.3774224 13.0441776,14.2883966 13.4,13.13 L15.81,13.13 C14.9550093,14.7061908 13.4971874,15.8681182 11.77,16.35 L11.77,16.35 Z"/>
</svg>
