<svg xmlns="http://www.w3.org/2000/svg" width="20" height="20" viewBox="0 0 20 20">
  <path fill="#264966" d="M15,8.05 L15,12.46 C15,13.8628033 13.8628033,15 12.46,15 L2.54,15 C1.13719674,15 0,13.8628033 0,12.46 L0,2.54 C0,1.13719674 1.13719674,0 2.54,0 L7,0 C7.38659932,0 7.7,0.313400675 7.7,0.7 C7.7,0.885651543 7.62625021,1.06369928 7.49497475,1.19497475 C7.36369928,1.32625021 7.18565154,1.4 7,1.4 L2.54,1.4 C1.91039539,1.4 1.4,1.91039539 1.4,2.54 L1.4,12.46 C1.4,13.0896046 1.91039539,13.6 2.54,13.6 L12.46,13.6 C13.0896046,13.6 13.6,13.0896046 13.6,12.46 L13.6,8.05 C13.6,7.66340068 13.9134007,7.35 14.3,7.35 C14.6865993,7.35 15,7.66340068 15,8.05 Z M15,0.43 C14.9280148,0.258437139 14.7915629,0.12198524 14.62,0.05 C14.5305614,0.03578397 14.4394386,0.03578397 14.35,0.05 L10.62,0.05 C10.2334007,0.05 9.92,0.363400675 9.92,0.75 C9.92,1.13659932 10.2334007,1.45 10.62,1.45 L12.62,1.45 L3.88,10.13 C3.60544444,10.4067978 3.60544444,10.8532022 3.88,11.13 C4.15679776,11.4045556 4.60320224,11.4045556 4.88,11.13 L13.6,2.39 L13.6,4.39 C13.6,4.77659932 13.9134007,5.09 14.3,5.09 C14.6865993,5.09 15,4.77659932 15,4.39 L15,0.7 C15.014216,0.610561376 15.014216,0.519438624 15,0.43 L15,0.43 Z" transform="translate(2 2.5)"/>
</svg>
