<svg xmlns="http://www.w3.org/2000/svg" xmlns:xlink="http://www.w3.org/1999/xlink" width="20" height="20" viewBox="0 0 20 20">
  <defs>
    <path id="date-icon-a" d="M11.3333333,5.07809523 L8.53333333,5.07809523 L8.53333333,3.86666667 L11.3333333,3.86666667 L11.3333333,5.07809523 Z M14.1333333,5.07809523 L14.1333333,3.86666667 L14.9866667,3.86666667 C15.7672291,3.86666667 16.4,4.49943755 16.4,5.28 L16.4,15.52 C16.4,16.3005625 15.7672291,16.9333333 14.9866667,16.9333333 L4.74666667,16.9333333 C3.96610422,16.9333333 3.33333333,16.3005625 3.33333333,15.52 L3.33333333,5.28 C3.33333333,4.49943755 3.96610422,3.86666667 4.74666667,3.86666667 L5.73333333,3.86666667 L5.73333333,5.07809523 L4.74666667,5.07809523 C4.63515775,5.07809523 4.5447619,5.16849107 4.5447619,5.28 L4.5447619,8.13333333 L15.1885714,8.13333333 L15.1885714,5.28 C15.1885714,5.16849107 15.0981756,5.07809523 14.9866667,5.07809523 L14.1333333,5.07809523 Z M11.3338977,9.33333333 L8.26723099,9.33333333 L8.26723099,11.8666667 L11.3338977,11.8666667 L11.3338977,9.33333333 Z M12.5338977,9.33333333 L12.5338977,11.8666667 L15.1885714,11.8666667 L15.1885714,9.33333333 L12.5338977,9.33333333 Z M11.3338977,15.7219048 L11.3338977,13.0666667 L8.26723099,13.0666667 L8.26723099,15.7219048 L11.3338977,15.7219048 Z M12.5338977,15.7219048 L14.9866667,15.7219048 C15.0981756,15.7219048 15.1885714,15.6315089 15.1885714,15.52 L15.1885714,13.0666667 L12.5338977,13.0666667 L12.5338977,15.7219048 Z M7.06723099,9.33333333 L4.5447619,9.33333333 L4.5447619,11.8666667 L7.06723099,11.8666667 L7.06723099,9.33333333 Z M7.06723099,15.7219048 L7.06723099,13.0666667 L4.5447619,13.0666667 L4.5447619,15.52 C4.5447619,15.6315089 4.63515775,15.7219048 4.74666667,15.7219048 L7.06723099,15.7219048 Z M6.53333333,3.28420459 C6.53333333,2.95283374 6.80196248,2.68420459 7.13333333,2.68420459 C7.46470419,2.68420459 7.73333333,2.95283374 7.73333333,3.28420459 L7.73333333,5.28420459 C7.73333333,5.61557544 7.46470419,5.88420459 7.13333333,5.88420459 C6.80196248,5.88420459 6.53333333,5.61557544 6.53333333,5.28420459 L6.53333333,3.28420459 Z M12.1333333,3.28420459 C12.1333333,2.95283374 12.4019625,2.68420459 12.7333333,2.68420459 C13.0647042,2.68420459 13.3333333,2.95283374 13.3333333,3.28420459 L13.3333333,5.28420459 C13.3333333,5.61557544 13.0647042,5.88420459 12.7333333,5.88420459 C12.4019625,5.88420459 12.1333333,5.61557544 12.1333333,5.28420459 L12.1333333,3.28420459 Z"/>
  </defs>
  <use fill="#12344D" xlink:href="#date-icon-a"/>
</svg>
