<svg xmlns="http://www.w3.org/2000/svg" width="20" height="20" viewBox="0 0 20 20">
  <path fill="#264966" d="M18,17.3 C18,17.6865993 17.6865993,18 17.3,18 L2.7,18 C2.31340068,18 2,17.6865993 2,17.3 C2,16.9134007 2.31340068,16.6 2.7,16.6 L17.3,16.6 C17.6865993,16.6 18,16.9134007 18,17.3 L18,17.3 Z M10,14 C11.3260824,14 12.597852,13.4732158 13.5355339,12.5355339 C14.4732158,11.597852 15,10.3260824 15,9 L15,2.7 C15,2.31340068 14.6865993,2 14.3,2 C13.9134007,2 13.6,2.31340068 13.6,2.7 L13.6,9 C13.6,10.9882251 11.9882251,12.6 10,12.6 C8.0117749,12.6 6.4,10.9882251 6.4,9 L6.4,2.7 C6.4,2.31340068 6.08659932,2 5.7,2 C5.31340068,2 5,2.31340068 5,2.7 L5,9 C5,11.7614237 7.23857625,14 10,14 Z"/>
</svg>
