<svg xmlns="http://www.w3.org/2000/svg" width="20" height="20" viewBox="0 0 20 20">
  <path fill="#264966" d="M2.69999996,18 L17.3,18 C17.6865993,18 18,17.6865993 18,17.3 C18,16.9134007 17.6865993,16.6 17.3,16.6 L16,16.6 L16,2.7 C16,2.31340068 15.6865993,2 15.3,2 L11.7,2 C11.3134006,2 11,2.31340068 11,2.7 L11,16.6 L9,16.6 L9,10.9 C9,10.5134007 8.68659928,10.2 8.29999996,10.2 L4.69999996,10.2 C4.31340063,10.2 4,10.5134007 4,10.9 L4,16.6 L2.69999996,16.6 C2.31340065,16.6 2,16.9134007 2,17.3 C2,17.6865993 2.31340065,18 2.69999996,18 L2.69999996,18 Z M12.4,3.4 L14.6,3.4 L14.6,16.6 L12.4,16.6 L12.4,3.4 Z M5.39999996,11.6 L7.59999996,11.6 L7.59999996,16.6 L5.39999996,16.6 L5.39999996,11.6 Z"/>
</svg>
