<svg xmlns="http://www.w3.org/2000/svg" width="20" height="20" viewBox="0 0 20 20">
  <path fill="#264966" d="M18.0050152,9.98503566 C18.0050152,10.371635 17.6916145,10.6850357 17.3050152,10.6850357 L6.21501522,10.6850357 C5.8284159,10.6850357 5.51501522,10.371635 5.51501522,9.98503566 C5.51501522,9.59843634 5.8284159,9.28503566 6.21501522,9.28503566 L17.3050152,9.28503566 C17.6916145,9.28503566 18.0050152,9.59843634 18.0050152,9.98503566 L18.0050152,9.98503566 Z M4.15501522,5.06503566 C4.15499646,5.50276086 3.89076777,5.89718594 3.48597038,6.06374652 C3.081173,6.2303071 2.61587173,6.1360592 2.30779622,5.82510449 C1.99972072,5.51414978 1.90980519,5.04799193 2.08012404,4.64476142 C2.25044289,4.24153092 2.64730879,3.98098265 3.08501522,3.98503566 C3.37053801,3.98502319 3.6442232,4.09912669 3.84517708,4.30195864 C4.04613095,4.50479059 4.15768366,4.77952535 4.15501522,5.06503566 L4.15501522,5.06503566 Z M6.21501522,5.76503566 L17.3050152,5.76503566 C17.6916145,5.76503566 18.0050152,5.45163499 18.0050152,5.06503566 C18.0050152,4.67843634 17.6916145,4.36503566 17.3050152,4.36503566 L6.21501522,4.36503566 C5.8284159,4.36503566 5.51501522,4.67843634 5.51501522,5.06503566 C5.51501522,5.45163499 5.8284159,5.76503566 6.21501522,5.76503566 Z M17.3050152,14.2350357 L6.21501522,14.2350357 C5.8284159,14.2350357 5.51501522,14.5484363 5.51501522,14.9350357 C5.51501522,15.321635 5.8284159,15.6350357 6.21501522,15.6350357 L17.3050152,15.6350357 C17.6916145,15.6350357 18.0050152,15.321635 18.0050152,14.9350357 C18.0050152,14.5484363 17.6916145,14.2350357 17.3050152,14.2350357 Z M4.15501522,14.9850357 C4.12762924,15.5755105 3.630641,16.0342619 3.03986558,16.014389 C2.44909015,15.994516 1.9840542,15.5034032 1.99641093,14.9124228 C2.00876767,14.3214424 2.49392544,13.8501972 3.08501522,13.8550357 C3.3795051,13.8545723 3.66116729,13.9755026 3.86364889,14.1893383 C4.06613048,14.403174 4.17152906,14.6910088 4.15501522,14.9850357 L4.15501522,14.9850357 Z M4.15501522,9.98503566 C4.16313652,10.4244906 3.9041273,10.825031 3.50003063,10.9979254 C3.09593397,11.1708198 2.62736829,11.0815753 2.31511798,10.7722433 C2.00286767,10.4629112 1.90922756,9.99520411 2.0783201,9.58950187 C2.24741265,9.18379964 2.64550341,8.92104098 3.08501522,8.92503566 C3.67207659,8.92499075 4.14952867,9.39799994 4.15501522,9.98503566 L4.15501522,9.98503566 Z"/>
</svg>
