<svg xmlns="http://www.w3.org/2000/svg" width="20" height="20" viewBox="0 0 20 20">
  <path fill="#264966" d="M18.0050152,9.81000715 C18.0050152,10.1966065 17.6916145,10.5100071 17.3050152,10.5100071 L6.21501522,10.5100071 C5.8284159,10.5100071 5.51501522,10.1966065 5.51501522,9.81000715 C5.51501522,9.42340782 5.8284159,9.11000715 6.21501522,9.11000715 L17.3050152,9.11000715 C17.6916145,9.11000715 18.0050152,9.42340782 18.0050152,9.81000715 Z M2.70501522,5.57000715 L17.3050152,5.57000715 C17.6916145,5.57000715 18.0050152,5.25660647 18.0050152,4.87000715 C18.0050152,4.48340782 17.6916145,4.17000715 17.3050152,4.17000715 L2.70501522,4.17000715 C2.3184159,4.17000715 2.00501522,4.48340782 2.00501522,4.87000715 C2.00501522,5.25660647 2.3184159,5.57000715 2.70501522,5.57000715 Z M17.3050152,14.0400071 L6.21501522,14.0400071 C5.8284159,14.0400071 5.51501522,14.3534078 5.51501522,14.7400071 C5.51501522,15.1266065 5.8284159,15.4400071 6.21501522,15.4400071 L17.3050152,15.4400071 C17.6916145,15.4400071 18.0050152,15.1266065 18.0050152,14.7400071 C18.0050152,14.3534078 17.6916145,14.0400071 17.3050152,14.0400071 Z M3.08501522,13.6700071 C2.64640229,13.6659644 2.24890925,13.9276044 2.07918646,14.3320693 C1.90946367,14.7365342 2.00122642,15.2034772 2.31138577,15.5136366 C2.62154513,15.823796 3.08848821,15.9155587 3.49295307,15.7458359 C3.89741794,15.5761131 4.159058,15.1786201 4.15501522,14.7400071 C4.15501522,14.1490625 3.67595991,13.6700071 3.08501522,13.6700071 L3.08501522,13.6700071 Z M3.08501522,8.73000715 C2.64730879,8.72595414 2.25044289,8.98650241 2.08012404,9.38973291 C1.90980519,9.79296341 1.99972072,10.2591213 2.30779622,10.570076 C2.61587173,10.8810307 3.081173,10.9752786 3.48597038,10.808718 C3.89076777,10.6421574 4.15501522,10.2477323 4.15501522,9.81000715 C4.15504063,9.21742314 3.67757383,8.73549404 3.08501522,8.73000715 Z"/>
</svg>
