<svg xmlns="http://www.w3.org/2000/svg" width="20" height="20" viewBox="0 0 20 20">
  <path fill="#264966" d="M16.105,4.88599155 C17.6792058,6.75518722 18.3127259,9.24138513 17.825,11.6359916 C17.7624817,11.9618874 17.4768363,12.1971247 17.145,12.1959916 L16.995,12.1959916 C16.8114595,12.1598616 16.6500155,12.0517725 16.5466857,11.8958384 C16.4433558,11.7399043 16.4067375,11.5490994 16.445,11.3659916 C16.8394077,9.43086691 16.3478843,7.42075646 15.105,5.88599155 L5.855,15.1359916 L5.975,15.2359916 C8.38669888,17.0910122 11.754854,17.0538178 14.125,15.1459916 L13.185,15.1459916 C12.7984007,15.1459916 12.485,14.8325909 12.485,14.4459916 C12.485,14.0593922 12.7984007,13.7459916 13.185,13.7459916 L15.785,13.7459916 L15.875,13.7459916 C15.9181487,13.7403342 15.9618513,13.7403342 16.005,13.7459916 C16.0533874,13.7617106 16.1002466,13.7817931 16.145,13.8059916 L16.215,13.8059916 L16.215,13.8059916 C16.2534296,13.8376796 16.287107,13.8747248 16.315,13.9159916 C16.315,13.9159916 16.365,13.9859916 16.375,14.0159916 C16.385,14.0459916 16.375,14.1059916 16.425,14.1459916 C16.4298167,14.1925339 16.4298167,14.2394492 16.425,14.2859916 L16.425,17.0059916 C16.425,17.3925909 16.1115993,17.7059916 15.725,17.7059916 C15.3384007,17.7059916 15.025,17.3925909 15.025,17.0059916 L15.025,16.1259916 C13.8808327,17.0998253 12.4829731,17.7276481 10.995,17.9359916 C10.6636163,17.98175 10.3295269,18.0051362 9.995,18.0059977 C8.23863262,18.0079036 6.53183993,17.423723 5.145,16.3459916 L4.885,16.1259916 L3.195,17.7959916 C3.06332072,17.9303313 2.88311326,18.0059977 2.695,18.0059977 C2.50965043,18.0067827 2.3322544,17.9307558 2.205,17.7959916 C2.06803562,17.6657385 1.99049974,17.4850024 1.99049974,17.2959916 C1.99049974,17.1069807 2.06803562,16.9262446 2.205,16.7959916 L3.885,15.1159916 L3.885,15.1159916 L4.885,14.1159916 L4.885,14.1159916 L14.145,4.85599155 L14.145,4.85599155 L15.145,3.85599155 L15.145,3.85599155 L16.795,2.21599155 C16.9252531,2.07902717 17.1059892,2.00149129 17.295,2.00149129 C17.4840108,2.00149129 17.6647469,2.07902717 17.795,2.21599155 C17.9319644,2.34624461 18.0095003,2.5269807 18.0095003,2.71599155 C18.0095003,2.9050024 17.9319644,3.0857385 17.795,3.21599155 L16.105,4.88599155 Z M4.105,12.8859916 C3.4454028,11.5655378 3.24820102,10.0618743 3.545,8.61599155 C3.60054582,8.24838541 3.35903331,7.90148563 2.995,7.82599155 C2.81309742,7.78788406 2.62351363,7.82476804 2.46916614,7.9282938 C2.31481865,8.03181956 2.20876019,8.1932322 2.175,8.37599155 C1.77037791,10.2982792 2.08716818,12.3022446 3.065,14.0059916 L4.105,12.8859916 Z M3.535,5.74599155 C3.535,5.74599155 3.535,5.83599155 3.585,5.87599155 C3.635,5.91599155 3.585,5.93599155 3.645,5.97599155 C3.67579117,6.01489124 3.70920219,6.05164336 3.745,6.08599155 L3.745,6.08599155 L3.815,6.08599155 C3.86898333,6.13709878 3.92951197,6.18081391 3.995,6.21599155 C4.03820962,6.22062222 4.08179038,6.22062222 4.125,6.21599155 L4.215,6.21599155 L6.815,6.21599155 C7.20159932,6.21599155 7.515,5.90259088 7.515,5.51599155 C7.515,5.12939223 7.20159932,4.81599155 6.815,4.81599155 L5.865,4.81599155 C6.80499002,4.05662113 7.93672653,3.57208563 9.135,3.41599155 C10.4361217,3.2440859 11.758966,3.46339956 12.935,4.04599155 L13.935,3.04599155 C11.046465,1.39744756 7.43926384,1.70800131 4.875,3.82599155 L4.875,3.00599155 C4.875,2.61939223 4.56159932,2.30599155 4.175,2.30599155 C3.78840068,2.30599155 3.475,2.61939223 3.475,3.00599155 L3.475,5.60599155 C3.475,5.60599155 3.475,5.60599155 3.475,5.60599155 C3.48969388,5.65475796 3.50982011,5.70171915 3.535,5.74599155 Z"/>
</svg>
