<svg xmlns="http://www.w3.org/2000/svg" width="20" height="20" viewBox="0 0 20 20">
  <path fill="#264966" d="M14.3,0 L4.68,0 C2.09758913,0.00550036135 0.00550036135,2.09758913 8.8817842e-16,4.68 L8.8817842e-16,5.31 C8.8817842e-16,7.89631525 2.09369062,9.99448547 4.68,10 L8.13,10 L8.13,14.3 C8.13,14.6865993 8.44340068,15 8.83,15 C9.21659932,15 9.53,14.6865993 9.53,14.3 L9.53,1.4 L11.22,1.4 L11.22,14.3 C11.22,14.6865993 11.5334007,15 11.92,15 C12.3065993,15 12.62,14.6865993 12.62,14.3 L12.62,1.4 L14.3,1.4 C14.6865993,1.4 15,1.08659932 15,0.7 C15,0.313400675 14.6865993,0 14.3,0 Z M4.68,8.58001531 C3.81101075,8.58265747 2.97670213,8.23931413 2.36129365,7.6257819 C1.74588518,7.01224967 1.4,6.17899332 1.4,5.31 L1.4,4.68 C1.4,2.86850602 2.86850602,1.4 4.68,1.4 L8.13,1.4 L8.13,8.58001531 L4.68,8.58001531 Z" transform="translate(2.5 2.5)"/>
</svg>
