<svg xmlns="http://www.w3.org/2000/svg" xmlns:xlink="http://www.w3.org/1999/xlink" width="20" height="20" viewBox="0 0 20 20">
  <defs>
    <polygon id="location-nearby-a" points=".398 .304 10.582 .304 10.582 13.302 .398 13.302"/>
  </defs>
  <g fill="none" fill-rule="evenodd">
    <rect width="20" height="20"/>
    <g transform="translate(2.5 1.008)">
      <g transform="translate(2 .696)">
        <mask id="location-nearby-b" fill="#fff">
          <use xlink:href="#location-nearby-a"/>
        </mask>
        <path fill="#264966" d="M2.6709,7.7852 C2.7339,7.8592 4.1289,9.6812 5.4809,11.4492 C6.5939,9.9962 8.2469,7.8382 8.3179,7.7522 C9.5269,6.3032 9.4279,4.1192 8.0899,2.7822 C6.6519,1.3432 4.3109,1.3432 2.8709,2.7822 C1.5189,4.1352 1.4309,6.3322 2.6709,7.7852 M5.4809,13.3022 L5.4809,13.3022 C5.2629,13.3022 5.0569,13.2002 4.9249,13.0262 C3.6569,11.3692 1.7369,8.8602 1.6009,8.6882 C-0.1051,6.6832 0.0179,3.6562 1.8809,1.7922 C3.8649,-0.1928 7.0959,-0.1928 9.0799,1.7922 C10.9559,3.6672 11.0899,6.6142 9.3929,8.6492 C9.2479,8.8302 6.0359,13.0272 6.0359,13.0272 C5.9039,13.2002 5.6979,13.3022 5.4809,13.3022" mask="url(#location-nearby-b)"/>
      </g>
      <path fill="#264966" d="M7.4805 5.3379C7.1495 5.3379 6.8805 5.6079 6.8805 5.9389 6.8805 6.2699 7.1495 6.5379 7.4805 6.5379 7.8115 6.5379 8.0805 6.2699 8.0805 5.9389 8.0805 5.6079 7.8115 5.3379 7.4805 5.3379M7.4805 7.9389C6.3775 7.9389 5.4805 7.0409 5.4805 5.9389 5.4805 4.8349 6.3775 3.9379 7.4805 3.9379 8.5835 3.9379 9.4805 4.8349 9.4805 5.9389 9.4805 7.0409 8.5835 7.9389 7.4805 7.9389M7.4805 16.6963C4.7025 16.6963.0005 16.1483.0005 14.0973.0005 13.0803 1.1245 12.3333 3.3395 11.8793 3.7195 11.8013 4.0885 12.0453 4.1665 12.4243 4.2445 12.8023 4.0005 13.1733 3.6215 13.2503 1.9885 13.5853 1.4515 14.0193 1.3915 14.1453 1.5655 14.4173 3.5625 15.2963 7.4805 15.2963 11.3985 15.2963 13.3955 14.4173 13.5695 14.0503 13.5095 14.0183 12.9705 13.5833 11.3335 13.2493 10.9545 13.1723 10.7095 12.8023 10.7875 12.4243 10.8645 12.0443 11.2375 11.8003 11.6125 11.8783 13.8345 12.3313 14.9605 13.0773 14.9605 14.0973 14.9605 16.1483 10.2585 16.6963 7.4805 16.6963"/>
    </g>
  </g>
</svg>
