<svg xmlns="http://www.w3.org/2000/svg" width="20" height="20" viewBox="0 0 20 20">
  <path fill="#264966" d="M2.50003317,3.2 C2.50003317,2.81340068 2.81343384,2.5 3.20003317,2.5 L16.8000332,2.5 C17.1866325,2.5 17.5000332,2.81340068 17.5000332,3.2 C17.5000332,3.58659932 17.1866325,3.9 16.8000332,3.9 L3.20003317,3.9 C2.81343384,3.9 2.50003317,3.58659932 2.50003317,3.2 Z M16.8000332,7.03 L9.16003317,7.03 C8.77343384,7.03 8.46003317,7.34340068 8.46003317,7.73 C8.46003317,8.11659932 8.77343384,8.43 9.16003317,8.43 L16.8000332,8.43 C17.1866325,8.43 17.5000332,8.11659932 17.5000332,7.73 C17.5000332,7.34340068 17.1866325,7.03 16.8000332,7.03 L16.8000332,7.03 Z M16.8000332,11.57 L9.16003317,11.57 C8.77343384,11.57 8.46003317,11.8834007 8.46003317,12.27 C8.46003317,12.6565993 8.77343384,12.97 9.16003317,12.97 L16.8000332,12.97 C17.1866325,12.97 17.5000332,12.6565993 17.5000332,12.27 C17.5000332,11.8834007 17.1866325,11.57 16.8000332,11.57 Z M16.8000332,16.1 L3.20003317,16.1 C2.81343384,16.1 2.50003317,16.4134007 2.50003317,16.8 C2.50003317,17.1865993 2.81343384,17.5 3.20003317,17.5 L16.8000332,17.5 C17.1866325,17.5 17.5000332,17.1865993 17.5000332,16.8 C17.5000332,16.4134007 17.1866325,16.1 16.8000332,16.1 L16.8000332,16.1 Z M2.85003317,12.3 C3.06815137,12.4191671 3.33191497,12.4191671 3.55003317,12.3 L6.62003317,10.5 C6.83628277,10.3727882 6.96933857,10.1408909 6.97003317,9.89 C6.96782576,9.64213831 6.83470188,9.41392593 6.62003317,9.29 L3.55003317,7.55 C3.33461825,7.42067925 3.06544808,7.42067925 2.85003317,7.55 C2.63231109,7.67083268 2.49804504,7.90100304 2.50003317,8.15 L2.50003317,11.69 C2.49654654,11.9419929 2.63072218,12.1758418 2.85003317,12.3 Z"/>
</svg>
