<svg xmlns="http://www.w3.org/2000/svg" width="20" height="20" viewBox="0 0 20 20">
  <path fill="#264966" d="M17.6165812,2.39032248 C16.9465812,1.71032248 15.6165812,1.92032248 13.7565812,3.00032248 C11.8541388,4.13767417 10.1063796,5.51571503 8.55658119,7.10032248 C7.3407636,8.30330492 6.23005016,9.60805866 5.23658119,11.0003225 C4.77272411,11.1281806 4.34929615,11.3725984 4.00658119,11.7103225 C3.00658119,12.7103225 2.18658119,16.4203225 2.00658119,17.1603225 C1.96463512,17.3886735 2.03537709,17.623239 2.19658119,17.7903225 C2.33067811,17.927168 2.51500574,18.0030677 2.70658119,18.0003944 L2.84658119,18.0003944 C3.58658119,17.8403225 7.28658119,17.0003225 8.28658119,16.0003225 C8.62328325,15.6512636 8.87033956,15.2257777 9.00658119,14.7603225 C10.3991401,13.7709269 11.7039556,12.6635065 12.9065812,11.4503225 C15.5765812,8.79032248 19.2065812,4.00032248 17.6165812,2.39032248 Z M9.42658119,10.5803225 C9.85707789,11.0075981 10.0704153,11.60715 10.0065812,12.2103225 C9.68658119,12.4803225 9.36658119,12.7603225 9.00658119,13.0003225 C9.00658119,13.0003225 9.00658119,12.9303225 9.00658119,12.8903225 C8.95603214,12.7384598 8.89246263,12.5912462 8.81658119,12.4503225 C8.78709864,12.3882626 8.75369785,12.3281412 8.71658119,12.2703225 C8.59675804,12.0667264 8.45233974,11.8786467 8.28658119,11.7103225 C8.1299925,11.5607226 7.95918362,11.4267548 7.77658119,11.3103225 C7.65512181,11.2370698 7.52805895,11.1735384 7.39658119,11.1203225 L7.25658119,11.0603225 C7.1753295,11.0324729 7.09162223,11.0123831 7.00658119,11.0003225 L7.79658119,10.0003225 C8.39887847,9.94367894 8.9954419,10.155953 9.42658119,10.5803225 Z M3.63658119,16.3703225 C3.88612052,15.0793545 4.34913383,13.8390196 5.00658119,12.7003225 C5.23531024,12.4716315 5.52834541,12.3181369 5.84658119,12.2603225 L5.84658119,12.2603225 C5.96946632,12.2454526 6.09369606,12.2454526 6.21658119,12.2603225 L6.30658119,12.2603225 C6.39962467,12.2499199 6.49353771,12.2499199 6.58658119,12.2603225 L6.68658119,12.2603225 C6.77661951,12.2884449 6.86369879,12.3252861 6.94658119,12.3703225 L7.02658119,12.3703225 C7.12985974,12.4382617 7.22690688,12.5152301 7.31658119,12.6003225 L7.31658119,12.6003225 L7.31658119,12.6003225 C7.40365605,12.6819898 7.47783379,12.7763979 7.53658119,12.8803225 L7.59658119,12.9803225 C7.63588115,13.0542545 7.66931718,13.1311574 7.69658119,13.2103225 L7.69658119,13.3303225 C7.70609992,13.4200708 7.70609992,13.5105742 7.69658119,13.6003225 C7.69658119,13.6003225 7.69658119,13.6603225 7.69658119,13.6903225 C7.70650035,13.816795 7.70650035,13.94385 7.69658119,14.0703225 L7.69658119,14.0703225 C7.63231755,14.3855322 7.4756633,14.6744722 7.24658119,14.9003225 C6.13348045,15.5878876 4.91336293,16.0847222 3.63658119,16.3703225 L3.63658119,16.3703225 Z M11.2865812,11.0603225 C10.9661326,9.92673245 10.0801712,9.04077108 8.94658119,8.72032248 C9.14658119,8.51032248 9.33658119,8.30032248 9.54658119,8.09032248 C12.8965812,4.74032248 15.8565812,3.28032248 16.6165812,3.39032248 C16.7365812,4.12032248 15.2765812,7.11032248 11.9165812,10.4603225 L11.2865812,11.0603225 Z"/>
</svg>
