<svg xmlns="http://www.w3.org/2000/svg" width="20" height="20" viewBox="0 0 20 20">
  <path fill="#264966" d="M17.8236753,11.6133331 C17.761157,11.939229 17.4755116,12.1744663 17.1436753,12.1733372 L16.9936753,12.1733372 C16.8101347,12.1372032 16.6486908,12.0291141 16.545361,11.87318 C16.4420311,11.7172459 16.4054128,11.526441 16.4436753,11.3433331 C16.9598358,8.8584812 16.0077308,6.29751296 13.9936753,4.75333313 C11.5819764,2.89831253 8.21382125,2.93550688 5.84367528,4.84333313 L6.78367528,4.84333313 C7.1702746,4.84333313 7.48367528,5.15673381 7.48367528,5.54333313 C7.48367528,5.92993246 7.1702746,6.24333313 6.78367528,6.24333313 L4.20367528,6.24333313 L4.11367528,6.24333313 C4.07082899,6.25252128 4.02652156,6.25252128 3.98367528,6.24333313 C3.93528789,6.22761412 3.88842863,6.20753158 3.84367528,6.18333313 L3.77367528,6.18333313 L3.77367528,6.18333313 C3.72315575,6.12162306 3.67956144,6.05455489 3.64367528,5.98333313 C3.64367528,5.98333313 3.64367528,5.91333313 3.58367528,5.88333313 C3.52367528,5.85333313 3.58367528,5.79333313 3.53367528,5.75333313 C3.52885856,5.70679076 3.52885856,5.65987551 3.53367528,5.61333313 C3.53367528,5.61333313 3.53367528,5.61333313 3.53367528,5.61333313 L3.53367528,2.98333313 C3.53367527,2.73324722 3.66709452,2.5021583 3.88367527,2.37711534 C4.10025603,2.25207238 4.36709453,2.25207238 4.58367528,2.37711534 C4.80025604,2.5021583 4.93367528,2.73324722 4.93367528,2.98333313 L4.93367528,3.86333313 C7.81403842,1.47024 11.9690546,1.39544971 14.9336753,3.68333313 C17.326465,5.5621346 18.4465244,8.63551574 17.8236753,11.6133331 Z M16.4536753,14.2433331 L16.4036753,14.1233331 C16.3875692,14.0846729 16.3674596,14.0478053 16.3436753,14.0133331 C16.3157823,13.9720663 16.2821049,13.9350212 16.2436753,13.9033331 L16.2436753,13.9033331 L16.1736753,13.9033331 C16.1289219,13.8791347 16.0820627,13.8590521 16.0336753,13.8433331 C15.9905266,13.8376758 15.946824,13.8376758 15.9036753,13.8433331 L15.8136753,13.8433331 L13.2136753,13.8433331 C12.827076,13.8433331 12.5136753,14.1567338 12.5136753,14.5433331 C12.5136753,14.9299325 12.827076,15.2433331 13.2136753,15.2433331 L14.1536753,15.2433331 C11.783261,17.1469235 8.42008272,17.1881895 6.00367528,15.3433331 C3.94147244,13.7803147 2.97704865,11.1603618 3.53367528,8.63333313 C3.57218102,8.45165544 3.53691349,8.26212249 3.43563592,8.10645512 C3.33435836,7.95078775 3.17537259,7.84174618 2.99367528,7.80333313 C2.61557449,7.72983845 2.24913663,7.97561994 2.17367528,8.35333313 C1.54672192,11.3754397 2.71417463,14.4886469 5.17367528,16.3533331 C6.55803763,17.4106902 8.25170427,17.9834447 9.99367528,17.9833331 C10.3282022,17.9824778 10.6622916,17.9590915 10.9936753,17.9133331 C12.4844364,17.7201524 13.889287,17.1061806 15.0436753,16.1433331 L15.0436753,16.9833331 C15.0436753,17.3699325 15.357076,17.6833331 15.7436753,17.6833331 C16.1302746,17.6833331 16.4436753,17.3699325 16.4436753,16.9833331 L16.4436753,14.3833331 C16.4518287,14.3371363 16.4551799,14.2902198 16.4536753,14.2433331 L16.4536753,14.2433331 Z"/>
</svg>
