<svg xmlns="http://www.w3.org/2000/svg" width="20" height="20" viewBox="0 0 20 20">
  <path  d="M10.9792918,9.97725013 L12.8292918,8.17725013 C13.1038474,7.90045236 13.1038474,7.45404789 12.8292918,7.17725013 C12.6990387,7.04028575 12.5183026,6.96274986 12.3292918,6.96274986 C12.1402809,6.96274986 11.9595448,7.04028575 11.8292918,7.17725013 L9.97929179,8.97725013 L8.17929179,7.18725013 C8.04903874,7.05028575 7.86830264,6.97274986 7.67929179,6.97274986 C7.49028095,6.97274986 7.30954485,7.05028575 7.17929179,7.18725013 C7.04232741,7.31750318 6.96479153,7.49823928 6.96479153,7.68725013 C6.96479153,7.87626097 7.04232741,8.05699707 7.17929179,8.18725013 L8.97929179,9.97725013 L7.18929179,11.8372501 C7.05232741,11.9675032 6.97479153,12.1482393 6.97479153,12.3372501 C6.97479153,12.526261 7.05232741,12.7069971 7.18929179,12.8372501 C7.32015807,12.9654724 7.496079,13.0372501 7.67929179,13.0372501 C7.86516185,13.0357455 8.04365853,12.9643468 8.17929179,12.8372501 L9.97929179,10.9772501 L11.8392918,12.8272501 C11.9701581,12.9554724 12.146079,13.0272768 12.3292918,13.0272501 C12.5151619,13.0257455 12.6936585,12.9543468 12.8292918,12.8272501 C13.1038474,12.5504524 13.1038474,12.1040479 12.8292918,11.8272501 L10.9792918,9.97725013 Z"/>
</svg>
