<svg xmlns="http://www.w3.org/2000/svg" width="20" height="20" viewBox="0 0 20 20">
  <path fill="#264966" d="M14.8,3.42 L14.29,3.42 L14.29,3.2 C14.29,2.81340068 13.9765993,2.5 13.59,2.5 C13.2034007,2.5 12.89,2.81340068 12.89,3.2 L12.89,3.42 L7.11,3.42 L7.11,3.2 C7.11,2.81340068 6.79659932,2.5 6.41,2.5 C6.02340068,2.5 5.71,2.81340068 5.71,3.2 L5.71,3.42 L5.2,3.42 C3.70883118,3.42 2.5,4.62883118 2.5,6.12 L2.5,14.8 C2.5,16.2911688 3.70883118,17.5 5.2,17.5 L14.8,17.5 C16.2911688,17.5 17.5,16.2911688 17.5,14.8 L17.5,6.12 C17.5,4.62883118 16.2911688,3.42 14.8,3.42 Z M5.2,4.82 L5.71,4.82 L5.71,5.1 C5.71,5.48659932 6.02340068,5.8 6.41,5.8 C6.79659932,5.8 7.11,5.48659932 7.11,5.1 L7.11,4.82 L12.89,4.82 L12.89,5.1 C12.89,5.48659932 13.2034007,5.8 13.59,5.8 C13.9765993,5.8 14.29,5.48659932 14.29,5.1 L14.29,4.82 L14.8,4.82 C15.5179702,4.82 16.1,5.40202983 16.1,6.12 L16.1,6.77 L3.9,6.77 L3.9,6.12 C3.9,5.40202983 4.48202983,4.82 5.2,4.82 Z M14.8,16.1 L5.2,16.1 C4.48202983,16.1 3.9,15.5179702 3.9,14.8 L3.9,8.17 L16.1,8.17 L16.1,14.8 C16.1,15.5179702 15.5179702,16.1 14.8,16.1 L14.8,16.1 Z"/>
</svg>
