<svg xmlns="http://www.w3.org/2000/svg" width="20" height="20" viewBox="0 0 20 20">
  <path  d="M10,2 C5.581722,2 2,5.581722 2,10 C2,14.418278 5.581722,18 10,18 C14.418278,18 18,14.418278 18,10 C18,7.87826808 17.1571453,5.84343678 15.6568542,4.34314575 C14.1565632,2.84285472 12.1217319,2 10,2 Z M10,16.6 C6.35492065,16.6 3.4,13.6450793 3.4,10 C3.4,6.35492065 6.35492065,3.4 10,3.4 C13.6450793,3.4 16.6,6.35492065 16.6,10 C16.5944931,13.6427959 13.6427959,16.5944931 10,16.6 Z M12.82,8.17 L11,10 L12.83,11.83 C13.1061424,12.1061424 13.1061424,12.5538576 12.83,12.83 C12.5538576,13.1061424 12.1061424,13.1061424 11.83,12.83 L10,11 L8.17,12.82 C7.89385763,13.0961424 7.44614237,13.0961424 7.17,12.82 C6.89385763,12.5438576 6.89385763,12.0961424 7.17,11.82 L9,10 L7.18,8.17 C6.90385763,7.89385763 6.90385763,7.44614237 7.18,7.17 C7.45614237,6.89385763 7.90385763,6.89385763 8.18,7.17 L10,9 L11.83,7.18 C12.1061424,6.90385763 12.5538576,6.90385763 12.83,7.18 C13.1061424,7.45614237 13.1061424,7.90385763 12.83,8.18 L12.82,8.17 Z"/>
</svg>
