<svg xmlns="http://www.w3.org/2000/svg" width="20" height="20" viewBox="0 0 20 20">
  <path fill="#264966" d="M12.41,9.995 C12.41,10.3815993 12.0965993,10.695 11.71,10.695 L10.71,10.695 L10.71,11.695 C10.71,12.0815993 10.3965993,12.395 10.01,12.395 C9.62340068,12.395 9.31,12.0815993 9.31,11.695 L9.31,10.695 L8.31,10.695 C7.92340068,10.695 7.61,10.3815993 7.61,9.995 C7.61,9.60840068 7.92340068,9.295 8.31,9.295 L9.31,9.295 L9.31,8.295 C9.31,7.90840068 9.62340068,7.595 10.01,7.595 C10.3965993,7.595 10.71,7.90840068 10.71,8.295 L10.71,9.295 L11.71,9.295 C11.8956515,9.295 12.0736993,9.36874979 12.2049747,9.50002525 C12.3362502,9.63130072 12.41,9.80934846 12.41,9.995 Z M1,4.385 C1,2.5127547 2.5177547,0.995 4.39,0.995 C6.2622453,0.995 7.78,2.5127547 7.78,4.385 L7.78,7.075 C7.78,7.46159932 7.46659932,7.775 7.08,7.775 L4.39,7.775 C2.5177547,7.775 1,6.2572453 1,4.385 Z M2.4,4.385 C2.4,5.4895695 3.2954305,6.385 4.4,6.385 L6.4,6.385 L6.4,4.385 C6.4,3.2804305 5.5045695,2.385 4.4,2.385 C3.2954305,2.385 2.4,3.2804305 2.4,4.385 Z M12.22,7.075 L12.22,4.385 C12.22,2.5127547 13.7377547,0.995 15.61,0.995 C17.4822453,0.995 19,2.5127547 19,4.385 C19,6.2572453 17.4822453,7.775 15.61,7.775 L12.92,7.775 C12.5334007,7.775 12.22,7.46159932 12.22,7.075 L12.22,7.075 Z M13.62,6.375 L15.62,6.375 C16.7245695,6.375 17.62,5.4795695 17.62,4.375 C17.62,3.2704305 16.7245695,2.375 15.62,2.375 C14.5154305,2.375 13.62,3.2704305 13.62,4.375 L13.62,6.375 Z M7.78,12.915 L7.78,15.605 C7.78,17.4772453 6.2622453,18.995 4.39,18.995 C2.5177547,18.995 1,17.4772453 1,15.605 C1,13.7327547 2.5177547,12.215 4.39,12.215 L7.08,12.215 C7.46659932,12.215 7.78,12.5284007 7.78,12.915 Z M6.38,13.615 L4.38,13.615 C3.2754305,13.615 2.38,14.5104305 2.38,15.615 C2.38,16.7195695 3.2754305,17.615 4.38,17.615 C5.4845695,17.615 6.38,16.7195695 6.38,15.615 L6.38,13.615 Z M19,15.615 C19,17.4872453 17.4822453,19.005 15.61,19.005 C13.7377547,19.005 12.22,17.4872453 12.22,15.615 L12.22,12.915 C12.22,12.5284007 12.5334007,12.215 12.92,12.215 L15.61,12.215 C17.4822453,12.215 19,13.7327547 19,15.605 L19,15.615 Z M17.6,15.615 C17.6,14.5104305 16.7045695,13.615 15.6,13.615 L13.6,13.615 L13.6,15.615 C13.6,16.7195695 14.4954305,17.615 15.6,17.615 C16.7045695,17.615 17.6,16.7195695 17.6,15.615 Z"/>
</svg>
