<svg xmlns="http://www.w3.org/2000/svg" width="20" height="20" viewBox="0 0 20 20">
  <path fill="#264966" d="M11.4600409,1.99995914 C7.8591443,1.99995914 4.94004086,4.91906257 4.94004086,8.51995914 C4.94004086,12.1208557 7.8591443,15.0399591 11.4600409,15.0399591 C15.0609374,15.0399591 17.9800409,12.1208557 17.9800409,8.51995914 C17.9800409,6.79074762 17.2931143,5.13236011 16.0703771,3.90962292 C14.8476399,2.68688573 13.1892524,1.99995914 11.4600409,1.99995914 Z M11.4600409,13.6399591 C8.63234295,13.6399591 6.34004086,11.3476571 6.34004086,8.51995914 C6.34004086,5.69226122 8.63234295,3.39995914 11.4600409,3.39995914 C14.2877388,3.39995914 16.5800409,5.69226122 16.5800409,8.51995914 C16.5745386,11.3453748 14.2854565,13.6344569 11.4600409,13.6399591 Z M13.7400409,9.99995914 C13.3495425,10.9124647 12.4525908,11.5042543 11.4600409,11.5042543 C10.4674909,11.5042543 9.57053918,10.9124647 9.18004086,9.99995914 C9.10678057,9.82892918 9.10462445,9.63576975 9.17404878,9.4631471 C9.24347311,9.29052445 9.37876519,9.1526431 9.55004086,9.07995914 C9.90360747,8.9319556 10.3108206,9.09129986 10.4700409,9.43995914 C10.6280265,9.85499291 11.0259547,10.1293018 11.4700409,10.1293018 C11.914127,10.1293018 12.3120552,9.85499291 12.4700409,9.43995914 C12.6525456,9.13987354 13.029172,9.02149137 13.3505419,9.16319779 C13.6719119,9.30490422 13.8385165,9.66282135 13.7400409,9.99995914 Z M10.6700409,6.61995914 C10.6700409,6.06767439 10.2223256,5.61995914 9.67004086,5.61995914 C9.11775611,5.61995914 8.67004086,6.06767439 8.67004086,6.61995914 C8.67004086,7.17224389 9.11775611,7.61995914 9.67004086,7.61995914 C10.2223256,7.61995914 10.6700409,7.17224389 10.6700409,6.61995914 Z M13.3000409,5.56995914 C12.871395,5.54952452 12.4734532,5.79198792 12.2950636,6.18228524 C12.1166741,6.57258255 12.1937432,7.03215473 12.4896967,7.34290595 C12.7856503,7.65365717 13.2409187,7.75303941 13.6394487,7.59388957 C14.0379787,7.43473973 14.2995541,7.0490915 14.3000409,6.61995914 C14.3137467,6.34619053 14.214472,6.07879769 14.0254296,5.88030318 C13.8363872,5.68180867 13.5741521,5.56961627 13.3000409,5.56995914 Z M12.3000409,15.9099591 C12.4129343,16.0660135 12.4565385,16.2616898 12.4205862,16.4509127 C12.3846338,16.6401357 12.2723019,16.8061841 12.1100409,16.9099591 C9.53596216,18.6259895 6.10848323,18.286592 3.92094563,16.0990544 C1.73340803,13.9115168 1.39401047,10.4840378 3.11004086,7.90995914 C3.2138159,7.74769807 3.37986427,7.63536619 3.56908725,7.59941382 C3.75831024,7.56346145 3.95398647,7.60706566 4.11004086,7.71995914 C4.27230193,7.82373417 4.38463381,7.98978254 4.42058618,8.17900553 C4.45653855,8.36822851 4.41293434,8.56390474 4.30004086,8.71995914 C3.72980238,9.53006097 3.40991118,10.4897346 3.38004086,11.4799591 C3.38554315,14.3053748 5.6746252,16.5944569 8.50004086,16.5999591 C9.5134718,16.5976468 10.5028592,16.2910761 11.3400409,15.7199591 C11.6604923,15.5051947 12.0942964,15.5901666 12.3100409,15.9099591 L12.3000409,15.9099591 Z"/>
</svg>
