<svg xmlns="http://www.w3.org/2000/svg" width="20" height="20" viewBox="0 0 20 20">
  <path fill="#264966" d="M2.49941815,3.2 C2.49941815,2.81340068 2.81281883,2.5 3.19941815,2.5 L16.7994182,2.5 C17.1860175,2.5 17.4994182,2.81340068 17.4994182,3.2 C17.4994182,3.58659932 17.1860175,3.9 16.7994182,3.9 L3.19941815,3.9 C2.81281883,3.9 2.49941815,3.58659932 2.49941815,3.2 Z M3.19941815,8.43 L10.8394182,8.43 C11.2260175,8.43 11.5394182,8.11659932 11.5394182,7.73 C11.5394182,7.34340068 11.2260175,7.03 10.8394182,7.03 L3.19941815,7.03 C2.81281883,7.03 2.49941815,7.34340068 2.49941815,7.73 C2.49941815,8.11659932 2.81281883,8.43 3.19941815,8.43 Z M3.19941815,12.97 L10.8394182,12.97 C11.2260175,12.97 11.5394182,12.6565993 11.5394182,12.27 C11.5394182,11.8834007 11.2260175,11.57 10.8394182,11.57 L3.19941815,11.57 C2.81281883,11.57 2.49941815,11.8834007 2.49941815,12.27 C2.49941815,12.6565993 2.81281883,12.97 3.19941815,12.97 Z M16.7994182,16.1 L3.19941815,16.1 C2.81281883,16.1 2.49941815,16.4134007 2.49941815,16.8 C2.49941815,17.1865993 2.81281883,17.5 3.19941815,17.5 L16.7994182,17.5 C17.1860175,17.5 17.4994182,17.1865993 17.4994182,16.8 C17.4994182,16.4134007 17.1860175,16.1 16.7994182,16.1 Z M17.1494182,7.55 C16.9340032,7.42067925 16.6648331,7.42067925 16.4494182,7.55 L13.3794182,9.32 C13.1647494,9.44392593 13.0316256,9.67213831 13.0294182,9.92 C13.0301128,10.1708909 13.1631685,10.4027882 13.3794182,10.53 L16.4994182,12.3 C16.7175364,12.4191671 16.9813,12.4191671 17.1994182,12.3 C17.39959,12.1634485 17.5134641,11.9319045 17.4994182,11.69 L17.4994182,8.15 C17.5014063,7.90100304 17.3671402,7.67083268 17.1494182,7.55 Z"/>
</svg>
