<svg xmlns="http://www.w3.org/2000/svg" width="20" height="20" viewBox="0 0 20 20">
  <path fill="#264966" d="M16.9844304,4.71839553 L15.9844304,3.57839553 C14.4331049,1.72903155 11.683226,1.47053401 9.81443039,2.99839553 C7.95197885,4.55807461 7.70158985,7.33023846 9.25443039,9.19839553 L9.25443039,9.19839553 L2.25443039,15.0683955 C2.1075213,15.1875118 2.01506469,15.3610061 1.99811132,15.5493768 C1.98115795,15.7377476 2.04115075,15.9249623 2.16443039,16.0683955 C2.29996275,16.2256931 2.49680319,16.3168229 2.70443039,16.3183955 C2.86785783,16.3155229 3.02587286,16.2593398 3.15443039,16.1583955 L3.35443039,15.9983955 L4.80443039,17.7383955 C4.92354662,17.8853046 5.09704093,17.9777612 5.28541168,17.9947146 C5.47378243,18.011668 5.66099718,17.9516752 5.80443039,17.8283955 C5.95133948,17.7092793 6.0437961,17.535785 6.06074946,17.3474142 C6.07770283,17.1590435 6.01771003,16.9718287 5.89443039,16.8283955 L4.42443039,15.1183955 L5.62443039,14.1183955 L6.44443039,15.1183955 C6.55819705,15.2731073 6.73288104,15.3715648 6.92414592,15.3887786 C7.11541079,15.4059924 7.30486759,15.3403076 7.44443039,15.2083955 C7.59382083,15.0909446 7.68815866,14.9170813 7.70519271,14.7278141 C7.72222675,14.538547 7.66044886,14.3506332 7.53443039,14.2083955 L6.72443039,13.2083955 L10.1944304,10.3083955 L10.1944304,10.3083955 C11.020808,11.3351408 12.2664444,11.9340751 13.5844304,11.9383955 C14.6116754,11.940541 15.6080275,11.5872247 16.4044304,10.9383955 C17.3078599,10.1915979 17.876821,9.11586664 17.9856473,7.94879839 C18.0944736,6.78173014 17.7342109,5.61935098 16.9844304,4.71839553 Z M15.5044304,9.83839553 C14.8934415,10.3497329 14.1041455,10.5970277 13.3106145,10.5257412 C12.5170834,10.4544547 11.7845006,10.0704427 11.2744304,9.45839553 L10.8044304,8.88839553 L10.8044304,8.88839553 L10.3244304,8.31839553 C9.63848046,7.48596671 9.44873207,6.35082082 9.82666162,5.34055634 C10.2045912,4.33029186 11.0927821,3.598392 12.1566616,3.42055634 C13.2205411,3.24272069 14.2984805,3.64596671 14.9844304,4.47839553 L15.9244304,5.60839553 C16.4357678,6.21938441 16.6830625,7.00868038 16.611776,7.80221145 C16.5404896,8.59574253 16.1564776,9.32832536 15.5444304,9.83839553 L15.5044304,9.83839553 Z"/>
</svg>
