<svg xmlns="http://www.w3.org/2000/svg" width="20" height="20" viewBox="0 0 20 20">
  <path fill="#264966" d="M9.99958446,5.21866827 L10.1095845,5.21866827 C11.1646948,5.17308507 12.0883507,4.49614977 12.449544,3.50374107 C12.8107373,2.51133236 12.5382738,1.39906204 11.7592941,0.685951876 C10.9803143,-0.0271582926 9.84836136,-0.200548531 8.89164162,0.246690726 C7.93492188,0.693929983 7.34201252,1.67364426 7.38958446,2.72866679 C7.45376172,4.12306309 8.60371284,5.22014289 9.99958446,5.21866827 L9.99958446,5.21866827 Z M9.99958446,1.39866679 L9.99958446,1.39866679 C10.667849,1.38485968 11.2207773,1.91540225 11.2345844,2.58366679 C11.2483916,3.25193133 10.717849,3.80485966 10.0495845,3.81866679 C9.72912029,3.82848497 9.41730939,3.7137959 9.17958446,3.49866679 C8.94012299,3.28804416 8.79887599,2.98744156 8.78958446,2.66866679 C8.76130748,1.99840269 9.27950686,1.43106371 9.94958446,1.39866679 L9.99958446,1.39866679 Z M2.80958446,12.7686668 C2.11596687,12.7949035 1.46273463,13.10167 0.999584459,13.6186668 C0.529111609,14.1261163 0.281268348,14.8007328 0.311326458,15.4920693 C0.341384568,16.1834058 0.646844192,16.8339657 1.15958446,17.2986668 C1.63462078,17.74931 2.26480419,17.9999512 2.91958446,17.9986717 L3.03958446,17.9986717 C4.48104762,17.935154 5.59809712,16.71513 5.53458437,15.2736668 C5.47107163,13.8322036 4.25104762,12.7151541 2.80958446,12.7786668 L2.80958446,12.7686668 Z M3.80958446,16.1986668 C3.59373304,16.4367588 3.29075932,16.5774252 2.96958446,16.5886668 C2.53729309,16.6065301 2.12830943,16.3924117 1.89669369,16.0269681 C1.66507794,15.6615244 1.64601805,15.200275 1.84669369,14.816968 C2.04736932,14.4336611 2.43729309,14.1865301 2.86958446,14.1686668 L2.86958446,14.1686668 C3.17377112,14.1666066 3.46719777,14.2811146 3.68958446,14.4886668 C3.93156702,14.7016324 4.073058,15.0063822 4.07958446,15.3286668 C4.10528761,15.6426499 4.00853629,15.9544042 3.80958446,16.1986668 L3.80958446,16.1986668 Z M18.8095845,13.4486668 C17.9426724,12.6684918 16.6633755,12.558151 15.6756785,13.1783639 C14.6879814,13.7985768 14.2316348,14.9987949 14.5577617,16.1185497 C14.8838886,17.2383045 15.913326,18.0057902 17.0795845,17.998716 L17.1895845,17.998716 C17.883202,17.9724301 18.5364343,17.6656635 18.9995845,17.1486668 C19.4706362,16.6395329 19.7187248,15.9632863 19.6886774,15.2703186 C19.65863,14.5773509 19.3529379,13.9251165 18.8395845,13.4586668 L18.8095845,13.4486668 Z M17.9395845,16.1986668 C17.7210884,16.4331399 17.4197015,16.5730695 17.0995845,16.5886668 C16.6152422,16.6138249 16.1619947,16.3497028 15.9450983,15.9159099 C15.7282019,15.482117 15.7888526,14.9610457 16.0995845,14.5886668 C16.3154359,14.3505747 16.6184096,14.2099084 16.9395845,14.1986668 L16.9995845,14.1986668 C17.3033985,14.1986055 17.5961179,14.3128375 17.8195845,14.5186668 C18.0556667,14.7361212 18.1956774,15.0384659 18.2088055,15.3591665 C18.2219336,15.6798671 18.1071033,15.9926439 17.8895845,16.2286668 L17.9395845,16.1986668 Z M5.61958446,3.77866679 C5.73636802,3.92970163 5.78639411,4.12188371 5.75807315,4.31069009 C5.7297522,4.49949647 5.6255418,4.66854308 5.46958446,4.77866679 C3.57080766,6.1463292 2.40572105,8.31058818 2.30958446,10.6486668 C2.29876128,11.0219106 1.99298514,11.3188237 1.61958446,11.3186668 L1.61958446,11.3186668 C1.43387338,11.3108786 1.25888489,11.2295487 1.13320011,11.0926086 C1.00751534,10.9556685 0.941455182,10.7743633 0.949584459,10.5886668 C1.03518658,7.80900458 2.4009979,5.22503722 4.64958446,3.58866679 C4.80266535,3.48281218 4.99201689,3.44328721 5.1746615,3.47906296 C5.3573061,3.51483871 5.51775275,3.62288085 5.61958446,3.77866679 Z M14.0495845,18.2786668 C14.1272276,18.4483105 14.1339369,18.6419302 14.068223,18.8165415 C14.002509,18.9911528 13.8698096,19.1323068 13.6995845,19.2086668 C11.3419642,20.2623801 8.64720473,20.2623801 6.28958446,19.2086668 C6.1193593,19.1323068 5.98665987,18.9911528 5.92094592,18.8165415 C5.85523198,18.6419302 5.86194132,18.4483105 5.93958446,18.2786668 C6.01389207,18.10914 6.15319569,17.9765767 6.32619645,17.9107612 C6.4991972,17.8449457 6.69138701,17.8513974 6.85958446,17.9286668 C8.85495105,18.8181247 11.1342179,18.8181247 13.1295845,17.9286668 C13.2977819,17.8513974 13.4899717,17.8449457 13.6629725,17.9107612 C13.8359732,17.9765767 13.9752769,18.10914 14.0495845,18.2786668 L14.0495845,18.2786668 Z M14.5195845,4.75866679 C14.2662969,4.6407364 14.1073947,4.38348116 14.1153301,4.10419782 C14.1232655,3.82491448 14.2965185,3.57709689 14.5560936,3.47373866 C14.8156687,3.37038043 15.1118469,3.43127877 15.3095845,3.62866679 C17.558171,5.26503722 18.9239823,7.84900458 19.0095845,10.6286668 C19.0177137,10.8143633 18.9516536,10.9956685 18.8259688,11.1326086 C18.700284,11.2695487 18.5252955,11.3508786 18.3395845,11.3586668 L18.3395845,11.3586668 C17.9664321,11.3540018 17.6605796,11.0612572 17.6395845,10.6886668 C17.5756384,8.33507203 16.4230519,6.14441893 14.5195845,4.75866679 L14.5195845,4.75866679 Z"/>
</svg>
