<svg xmlns="http://www.w3.org/2000/svg" width="20" height="20" viewBox="0 0 20 20">
  <path fill="#264966" d="M13.48,7 L6.35,7 C5.96340068,7 5.65,6.68659932 5.65,6.3 C5.65,5.91340068 5.96340068,5.6 6.35,5.6 L13.48,5.6 C13.8665993,5.6 14.18,5.91340068 14.18,6.3 C14.18,6.68659932 13.8665993,7 13.48,7 Z M10.87,10.75 C10.87,10.3617501 10.5582114,10.0454683 10.17,10.04 L6.35,10.04 C5.99294512,10.0825999 5.72411302,10.3854128 5.72411302,10.745 C5.72411302,11.1045872 5.99294512,11.4074001 6.35,11.45 L10.17,11.45 C10.5468221,11.4450274 10.8541094,11.1465198 10.87,10.77 L10.87,10.75 Z M17.0007337,9 L17.0007337,3.59950472 C16.9963409,2.16525618 15.8347438,1.00365909 14.4004953,0.999266258 L9,0.999266258 C4.58131677,0.999266258 0.999266258,4.58131677 0.999266258,9 C0.999266258,13.4186832 4.58131677,17.0007337 9,17.0007337 C13.4186832,17.0007337 17.0007337,13.4186832 17.0007337,9 Z M14.4004953,2.11936898 C15.2179517,2.11936898 15.880631,2.78204833 15.880631,3.59950472 L15.880631,9 C15.880631,12.8000676 12.8000676,15.880631 9,15.880631 C5.19993242,15.880631 2.11936898,12.8000676 2.11936898,9 C2.11936898,5.19993242 5.19993242,2.11936898 9,2.11936898 L14.4004953,2.11936898 Z" transform="translate(1 1)"/>
</svg>
