<svg xmlns="http://www.w3.org/2000/svg" width="20" height="20" viewBox="0 0 20 20">
  <path fill="#264966" d="M2.5,3.2 C2.5,2.81340068 2.81340068,2.5 3.2,2.5 L16.8,2.5 C17.1865993,2.5 17.5,2.81340068 17.5,3.2 C17.5,3.58659932 17.1865993,3.9 16.8,3.9 L3.2,3.9 C2.81340068,3.9 2.5,3.58659932 2.5,3.2 Z M13.07,16.1 L3.2,16.1 C2.81340068,16.1 2.5,16.4134007 2.5,16.8 C2.5,17.1865993 2.81340068,17.5 3.2,17.5 L13.07,17.5 C13.4565993,17.5 13.77,17.1865993 13.77,16.8 C13.77,16.4134007 13.4565993,16.1 13.07,16.1 Z M16.8,11.57 L3.2,11.57 C2.81340068,11.57 2.5,11.8834007 2.5,12.27 C2.5,12.6565993 2.81340068,12.97 3.2,12.97 L16.8,12.97 C17.1865993,12.97 17.5,12.6565993 17.5,12.27 C17.5,11.8834007 17.1865993,11.57 16.8,11.57 Z M3.2,8.43 L13.07,8.43 C13.4565993,8.43 13.77,8.11659932 13.77,7.73 C13.77,7.34340068 13.4565993,7.03 13.07,7.03 L3.2,7.03 C2.81340068,7.03 2.5,7.34340068 2.5,7.73 C2.5,8.11659932 2.81340068,8.43 3.2,8.43 Z"/>
</svg>
