<svg xmlns="http://www.w3.org/2000/svg" width="20" height="20" viewBox="0 0 20 20">
  <g fill="#264966" transform="translate(3 2)">
    <path d="M5.17 4.99992847C4.78340068 4.99992847 4.47 5.31340068 4.47 5.7L4.47 12.3C4.51259995 12.6570549 4.81541281 12.925887 5.175 12.925887 5.53458719 12.925887 5.83740005 12.6570549 5.88 12.3L5.88 5.7C5.88001912 5.51260279 5.8048982 5.33302264 5.67145193 5.2014559 5.53800566 5.06988915 5.35737809 4.9973229 5.17 4.99992847zM8.12 5.7L8.12 12.3C8.16259995 12.6570549 8.46541281 12.925887 8.825 12.925887 9.18458719 12.925887 9.48740005 12.6570549 9.53 12.3L9.53 5.7C9.48740005 5.34294512 9.18458719 5.07411302 8.825 5.07411302 8.46541281 5.07411302 8.16259995 5.34294512 8.12 5.7L8.12 5.7z"/>
    <path d="M13.3,2 L9.67,2 L9.67,1.7 C9.6701444,0.77270796 8.92714765,0.0163639661 8.00000001,0 L6.00000001,0 C5.06111593,0 4.3,0.761115925 4.3,1.7 L4.3,2 L0.7,2 C0.313400681,2 1.47513974e-08,2.31340068 1.47513974e-08,2.7 C1.47513974e-08,3.08659932 0.313400681,3.39999999 0.7,3.4 L1.00000001,3.4 L1.00000001,13.34 C1.00548342,14.8068001 2.19319988,15.9945166 3.66,16 L10.34,16 C11.8068001,15.9945166 12.9945166,14.8068001 13,13.34 L13,3.4 L13.3,3.4 C13.6865993,3.39999999 14,3.08659932 14,2.7 C14,2.31340068 13.6865993,2 13.3,2 L13.3,2 Z M5.73,1.7 C5.72423426,1.54350124 5.84376063,1.41069417 6,1.4 L8,1.4 C8.08039734,1.3971764 8.1583551,1.4278758 8.21523965,1.48476035 C8.2721242,1.5416449 8.3028236,1.61960266 8.3,1.7 L8.3,2 L5.73,2 L5.73,1.7 Z M11.6,13.34 C11.5945596,14.0336128 11.0336128,14.5945596 10.34,14.6 L3.66,14.6 C2.96638718,14.5945596 2.40544035,14.0336128 2.4,13.34 L2.4,3.4 L11.6,3.4 L11.6,13.34 Z"/>
  </g>
</svg>
