<svg xmlns="http://www.w3.org/2000/svg" width="20" height="20" viewBox="0 0 20 20">
  <path fill="#264966" d="M17.3,9.30000003 L16.92,9.30000003 C16.5709904,6.02020047 13.9797996,3.42900963 10.7,3.08000003 L10.7,2.70000003 C10.7,2.44991411 10.5665808,2.21882519 10.35,2.09378222 C10.1334193,1.96873926 9.86658075,1.96873926 9.64999999,2.09378222 C9.43341923,2.21882519 9.29999999,2.44991411 9.3,2.70000003 L9.3,3.08000003 C6.02020044,3.42900963 3.4290096,6.02020047 3.08,9.30000003 L2.7,9.30000003 C2.31340068,9.30000003 2,9.6134007 2,10 C2,10.3865994 2.31340068,10.7 2.7,10.7 L3.08,10.7 C3.4290096,13.9797996 6.02020044,16.5709904 9.3,16.92 L9.3,17.3 C9.3,17.6865994 9.61340068,18 10,18 C10.3865993,18 10.7,17.6865994 10.7,17.3 L10.7,16.92 C13.9797996,16.5709904 16.5709904,13.9797996 16.92,10.7 L17.3,10.7 C17.6865993,10.7 18,10.3865994 18,10 C18,9.6134007 17.6865993,9.30000003 17.3,9.30000003 Z M10,15.56 C6.92929679,15.56 4.44,13.0707032 4.44,10 C4.44,6.92929682 6.92929679,4.44000003 10,4.44000003 C13.0707032,4.44000003 15.56,6.92929682 15.56,10 C15.5544961,13.0684206 13.0684205,15.5544961 10,15.56 Z M10,7.21000003 C8.45912555,7.21000003 7.21,8.45912558 7.21,10 C7.21,11.5408745 8.45912555,12.79 10,12.79 C11.5408745,12.79 12.79,11.5408745 12.79,10 C12.79,8.45912558 11.5408745,7.21000003 10,7.21000003 Z M10,11.39 C9.2323242,11.39 8.61,10.7676758 8.61,10 C8.61,9.23232423 9.2323242,8.61000003 10,8.61000003 C10.7676758,8.61000003 11.39,9.23232423 11.39,10 C11.3845521,10.7654079 10.7654078,11.3845521 10,11.39 L10,11.39 Z"/>
</svg>
