<svg xmlns="http://www.w3.org/2000/svg" width="20" height="20" viewBox="0 0 20 20">
  <path fill="#264966" d="M0,0.7 C0,0.313400675 0.313400675,0 0.7,0 L14.3,0 C14.6865993,0 15,0.313400675 15,0.7 C15,1.08659932 14.6865993,1.4 14.3,1.4 L0.7,1.4 C0.313400675,1.4 0,1.08659932 0,0.7 Z M14.3,13.6 L4.43,13.6 C4.04340068,13.6 3.73,13.9134007 3.73,14.3 C3.73,14.6865993 4.04340068,15 4.43,15 L14.3,15 C14.6865993,15 15,14.6865993 15,14.3 C15,13.9134007 14.6865993,13.6 14.3,13.6 Z M14.3,9.07 L0.7,9.07 C0.313400675,9.07 0,9.38340068 0,9.77 C0,10.1565993 0.313400675,10.47 0.7,10.47 L14.3,10.47 C14.6865993,10.47 15,10.1565993 15,9.77 C15,9.38340068 14.6865993,9.07 14.3,9.07 Z M14.3,4.53 L4.43,4.53 C4.04340068,4.53 3.73,4.84340068 3.73,5.23 C3.73,5.61659932 4.04340068,5.93 4.43,5.93 L14.3,5.93 C14.6865993,5.93 15,5.61659932 15,5.23 C15,4.84340068 14.6865993,4.53 14.3,4.53 L14.3,4.53 Z" transform="translate(2.5 2.5)"/>
</svg>
