<svg xmlns="http://www.w3.org/2000/svg" width="20" height="20" viewBox="0 0 20 20">
  <path fill="#264966" d="M18.0000145,10.0287258 C17.9969747,9.80912442 17.8938718,9.60291851 17.7200145,9.46872583 L16.2200145,8.36872583 L17.0000145,6.63872583 C17.0998546,6.44059253 17.0998546,6.20685913 17.0000145,6.00872583 C16.8883746,5.81668853 16.6911099,5.69014141 16.4700145,5.66872583 L14.6200145,5.45872583 L14.4200145,3.60872583 C14.3754658,3.37620979 14.2179542,3.1811954 14.0000145,3.08872583 C13.8018812,2.98888581 13.5681478,2.98888581 13.3700145,3.08872583 L11.6700145,3.83872583 L10.5600145,2.29872583 C10.4233202,2.12957528 10.2174938,2.03127417 10.0000145,2.03127417 C9.78253525,2.03127417 9.57670882,2.12957528 9.44001454,2.29872583 L8.33001454,3.79872583 L6.63001454,3.02872583 C6.43188124,2.92888581 6.19814783,2.92888581 6.00001454,3.02872583 C5.80900845,3.13839004 5.67971159,3.33048823 5.65001454,3.54872583 L5.45001454,5.39872583 L3.60001454,5.66872583 C3.37496676,5.69445695 3.1768811,5.8290057 3.07001454,6.02872583 C2.97017452,6.22685913 2.97017452,6.46059253 3.07001454,6.65872583 L3.81001454,8.36872583 L2.28001454,9.44872583 C2.10356979,9.58300214 1.99998546,9.7919988 1.99998546,10.0137258 C1.99998546,10.2354529 2.10356979,10.4444495 2.28001454,10.5787258 L3.78001454,11.6787258 L3.00001454,13.3887258 C2.90017452,13.5868591 2.90017452,13.8205925 3.00001454,14.0187258 C3.11165451,14.2107631 3.30891912,14.3373102 3.53001454,14.3587258 L5.38001454,14.5687258 L5.58001454,16.4087258 C5.6096861,16.6295476 5.73857945,16.824729 5.93001454,16.9387258 C6.12814783,17.0385658 6.36188124,17.0385658 6.56001454,16.9387258 L8.26001454,16.1887258 L9.37001454,17.6887258 C9.5022126,17.8649899 9.70968442,17.9687258 9.93001454,17.9687258 C10.1503446,17.9687258 10.3578165,17.8649899 10.4900145,17.6887258 L11.6000145,16.1887258 L13.3000145,16.9387258 C13.4981478,17.0385658 13.7318812,17.0385658 13.9300145,16.9387258 C14.1214496,16.824729 14.250343,16.6295476 14.2800145,16.4087258 L14.4800145,14.5687258 L16.3300145,14.3587258 C16.5511099,14.3373102 16.7483746,14.2107631 16.8600145,14.0187258 C16.9598546,13.8205925 16.9598546,13.5868591 16.8600145,13.3887258 L16.1200145,11.6787258 L17.6200145,10.5787258 C17.8292732,10.4688719 17.9712941,10.2633153 18.0000145,10.0287258 L18.0000145,10.0287258 Z M14.7100145,11.7287258 L15.3000145,13.0287258 L13.8400145,13.1987258 C13.5134794,13.23433 13.2556187,13.4921907 13.2200145,13.8187258 L13.0600145,15.2687258 L11.7200145,14.7287258 C11.4198647,14.5970803 11.0686078,14.6879939 10.8700145,14.9487258 L10.0000145,16.1287258 L9.13001454,14.9487258 C8.99366266,14.7721154 8.78313578,14.6686986 8.56001454,14.6687258 C8.46366486,14.6703043 8.36855102,14.6906858 8.28001454,14.7287258 L6.94001454,15.3087258 L6.78001454,13.8587258 C6.74441039,13.5321907 6.48654967,13.27433 6.16001454,13.2387258 L4.70001454,13.0287258 L5.29001454,11.7287258 C5.42206134,11.4295982 5.32602625,11.0788613 5.06001454,10.8887258 L3.88001454,10.0287258 L5.06001454,9.15872583 C5.32602625,8.96859037 5.42206134,8.6178535 5.29001454,8.31872583 L4.70001454,6.94872583 L6.16001454,6.78872583 C6.48654967,6.75312168 6.74441039,6.49526096 6.78001454,6.16872583 L6.94001454,4.70872583 L8.28001454,5.29872583 C8.58016435,5.43037134 8.93142124,5.33945779 9.13001454,5.07872583 L10.0000145,3.88872583 L10.8700145,5.07872583 C11.0686078,5.33945779 11.4198647,5.43037134 11.7200145,5.29872583 L13.0600145,4.70872583 L13.2200145,6.16872583 C13.2556187,6.49526096 13.5134794,6.75312168 13.8400145,6.78872583 L15.3000145,6.94872583 L14.7100145,8.29872583 C14.5779677,8.5978535 14.6740028,8.94859037 14.9400145,9.13872583 L16.1200145,10.0287258 L14.9400145,10.9087258 C14.6836884,11.0964977 14.5887316,11.4350392 14.7100145,11.7287258 Z M12.7900145,8.02872583 C12.9269789,8.15897889 13.0045148,8.33971498 13.0045148,8.52872583 C13.0045148,8.71773668 12.9269789,8.89847277 12.7900145,9.02872583 L9.79001454,12.0287258 C9.65833525,12.1630656 9.4781278,12.2387527 9.29001454,12.2387258 C9.09798344,12.2439061 8.91272034,12.1676213 8.78001454,12.0287258 L7.21001454,10.4487258 C7.07305015,10.3184728 6.99551427,10.1377367 6.99551427,9.94872583 C6.99551427,9.75971498 7.07305015,9.57897889 7.21001454,9.44872583 C7.4868123,9.17417027 7.93321677,9.17417027 8.21001454,9.44872583 L9.27001454,10.5387258 L11.8000145,8.02872583 C11.9299473,7.89492852 12.1085092,7.81942844 12.2950145,7.81942844 C12.4815199,7.81942844 12.6600818,7.89492852 12.7900145,8.02872583 Z"/>
</svg>
