<svg xmlns="http://www.w3.org/2000/svg" width="20" height="20" viewBox="0 0 20 20">
  <path fill="#264966" d="M11.4050148,7.84505103 C11.3906106,8.32753009 11.1251618,8.76741676 10.7050148,9.00505103 L10.7050148,17.305051 C10.7050148,17.6916504 10.3916141,18.005051 10.0050148,18.005051 C9.61841547,18.005051 9.30501479,17.6916504 9.30501479,17.305051 L9.30501479,9.00505103 C8.87267446,8.76022825 8.60531477,8.30189735 8.60501479,7.80505103 C8.60501479,7.03185238 9.23181614,6.40505103 10.0050148,6.40505103 C10.7782134,6.40505103 11.4050148,7.03185238 11.4050148,7.80505103 L11.4050148,7.84505103 Z M13.5950148,4.26505103 C13.416382,4.08641822 13.156019,4.01665417 12.9120021,4.08203831 C12.6679851,4.14742245 12.4773862,4.33802137 12.4120021,4.58203832 C12.3466179,4.82605526 12.416382,5.08641823 12.5950148,5.26505103 C13.2850822,5.950282 13.6731672,6.8825622 13.6731672,7.85505103 C13.6731672,8.82753985 13.2850822,9.75982006 12.5950148,10.445051 C12.3204592,10.7218488 12.3204592,11.1682533 12.5950148,11.445051 C12.7306481,11.5721477 12.9091447,11.6435464 13.0950148,11.645051 C13.2780198,11.6440264 13.4535613,11.5723768 13.5850148,11.445051 C14.5502018,10.5039933 15.0945134,9.21307762 15.0945134,7.86505103 C15.0945134,6.51702443 14.5502018,5.22610877 13.5850148,4.28505103 L13.5950148,4.26505103 Z M7.40501479,4.26505103 C7.12821703,3.99049546 6.68181256,3.99049546 6.40501479,4.26505103 C5.43982775,5.20610877 4.89551619,6.49702443 4.89551619,7.84505103 C4.89551619,9.19307762 5.43982775,10.4839933 6.40501479,11.425051 C6.53646829,11.5523768 6.71200978,11.6240264 6.89501479,11.625051 C7.08088485,11.6235464 7.25938153,11.5521477 7.39501479,11.425051 C7.66957036,11.1482533 7.66957036,10.7018488 7.39501479,10.425051 C6.70494738,9.73982006 6.31686238,8.80753985 6.31686238,7.83505103 C6.31686238,6.8625622 6.70494738,5.930282 7.39501479,5.24505103 C7.65942009,4.97342977 7.66382232,4.54201119 7.40501479,4.26505103 Z M15.6650148,2.20505103 C15.5333525,2.07067379 15.3531429,1.99494897 15.1650148,1.99494897 C14.9768867,1.99494897 14.7966771,2.07067379 14.6650148,2.20505103 C14.5280504,2.33530408 14.4505145,2.51604018 14.4505145,2.70505103 C14.4505145,2.89406187 14.5280504,3.07479797 14.6650148,3.20505103 C15.901026,4.4327789 16.5961104,6.1029146 16.5961104,7.84505103 C16.5961104,9.58718745 15.901026,11.2573232 14.6650148,12.485051 C14.5280504,12.6153041 14.4505145,12.7960402 14.4505145,12.985051 C14.4505145,13.1740619 14.5280504,13.354798 14.6650148,13.485051 C14.7922692,13.6198153 14.9696652,13.6958422 15.1550148,13.6950571 C15.3431281,13.6950571 15.5233355,13.6193908 15.6550148,13.485051 C18.7595715,10.3675019 18.764039,5.32809977 15.6650148,2.20505103 Z M3.40501479,7.84505103 C3.40361444,6.10285118 4.0984657,4.43232793 5.33501479,3.20505103 C5.47197917,3.07479797 5.54951506,2.89406187 5.54951506,2.70505103 C5.54951506,2.51604018 5.47197917,2.33530408 5.33501479,2.20505103 C5.20335253,2.07067379 5.02314293,1.99494897 4.83501479,1.99494897 C4.64688666,1.99494897 4.46667706,2.07067379 4.33501479,2.20505103 C1.23984732,5.32418031 1.23984732,10.3559217 4.33501479,13.475051 C4.46669408,13.6093908 4.64690153,13.6850571 4.83501479,13.6850571 C5.02036436,13.6858422 5.1977604,13.6098153 5.32501479,13.475051 C5.46197917,13.344798 5.53951506,13.1640619 5.53951506,12.975051 C5.53951506,12.7860402 5.46197917,12.6053041 5.32501479,12.475051 C4.09459527,11.2485708 3.40363261,9.58234316 3.40501479,7.84505103 L3.40501479,7.84505103 Z"/>
</svg>
