<svg xmlns="http://www.w3.org/2000/svg" width="20" height="20" viewBox="0 0 20 20">
  <path fill="#264966" d="M14.8,2.5 L5.2,2.5 C3.70883118,2.5 2.5,3.70883118 2.5,5.2 L2.5,14.96 C2.5,16.3628033 3.63719674,17.5 5.04,17.5 L14.96,17.5 C16.3628033,17.5 17.5,16.3628033 17.5,14.96 L17.5,5.2 C17.5,3.70883118 16.2911688,2.5 14.8,2.5 Z M3.9,5.2 C3.9,4.85521856 4.03696389,4.52455848 4.28076118,4.28076118 C4.52455848,4.03696389 4.85521856,3.9 5.2,3.9 L14.8,3.9 C15.5179702,3.9 16.1,4.48202983 16.1,5.2 L16.1,7.72 L3.9,7.72 L3.9,5.2 Z M16.1,14.96 C16.1,15.5896046 15.5896046,16.1 14.96,16.1 L5.04,16.1 C4.41039539,16.1 3.9,15.5896046 3.9,14.96 L3.9,9.12 L16.1,9.12 L16.1,14.96 Z M5.67,4.78 C5.11771525,4.78 4.67,5.22771525 4.67,5.78 C4.67,6.33228475 5.11771525,6.78 5.67,6.78 C6.22228475,6.78 6.67,6.33228475 6.67,5.78 C6.67,5.22771525 6.22228475,4.78 5.67,4.78 L5.67,4.78 Z M8.47,4.78 C7.91771525,4.78 7.47,5.22771525 7.47,5.78 C7.47,6.33228475 7.91771525,6.78 8.47,6.78 C9.02228475,6.78 9.47,6.33228475 9.47,5.78 C9.4702434,5.23922197 9.04053468,4.79622329 8.5,4.78 L8.47,4.78 Z M11.26,4.78 C10.7077153,4.78 10.26,5.22771525 10.26,5.78 C10.26,6.33228475 10.7077153,6.78 11.26,6.78 C11.8122847,6.78 12.26,6.33228475 12.26,5.78 C12.26,5.22771525 11.8122847,4.78 11.26,4.78 L11.26,4.78 Z M4.84992743,11.21 C4.84727835,11.0208751 4.92120742,10.8386981 5.05495278,10.7049528 C5.18869815,10.5712074 5.37087507,10.4972784 5.56,10.5 L14.44,10.5 C14.8265993,10.5 15.14,10.8134007 15.14,11.2 C15.14,11.5865993 14.8265993,11.9 14.44,11.9 L5.56,11.9 C5.37434292,11.9026712 5.19523069,11.8314712 5.0620757,11.702067 C4.9289207,11.5726629 4.8526333,11.3956576 4.84992743,11.21 Z M4.85,14.01 C4.85,13.8226028 4.9251018,13.6430226 5.05854807,13.5114559 C5.19199434,13.3798892 5.37262191,13.3073229 5.56,13.31 L10.44,13.31 C10.6900859,13.31 10.9211748,13.4434192 11.0462178,13.66 C11.1712608,13.8765807 11.1712608,14.1434193 11.0462178,14.36 C10.9211748,14.5765808 10.6900859,14.71 10.44,14.71 L5.56,14.71 C5.1717501,14.7100385 4.85546831,14.3982114 4.85,14.01 L4.85,14.01 Z"/>
</svg>
