<svg xmlns="http://www.w3.org/2000/svg" width="20" height="20" viewBox="0 0 20 20">
  <path fill="#264966" d="M17.9875134,12.91 C17.8978153,12.6590286 17.6800886,12.4756797 17.4175134,12.43 L15.3275134,12.13 L14.3975134,10.24 C14.2766812,10.0012924 14.0349469,9.84781034 13.7675134,9.84 C13.5016043,9.84367779 13.2593746,9.99362951 13.1375134,10.23 L12.2075134,12.13 L10.1175134,12.43 C9.85206964,12.4694228 9.63153383,12.6551371 9.54751336,12.91 C9.46967013,13.1648179 9.53891384,13.4417928 9.72751336,13.63 L11.2075134,15.1 L10.8475134,17.18 C10.8098961,17.4436265 10.9168269,17.7071345 11.1275134,17.87 C11.3467093,18.0200669 11.6301226,18.0392164 11.8675134,17.92 L13.7375134,16.92 L15.6075134,17.92 C15.7065523,17.9710698 15.8160932,17.998455 15.9275134,18 C16.0740369,17.9982164 16.2167324,17.9529715 16.3375134,17.87 C16.5555872,17.7128387 16.664404,17.4446831 16.6175134,17.18 L16.2675134,15.1 L17.7775134,13.63 C17.9768555,13.448284 18.0579081,13.1703892 17.9875134,12.91 L17.9875134,12.91 Z M14.9875134,14.35 C14.8235832,14.5119397 14.7457366,14.7417724 14.7775134,14.97 L14.9875134,16 L14.0575134,15.51 C13.8513191,15.3997773 13.6037076,15.3997773 13.3975134,15.51 L12.4575134,16 L12.6375134,15 C12.6769361,14.7730135 12.6021454,14.5411623 12.4375134,14.38 L11.6775134,13.64 L12.7275134,13.49 C12.9573576,13.4618373 13.1570721,13.3186458 13.2575134,13.11 L13.7275134,12.16 L14.1975134,13.11 C14.3007821,13.3162518 14.499029,13.4583911 14.7275134,13.49 L15.7775134,13.64 L14.9875134,14.35 Z M11.1675134,10.7 L5.05751336,10.7 C4.67091403,10.7 4.35751336,10.3865993 4.35751336,10 C4.35751336,9.61340068 4.67091403,9.3 5.05751336,9.3 L11.1675134,9.3 C11.5541127,9.3 11.8675134,9.61340068 11.8675134,10 C11.8675134,10.3865993 11.5541127,10.7 11.1675134,10.7 L11.1675134,10.7 Z M12.1675134,7.09 L5.05751336,7.09 C4.67091403,7.09 4.35751336,6.77659932 4.35751336,6.39 C4.35751336,6.00340068 4.67091403,5.69 5.05751336,5.69 L12.1575134,5.69 C12.5441127,5.69 12.8575134,6.00340068 12.8575134,6.39 C12.8575134,6.77659932 12.5441127,7.09 12.1575134,7.09 L12.1675134,7.09 Z M7.22751336,13 C7.61411268,13 7.92751336,13.3134007 7.92751336,13.7 C7.92751336,14.0865993 7.61411268,14.4 7.22751336,14.4 L5.05751336,14.4 C4.67091405,14.4 4.35751339,14.0865993 4.35751339,13.7 C4.35751339,13.3134007 4.67091405,13 5.05751336,13 L7.22751336,13 Z M9.27751336,17.3 C9.27751336,17.6865993 8.96411268,18 8.57751336,18 L3.67751336,18 C2.74415213,18 1.98751336,17.2433612 1.98751336,16.31 L1.98751336,3.69 C1.98751336,2.75663877 2.74415213,2 3.67751336,2 L13.5375134,2 C14.4708746,2 15.2275134,2.75663877 15.2275134,3.69 L15.2275134,8.2 C15.2275134,8.58659932 14.9141127,8.9 14.5275134,8.9 C14.140914,8.9 13.8275134,8.58659932 13.8275134,8.2 L13.8275134,3.69 C13.8275134,3.52983742 13.6976759,3.4 13.5375134,3.4 L3.67751336,3.4 C3.51735078,3.4 3.38751336,3.52983742 3.38751336,3.69 L3.38751336,16.31 C3.38751336,16.4701626 3.51735078,16.6 3.67751336,16.6 L8.57751336,16.6 C8.96411268,16.6 9.27751336,16.9134007 9.27751336,17.3 Z"/>
</svg>
