<svg xmlns="http://www.w3.org/2000/svg" width="20" height="20" viewBox="0 0 20 20">
  <path fill="#264966" d="M9.43948642,14.7282964 C9.57168449,14.9045605 9.77915631,15.0082964 9.99948642,15.0082964 C10.2173931,15.0076753 10.4232951,14.9084011 10.5594864,14.7382964 L13.9094864,10.3582964 C15.6670618,8.26892596 15.4630907,5.16498299 13.4472104,3.32357963 C11.43133,1.48217627 8.32164787,1.55926692 6.39948642,3.49829639 C4.5356891,5.37974272 4.41426335,8.37202025 6.11948642,10.3982964 C6.25948642,10.5682964 8.17948642,13.0782964 9.43948642,14.7282964 Z M7.38948642,4.48829639 C8.2826504,3.51474766 9.62735001,3.09164884 10.9170499,3.37837717 C12.2067499,3.66510549 13.245514,4.61810011 13.6420499,5.87837717 C14.0385859,7.13865423 13.7326504,8.51474766 12.8394864,9.48829639 C12.7694864,9.57829639 11.1094864,11.7282964 9.99948642,13.1882964 L7.18948642,9.48829639 C5.95296875,8.02073958 6.03970228,5.85240113 7.38948642,4.48829639 Z M9.99948642,9.23829639 C11.2642185,9.23829639 12.2894864,8.21302847 12.2894864,6.94829639 C12.2894864,5.68356432 11.2642185,4.65829639 9.99948642,4.65829639 C8.73475435,4.65829639 7.70948642,5.68356432 7.70948642,6.94829639 C7.71496353,8.21075282 8.73703,9.23281928 9.99948642,9.23829639 Z M9.99948642,6.05829639 C10.4910198,6.05829639 10.8894864,6.45676297 10.8894864,6.94829639 C10.8894864,7.43982982 10.4910198,7.83829639 9.99948642,7.83829639 C9.507953,7.83829639 9.10948642,7.43982982 9.10948642,6.94829639 C9.10948642,6.45676297 9.507953,6.05829639 9.99948642,6.05829639 Z M17.7094864,17.3682964 C17.4157425,17.7705472 16.9475739,18.0082964 16.4494864,18.0082964 L3.54948642,18.0082964 C3.05940912,18.0083938 2.59854527,17.7752275 2.30830354,17.3803408 C2.01806181,16.9854541 1.93309968,16.476 2.07948642,16.0082964 L3.20948642,12.6182964 C3.40625267,11.9696482 4.0016754,11.5240938 4.67948642,11.5182964 L5.60948642,11.5182964 C5.99608575,11.5182964 6.30948642,11.8316971 6.30948642,12.2182964 C6.30948642,12.6048957 5.99608575,12.9182964 5.60948642,12.9182964 L4.67948642,12.9182964 C4.612512,12.9167442 4.55382395,12.9628562 4.53948642,13.0282964 L3.40948642,16.4182964 C3.38814771,16.4590028 3.38814771,16.50759 3.40948642,16.5482964 C3.43527886,16.5889865 3.48145887,16.6120765 3.52948642,16.6082964 L16.4294864,16.6082964 C16.477514,16.6120765 16.523694,16.5889865 16.5494864,16.5482964 C16.5708251,16.50759 16.5708251,16.4590028 16.5494864,16.4182964 L15.4594864,13.0082964 C15.4451489,12.9428562 15.3864608,12.8967442 15.3194864,12.8982964 L14.3894864,12.8982964 C14.0028871,12.8982964 13.6894864,12.5848957 13.6894864,12.1982964 C13.6894864,11.8116971 14.0028871,11.4982964 14.3894864,11.4982964 L15.3194864,11.4982964 C15.9865252,11.4985159 16.5786161,11.9254659 16.7894864,12.5582964 L17.9194864,16.0082964 C18.064021,16.4696779 17.9864565,16.9720001 17.7094864,17.3682964 Z"/>
</svg>
