<svg xmlns="http://www.w3.org/2000/svg" width="20" height="20" viewBox="0 0 20 20">
  <path fill="#264966" d="M17.998341,10 C17.9976464,10.2508909 17.8645906,10.4827882 17.648341,10.61 C16.9154022,11.03315 16.4623079,11.8136907 16.458341,12.66 L16.458341,15.33 C16.4528574,16.8023229 15.2606639,17.9945164 13.788341,18 L12.998341,18 C12.6117417,18 12.298341,17.6865993 12.298341,17.3 C12.298341,16.9134007 12.6117417,16.6 12.998341,16.6 L13.788341,16.6 C14.4897426,16.6 15.058341,16.0314016 15.058341,15.33 L15.058341,12.66 C15.0630752,11.6636072 15.4579546,10.7087171 16.158341,10 C15.4579546,9.29128293 15.0630752,8.33639278 15.058341,7.34 L15.058341,4.67 C15.058341,4.33317506 14.9245378,4.01014559 14.6863666,3.77197439 C14.4481954,3.53380319 14.1251659,3.4 13.788341,3.4 L12.998341,3.4 C12.6117417,3.4 12.298341,3.08659932 12.298341,2.7 C12.298341,2.31340068 12.6117417,2 12.998341,2 L13.788341,2 C15.2606639,2.00548357 16.4528574,3.19767707 16.458341,4.67 L16.458341,7.34 C16.4623079,8.18630932 16.9154022,8.96684999 17.648341,9.39 C17.8645906,9.51721183 17.9976464,9.74910907 17.998341,10 L17.998341,10 Z M6.99834098,16.6 L6.20834098,16.6 C5.50693935,16.6 4.93834098,16.0314016 4.93834098,15.33 L4.93834098,12.66 C4.93360675,11.6636072 4.53872736,10.7087171 3.83834098,10 C4.53872736,9.29128293 4.93360675,8.33639278 4.93834098,7.34 L4.93834098,4.67 C4.93834098,3.96859837 5.50693935,3.4 6.20834098,3.4 L6.99834098,3.4 C7.18399252,3.4 7.36204026,3.32625021 7.49331573,3.19497475 C7.62459119,3.06369928 7.69834098,2.88565154 7.69834098,2.7 C7.69834098,2.51434846 7.62459119,2.33630072 7.49331573,2.20502525 C7.36204026,2.07374979 7.18399252,2 6.99834098,2 L6.20834098,2 C4.73601805,2.00548357 3.54382455,3.19767707 3.53834098,4.67 L3.53834098,7.34 C3.53437411,8.18630932 3.08127977,8.96684999 2.34834098,9.39 C2.13336616,9.51803972 2.00165902,9.74978341 2.00165902,10 C2.00165902,10.2502166 2.13336616,10.4819603 2.34834098,10.61 C3.08127977,11.03315 3.53437411,11.8136907 3.53834098,12.66 L3.53834098,15.33 C3.54382455,16.8023229 4.73601805,17.9945164 6.20834098,18 L6.99834098,18 C7.3849403,18 7.69834098,17.6865993 7.69834098,17.3 C7.69834098,16.9134007 7.3849403,16.6 6.99834098,16.6 Z M11.798341,9.3 L10.698341,9.3 L10.698341,8.2 C10.698341,7.81340068 10.3849403,7.5 9.99834095,7.5 C9.61174165,7.5 9.29834098,7.81340068 9.29834098,8.2 L9.29834098,9.3 L8.19834098,9.3 C7.94825506,9.29999999 7.71716613,9.43341923 7.59212317,9.64999999 C7.46708021,9.86658075 7.46708021,10.1334193 7.59212317,10.35 C7.71716613,10.5665808 7.94825506,10.7 8.19834098,10.7 L9.29834098,10.7 L9.29834098,11.8 C9.29834097,12.0500859 9.43176021,12.2811748 9.64834097,12.4062178 C9.86492173,12.5312608 10.1317602,12.5312608 10.348341,12.4062178 C10.5649217,12.2811748 10.698341,12.0500859 10.698341,11.8 L10.698341,10.7 L11.798341,10.7 C12.1849403,10.7 12.4983409,10.3865993 12.4983409,10 C12.4983409,9.61340068 12.1849403,9.3 11.798341,9.3 L11.798341,9.3 Z"/>
</svg>
