<svg xmlns="http://www.w3.org/2000/svg" width="20" height="20" viewBox="0 0 20 20">
  <path fill="#264966" d="M2.5,7.50225013 C2.50111627,7.41330413 2.51804669,7.32526594 2.55,7.24225013 C2.58539322,7.15454561 2.64007875,7.07593516 2.71,7.01225013 L6.99,2.71225013 C7.12025306,2.57528575 7.30098915,2.49774987 7.49,2.49774987 C7.67901085,2.49774987 7.85974694,2.57528575 7.99,2.71225013 C8.26455556,2.9890479 8.26455556,3.43545237 7.99,3.71225013 L4.89,6.78225013 L13.07,6.78225013 C15.51434,6.78774923 17.4945009,8.76791011 17.5,11.2122501 L17.5,16.8022501 C17.5,17.1888495 17.1865993,17.5022501 16.8,17.5022501 C16.4134007,17.5022501 16.1,17.1888495 16.1,16.8022501 L16.1,11.2122501 C16.1,9.55539588 14.7568542,8.21225013 13.1,8.21225013 L4.89,8.21225013 L7.98,11.2722501 C8.24923553,11.5512176 8.24923553,11.9932826 7.98,12.2722501 C7.70320224,12.5468057 7.25679776,12.5468057 6.98,12.2722501 L2.71,7.98225013 C2.64007875,7.9185651 2.58539322,7.83995466 2.55,7.75225013 C2.51937494,7.67232677 2.50247047,7.58780441 2.5,7.50225013 Z"/>
</svg>
