<svg xmlns="http://www.w3.org/2000/svg" width="20" height="20" viewBox="0 0 20 20">
  <path fill="#264966" d="M14.921289,12.3550065 C14.2044065,12.358293 13.5220195,12.6631893 13.041289,13.1950065 L7.53128901,10.4650065 C7.598078,10.1552323 7.598078,9.83478069 7.53128901,9.52500648 L13.041289,6.76500648 C13.8730396,7.65937365 15.2235669,7.83514405 16.2565342,7.18346892 C17.2895014,6.53179378 17.7124116,5.23720265 17.2633705,4.10139287 C16.8143294,2.96558309 15.6204884,2.31017268 14.4211535,2.54103557 C13.2218187,2.77189845 12.3565959,3.82366307 12.361289,5.04500648 C12.3460162,5.20464201 12.3460162,5.36537094 12.361289,5.52500648 L6.90128901,8.24500648 C6.191472,7.46809607 5.07730723,7.20701872 4.09623442,7.58771033 C3.1151616,7.96840193 2.46871099,8.91266149 2.46871099,9.96500648 C2.46871099,11.0173515 3.1151616,11.961611 4.09623442,12.3423026 C5.07730723,12.7229942 6.191472,12.4619169 6.90128901,11.6850065 L12.411289,14.4650065 C12.3960162,14.624642 12.3960162,14.7853709 12.411289,14.9450065 C12.411289,16.3588554 13.5574401,17.5050065 14.971289,17.5050065 C16.385138,17.5050065 17.531289,16.3588554 17.531289,14.9450065 C17.531289,13.5311575 16.385138,12.3850065 14.971289,12.3850065 L14.921289,12.3550065 Z M14.921289,3.86500648 C15.3913715,3.86500648 15.8149685,4.1487431 15.9939127,4.58343435 C16.1728569,5.01812559 16.0717656,5.51783703 15.7379313,5.84879346 C15.404097,6.1797499 14.903529,6.27651102 14.4704033,6.09381 C14.0372777,5.91110899 13.7572366,5.48507147 13.761289,5.01500648 C13.7667784,4.37826484 14.2845237,3.86498282 14.921289,3.86500648 Z M5.02128901,11.1150065 C4.38749254,11.109495 3.87764189,10.5922076 3.8812886,9.95839773 C3.88497461,9.32458791 4.40077558,8.8132335 5.0345934,8.81504985 C5.66841121,8.81687591 6.18126505,9.33118605 6.18128901,9.96500648 C6.18128901,10.271746 6.05876849,10.5657787 5.84093399,10.7817353 C5.6230995,10.9976919 5.32801692,11.1176738 5.02128901,11.1150065 Z M14.921289,16.0650065 C14.4503173,16.0690494 14.0236523,15.7879172 13.8415466,15.3535576 C13.659441,14.919198 13.7580483,14.4178449 14.0910879,14.0848053 C14.4241274,13.7517658 14.9254806,13.6531584 15.3598401,13.8352641 C15.7941997,14.0173697 16.0753319,14.4440348 16.071289,14.9150065 C16.0658564,15.54787 15.5541526,16.0595739 14.921289,16.0650065 L14.921289,16.0650065 Z"/>
</svg>
