<svg width="16" height="16" viewBox="0 0 16 16" fill="none" xmlns="http://www.w3.org/2000/svg">
<path d="M13.5711 4.38472L9.97556 8L13.5908 11.6153C14.1364 12.1608 14.1364 13.0453 13.5908 13.5908C13.0453 14.1364 12.1608 14.1364 11.6153 13.5908L8 9.97556L4.38472 13.5711C3.83918 14.1166 2.95469 14.1166 2.40915 13.5711C1.86362 13.0256 1.86362 12.1411 2.40915 11.5955L6.02444 8L2.42891 4.38472C1.88337 3.83918 1.88337 2.95469 2.42891 2.40915C2.97445 1.86362 3.85894 1.86362 4.40447 2.40915L8 6.02444L11.6153 2.42891C12.1608 1.88337 13.0453 1.88337 13.5908 2.42891C14.1364 2.97445 14.1364 3.85894 13.5908 4.40447L13.5711 4.38472Z" fill="black"/>
</svg>
