<svg xmlns="http://www.w3.org/2000/svg" width="20" height="20" viewBox="0 0 20 20">
  <path fill="#264966" d="M14.3,0 L0.7,0 C0.313400675,0 0,0.313400675 0,0.7 L0,3.12 C0,3.50659932 0.313400675,3.82 0.7,3.82 L0.93,3.82 L0.93,10.57 C0.93,10.9565993 1.24340068,11.27 1.63,11.27 L6.8,11.27 L6.8,13.6 L5.64,13.6 C5.25340068,13.6 4.94,13.9134007 4.94,14.3 C4.94,14.6865993 5.25340068,15 5.64,15 L9.36,15 C9.74659932,15 10.06,14.6865993 10.06,14.3 C10.06,13.9134007 9.74659932,13.6 9.36,13.6 L8.2,13.6 L8.2,11.27 L13.37,11.27 C13.7565993,11.27 14.07,10.9565993 14.07,10.57 L14.07,3.82 L14.3,3.82 C14.6865993,3.82 15,3.50659932 15,3.12 L15,0.7 C15,0.313400675 14.6865993,0 14.3,0 Z M1.4,1.4 L13.6,1.4 L13.6,2.4 L1.4,2.4 L1.4,1.4 Z M12.67,9.87 L2.33,9.87 L2.33,3.87 L12.67,3.87 L12.67,9.87 Z M9.18,6.87 L6.37,8.47 L6.37,5.23 L9.18,6.87 Z" transform="translate(2.5 2.5)"/>
</svg>
