<svg xmlns="http://www.w3.org/2000/svg" width="20" height="20" viewBox="0 0 20 20">
  <path fill="#264966" d="M17.8361477,12.6644704 C17.7978724,12.7451464 17.747266,12.8193692 17.6861477,12.8844704 L15.4161477,15.1544704 C15.2844684,15.2888102 15.104261,15.3644973 14.9161477,15.3644704 C14.7307982,15.3652616 14.5534021,15.2892347 14.4261477,15.1544704 C14.2891833,15.0242174 14.2116475,14.8434813 14.2116475,14.6544704 C14.2116475,14.4654596 14.2891833,14.2847235 14.4261477,14.1544704 L15.4961477,13.0844704 L11.9061477,13.0844704 C11.567583,13.0844599 11.2430288,13.219635 11.004568,13.4599734 C10.7661073,13.7003118 10.6334819,14.0259162 10.6361477,14.3644704 L10.6361477,17.3644704 C10.6361477,17.7510698 10.3227471,18.0644704 9.93614773,18.0644704 C9.5495484,18.0644704 9.23614773,17.7510698 9.23614773,17.3644704 L9.23614773,14.3644704 C9.2416313,12.8921475 10.4338248,11.699954 11.9061477,11.6944704 L15.4461477,11.6944704 L14.3761477,10.6144704 C14.2391833,10.4842174 14.1616475,10.3034813 14.1616475,10.1144704 C14.1616475,9.92545958 14.2391833,9.74472349 14.3761477,9.61447043 C14.6529455,9.33991487 15.09935,9.33991487 15.3761477,9.61447043 L17.6361477,11.8944704 C17.6974935,11.9631086 17.7480691,12.040658 17.7861477,12.1244704 L17.7861477,12.1244704 C17.872557,12.2910742 17.8904977,12.4848334 17.8361477,12.6644704 Z M3.83614773,16.0244704 C3.47523785,15.6659222 3.27228108,15.1782069 3.27228108,14.6694704 C3.27228108,14.160734 3.47523785,13.6730186 3.83614773,13.3144704 L10.5761477,6.57447043 C10.8128471,6.34457518 11.1894484,6.34457518 11.4261477,6.57447043 C11.5422206,6.68742537 11.6076982,6.84250833 11.6076982,7.00447043 C11.6076982,7.16643253 11.5422206,7.32151549 11.4261477,7.43447043 L6.11614773,12.7544704 C5.84000535,13.0306128 5.84000535,13.4783281 6.11614773,13.7544704 C6.3922901,14.0306128 6.84000535,14.0306128 7.11614773,13.7544704 L12.4261477,8.42447043 C13.2103921,7.64022609 13.2103921,6.36871478 12.4261477,5.58447043 C11.6419034,4.80022609 10.3703921,4.80022609 9.58614773,5.58447043 L2.83614773,12.3644704 C1.8043164,13.6860659 1.91983385,15.5695861 3.10543298,16.7551852 C4.29103211,17.9407843 6.17455222,18.0563018 7.49614773,17.0244704 L8.13614773,16.3844704 L8.13614773,14.3844704 L6.50614773,16.0244704 C5.76394711,16.7498433 4.57834835,16.7498433 3.83614773,16.0244704 Z M3.92614773,9.52447043 L9.12614773,4.32447043 C10.4037581,3.11049814 12.4085373,3.11049814 13.6861477,4.32447043 C14.8336746,5.46819435 14.9453345,7.28910841 13.9461477,8.56447043 C14.2452153,8.37600256 14.5926957,8.27870806 14.9461477,8.28447043 C15.2011751,8.28650688 15.4530589,8.34096826 15.6861477,8.44447043 C15.9345783,7.86271773 16.0637937,7.23704329 16.0661477,6.60447043 C16.0862004,4.7052837 14.9418962,2.98732388 13.181664,2.27395502 C11.4214319,1.56058615 9.40395546,1.99717189 8.09614773,3.37447043 L2.89614773,8.56447043 C2.6269122,8.84343794 2.6269122,9.28550292 2.89614773,9.56447043 C3.17173242,9.83247829 3.61056304,9.83247829 3.88614773,9.56447043 L3.92614773,9.52447043 Z M12.0161477,10.5244704 L13.1661477,10.5244704 C13.0575655,10.0829258 13.1144845,9.61690114 13.3261477,9.21447043 L12.0161477,10.5244704 Z"/>
</svg>
