<svg xmlns="http://www.w3.org/2000/svg" width="20" height="20" viewBox="0 0 20 20">
  <path fill="#264966" d="M18.8031726,17.8029584 L14.6431726,13.6429584 C17.2812165,10.4704558 16.9583415,5.78436736 13.9101165,3.00365299 C10.8618915,0.222938629 6.16592794,0.330639121 3.24839064,3.24817642 C0.330853343,6.16571372 0.223152851,10.8616773 3.00386721,13.9099023 C5.78458158,16.9581272 10.47067,17.2810022 13.6431726,14.6429584 L17.8031726,18.8029584 C17.9348519,18.9372981 18.1150593,19.0129645 18.3031726,19.0129645 C18.4885221,19.0137495 18.6659182,18.9377226 18.7931726,18.8029584 C18.9314486,18.6740801 19.0107983,18.4941175 19.012723,18.3051035 C19.0145785,18.1160895 18.9388436,17.9345761 18.8031726,17.8029584 Z M2.41314066,8.71295836 C2.40507758,6.15899716 3.93731668,3.85201114 6.29454973,2.86903829 C8.65178279,1.88606543 11.3691001,2.42097439 13.1778968,4.22403791 C14.9866934,6.02710143 15.530226,8.74270697 14.5547414,11.1030487 C13.5792568,13.4633904 11.2771466,15.0029584 8.72317258,15.0029584 C5.24831725,14.9974993 2.42966288,12.1877788 2.41314066,8.71295836 Z"/>
</svg>
