<svg xmlns="http://www.w3.org/2000/svg" width="20" height="20" viewBox="0 0 20 20">
  <path fill="#264966" d="M15.3,2 L10,2 C5.581722,2 2,5.581722 2,10 C2,14.418278 5.581722,18 10,18 C14.418278,18 18,14.418278 18,10 L18,4.7 C18,3.20883118 16.7911688,2 15.3,2 Z M16.6,10 C16.6,13.6450793 13.6450793,16.6 10,16.6 C6.35492065,16.6 3.4,13.6450793 3.4,10 C3.4,6.35492065 6.35492065,3.4 10,3.4 L15.3,3.4 C16.0179702,3.4 16.6,3.98202983 16.6,4.7 L16.6,10 Z M12.88,10.27 L12.88,10.27 L11.22,7.42 C11.3463373,7.20071454 11.4151389,6.95302887 11.42,6.7 C11.42,5.91575566 10.7842443,5.28 10,5.28 C9.21575566,5.28 8.58,5.91575566 8.58,6.7 C8.58486108,6.95302887 8.65366265,7.20071454 8.78,7.42 L7.13,10.27 L7.13,10.27 C6.43875106,10.2673374 5.84601456,10.7628274 5.72607044,11.4435957 C5.60612631,12.1243641 5.99382731,12.7925967 6.64436194,13.0263421 C7.29489656,13.2600874 8.01923583,12.9914249 8.36,12.39 L11.66,12.39 C12.0007642,12.9914249 12.7251034,13.2600874 13.3756381,13.0263421 C14.0261727,12.7925967 14.4138737,12.1243641 14.2939296,11.4435957 C14.1739854,10.7628274 13.5812489,10.2673374 12.89,10.27 L12.88,10.27 Z M11.65,11 L8.34,11 L10,8.12 L10,8.12 L11.66,11 L11.65,11 Z"/>
</svg>
