<svg xmlns="http://www.w3.org/2000/svg" width="20" height="20" viewBox="0 0 20 20">
  <path fill="#264966" d="M10,12.7 C9.81412994,12.6984953 9.63563326,12.6270967 9.5,12.5 L6.21,9.2 C6.07303562,9.06974694 5.99549974,8.88901085 5.99549974,8.7 C5.99549974,8.51098915 6.07303562,8.33025306 6.21,8.2 C6.34025306,8.06303562 6.52098915,7.98549974 6.71,7.98549974 C6.89901085,7.98549974 7.07974694,8.06303562 7.21,8.2 L10,11 L12.8,8.21 C12.9302531,8.07303562 13.1109892,7.99549974 13.3,7.99549974 C13.4890108,7.99549974 13.6697469,8.07303562 13.8,8.21 C13.9369644,8.34025306 14.0145003,8.52098915 14.0145003,8.71 C14.0145003,8.89901085 13.9369644,9.07974694 13.8,9.21 L10.5,12.5 C10.3643667,12.6270967 10.1858701,12.6984953 10,12.7 L10,12.7 Z"/>
</svg>
