<svg xmlns="http://www.w3.org/2000/svg" width="20" height="20" viewBox="0 0 20 20">
  <path fill="#264966" d="M14.48,2.45 L13.22,2.45 L13.22,1.82 C13.2145346,0.817114338 12.4028857,0.00546543848 11.4,0 L1.82,0 C0.817114338,0.00546543848 0.00546543848,0.817114338 0,1.82 L0,4.47 C0,5.47515824 0.814841755,6.29 1.82,6.29 L11.4,6.29 C12.4051582,6.29 13.22,5.47515824 13.22,4.47 L13.22,3.85 L14.48,3.85 C14.5193219,3.84342897 14.5591214,3.85864809 14.5840261,3.88977909 C14.6089309,3.92091008 14.6150424,3.96307963 14.6,4 L14.6,7.2 C14.6001284,7.23099204 14.5871768,7.26060027 14.5643307,7.28154253 C14.5414845,7.3024848 14.5108639,7.31281775 14.48,7.31 L7.81,7.31 C6.98978993,7.31511258 6.32156896,7.97005764 6.3,8.79 L6.3,10.58 C5.57016599,10.8332449 5.07796894,11.5175188 5.07,12.29 L5.07,14.18 C5.07546544,15.1828857 5.88711434,15.9945346 6.89,16 L7.1,16 C8.10288566,15.9945346 8.91453456,15.1828857 8.92,14.18 L8.92,12.29 C8.91650088,11.5191543 8.42776274,10.8341196 7.7,10.58 L7.7,8.79 C7.69978244,8.72744245 7.74765964,8.67521278 7.81,8.67 L14.48,8.67 C14.8822067,8.67266368 15.2688551,8.51475154 15.5542016,8.23128238 C15.839548,7.94781323 16,7.56221555 16,7.16 L16,4 C16.0080602,3.5916984 15.8514831,3.19732844 15.5655495,2.90575143 C15.2796159,2.61417442 14.8883811,2.44992045 14.48,2.45 Z M11.82,4.45 C11.82,4.68195959 11.6319596,4.87 11.4,4.87 L1.82,4.87 C1.58804041,4.87 1.4,4.68195959 1.4,4.45 L1.4,1.82 C1.4,1.58804041 1.58804041,1.4 1.82,1.4 L11.4,1.4 C11.6319596,1.4 11.82,1.58804041 11.82,1.82 L11.82,4.45 Z M7.52,14.16 C7.52,14.3919596 7.33195959,14.58 7.1,14.58 L6.89,14.58 C6.65804041,14.58 6.47,14.3919596 6.47,14.16 L6.47,12.29 C6.47,12.0580404 6.65804041,11.87 6.89,11.87 L7.1,11.87 C7.33195959,11.87 7.52,12.0580404 7.52,12.29 L7.52,14.16 Z" transform="translate(2 2)"/>
</svg>
