<svg xmlns="http://www.w3.org/2000/svg" width="20" height="20" viewBox="0 0 20 20">
  <path fill="#264966" d="M17.7926014,2.21213906 C17.6623484,2.07517468 17.4816123,1.99763879 17.2926014,1.99763879 C17.1035906,1.99763879 16.9228545,2.07517468 16.7926014,2.21213906 L15.0026014,4.00213906 L15.0026014,4.00213906 L13.6026014,5.40213906 L13.6026014,5.40213906 L12.0026014,7.00213906 L12.0026014,7.00213906 L11.1426014,7.85213906 L11.1426014,7.85213906 L8.88260144,10.1321391 L8.88260144,10.1321391 L7.47260144,11.5321391 L7.47260144,11.5321391 L5.40260144,13.6121391 L5.40260144,13.6121391 L4.00260144,15.0021391 L4.00260144,15.0021391 L2.21260144,16.8021391 C2.07563706,16.9323921 1.99810117,17.1131282 1.99810117,17.3021391 C1.99810117,17.4911499 2.07563706,17.671886 2.21260144,17.8021391 C2.34156754,17.9332243 2.51874275,18.0055407 2.70260144,18.0022539 C2.8907147,18.0022539 3.07092215,17.9264788 3.20260144,17.7921391 L4.35260144,16.6421391 C4.82428355,17.4756585 5.70490924,17.9941221 6.66260144,18.0022539 L13.3426014,18.0022539 C14.813295,17.9966308 16.0026118,16.8028429 16.0026014,15.3321391 L16.0026014,5.40213906 L16.3026014,5.40213906 C16.5870442,5.40218053 16.8432298,5.23009644 16.9507583,4.96676143 C17.0582867,4.70342643 16.9957749,4.40120753 16.7926014,4.20213906 L17.7926014,3.20213906 C17.9263987,3.0722063 18.0018988,2.89364439 18.0018988,2.70713906 C18.0018988,2.52063372 17.9263987,2.34207181 17.7926014,2.21213906 Z M14.6026014,15.3321391 C14.6026014,16.0296539 14.0400947,16.5966468 13.3426014,16.6021391 L6.66260144,16.6021391 C6.07039493,16.5998902 5.56103932,16.1823856 5.44260144,15.6021391 L7.44260144,13.6021391 L7.44260144,14.3821391 C7.48520139,14.7391939 7.78801425,15.008026 8.14760144,15.008026 C8.50718862,15.008026 8.81000149,14.7391939 8.85260144,14.3821391 L8.85260144,12.1221391 L11.1226014,9.87213906 L11.1226014,14.3021391 C11.1652014,14.6591939 11.4680143,14.928026 11.8276014,14.928026 C12.1871886,14.928026 12.4900015,14.6591939 12.5326014,14.3021391 L12.5326014,8.46213906 L14.6026014,6.39213906 L14.6026014,15.3321391 Z M3.70260144,5.40213906 L4.00260145,5.40213906 L4.00260145,13.0021391 L5.40260144,11.6021391 L5.40260144,5.40213906 L11.6326014,5.40213906 L13.0026015,4.00213906 L12.6426014,4.00213906 L12.6426014,3.70213906 C12.6431721,2.78619593 11.9179741,2.03446629 11.0026015,2.00213906 L9.00260145,2.00213906 C8.06371736,2.00213906 7.30260144,2.76325498 7.30260144,3.70213906 L7.30260144,4.00213906 L3.70260144,4.00213906 C3.31600212,4.00213906 3.00260145,4.31553974 3.00260145,4.70213906 C3.00260145,5.08873838 3.31600212,5.40213905 3.70260144,5.40213906 Z M8.70260144,3.70213906 C8.69977784,3.62174172 8.73047723,3.54378396 8.78736178,3.48689941 C8.84424634,3.43001485 8.9222041,3.39931546 9.00260144,3.40213906 L11.0026014,3.40213906 C11.0829988,3.39931546 11.1609565,3.43001485 11.2178411,3.48689941 C11.2747256,3.54378396 11.305425,3.62174172 11.3026014,3.70213906 L11.3026014,4.00213906 L8.73260144,4.00213906 L8.70260144,3.70213906 Z M8.17260144,7.00213906 C8.35997953,6.99946195 8.5406071,7.07202821 8.67405337,7.20359496 C8.80749964,7.3351617 8.88262056,7.51474184 8.88260144,7.70213906 L8.88260144,8.15213906 L7.47260144,9.55213906 L7.47260144,7.70213906 C7.47260144,7.31553973 7.78600211,7.00213906 8.17260144,7.00213906 L8.17260144,7.00213906 Z"/>
</svg>
