<svg xmlns="http://www.w3.org/2000/svg" width="20" height="20" viewBox="0 0 20 20">
  <path fill="#264966" d="M17.7926014,2.21213906 C17.6623484,2.07517468 17.4816123,1.99763879 17.2926014,1.99763879 C17.1035906,1.99763879 16.9228545,2.07517468 16.7926014,2.21213906 L16.1326014,2.87213906 L16.1326014,2.87213906 L15.0526014,4.00213906 L15.0526014,4.00213906 L11.9126014,7.10213906 L11.9126014,7.10213906 L9.30260144,9.71213906 L9.30260144,9.71213906 L8.00260144,11.0521391 L8.00260144,11.0521391 L7.00260144,12.0021391 L7.00260144,12.0021391 L4.00260144,15.0021391 L4.00260144,15.0021391 L2.87260144,16.1421391 L2.87260144,16.1421391 L2.21260144,16.8021391 C2.07563706,16.9323921 1.99810117,17.1131282 1.99810117,17.3021391 C1.99810117,17.4911499 2.07563706,17.671886 2.21260144,17.8021391 C2.34156754,17.9332243 2.51874275,18.0055407 2.70260144,18.0022539 C2.8907147,18.0022539 3.07092215,17.9264788 3.20260144,17.7921391 L3.86260144,17.1321391 C4.26819208,17.37297 4.73090097,17.5007329 5.20260144,17.5021391 L14.8026014,17.5021391 C16.2937703,17.5021391 17.5026014,16.2933079 17.5026014,14.8021391 L17.5026014,5.20213906 C17.5011953,4.73043859 17.3734324,4.2677297 17.1326014,3.86213906 L17.7926014,3.20213906 C17.9263987,3.0722063 18.0018988,2.89364439 18.0018988,2.70713906 C18.0018988,2.52063372 17.9263987,2.34207181 17.7926014,2.21213906 Z M9.30260144,11.6921391 L9.30260144,12.3921391 L9.00260144,12.0021391 L9.30260144,11.6921391 Z M16.1026014,14.8021391 C16.1026014,15.5201092 15.5205716,16.1021391 14.8026014,16.1021391 L5.20260144,16.1021391 C5.11624518,16.1125125 5.0289577,16.1125125 4.94260144,16.1021391 L7.94260144,13.1021391 L9.50260144,14.5721391 C9.6342637,14.7065163 9.8144733,14.7822411 10.0026014,14.7822411 C10.1907296,14.7822411 10.3709392,14.7065163 10.5026014,14.5721391 L13.1326014,11.9421391 C13.4087438,11.6659967 13.4087438,11.2182814 13.1326014,10.9421391 C12.8564591,10.6659967 12.4087438,10.6659967 12.1326014,10.9421391 L10.7026014,12.3921391 L10.7026014,10.2921391 L12.4926014,8.50213906 L14.8026014,8.50213906 C15.2589619,8.50023805 15.7069739,8.37961943 16.1026014,8.15213906 L16.1026014,14.8021391 Z M16.1026014,5.20213906 L16.1026014,5.80213906 C16.1026014,6.52010923 15.5205716,7.10213906 14.8026014,7.10213906 L13.8926014,7.10213906 L16.0526014,4.94213906 C16.0797711,5.02645204 16.0965616,5.11376265 16.1026014,5.20213906 L16.1026014,5.20213906 Z M3.90260144,13.1321391 L2.50260144,14.5321391 L2.50260144,5.20213906 C2.50260144,3.71097023 3.71143261,2.50213906 5.20260144,2.50213906 L14.5326014,2.50213906 L13.1326014,3.90213906 L5.20260144,3.90213906 C4.85782,3.90213906 4.52715991,4.03910295 4.28336262,4.28290024 C4.03956533,4.52669753 3.90260144,4.85735762 3.90260144,5.20213906 L3.90260144,5.80213906 C3.90260144,6.52010923 4.48463126,7.10213906 5.20260144,7.10213906 L9.30260144,7.10213906 L9.30260144,5.70213906 C9.30260145,5.31553974 9.61600212,5.00213906 10.0026014,5.00213906 C10.3892008,5.00213906 10.7026014,5.31553974 10.7026014,5.70213906 L10.7026014,6.33213906 L8.53260144,8.50213906 L5.20260144,8.50213906 C4.74624098,8.50023805 4.29822898,8.37961943 3.90260144,8.15213906 L3.90260144,13.1321391 Z"/>
</svg>
