<svg xmlns="http://www.w3.org/2000/svg" width="20" height="20" viewBox="0 0 20 20">
  <path fill="#264966" d="M15.2500041,11.4699883 L13.6900041,11.4699883 C13.4098415,11.472327 13.1580609,11.6414921 13.0500041,11.8999883 L12.3800041,13.4799883 C12.3476038,13.505003 12.3024045,13.505003 12.2700041,13.4799883 C9.4078557,12.6191376 7.28799667,10.2003241 6.81000414,7.24998833 L8.50000414,6.49998833 C8.75458446,6.38888119 8.91938458,6.1377572 8.92000414,5.85998833 L8.92000414,4.27998833 C8.92575941,3.04168587 7.93801984,2.02725063 6.70000414,1.99998833 L4.24000414,1.99998833 C3.55502462,2.00381093 2.96089721,2.47416179 2.80000414,3.13998833 C2.59823119,4.03252127 2.49759726,4.94493556 2.4999233,5.85998833 C2.49719648,6.61169838 2.56752775,7.36189866 2.71000414,8.09998833 C3.54628472,12.7092246 6.97197506,16.4194148 11.5000041,17.6199883 C12.4797759,17.8737142 13.4879135,18.0014116 14.5000041,18.0000001 C15.0993146,17.9977155 15.697628,17.9509201 16.2900041,17.8599883 C16.9968185,17.7288789 17.507204,17.1088237 17.5000794,16.3899883 L17.5000794,13.7499883 C17.5055584,12.5001748 16.4997816,11.4809877 15.2500041,11.4699883 Z M16.1000041,16.3899883 C16.1000041,16.3899883 16.1000041,16.4799883 16.1000041,16.4799883 C14.7000018,16.690641 13.2720112,16.6192414 11.9000041,16.2699883 C7.87798874,15.2161303 4.82936065,11.9296936 4.08000414,7.83998833 C3.95667009,7.18054463 3.89639817,6.51085663 3.90000414,5.83998833 C3.89132915,5.01427018 4.0059245,4.19188001 4.24000414,3.39998833 L6.70000414,3.39998833 C6.92985905,3.40259872 7.14910237,3.49711992 7.30880215,3.66245616 C7.46850193,3.82779241 7.55536477,4.05018111 7.55000414,4.27998833 L7.55000414,5.39998833 L6.25000414,5.99998833 C5.6257742,6.2743654 5.26744909,6.93747278 5.38000414,7.60998833 C6.00443988,11.068457 8.51547307,13.8846773 11.8800041,14.8999883 C12.6203807,15.1160083 13.4018197,14.723106 13.6700041,13.9999883 L14.1600041,12.8499883 L15.2500041,12.8499883 C15.4798591,12.8525987 15.6991024,12.9471199 15.8588022,13.1124562 C16.0185019,13.2777924 16.1053648,13.5001811 16.1000041,13.7299883 L16.1000041,16.3899883 Z"/>
</svg>
