<svg xmlns="http://www.w3.org/2000/svg" width="20" height="20" viewBox="0 0 20 20">
  <path fill="#264966" d="M10,14 C7.790861,14 6,12.209139 6,10 C6,7.790861 7.790861,6 10,6 C12.209139,6 14,7.790861 14,10 C14,10.2500859 13.8665808,10.4811748 13.65,10.6062178 C13.4334192,10.7312607 13.1665808,10.7312607 12.95,10.6062178 C12.7334192,10.4811748 12.6,10.2500859 12.6,10 C12.6,8.56405965 11.4359403,7.4 10,7.4 C8.56405965,7.4 7.4,8.56405965 7.4,10 C7.4,11.4359403 8.56405965,12.6 10,12.6 C10.3865993,12.6 10.7,12.9134007 10.7,13.3 C10.7,13.6865993 10.3865993,14 10,14 Z"/>
</svg>
