<svg xmlns="http://www.w3.org/2000/svg" width="20" height="20" viewBox="0 0 20 20">
  <path fill="#264966" d="M6.68,14.0024433 C6.50004042,14.0009246 6.32779552,13.9291559 6.2,13.8024433 C6.05748006,13.6753207 5.97598206,13.4934201 5.97598206,13.3024433 C5.97598206,13.1114666 6.05748006,12.929566 6.2,12.8024433 L12.8,6.20244334 C12.9271227,6.05992341 13.1090233,5.9784254 13.3,5.9784254 C13.4909767,5.9784254 13.6728773,6.05992341 13.8,6.20244334 C13.9425199,6.32956601 14.0240179,6.51146663 14.0240179,6.70244334 C14.0240179,6.89342006 13.9425199,7.07532067 13.8,7.20244334 L7.2,13.8024433 C7.06248261,13.9392356 6.87373967,14.011829 6.68,14.0024433 Z M10.68,13.8024433 L13.76,10.6524433 C13.8969644,10.5221903 13.9745003,10.3414542 13.9745003,10.1524433 C13.9745003,9.96343249 13.8969644,9.7826964 13.76,9.65244334 C13.6328773,9.50992341 13.4509767,9.4284254 13.26,9.4284254 C13.0690233,9.4284254 12.8871227,9.50992341 12.76,9.65244334 L9.69,12.8024433 C9.54748006,12.929566 9.46598206,13.1114666 9.46598206,13.3024433 C9.46598206,13.4934201 9.54748006,13.6753207 9.69,13.8024433 C9.81874362,13.9421183 10.0000421,14.0215746 10.19,14.0215746 C10.3799579,14.0215746 10.5612564,13.9421183 10.69,13.8024433 L10.68,13.8024433 Z M13.79,13.8024433 C13.8489651,13.7356416 13.8993552,13.6617362 13.94,13.5824433 C13.9551368,13.4964376 13.9551368,13.4084491 13.94,13.3224433 C13.9418285,13.1418158 13.8695438,12.9683325 13.74,12.8424433 C13.6731983,12.7834782 13.5992928,12.7330882 13.52,12.6924433 C13.3537353,12.6224366 13.1662647,12.6224366 13,12.6924433 C12.919324,12.7307187 12.8451013,12.7813251 12.78,12.8424433 C12.6504562,12.9683325 12.5781715,13.1418158 12.58,13.3224433 C12.5811163,13.4113893 12.5980467,13.4994275 12.63,13.5824433 C12.6634769,13.6657747 12.714657,13.7408389 12.78,13.8024433 C12.847684,13.8494618 12.9217749,13.8865072 13,13.9124433 C13.0860057,13.9275801 13.1739943,13.9275801 13.26,13.9124433 C13.4400918,13.932097 13.6204667,13.8779845 13.76,13.7624433 L13.79,13.8024433 Z"/>
</svg>
