<svg xmlns="http://www.w3.org/2000/svg" width="20" height="20" viewBox="0 0 20 20">
  <path fill="#264966" d="M5.60938516,2.700053 L5.60938516,9.300053 C5.60938516,9.68665232 5.29598449,10.000053 4.90938516,10.000053 C4.52278584,10.000053 4.20938516,9.68665232 4.20938516,9.300053 L4.20938516,4.390053 L3.20938516,5.390053 C2.9325874,5.66460856 2.48618293,5.66460856 2.20938516,5.390053 C2.07242078,5.25979994 1.9948849,5.07906384 1.9948849,4.890053 C1.9948849,4.70104215 2.07242078,4.52030605 2.20938516,4.390053 L4.41938516,2.210053 C4.61718892,2.00818496 4.91698135,1.94507076 5.17938516,2.050053 C5.43945259,2.16165818 5.60840513,2.41705154 5.60938516,2.700053 Z M12.3493852,16.600053 L9.23938516,16.600053 L11.2393852,14.200053 C11.8773628,13.4486096 12.0250991,12.3967621 11.618809,11.498647 C11.2125188,10.6005318 10.3249786,10.0170237 9.33938516,10.000053 C8.06199151,10.0055591 7.02938516,11.0426475 7.02938516,12.320053 C7.02938516,12.7066523 7.34278584,13.020053 7.72938516,13.020053 C8.11598449,13.020053 8.42938516,12.7066523 8.42938516,12.320053 C8.42938516,11.811951 8.84128319,11.400053 9.34938516,11.400053 C9.79855143,11.4007477 10.2062053,11.6628882 10.3932047,12.0712777 C10.5802042,12.4796673 10.5123206,12.9595539 10.2193852,13.300053 L7.21938516,16.850053 C7.04057195,17.053711 6.9975414,17.3431892 7.10938516,17.590053 C7.22732868,17.8373618 7.47541771,17.9962938 7.74938516,18.000053 L12.3793852,18.000053 C12.7659845,18.000053 13.0793852,17.6866523 13.0793852,17.300053 C13.0793852,16.9134537 12.7659845,16.600053 12.3793852,16.600053 L12.3493852,16.600053 Z M16.4593852,4.780053 L17.6493852,3.110053 C17.8036533,2.89657904 17.8250372,2.6145802 17.7047234,2.38028473 C17.5844095,2.14598927 17.3427647,1.99905919 17.0793852,2.00004799 L13.4093852,2.00004799 C13.0227858,2.00004799 12.7093852,2.31345367 12.7093852,2.700053 C12.7093852,3.08665232 13.0227858,3.400053 13.4093852,3.400053 L15.7193852,3.400053 L14.7193852,4.810053 C14.565117,5.02352695 14.5437331,5.3055258 14.664047,5.53982126 C14.7843609,5.77411672 15.0260056,5.9210468 15.2893852,5.920053 C16.0294467,5.920053 16.6293852,6.51999143 16.6293852,7.260053 C16.6293852,8.00011456 16.0294467,8.600053 15.2893852,8.600053 C14.9339196,8.59920052 14.5929155,8.45920936 14.3393852,8.210053 C14.2091321,8.07308862 14.028396,7.99555273 13.8393852,7.99555273 C13.6503743,7.99555273 13.4696382,8.07308862 13.3393852,8.210053 C13.0648296,8.48685076 13.0648296,8.93325523 13.3393852,9.210053 C14.1135047,9.97486621 15.2668556,10.2090851 16.2779829,9.80681415 C17.2891102,9.40454324 17.9663503,8.44203479 18.0035083,7.35445969 C18.0406663,6.26688458 17.4306988,5.2603975 16.4493852,4.790053 L16.4593852,4.780053 Z"/>
</svg>
