<svg xmlns="http://www.w3.org/2000/svg" width="20" height="20" viewBox="0 0 20 20">
  <path fill="#264966" d="M2.67372892,9.32224707 L15.5837289,9.32224707 L12.1837289,5.92224707 C12.0467645,5.79199402 11.9692287,5.61125792 11.9692287,5.42224707 C11.9692287,5.23323623 12.0467645,5.05250013 12.1837289,4.92224707 C12.313982,4.78528269 12.4947181,4.70774681 12.6837289,4.70774681 C12.8727398,4.70774681 13.0534759,4.78528269 13.1837289,4.92224707 L17.7737289,9.52224707 C17.8484394,9.58035294 17.9156231,9.64753657 17.9737289,9.72224707 C18.0437851,9.89543059 18.0437851,10.0890636 17.9737289,10.2622471 C17.9331786,10.3446774 17.8828133,10.4219042 17.8237289,10.4922471 L13.2237289,15.0822471 C13.0920496,15.2165868 12.9118422,15.2922532 12.7237289,15.2922532 C12.5383794,15.2930382 12.3609833,15.2170113 12.2337289,15.0822471 C12.0967645,14.951994 12.0192287,14.7712579 12.0192287,14.5822471 C12.0192287,14.3932362 12.0967645,14.2125001 12.2337289,14.0822471 L15.5837289,10.7222471 L2.67372892,10.7222471 C2.2871296,10.7222471 1.97372894,10.4088464 1.97372894,10.0222471 C1.97372894,9.63564776 2.2871296,9.32224709 2.67372892,9.32224707 Z"/>
</svg>
