<svg xmlns="http://www.w3.org/2000/svg" width="20" height="20" viewBox="0 0 20 20">
  <path fill="#264966" d="M17.3,9.3 L16,9.3 L16,6.8 C16,6.41340068 15.6865994,6.1 15.3,6.1 L11.7,6.1 C11.3134007,6.1 11,6.41340068 11,6.8 L11,9.3 L9,9.3 L9,2.7 C9,2.31340068 8.68659935,2 8.30000003,2 L4.70000003,2 C4.3134007,2 4,2.31340068 4,2.7 L4,9.3 L2.70000003,9.3 C2.44991411,9.29999999 2.21882519,9.43341923 2.09378222,9.64999999 C1.96873926,9.86658075 1.96873926,10.1334193 2.09378222,10.35 C2.21882519,10.5665808 2.44991411,10.7 2.70000003,10.7 L4,10.7 L4,17.3 C4,17.6865993 4.3134007,18 4.70000003,18 L8.30000003,18 C8.68659935,18 9,17.6865993 9,17.3 L9,10.7 L11,10.7 L11,13.2 C11,13.5865993 11.3134007,13.9 11.7,13.9 L15.3,13.9 C15.6865994,13.9 16,13.5865993 16,13.2 L16,10.7 L17.3,10.7 C17.6865994,10.7 18,10.3865993 18,10 C18,9.61340068 17.6865994,9.3 17.3,9.3 Z M5.40000003,3.4 L7.60000003,3.4 L7.60000003,9.3 L5.40000003,9.3 L5.40000003,3.4 Z M7.60000003,16.6 L5.40000003,16.6 L5.40000003,10.7 L7.60000003,10.7 L7.60000003,16.6 Z M12.4,7.5 L14.6,7.5 L14.6,9.3 L12.4,9.3 L12.4,7.5 Z M14.6,12.5 L12.4,12.5 L12.4,10.7 L14.6,10.7 L14.6,12.5 Z"/>
</svg>
