<svg xmlns="http://www.w3.org/2000/svg" width="20" height="20" viewBox="0 0 20 20">
  <path fill="#264966" d="M14.1725272,2.75042852 C13.7503195,2.02463276 12.8220636,1.7747177 12.0925272,2.19042852 L10.9225272,2.86042852 C10.368646,3.18871787 10.0774609,3.82693186 10.1925272,4.46042852 L4.27252724,8.90042852 C3.60476291,9.39653734 3.40062814,10.3066382 3.79252724,11.0404285 L2.44252724,11.8204285 C2.2687775,11.9122752 2.14164164,12.0729322 2.09218757,12.2631402 C2.04273349,12.4533482 2.07551713,12.6555843 2.18252724,12.8204285 C2.31117602,13.0352198 2.54217018,13.1677574 2.79252724,13.1704285 C2.91641379,13.1716748 3.03799894,13.1369362 3.14252724,13.0704285 L4.49252724,12.2904285 C4.92967054,12.9972938 5.8158885,13.2813923 6.58252724,12.9604285 L9.09252724,11.8404285 L9.09252724,13.1804285 L6.43252724,16.8804285 C6.3167504,17.0327203 6.26834627,17.2257607 6.29857042,17.4146616 C6.32879456,17.6035625 6.43501329,17.7718633 6.59252724,17.8804285 C6.71185207,17.9663391 6.85550032,18.0118861 7.00252724,18.0104624 C7.22738905,18.0080786 7.43823971,17.9008037 7.57252724,17.7204285 L9.09252724,15.5804285 L9.09252724,17.2904285 C9.09252724,17.6770278 9.40592791,17.9904285 9.79252724,17.9904285 C10.1791266,17.9904285 10.4925272,17.6770278 10.4925272,17.2904285 L10.4925272,15.5804285 L12.0325272,17.6904285 C12.2631016,17.9847083 12.6842251,18.0458649 12.9889817,17.8293273 C13.2937382,17.6127898 13.3745527,17.194993 13.1725272,16.8804285 L10.5125272,13.1804285 L10.5125272,11.2404285 L13.3925272,9.99042852 C13.8805778,10.4129569 14.582278,10.481122 15.1425272,10.1604285 L16.3025272,9.49042852 C17.0296039,9.0643359 17.2791568,8.13296875 16.8625272,7.40042852 L14.1725272,2.75042852 Z M6.03252724,11.6304285 C5.89937828,11.6853873 5.74607116,11.6342849 5.67252724,11.5104285 L5.35252724,10.9904285 L5.35252724,10.9904285 L5.03252724,10.3904285 C4.94090022,10.2628487 4.96750097,10.0855104 5.09252724,9.99042852 L10.8225272,5.74042852 L12.5925272,8.82042852 L9.59252724,10.1304285 L9.59252724,10.1304285 L6.03252724,11.6304285 Z M15.6025272,8.28042852 L15.6025272,8.28042852 L14.4425272,8.99042852 C14.3922297,9.0386841 14.3128247,9.0386841 14.2625272,8.99042852 L14.2025272,8.88042852 L14.2025272,8.88042852 L11.6325272,4.36042852 L11.6325272,4.36042852 L11.5725272,4.26042852 C11.5303427,4.21161276 11.5303427,4.13924429 11.5725272,4.09042852 L12.7325272,3.42042852 C12.7550986,3.41199515 12.7799559,3.41199515 12.8025272,3.42042852 C12.8465971,3.42198838 12.8873563,3.44422068 12.9125272,3.48042852 L15.6025272,8.14042852 C15.6298012,8.18311017 15.6298012,8.23774687 15.6025272,8.28042852 L15.6025272,8.28042852 Z M17.6825272,5.89042852 C17.5603172,6.11905216 17.3217628,6.26141522 17.0625272,6.26042852 C16.9474827,6.26254091 16.8338328,6.23498943 16.7325272,6.18042852 C16.5530369,6.09462482 16.4193163,5.93552399 16.3656748,5.74394721 C16.3120333,5.55237043 16.3436917,5.34696349 16.4525272,5.18042852 C16.5628809,4.98136619 16.5628809,4.73949085 16.4525272,4.54042852 C16.3400106,4.34133492 16.1311471,4.21601679 15.9025272,4.21042852 C15.5198107,4.194178 15.2212378,3.87332347 15.2325272,3.49042852 C15.2322174,3.30293204 15.3093096,3.12362172 15.4456222,2.99488203 C15.5819348,2.86614234 15.7653552,2.79939902 15.9525272,2.81042852 C16.655365,2.83849213 17.2953017,3.2232338 17.6497235,3.83081402 C18.0041453,4.43839423 18.0240552,5.18481821 17.7025272,5.81042852 L17.6825272,5.89042852 Z"/>
</svg>
