<svg xmlns="http://www.w3.org/2000/svg" width="20" height="20" viewBox="0 0 20 20">
  <path fill="#264966" d="M12.8,12.51 L7.2,12.51 C6.81340068,12.51 6.5,12.1965993 6.5,11.81 L6.5,8.19 C6.5,8.00434846 6.57374979,7.82630072 6.70502525,7.69502525 C6.83630072,7.56374979 7.01434846,7.49 7.2,7.49 L12.8,7.49 C13.1865993,7.49 13.5,7.80340068 13.5,8.19 L13.5,11.81 C13.5,12.1965993 13.1865993,12.51 12.8,12.51 Z M7.9,11.1 L12.1,11.1 L12.1,8.9 L7.9,8.9 L7.9,11.1 Z M16.3,16 L3.7,16 C2.76111593,16 1.99992847,15.2388841 1.99992847,14.3 L1.99992847,11.81 C1.9973229,11.6226219 2.06988915,11.4419943 2.2014559,11.3085481 C2.33302264,11.1751018 2.51260279,11.0999809 2.7,11.1 C3.30751322,11.1 3.8,10.6075132 3.8,10 C3.8,9.39248678 3.30751322,8.9 2.7,8.9 C2.51260279,8.90001912 2.33302264,8.8248982 2.2014559,8.69145193 C2.06988915,8.55800566 1.9973229,8.37737809 1.99992847,8.19 L1.99992847,5.7 C1.99992847,4.76111593 2.76111593,4 3.7,4 L16.3,4 C17.2388841,4 18.0000715,4.76111593 18.0000715,5.7 L18.0000715,8.19 C18.0026771,8.37737809 17.9301108,8.55800566 17.7985441,8.69145193 C17.6669774,8.8248982 17.4873972,8.90001912 17.3,8.9 C16.6924868,8.9 16.2,9.39248678 16.2,10 C16.2,10.6075132 16.6924868,11.1 17.3,11.1 C17.4873972,11.0999809 17.6669774,11.1751018 17.7985441,11.3085481 C17.9301108,11.4419943 18.0026771,11.6226219 18.0000715,11.81 L18.0000715,14.3 C18.0000715,15.2388841 17.2388841,16 16.3,16 Z M3.4,12.41 L3.4,14.3 C3.4,14.3795649 3.43160705,14.4558711 3.48786797,14.512132 C3.54412888,14.5683929 3.62043505,14.6 3.7,14.6 L16.3,14.6 C16.4656854,14.6 16.6,14.4656854 16.6,14.3 L16.6,12.41 C15.5283803,12.0981066 14.7914271,11.1160852 14.7914271,10 C14.7914271,8.8839148 15.5283803,7.9018934 16.6,7.59 L16.6,5.7 C16.6,5.53431458 16.4656854,5.4 16.3,5.4 L3.7,5.4 C3.53431458,5.4 3.4,5.53431458 3.4,5.7 L3.4,7.59 C4.47161965,7.9018934 5.20857288,8.8839148 5.20857288,10 C5.20857288,11.1160852 4.47161965,12.0981066 3.4,12.41 Z"/>
</svg>
