<svg xmlns="http://www.w3.org/2000/svg" width="20" height="20" viewBox="0 0 20 20">
  <path fill="#264966" d="M6.06194821,12.5844609 C6.33650378,12.8612587 6.33650378,13.3076631 6.06194821,13.5844609 C5.93199793,13.7066344 5.76031136,13.7745225 5.58194821,13.7745225 C5.3883831,13.7770641 5.20288365,13.6970447 5.07194821,13.5544609 L2.20194821,10.5544609 C1.95889129,10.2844337 1.95889129,9.87448809 2.20194821,9.60446089 L5.03194821,6.42446089 C5.16361048,6.29008366 5.34382008,6.21435884 5.53194821,6.21435884 C5.72007635,6.21435884 5.90028594,6.29008366 6.03194821,6.42446089 C6.16891259,6.55471395 6.24644847,6.73545005 6.24644847,6.92446089 C6.24644847,7.11347174 6.16891259,7.29420784 6.03194821,7.42446089 L3.64194821,10.0144609 L6.06194821,12.5844609 Z M17.7919482,9.45446089 L14.9219482,6.45446089 C14.7433154,6.2758281 14.4829524,6.20606405 14.2389355,6.27144819 C13.9949186,6.33683233 13.8043197,6.52743126 13.7389355,6.77144819 C13.6735514,7.01546513 13.7433154,7.2758281 13.9219482,7.45446089 L16.3419482,10.0244609 L13.9019482,12.5944609 C13.7072904,12.7953551 13.6531855,13.093897 13.7649624,13.3503265 C13.8767394,13.6067559 14.1322774,13.7703254 14.4119482,13.7644609 C14.6097528,13.7635777 14.7982218,13.6802165 14.9319482,13.5344609 L17.8019482,10.4144609 C18.0435773,10.1386084 18.0392712,9.7252201 17.7919482,9.45446089 L17.7919482,9.45446089 Z M12.1819482,2.65446089 C12.0001951,2.6026874 11.8052301,2.62660295 11.6413789,2.72077029 C11.4775277,2.81493764 11.3587133,2.9713551 11.3119482,3.15446089 L7.31194821,16.4944609 C7.20195778,16.8644435 7.41221345,17.2536402 7.78194821,17.3644609 C7.84820293,17.3749419 7.91569349,17.3749419 7.98194821,17.3644609 C8.29013218,17.3608806 8.56080985,17.1588823 8.65194821,16.8644609 L12.6519482,3.55446089 C12.7141725,3.3728638 12.6990901,3.17368139 12.6102305,3.0035246 C12.5213708,2.83336782 12.3665321,2.70716929 12.1819482,2.65446089 Z"/>
</svg>
