<svg xmlns="http://www.w3.org/2000/svg" width="20" height="20" viewBox="0 0 20 20">
  <path fill="#264966" d="M17.57,12.6329234 L12.74,4.21292339 C12.1723654,3.23727917 11.1287563,2.63706893 10,2.63706893 C8.87124373,2.63706893 7.82763463,3.23727917 7.26,4.21292339 L2.43,12.6329234 C1.86456052,13.6081556 1.8633739,14.8112065 2.42688845,15.7875522 C2.99040301,16.763898 4.03270388,17.3646824 5.16,17.3629272 L14.84,17.3629272 C15.9672961,17.3646824 17.009597,16.763898 17.5731115,15.7875522 C18.1366261,14.8112065 18.1354395,13.6081556 17.57,12.6329234 Z M16.36,15.0929234 C16.0468475,15.6353604 15.4663228,15.9676344 14.84,15.9629728 L5.16,15.9629728 C4.5324395,15.9655636 3.9515108,15.6319644 3.63748472,15.0886166 C3.32345865,14.5452689 3.32441837,13.8753691 3.64,13.3329234 L8.48,4.91292339 C8.79640556,4.3863927 9.3657142,4.06431121 9.98,4.06431121 C10.5942858,4.06431121 11.1635944,4.3863927 11.48,4.91292339 L16.32,13.2929234 C16.6531488,13.8284407 16.6684757,14.5028237 16.36,15.0529234 L16.36,15.0929234 Z M9.3,10.6329234 L9.3,7.02292339 C9.3,6.77283747 9.43341923,6.54174854 9.64999999,6.41670558 C9.86658075,6.29166262 10.1334193,6.29166262 10.35,6.41670558 C10.5665808,6.54174854 10.7,6.77283747 10.7,7.02292339 L10.7,10.6329234 C10.7,11.0195227 10.3865993,11.3329233 10,11.3329233 C9.61340069,11.3329233 9.3,11.0195227 9.3,10.6329234 Z M10,12.3829234 C9.42010101,12.3829234 8.95,12.8530244 8.95,13.4329234 C8.95,14.0128224 9.42010101,14.4829234 10,14.4829234 C10.579899,14.4829234 11.05,14.0128224 11.05,13.4329234 C11.0645256,13.1502428 10.9585735,12.874648 10.7584244,12.674499 C10.5582753,12.4743499 10.2826806,12.3683978 10,12.3829234 Z"/>
</svg>
