<svg xmlns="http://www.w3.org/2000/svg" width="20" height="20" viewBox="0 0 20 20">
  <path fill="#264966" d="M10.2262311,3 C7.85978593,3.01092328 5.79315803,4.6036991 5.17984493,6.8893127 C4.56653173,9.1749263 5.55815313,11.5883415 7.60123113,12.7825 L7.60123113,16.3875 C7.60123113,16.7257744 7.87545673,17 8.21373113,17 L12.2387311,17 C12.5770056,17 12.8512311,16.7257744 12.8512311,16.3875 L12.8512311,12.7825 C14.8943092,11.5883415 15.8859306,9.1749263 15.2726174,6.8893127 C14.6593043,4.6036991 12.5926764,3.01092328 10.2262311,3 Z M8.82623113,15.775 L8.82623113,14.375 L11.6262311,14.375 L11.6262311,15.775 L8.82623113,15.775 Z M11.9762311,11.855 C11.7680187,11.9601207 11.6362306,12.1730093 11.6349811,12.40625 L11.6349811,13.15 L8.82623113,13.15 L8.82623113,12.40625 C8.82332413,12.1710599 8.68784393,11.9576785 8.47623113,11.855 C7.08425813,11.194733 6.19817203,9.7906272 6.20121538,8.25 C6.20121538,6.0270539 8.00328513,4.2250001 10.2262311,4.2250001 C12.4491772,4.2250001 14.2512469,6.0270539 14.2512469,8.25 C14.2542903,9.7906272 13.3682041,11.194733 11.9762311,11.855 L11.9762311,11.855 Z M12.4749811,6.8675 C12.5796796,6.9987182 12.6250196,7.1676026 12.6001178,7.3336143 C12.5752161,7.4996259 12.482321,7.647775 12.3437311,7.7425 L10.8387311,8.81875 L10.8387311,10.7875 C10.8387311,11.1257744 10.5645056,11.4 10.2262311,11.4 C9.88795673,11.4 9.61373113,11.1257744 9.61373113,10.7875 L9.61373113,8.81875 L8.11748113,7.725 C7.97889133,7.630275 7.88599623,7.4821259 7.86109453,7.3161143 C7.83619273,7.1501026 7.88153273,6.9812182 7.98623113,6.85 C8.07921293,6.7091841 8.22761343,6.614472 8.39449093,6.5894404 C8.56136853,6.5644087 8.73102633,6.6114121 8.86123113,6.71875 L10.2262311,7.75125 L11.6174811,6.73625 C11.7462561,6.6377744 11.9096367,6.5961064 12.0698449,6.6208809 C12.2300531,6.6456554 12.3732163,6.734727 12.4662311,6.8675 L12.4749811,6.8675 Z"/>
</svg>
