<svg xmlns="http://www.w3.org/2000/svg" width="20" height="20" viewBox="0 0 20 20">
  <path fill="#264966" d="M18,10.6002466 C18.004853,10.5704428 18.004853,10.5400503 18,10.5102466 L16,3.51024656 C15.9124609,3.19897823 15.623118,2.98817131 15.3,3.00024656 L4.7,3.00024656 C4.37688197,2.98817131 4.08753913,3.19897823 4,3.51024656 L2,10.5102466 C1.99514703,10.5400503 1.99514703,10.5704428 2,10.6002466 C1.99619981,10.6334716 1.99619981,10.6670215 2,10.7002466 L2,16.3002466 C2,16.6868459 2.31340068,17.0002466 2.7,17.0002466 L17.3,17.0002466 C17.6865993,17.0002466 18,16.6868459 18,16.3002466 L18,10.7002466 C18.0038002,10.6670215 18.0038002,10.6334716 18,10.6002466 Z M5.23,4.40024656 L14.77,4.40024656 L16.37,10.0002466 L12.8,10.0002466 C12.4134007,10.0002466 12.1,10.3136472 12.1,10.7002466 C12.1,11.8600445 11.159798,12.8002466 10,12.8002466 C8.84020203,12.8002466 7.9,11.8600445 7.9,10.7002466 C7.9,10.514595 7.82625021,10.3365473 7.69497475,10.2052718 C7.56369928,10.0739963 7.38565154,10.0002466 7.2,10.0002466 L3.63,10.0002466 L5.23,4.40024656 Z M16.6,15.6002466 L3.4,15.6002466 L3.4,11.4002466 L6.57,11.4002466 C6.90123473,13.0314733 8.33548287,14.2037554 10,14.2037554 C11.6645171,14.2037554 13.0987653,13.0314733 13.43,11.4002466 L16.6,11.4002466 L16.6,15.6002466 Z M6.3,6.11024656 C6.3,5.92459502 6.37374979,5.74654728 6.50502525,5.61527181 C6.63630072,5.48399635 6.81434846,5.41024656 7,5.41024656 L13,5.41024656 C13.3865993,5.41024656 13.7,5.72364723 13.7,6.11024656 C13.7,6.49684588 13.3865993,6.81024656 13,6.81024656 L7,6.81024656 C6.81434846,6.81024656 6.63630072,6.73649677 6.50502525,6.60522131 C6.37374979,6.47394584 6.3,6.2958981 6.3,6.11024656 Z M5.3,8.43024656 C5.3,8.24459502 5.37374979,8.06654728 5.50502525,7.93527181 C5.63630072,7.80399635 5.81434846,7.73024656 6,7.73024656 L14,7.73024656 C14.3865993,7.73024656 14.7,8.04364723 14.7,8.43024656 C14.7,8.81684588 14.3865993,9.13024656 14,9.13024656 L6,9.13024656 C5.61340068,9.13024656 5.3,8.81684588 5.3,8.43024656 Z"/>
</svg>
