<svg xmlns="http://www.w3.org/2000/svg" width="20" height="20" viewBox="0 0 20 20">
  <path fill="#264966" d="M16.3,4 L3.7,4 C2.76111593,4 2,4.76111593 2,5.7 L2,14.3 C2,15.2388841 2.76111593,16 3.7,16 L16.3,16 C17.2388841,16 18,15.2388841 18,14.3 L18,5.7 C18,4.76111593 17.2388841,4 16.3,4 Z M16.6,14.3 C16.6,14.3795649 16.5683929,14.4558711 16.512132,14.512132 C16.4558711,14.5683929 16.3795649,14.6 16.3,14.6 L3.7,14.6 C3.53431458,14.6 3.4,14.4656854 3.4,14.3 L3.4,5.7 C3.4,5.53431458 3.53431458,5.4 3.7,5.4 L16.3,5.4 C16.4656854,5.4 16.6,5.53431458 16.6,5.7 L16.6,14.3 Z M15.88,6.9 C15.9958708,7.05505958 16.0412805,7.25165987 16.0051485,7.44182821 C15.9690165,7.63199654 15.8546661,7.79824243 15.69,7.9 L11,11.09 C10.4261644,11.4900122 9.66383562,11.4900122 9.09,11.09 L4.31,7.87 C4.10457228,7.73066642 3.98908282,7.4923225 4.00703538,7.24475009 C4.02498794,6.99717767 4.1736551,6.77798891 4.39703538,6.66975008 C4.62041567,6.56151125 4.88457229,6.58066641 5.09,6.72 L9.85,9.94 C9.95011975,10.0059341 10.0798803,10.0059341 10.18,9.94 L14.91,6.73 C15.0606153,6.62221386 15.2482395,6.57950336 15.4306692,6.61147558 C15.613099,6.6434478 15.7750162,6.74741813 15.88,6.9 Z"/>
</svg>
