<svg xmlns="http://www.w3.org/2000/svg" width="20" height="20" viewBox="0 0 20 20">
  <path fill="#264966" d="M10,3.92 C8.34314575,3.92 7,5.26314575 7,6.92 C7,8.57685425 8.34314575,9.92 10,9.92 C11.6568542,9.92 13,8.57685425 13,6.92 C13,5.26314575 11.6568542,3.92 10,3.92 Z M10,8.46 C9.13291294,8.46 8.43,7.75708706 8.43,6.89 C8.43,6.02291294 9.13291294,5.32 10,5.32 C10.8670871,5.32 11.57,6.02291294 11.57,6.89 C11.57,7.30638989 11.4045898,7.70572553 11.1101576,8.00015765 C10.8157255,8.29458976 10.4163899,8.46 10,8.46 L10,8.46 Z M16.06,1 L3.94,1 C2.31628284,1 1,2.31628284 1,3.94 L1,16.06 C1,17.6837172 2.31628284,19 3.94,19 L16.06,19 C17.6837172,19 19,17.6837172 19,16.06 L19,3.94 C19,2.31628284 17.6837172,1 16.06,1 Z M5.78,17.6 L6.45,13.6 C6.55609138,12.8285429 7.22137959,12.2576827 8,12.27 L12,12.27 C12.754191,12.2698044 13.3975664,12.8158131 13.52,13.56 L14.19,17.56 L5.78,17.6 Z M17.6,16.06 C17.6,16.9105185 16.9105185,17.6 16.06,17.6 L15.64,17.6 L14.93,13.33 C14.6973295,11.8975384 13.4511131,10.851227 12,10.87 L8,10.87 C6.56021576,10.8660982 5.33095071,11.9088541 5.1,13.33 L4.36,17.6 L3.94,17.6 C3.53156661,17.6 3.13986158,17.4377505 2.85105556,17.1489444 C2.56224953,16.8601384 2.4,16.4684334 2.4,16.06 L2.4,3.94 C2.4,3.08948149 3.08948149,2.4 3.94,2.4 L16.06,2.4 C16.4684334,2.4 16.8601384,2.56224953 17.1489444,2.85105556 C17.4377505,3.13986158 17.6,3.53156661 17.6,3.94 L17.6,16.06 Z"/>
</svg>
