<svg xmlns="http://www.w3.org/2000/svg" width="20" height="20" viewBox="0 0 20 20">
  <path fill="#264966" d="M10,2 C7.29549111,2.01248375 4.93363069,3.83279898 4.23270139,6.44492882 C3.5317721,9.05705866 4.66505364,11.8152474 7,13.18 L7,17.3 C7,17.4856515 7.07374979,17.6636993 7.20502525,17.7949747 C7.33630072,17.9262502 7.51434846,18 7.7,18 L12.3,18 C12.6865993,18 13,17.6865993 13,17.3 L13,13.18 C15.3349464,11.8152474 16.4682279,9.05705866 15.7672986,6.44492882 C15.0663693,3.83279898 12.7045089,2.01248375 10,2 Z M8.4,16.6 L8.4,15 L11.6,15 L11.6,16.6 L8.4,16.6 Z M12,12.12 C11.7620429,12.240138 11.6114279,12.4834392 11.61,12.75 L11.61,13.6 L8.39999098,13.6 L8.39999098,12.75 C8.39667771,12.4812113 8.24184316,12.2373469 8,12.12 C6.40917371,11.3654091 5.3965038,9.76071676 5.39999098,8 C5.39999098,5.45949015 7.45949015,3.4 10,3.4 C12.5405098,3.4 14.600009,5.45949015 14.600009,8 C14.6034962,9.76071676 13.5908263,11.3654091 12,12.12 Z M12.57,6.42 C12.6896553,6.56996367 12.7414725,6.76297437 12.7130133,6.952702 C12.6845542,7.14242964 12.5783884,7.3117429 12.42,7.42 L10.7,8.65 L10.7,10.9 C10.7,11.2865993 10.3865993,11.6 10,11.6 C9.61340069,11.6 9.30000002,11.2865993 9.3,10.9 L9.3,8.65 L7.59,7.4 C7.43161156,7.2917429 7.32544581,7.12242964 7.29698666,6.932702 C7.26852752,6.74297437 7.32034468,6.54996367 7.44,6.4 C7.54626488,6.2390676 7.71586538,6.13082514 7.90658263,6.10221755 C8.09729988,6.07360997 8.29119448,6.12732816 8.44,6.25 L10,7.43 L11.59,6.27 C11.7371714,6.15745645 11.9238921,6.10983593 12.1069872,6.1381496 C12.2900823,6.16646328 12.4536973,6.26825942 12.56,6.42 L12.57,6.42 Z"/>
</svg>
