<svg xmlns="http://www.w3.org/2000/svg" width="20" height="20" viewBox="0 0 20 20">
  <path fill="#264966" d="M5.00295834,4.38309144 L5.00295834,15.6030914 L5.41295834,15.2030914 C5.54321139,15.0661271 5.72394749,14.9885912 5.91295834,14.9885912 C6.10196918,14.9885912 6.28270528,15.0661271 6.41295834,15.2030914 C6.6875139,15.4798892 6.6875139,15.9262937 6.41295834,16.2030914 L4.81295834,17.8030914 C4.53616057,18.077647 4.0897561,18.077647 3.81295834,17.8030914 L2.20295834,16.1930914 C1.92840277,15.9162937 1.92840277,15.4698892 2.20295834,15.1930914 C2.33321139,15.0561271 2.51394749,14.9785912 2.70295834,14.9785912 C2.89196918,14.9785912 3.07270528,15.0561271 3.20295834,15.1930914 L3.61295834,15.5930914 L3.61295834,4.38309144 L3.20295834,4.78309144 C3.07333545,4.92042902 2.8917725,4.99668546 2.70295834,4.99309144 C2.42135545,4.98766322 2.16958616,4.81628965 2.06125723,4.55630023 C1.95292831,4.29631081 2.00852426,3.99686839 2.20295834,3.79309144 L3.80295834,2.19309144 C3.86240669,2.13412842 3.92970831,2.08365221 4.00295834,2.04309144 C4.17279642,1.97362538 4.36312026,1.97362538 4.53295834,2.04309144 C4.62873526,2.07530927 4.7171256,2.12630369 4.79295834,2.19309144 L6.39295834,3.79309144 C6.6675139,4.0698892 6.6675139,4.51629367 6.39295834,4.79309144 C6.26270528,4.93005582 6.08196918,5.0075917 5.89295834,5.0075917 C5.70394749,5.0075917 5.52321139,4.93005582 5.39295834,4.79309144 L5.00295834,4.38309144 Z M17.3029583,4.99309144 L8.39295834,4.99309144 C8.00635901,4.99309144 7.69295834,5.30649211 7.69295834,5.69309144 L7.69295834,6.69309144 C7.69295834,7.07969076 8.00635901,7.39309144 8.39295834,7.39309144 C8.77955766,7.39309144 9.09295834,7.07969076 9.09295834,6.69309144 L9.09295834,6.39309144 L12.1529583,6.39309144 L12.1529583,14.5930914 L11.8529583,14.5930914 C11.466359,14.5930914 11.1529583,14.9064921 11.1529583,15.2930914 C11.1529583,15.6796908 11.466359,15.9930914 11.8529583,15.9930914 L13.8529583,15.9930914 C14.2395577,15.9930914 14.5529583,15.6796908 14.5529583,15.2930914 C14.5529583,14.9064921 14.2395577,14.5930914 13.8529583,14.5930914 L13.5529583,14.5930914 L13.5529583,6.39309144 L16.6029583,6.39309144 L16.6029583,6.69309144 C16.6029583,7.07969076 16.916359,7.39309144 17.3029583,7.39309144 C17.6895577,7.39309144 18.0029583,7.07969076 18.0029583,6.69309144 L18.0029583,5.69309144 C18.0029583,5.30649211 17.6895577,4.99309144 17.3029583,4.99309144 L17.3029583,4.99309144 Z"/>
</svg>
