<svg xmlns="http://www.w3.org/2000/svg" width="20" height="20" viewBox="0 0 20 20">
  <path fill="#264966" d="M14.57,3.11 L13.57,3.11 L13.57,1.4 C13.57,0.62680135 12.9431986,0 12.17,0 L3.83,0 C3.05680135,0 2.43,0.62680135 2.43,1.4 L2.43,3.11 L1.43,3.11 C0.640232808,3.11 0,3.75023281 0,4.54 L0,6.3 C0.00923873747,7.97138142 1.33003423,9.34060608 3,9.41 C3.8007252,11.1328336 5.41898495,12.3333565 7.3,12.6 L7.3,14.6 L5.57,14.6 C5.18340069,14.6 4.87000004,14.9134007 4.87000004,15.3 C4.87000004,15.6865993 5.18340069,16 5.57,16 L10.43,16 C10.8165993,16 11.13,15.6865993 11.13,15.3 C11.13,14.9134007 10.8165993,14.6 10.43,14.6 L8.7,14.6 L8.7,12.6 C10.5996241,12.3493123 12.2399195,11.146429 13.05,9.41 C14.7002903,9.3149564 15.9921722,7.95300641 16,6.3 L16,4.54 C16,3.75023281 15.3597672,3.11 14.57,3.11 Z M1.4,6.3 L1.4,4.51 L2.4,4.51 L2.4,7.08 C2.40300762,7.35468904 2.42640526,7.62877572 2.47,7.9 C1.82036538,7.63484272 1.39692316,7.00165807 1.4,6.3 L1.4,6.3 Z M8,11.24 C5.70087219,11.24 3.8355135,9.3791212 3.83,7.08 L3.83,1.4 L12.17,1.4 L12.17,7.08 C12.1644865,9.3791212 10.2991278,11.24 8,11.24 Z M14.6,6.3 C14.5833377,7.00197655 14.1510129,7.62688237 13.5,7.89 C13.5431404,7.62207886 13.5665367,7.35135003 13.57,7.08 L13.57,4.52 L14.57,4.52 L14.6,6.3 Z M9.48,4.94 L8.89,4.85 L8.63,4.32 C8.49903615,4.09627088 8.25924168,3.95878178 8,3.95878178 C7.74075832,3.95878178 7.50096385,4.09627088 7.37,4.32 L7.11,4.85 L6.52,4.94 C6.27407378,4.99040728 6.07492861,5.17040388 6,5.41 C5.91980522,5.66475234 5.98935644,5.94295724 6.18,6.13 L6.61,6.55 L6.51,7.13 C6.46091653,7.39268222 6.5656724,7.66039168 6.78,7.82 C7.00839018,7.95428625 7.29160982,7.95428625 7.52,7.82 L8,7.59 L8.53,7.87 C8.75779438,8.00645752 9.04220562,8.00645752 9.27,7.87 C9.4843276,7.71039168 9.58908347,7.44268222 9.54,7.18 L9.44,6.6 L9.87,6.18 C10.0606436,5.99295724 10.1301948,5.71475234 10.05,5.46 C9.98371757,5.18670763 9.75821285,4.98098403 9.48,4.94 L9.48,4.94 Z" transform="translate(2 2)"/>
</svg>
