<svg xmlns="http://www.w3.org/2000/svg" width="20" height="20" viewBox="0 0 20 20">
  <g fill="#264966" transform="translate(2 1.5)">
    <path d="M15.6201686 5.91875057C15.5575721 5.67361098 15.3675664 5.48132715 15.1231902 5.41581359 14.8788141 5.35030003 14.6181043 5.42175382 14.4412785 5.60270792 14.2644527 5.78366201 14.1990337 6.04595115 14.2701686 6.28875057 14.4468271 6.94008609 14.5243636 7.6143169 14.5001686 8.28875057 14.4920393 8.47444703 14.5580995 8.65575224 14.6837843 8.79269237 14.809469 8.9296325 14.9844575 9.01096238 15.1701686 9.01875087L15.1701686 9.01875087C15.5453489 9.01909527 15.8540896 8.72358634 15.8701686 8.34875057 15.9117239 7.53072863 15.8274079 6.71117636 15.6201686 5.91875057zM12.5001686 3.30875057C12.7064146 3.50648525 12.9001241 3.71689389 13.0801686 3.93875057 13.2111673 4.10314773 13.4099614 4.19886342 13.6201686 4.19875067 13.7819231 4.19388362 13.9371616 4.13390511 14.0601686 4.02875057 14.2100363 3.91256755 14.3063555 3.74055307 14.3270896 3.55206187 14.3478236 3.36357067 14.2911982 3.1747323 14.1701686 3.02875057 13.9564538 2.75794363 13.7260036 2.50077451 13.4801686 2.25875057 13.1495287 1.94519236 12.7951391 1.65766878 12.4201686 1.39875057 12.1008403 1.20880242 11.6887436 1.30143378 11.4814185 1.60976341 11.2740934 1.91809304 11.3437822 2.33468369 11.6401686 2.55875057 11.9503945 2.7803767 12.2384078 3.03155113 12.5001686 3.30875057L12.5001686 3.30875057zM7.27016861 1.45875057C7.97929618 1.39159577 8.69455916 1.43545624 9.39016861 1.58875057L9.54016861 1.58875057C9.87851023 1.56580962 10.1517469 1.30364508 10.1886561.966541168 10.2255653.629437258 10.0155303.314359759 9.69016861.21875057 8.85561582.0206352602 7.99486624-.0434990226 7.14016861.0287505695 6.94702392.0430288289 6.76877163.137822177 6.64894913.289977727 6.52912664.442133277 6.47876637.637641593 6.51016861.82875057 6.52530263 1.01393426 6.61448075 1.18518862 6.75752516 1.3037649 6.90056956 1.42234119 7.08539014 1.47821733 7.27016861 1.45875057L7.27016861 1.45875057zM14.5701686 11.0287506C14.235776 10.8402958 13.8119918 10.9562788 13.6201686 11.2887506 13.3089347 11.8397967 12.9180541 12.3418761 12.4601686 12.7787506 9.87975162 15.1820576 5.88058561 15.1820576 3.30016861 12.7787506 1.00838157 10.5658125.641201075 7.02484198 2.43016861 4.38875057 2.68396278 4.01959916 2.98295211 3.6836561 3.32016861 3.38875057L3.32016861 5.09875057C3.32016861 5.48534989 3.63356929 5.79875057 4.02016861 5.79875057 4.40676794 5.79875057 4.72016861 5.48534989 4.72016861 5.09875057L4.72016861 1.89875057C4.72016861 1.89875057 4.72016861 1.83875057 4.72016861 1.80875057 4.72484701 1.76220116 4.72484701 1.71529998 4.72016861 1.66875057 4.7043601 1.62360298 4.68426857 1.58007134 4.66016861 1.53875057 4.65478085 1.51235604 4.65478085 1.4851451 4.66016861 1.45875057 4.66016861 1.45875057 4.66016861 1.45875057 4.66016861 1.45875057L4.54016861 1.36875057C4.51374844 1.33683635 4.47919828 1.31265123 4.44016861 1.29875057L4.32016861 1.29875057 4.18016861 1.29875057.820168614 1.29875057C.433569289 1.29875057.120168614 1.61215124.120168614 1.99875057.120168614 2.38534989.433569289 2.69875057.820168614 2.69875057L2.12016861 2.69875057C1.80574972 3.00436075 1.52113295 3.33920401 1.27016861 3.69875057-.906921296 7.08666291-.226293834 11.5647564 2.85908787 14.1528233 5.94446958 16.7408902 10.4726845 16.6320559 13.4301686 13.8987506 13.9848192 13.3726773 14.4568116 12.7658299 14.8301686 12.0987506 14.9671233 11.9312739 15.0175989 11.7092581 14.9665156 11.4990307 14.9154323 11.2888034 14.7687049 11.1147061 14.5701686 11.0287506z"/>
    <path d="M8.60016861,4.72875057 C8.60016861,4.34215124 8.28676794,4.02875057 7.90016861,4.02875057 C7.51356929,4.02875057 7.20016861,4.34215124 7.20016861,4.72875057 L7.20016861,8.02875057 C7.20016861,8.41534989 7.51356929,8.72875057 7.90016861,8.72875057 L11.2001686,8.72875057 C11.5867679,8.72875057 11.9001686,8.41534989 11.9001686,8.02875057 C11.9001686,7.64215124 11.5867679,7.32875057 11.2001686,7.32875057 L8.60016861,7.32875057 L8.60016861,4.72875057 Z"/>
  </g>
</svg>
