<svg xmlns="http://www.w3.org/2000/svg" width="20" height="20" viewBox="0 0 20 20">
  <path fill="#264966" d="M13.6798423,10 C13.6798423,10.3865993 13.3664416,10.7 12.9798423,10.7 L10.6998423,10.7 L10.6998423,12.98 C10.6998423,13.3665993 10.3864416,13.68 9.9998423,13.68 C9.61324297,13.68 9.2998423,13.3665993 9.2998423,12.98 L9.2998423,10.7 L7.0198423,10.7 C6.63324297,10.7 6.3198423,10.3865993 6.3198423,10 C6.3198423,9.61340068 6.63324297,9.3 7.0198423,9.3 L9.2998423,9.3 L9.2998423,7.02 C9.2998423,6.63340068 9.61324297,6.32 9.9998423,6.32 C10.3864416,6.32 10.6998423,6.63340068 10.6998423,7.02 L10.6998423,9.3 L12.9798423,9.3 C13.1654938,9.3 13.3435416,9.37374979 13.474817,9.50502525 C13.6060925,9.63630072 13.6798423,9.81434846 13.6798423,10 Z M17.4998423,5 L17.4998423,14.92 C17.510561,15.6005536 17.247694,16.2569363 16.7701849,16.7419652 C16.2926758,17.2269942 15.6404802,17.5 14.9598423,17.5 L5.0398423,17.5 C3.63703903,17.5 2.4998423,16.3628033 2.4998423,14.96 L2.4998423,5.04 C2.4998423,3.63719674 3.63703903,2.5 5.0398423,2.5 L14.9598423,2.5 C16.3626456,2.5 17.4998423,3.63719674 17.4998423,5.04 L17.4998423,5 Z M16.0998423,5 C16.0782877,4.38606938 15.5741511,3.89962174 14.9598423,3.89999978 L5.0398423,3.89999978 C4.41023768,3.89999978 3.8998423,4.41039539 3.8998423,5.04 L3.8998423,14.96 C3.8998423,15.5896046 4.41023768,16.1 5.0398423,16.1 L14.9598423,16.1 C15.5894469,16.1 16.0998423,15.5896046 16.0998423,14.96 L16.0998423,5 Z"/>
</svg>
