<svg xmlns="http://www.w3.org/2000/svg" width="20" height="20" viewBox="0 0 20 20">
  <path fill="#264966" d="M17.5,12.4112711 L17.5,14.9612711 C17.5,16.3640743 16.3628033,17.5012711 14.96,17.5012711 L5.04,17.5012711 C3.63719674,17.5012711 2.5,16.3640743 2.5,14.9612711 L2.5,12.4112711 C2.5,12.0246717 2.81340068,11.7112711 3.2,11.7112711 C3.58659932,11.7112711 3.9,12.0246717 3.9,12.4112711 L3.9,14.9612711 C3.9,15.5908757 4.41039539,16.1012711 5.04,16.1012711 L14.96,16.1012711 C15.5896046,16.1012711 16.1,15.5908757 16.1,14.9612711 L16.1,12.4112711 C16.1,12.0246717 16.4134007,11.7112711 16.8,11.7112711 C17.1865993,11.7112711 17.5,12.0246717 17.5,12.4112711 Z M6.21,7.98127107 L9.3,4.89127107 L9.3,13.0712711 C9.3,13.4578704 9.61340068,13.7712711 10,13.7712711 C10.3865993,13.7712711 10.7,13.4578704 10.7,13.0712711 L10.7,4.89127107 L13.79,7.98127107 C14.0667978,8.25582663 14.5132022,8.25582663 14.79,7.98127107 C15.0645556,7.7044733 15.0645556,7.25806883 14.79,6.98127107 L10.5,2.70127107 C10.4296571,2.64218666 10.3524303,2.5918214 10.27,2.55127107 C10.0968165,2.48121489 9.90318352,2.48121489 9.73,2.55127107 C9.64756965,2.5918214 9.57034291,2.64218666 9.5,2.70127107 L5.22,6.99127107 C5.0413672,7.16990386 4.97160315,7.43026684 5.03698729,7.67428378 C5.10237143,7.91830072 5.29297035,8.10889964 5.53698729,8.17428378 C5.78100423,8.23966792 6.04136721,8.16990387 6.22,7.99127107 L6.21,7.98127107 Z"/>
</svg>
