<svg xmlns="http://www.w3.org/2000/svg" width="20" height="20" viewBox="0 0 20 20">
  <path fill="#264966" d="M5.5,12 C5.5,11.6134007 5.81340068,11.3 6.2,11.3 L9.8,11.3 C10.1865993,11.3 10.5,11.6134007 10.5,12 C10.5,12.3865993 10.1865993,12.7 9.8,12.7 L6.2,12.7 C6.01434846,12.7 5.83630072,12.6262502 5.70502525,12.4949747 C5.57374979,12.3636993 5.5,12.1856515 5.5,12 L5.5,12 Z M16,4.7 L16,11.3 C16,12.2388841 15.2388841,13 14.3,13 L13.5,13 L13.5,15.3 C13.5,15.6865993 13.1865993,16 12.8,16 L3.2,16 C2.81340068,16 2.5,15.6865993 2.5,15.3 L2.5,13 L1.7,13 C0.761115925,13 0,12.2388841 0,11.3 L0,4.7 C0,3.76111593 0.761115925,3 1.7,3 L2.5,3 L2.5,0.7 C2.5,0.514348457 2.57374979,0.336300718 2.70502525,0.205025253 C2.83630072,0.0737497883 3.01434846,-0.000101416443 3.2,-0.000101416443 L11.8,-0.000101416443 C11.9858463,-0.00328054472 12.1642057,0.0731591775 12.29,0.21 L13.29,1.21 C13.4268408,1.33579432 13.5032805,1.51415367 13.5,1.7 L13.5,3 L14.3,3 C14.750868,3 15.1832697,3.17910663 15.5020815,3.49791847 C15.8208934,3.81673032 16,4.24913197 16,4.7 L16,4.7 Z M3.9,3 L12.1,3 L12.1,2 L11.51,1.41 L3.9,1.41 L3.9,3 Z M12.1,9.4 L3.9,9.4 L3.9,14.6 L12.1,14.6 L12.1,9.4 Z M14.6,4.7 C14.6,4.53431458 14.4656854,4.4 14.3,4.4 L1.7,4.4 C1.53431458,4.4 1.4,4.53431458 1.4,4.7 L1.4,11.3 C1.4,11.4656854 1.53431458,11.6 1.7,11.6 L2.5,11.6 L2.5,8.7 C2.5,8.31340068 2.81340068,8 3.2,8 L12.8,8 C13.1865993,8 13.5,8.31340068 13.5,8.7 L13.5,11.6 L14.3,11.6 C14.4656854,11.6 14.6,11.4656854 14.6,11.3 L14.6,4.7 Z M3.35,5.35 C2.96340068,5.35 2.65,5.66340068 2.65,6.05 C2.65,6.43659932 2.96340068,6.75 3.35,6.75 C3.73659932,6.75 4.05,6.43659932 4.05,6.05 C4.05,5.66340068 3.73659932,5.35 3.35,5.35 L3.35,5.35 Z" transform="translate(2 2)"/>
</svg>
