<svg xmlns="http://www.w3.org/2000/svg" width="20" height="20" viewBox="0 0 20 20">
  <path fill="#264966" d="M17.996125,6.21710545 C18.0064584,6.16090987 18.0064584,6.10330103 17.996125,6.04710545 L17.996125,5.97710545 C17.9663674,5.89719965 17.918439,5.82530693 17.856125,5.76710545 L14.196125,2.17710545 C14.1381735,2.119084 14.0704775,2.07169681 13.996125,2.03710545 L13.926125,2.03710545 C13.8695974,2.03149092 13.8126526,2.03149092 13.756125,2.03710545 L8.14612497,2.03710545 C6.99602764,2.03616054 6.0027702,2.8416172 5.76612497,3.96710545 L4.42612497,3.96710545 C3.08407302,3.96710545 1.99612497,5.0550535 1.99612497,6.39710545 L1.99612497,15.5371054 C1.99612497,16.8791574 3.08407302,17.9671054 4.42612497,17.9671054 L11.846125,17.9671054 C13.1881769,17.9671054 14.276125,16.8791574 14.276125,15.5371054 L14.276125,14.9671054 L15.566125,14.9671054 C16.9081769,14.9671054 17.996125,13.8791574 17.996125,12.5371054 L17.996125,6.26710545 C17.996125,6.26710545 17.996125,6.23710545 17.996125,6.21710545 Z M15.606125,5.56710545 L14.396125,5.56710545 L14.396125,4.35710545 L15.606125,5.56710545 Z M12.876125,15.5671054 C12.876125,16.1193902 12.4284097,16.5671054 11.876125,16.5671054 L4.42612497,16.5671054 C3.87384022,16.5671054 3.42612497,16.1193902 3.42612497,15.5671054 L3.42612497,6.39710545 C3.42612497,5.8448207 3.87384022,5.39710545 4.42612497,5.39710545 L5.71612497,5.39710545 L5.71612497,12.5671054 C5.73254994,13.897427 6.81570199,14.9672068 8.14612497,14.9671054 L12.876125,14.9671054 L12.876125,15.5671054 Z M15.566125,13.5671054 L8.14612497,13.5671054 C7.59384022,13.5671054 7.14612497,13.1193902 7.14612497,12.5671054 L7.14612497,4.39710545 C7.14612497,3.8448207 7.59384022,3.39710545 8.14612497,3.39710545 L12.996125,3.39710545 L12.996125,6.26710545 C12.996125,6.65370477 13.3095256,6.96710545 13.696125,6.96710545 L16.596125,6.96710545 L16.596125,12.5371054 C16.6045267,12.8127683 16.4987095,13.0796628 16.3036959,13.2746764 C16.1086823,13.4696899 15.8417878,13.5755072 15.566125,13.5671054 L15.566125,13.5671054 Z M15.626125,11.3371054 C15.6207487,11.7214558 15.3104753,12.0317291 14.926125,12.0371054 L8.79612497,12.0371054 C8.40952564,12.0371054 8.09612497,11.7237048 8.09612497,11.3371054 C8.09612497,10.9505061 8.40952564,10.6371054 8.79612497,10.6371054 L14.926125,10.6371054 C15.1117765,10.6371054 15.2898242,10.7108552 15.4210997,10.8421307 C15.5523752,10.9734062 15.626125,11.1514539 15.626125,11.3371054 Z M8.09612497,8.18710545 C8.09612497,7.80050612 8.40952564,7.48710545 8.79612497,7.48710545 L11.516125,7.48710545 C11.9027243,7.48710545 12.216125,7.80050612 12.216125,8.18710545 C12.216125,8.57370477 11.9027243,8.88710545 11.516125,8.88710545 L8.79612497,8.88710545 C8.40952564,8.88710545 8.09612497,8.57370477 8.09612497,8.18710545 Z"/>
</svg>
