<svg xmlns="http://www.w3.org/2000/svg" width="20" height="20" viewBox="0 0 20 20">
  <path fill="#264966" d="M17.79,3.20713906 C17.9269644,3.076886 18.0045003,2.8961499 18.0045003,2.70713906 C18.0045003,2.51812821 17.9269644,2.33739211 17.79,2.20713906 C17.6597469,2.07017468 17.4790108,1.99263879 17.29,1.99263879 C17.1009892,1.99263879 16.9202531,2.07017468 16.79,2.20713906 L15.13,3.88713906 L15.13,3.88713906 L14.13,4.88713906 L14.13,4.88713906 L12.92,6.09713906 L12.92,6.09713906 L12.13,6.88713906 L12.13,6.88713906 L11.51,7.50713906 L11.51,7.50713906 L10.11,8.90713906 L10.11,8.90713906 L6.77,12.2471391 L6.77,12.2471391 L5.66,13.3571391 L5.66,13.3571391 L2.21,16.8071391 C2.07303562,16.9373921 1.99549974,17.1181282 1.99549974,17.3071391 C1.99549974,17.4961499 2.07303562,17.676886 2.21,17.8071391 C2.33896611,17.9382243 2.51614131,18.0105407 2.7,18.0072539 C2.88811326,18.0072539 3.06832072,17.9314788 3.2,17.7971391 L6.88,14.1171391 L10.38,16.8571391 C10.5026073,16.9536702 10.653954,17.0064656 10.81,17.0071391 C10.9174519,17.0090054 11.0237761,16.9849967 11.12,16.9371391 C11.3595959,16.8187965 11.5109099,16.5743661 11.51,16.3071391 L11.51,9.48713906 L13,8.00713906 C14.0398238,9.49148958 13.7704603,11.5247492 12.38,12.6871391 C12.2374147,12.8105476 12.1506515,12.9862647 12.1393573,13.1745005 C12.1280632,13.3627362 12.1931935,13.547567 12.32,13.6871391 C12.4486854,13.8409231 12.6394855,13.9289848 12.84,13.9271391 C13.0086578,13.9269067 13.1717251,13.8666428 13.3,13.7571391 C14.3789213,12.8092898 14.9981814,11.4432748 15,10.0071391 C15.0066235,8.92422354 14.6550481,7.86949739 14,7.00713906 L15.15,5.85713906 C16.3451819,7.33070218 16.8461174,9.2484544 16.5242618,11.1182825 C16.2024061,12.9881105 15.0890897,14.6279997 13.47,15.6171391 C13.200475,15.7791032 13.0720248,16.1009138 13.1559437,16.4039546 C13.2398627,16.7069955 13.5155543,16.9168899 13.83,16.9171391 C13.9601685,16.9183546 14.0881659,16.8837607 14.2,16.8171391 C16.1731186,15.5953606 17.5184328,13.5769609 17.8868875,11.2856335 C18.2553421,8.99430619 17.6106198,6.65590056 16.12,4.87713906 L17.79,3.20713906 Z M10.11,14.8671391 L7.88,13.1171391 L10.11,10.8871391 L10.11,14.8671391 Z M2,11.5371391 L2,8.47713906 C2.00546544,7.47425339 2.81711434,6.6626045 3.82,6.65713906 L5.92,6.65713906 L10.38,3.15713906 C10.5899039,2.9883116 10.8788643,2.95707264 11.12,3.07713906 C11.3595959,3.19548161 11.5109099,3.43991198 11.5100041,3.70713906 L11.5100041,5.51713906 L10.11,6.91713906 L10.11,5.14713906 L6.59,7.90713906 C6.46816793,8.00507636 6.3163136,8.0580488 6.16,8.05713906 L3.82,8.05713906 C3.58804041,8.05713906 3.4,8.24517946 3.4,8.47713906 L3.4,11.5371391 C3.4,11.7690987 3.58804041,11.9571391 3.82,11.9571391 L5.08,11.9571391 L3.69,13.3471391 C2.73977461,13.2790961 2.00280132,12.4897934 2,11.5371391 Z"/>
</svg>
