<svg xmlns="http://www.w3.org/2000/svg" width="20" height="20" viewBox="0 0 20 20">
  <path fill="#264966" d="M17.1081171,7.15048732 C17.6819598,6.58274744 18.0027908,5.80770612 17.9981674,5.00048732 C18.0001024,4.19673193 17.6794789,3.42579455 17.1081171,2.86048732 C15.9123844,1.71250496 14.0238497,1.71250496 12.8281171,2.86048732 L10.4681171,5.23048732 C9.86540961,5.82125877 8.90082449,5.82125877 8.29811705,5.23048732 L8.29811705,5.23048732 L8.21811705,5.16048732 C7.93728533,4.94981835 7.5438421,4.97975425 7.29811705,5.23048732 C7.02888152,5.50945482 7.02888152,5.95151981 7.29811705,6.23048732 L8.69811705,7.60048732 L3.69811705,12.6004873 C2.8809187,13.427829 2.70965251,14.6960143 3.27811705,15.7104873 L2.19811705,16.8004873 C2.00368298,17.0042643 1.94808702,17.3037067 2.05641595,17.5636961 C2.16474487,17.8236855 2.41651416,17.9950591 2.69811705,18.0004934 C2.88346662,18.0012785 3.06086265,17.9252516 3.18811705,17.7904873 L4.26811705,16.7104873 C4.65403123,16.9350861 5.09162933,17.055684 5.53811705,17.0604873 C6.23055687,17.0642919 6.89477006,16.7863331 7.37811705,16.2904873 L12.3781171,11.2904873 L13.7481171,12.6604873 L13.7481171,12.6604873 L13.7481171,12.6604873 L13.8181171,12.7204873 C13.9365402,12.8093368 14.0800843,12.8583518 14.2281171,12.8604873 C14.4182075,12.8602637 14.5995265,12.7804834 14.7281171,12.6404873 C14.8650814,12.5102343 14.9426173,12.3294982 14.9426173,12.1404873 C14.9426173,11.9514765 14.8650814,11.7707404 14.7281171,11.6404873 L14.7281171,11.6404873 C14.1408947,11.0480056 14.1408947,10.092969 14.7281171,9.50048732 L17.1081171,7.15048732 Z M6.38811705,15.3004873 C5.91867501,15.7699293 5.1575591,15.7699293 4.68811706,15.3004873 C4.21867503,14.8310453 4.21867503,14.0699294 4.68811705,13.6004873 L9.68811705,8.60048732 L11.3881171,10.3004873 L6.38811705,15.3004873 Z M13.7581171,8.52048732 C13.3806867,8.90430456 13.1175336,9.38559774 12.9981171,9.91048732 L10.0681171,7.00048732 C10.5933066,6.87057945 11.0735921,6.60106669 11.4581171,6.22048732 L13.8181171,3.85048732 C14.4584722,3.22810859 15.4777619,3.22810859 16.1181171,3.85048732 C16.4250504,4.1544873 16.5978504,4.56848731 16.598159,5.00048732 C16.6012572,5.4331639 16.4279273,5.84843352 16.1181171,6.15048732 L13.7581171,8.52048732 Z"/>
</svg>
