<svg xmlns="http://www.w3.org/2000/svg" width="20" height="20" viewBox="0 0 20 20">
  <path fill="#264966" d="M17.4921111,3.18288917 L17.4921111,6.91288917 C17.4921111,7.2994885 17.1787105,7.61288917 16.7921111,7.61288917 C16.4055118,7.61288917 16.0921111,7.2994885 16.0921111,6.91288917 L16.0921111,4.91288917 L12.0921111,8.91288917 C11.9604318,9.04722892 11.7802244,9.12289529 11.5921111,9.12289529 C11.4067616,9.12368031 11.2293655,9.04765343 11.1021111,8.91288917 C10.9651467,8.78263612 10.8876109,8.60190002 10.8876109,8.41288917 C10.8876109,8.22387833 10.9651467,8.04314223 11.1021111,7.91288917 L15.1021111,3.91288917 L13.1021111,3.91288917 C12.7155118,3.91288917 12.4021111,3.5994885 12.4021111,3.21288917 C12.4021111,2.82628985 12.7155118,2.51288887 13.1021111,2.51288887 L16.7921111,2.51288887 C17.1672914,2.51254447 17.4760321,2.80805341 17.4921111,3.18288917 Z M7.91211113,11.0728892 L3.91211113,15.0728892 L3.91211113,13.0728892 C3.91211113,12.8228033 3.77869189,12.5917143 3.56211113,12.4666714 C3.34553038,12.3416284 3.07869188,12.3416284 2.86211112,12.4666714 C2.64553037,12.5917143 2.51211112,12.8228033 2.51211113,13.0728892 L2.51211113,16.7828892 C2.50648145,16.8360739 2.50648145,16.8897044 2.51211113,16.9428892 C2.51211113,16.9428892 2.51211113,17.0128892 2.51211113,17.0428892 C2.57505233,17.2474874 2.73065997,17.410505 2.93211113,17.4828892 L3.03211113,17.4828892 C3.0852959,17.4885188 3.13892636,17.4885188 3.19211113,17.4828892 L6.92211113,17.4828892 C7.30871045,17.4828892 7.62211113,17.1694885 7.62211113,16.7828892 C7.62211113,16.3962898 7.30871045,16.0828892 6.92211113,16.0828892 L4.92211113,16.0828892 L8.92211113,12.0828892 C9.19825349,11.8067468 9.19825348,11.3590316 8.92211111,11.0828892 C8.64596874,10.8067468 8.1982535,10.8067468 7.92211113,11.0828892 L7.91211113,11.0728892 Z"/>
</svg>
