<svg xmlns="http://www.w3.org/2000/svg" width="20" height="20" viewBox="0 0 20 20">
  <path fill="#264966" d="M10,2 C5.581722,2 2,5.581722 2,10 C2,14.418278 5.581722,18 10,18 C14.418278,18 18,14.418278 18,10 C18,7.87826808 17.1571453,5.84343678 15.6568542,4.34314575 C14.1565632,2.84285472 12.1217319,2 10,2 Z M10,16.6 C6.35492065,16.6 3.4,13.6450793 3.4,10 C3.4,6.35492065 6.35492065,3.4 10,3.4 C13.6450793,3.4 16.6,6.35492065 16.6,10 C16.5944931,13.6427959 13.6427959,16.5944931 10,16.6 Z M14,10 C14,10.3865993 13.6865993,10.7 13.3,10.7 L10.7,10.7 L10.7,13.3 C10.7,13.6865993 10.3865993,14 10,14 C9.61340068,14 9.3,13.6865993 9.3,13.3 L9.3,10.7 L6.7,10.7 C6.31340068,10.7 6,10.3865993 6,10 C6,9.61340068 6.31340068,9.3 6.7,9.3 L9.3,9.3 L9.3,6.7 C9.30000002,6.31340069 9.61340069,6.00000003 10,6.00000003 C10.3865993,6.00000003 10.7,6.31340069 10.7,6.7 L10.7,9.3 L13.3,9.3 C13.6865993,9.3 14,9.61340068 14,10 L14,10 Z"/>
</svg>
