<svg xmlns="http://www.w3.org/2000/svg" width="20" height="20" viewBox="0 0 20 20">
  <path fill="#264966" d="M4.94,7.34 C4.93526577,8.33639278 4.54038638,9.29128293 3.84,10 C4.54038638,10.7087171 4.93526577,11.6636072 4.94,12.66 L4.94,15.33 C4.94,16.0314016 5.50859837,16.6 6.21,16.6 L7,16.6 C7.38659932,16.6 7.7,16.9134007 7.7,17.3 C7.7,17.6865993 7.38659932,18 7,18 L6.21,18 C4.73767707,17.9945164 3.54548357,16.8023229 3.54,15.33 L3.54,12.66 C3.53603313,11.8136907 3.08293879,11.03315 2.35,10.61 C2.13502518,10.4819603 2.00331804,10.2502166 2.00331804,10 C2.00331804,9.74978341 2.13502518,9.51803972 2.35,9.39 C3.06778994,8.97595389 3.51855245,8.21836983 3.54,7.39 L3.54,4.67 C3.54548357,3.19767707 4.73767707,2.00548357 6.21,2 L7,2 C7.18565154,2 7.36369928,2.07374979 7.49497475,2.20502525 C7.62625021,2.33630072 7.7,2.51434846 7.7,2.7 C7.7,2.88565154 7.62625021,3.06369928 7.49497475,3.19497475 C7.36369928,3.32625021 7.18565154,3.4 7,3.4 L6.21,3.4 C5.50859837,3.4 4.94,3.96859837 4.94,4.67 L4.94,7.34 Z M17.65,9.39 C16.9322101,8.97595389 16.4814476,8.21836983 16.46,7.39 L16.46,4.67 C16.4545164,3.19767707 15.2623229,2.00548357 13.79,2 L13,2 C12.6134007,2 12.3,2.31340068 12.3,2.7 C12.3,3.08659932 12.6134007,3.4 13,3.4 L13.79,3.4 C14.4914016,3.4 15.06,3.96859837 15.06,4.67 L15.06,7.34 C15.0647342,8.33639278 15.4596136,9.29128293 16.16,10 C15.4596136,10.7087171 15.0647342,11.6636072 15.06,12.66 L15.06,15.33 C15.06,16.0314016 14.4914016,16.6 13.79,16.6 L13,16.6 C12.6134007,16.6 12.3,16.9134007 12.3,17.3 C12.3,17.6865993 12.6134007,18 13,18 L13.79,18 C15.2623229,17.9945164 16.4545164,16.8023229 16.46,15.33 L16.46,12.66 C16.4639669,11.8136907 16.9170612,11.03315 17.65,10.61 C17.8649748,10.4819603 17.996682,10.2502166 17.996682,10 C17.996682,9.74978341 17.8649748,9.51803972 17.65,9.39 L17.65,9.39 Z"/>
</svg>
