<svg xmlns="http://www.w3.org/2000/svg" width="20" height="20" viewBox="0 0 20 20">
  <path fill="#264966" d="M10,0 C4.4771525,0 0,4.4771525 0,10 C0,15.5228475 4.4771525,20 10,20 C15.5228475,20 20,15.5228475 20,10 C20,7.3478351 18.9464316,4.80429597 17.0710678,2.92893219 C15.195704,1.0535684 12.6521649,0 10,0 Z M10,18.6 C5.25035115,18.6 1.4,14.7496488 1.4,10 C1.4,5.25035115 5.25035115,1.4 10,1.4 C14.7496488,1.4 18.6,5.25035115 18.6,10 C18.5944894,14.7473644 14.7473644,18.5944894 10,18.6 L10,18.6 Z M10,4.4 C7.54555912,4.38815121 5.37265182,5.98432424 4.65,8.33 C4.55886164,8.62442143 4.28818397,8.82641969 3.98,8.83 C3.91417735,8.84500237 3.84582265,8.84500237 3.78,8.83 C3.41026524,8.71917927 3.20000957,8.32998261 3.31,7.96 C3.98913217,5.75993177 5.70676074,4.03453473 7.90374194,3.34548154 C10.1007231,2.65642834 12.4960627,3.09184901 14.31,4.51 C14.5278459,4.6560645 14.6457605,4.91165418 14.6154941,5.17218369 C14.5852276,5.43271319 14.4118591,5.65446368 14.1663295,5.74669655 C13.9207999,5.83892942 13.644311,5.78616728 13.45,5.61 C12.4677536,4.83205683 11.2529834,4.406007 10,4.4 Z M16.28,6.88 C16.0032022,6.60544444 15.5567978,6.60544444 15.28,6.88 L11,11.16 C10.6997406,10.9730712 10.3536816,10.8727141 10,10.87 C8.8954305,10.87 8,11.7654305 8,12.87 C8,13.9745695 8.8954305,14.87 10,14.87 C11.1045695,14.87 12,13.9745695 12,12.87 C11.9992907,12.6617983 11.9620597,12.4553353 11.89,12.26 L16.28,7.87 C16.5480079,7.59441531 16.5480079,7.15558469 16.28,6.88 Z M10,13.47 C9.66862915,13.47 9.4,13.2013708 9.4,12.87 C9.4,12.5386292 9.66862915,12.27 10,12.27 C10.3313708,12.27 10.6,12.5386292 10.6,12.87 C10.6,13.2013708 10.3313708,13.47 10,13.47 Z"/>
</svg>
