<svg xmlns="http://www.w3.org/2000/svg" width="20" height="20" viewBox="0 0 20 20">
  <path fill="#264966" d="M0.35,1.19 L0,0.57 L0.8,0 L1.26,0 L1.37,0 L1.37,2.86 L0.61,2.86 L0.61,1 L0.35,1.19 Z M1.47,6.8 C1.76100355,6.54486158 1.94049139,6.18588589 1.97,5.8 C1.98377071,5.559808 1.89005516,5.32592406 1.71423745,5.16169873 C1.53841974,4.99747339 1.29869652,4.91990354 1.06,4.95 C0.813546287,4.93189204 0.571412995,5.0219353 0.396674145,5.19667415 C0.221935296,5.37141299 0.131892035,5.61354629 0.15,5.86 L0.15,5.97 L0.9,6 L0.9,5.86 C0.9,5.6 1.01,5.6 1.07,5.6 C1.13,5.6 1.21,5.6 1.21,5.78 C1.21,5.96 1.14,6.12 0.9,6.38 L0.16,7.24 L0.16,7.77 L2,7.77 L2,7.08 L1.21,7.08 L1.47,6.8 Z M1.89,10.69 C1.8994929,10.4546687 1.80733809,10.2266173 1.6370149,10.0639491 C1.4666917,9.90128089 1.23464649,9.81970302 1,9.84 C0.760260796,9.81315773 0.520864866,9.8932432 0.345535679,10.0589389 C0.170206493,10.2246346 0.0767343208,10.4591278 0.09,10.7 L0.82,10.7 C0.82,10.48 0.96,10.48 1,10.48 C1.04,10.48 1.16,10.48 1.16,10.66 C1.16601676,10.7128891 1.14831574,10.7657289 1.11165347,10.8043208 C1.0749912,10.8429127 1.02312791,10.8632984 0.97,10.86 L0.58,10.86 L0.58,11.52 L1,11.52 C1.24,11.52 1.24,11.69 1.24,11.74 C1.24,11.95 1.12,11.97 1.03,11.97 C0.94,11.97 0.83,11.97 0.82,11.73 L0.08,11.73 C0.0711239422,11.9885901 0.177808324,12.2377134 0.371088132,12.4097324 C0.564367939,12.5817515 0.824185555,12.6588149 1.08,12.62 C1.32890785,12.6371773 1.57340772,12.5478888 1.75266811,12.3743495 C1.93192849,12.2008102 2.02909768,11.9593339 2.02,11.71 C2.02894213,11.488757 1.93698351,11.275413 1.77,11.13 C1.8602233,11.0018791 1.90268484,10.8461868 1.89,10.69 L1.89,10.69 Z M15.3,5.6 L4.21,5.6 C3.82340068,5.6 3.51,5.91340068 3.51,6.3 C3.51,6.68659932 3.82340068,7 4.21,7 L15.3,7 C15.6865993,7 16,6.68659931 16,6.3 C16,5.91340069 15.6865993,5.6 15.3,5.6 Z M4.21,2.06 L15.3,2.06 C15.6865993,2.06 16,1.74659932 16,1.36 C16,0.973400675 15.6865993,0.66 15.3,0.66 L4.21,0.66 C3.82340068,0.66 3.51,0.973400675 3.51,1.36 C3.51,1.74659932 3.82340068,2.06 4.21,2.06 Z M15.3,10.53 L4.21,10.53 C3.82340068,10.53 3.51,10.8434007 3.51,11.23 C3.51,11.6165993 3.82340068,11.93 4.21,11.93 L15.3,11.93 C15.6865993,11.93 16,11.6165993 16,11.23 C16,10.8434007 15.6865993,10.53 15.3,10.53 Z" transform="translate(2 3.5)"/>
</svg>
