<svg xmlns="http://www.w3.org/2000/svg" width="20" height="20" viewBox="0 0 20 20">
  <path fill="#264966" d="M16,8 C16,12.418278 12.418278,16 8,16 C3.581722,16 0,12.418278 0,8 C0,7.61340068 0.313400675,7.3 0.7,7.3 C1.08659932,7.3 1.4,7.61340068 1.4,8 C1.39996366,11.0822536 3.53330643,13.7541143 6.53910453,14.4363644 C9.54490263,15.1186144 12.6226808,13.6295635 13.9533016,10.8493233 C15.2839224,8.06908313 14.5130277,4.73806041 12.096259,2.8250742 C9.67949024,0.912087989 6.26045809,0.926586371 3.86,2.86 L4.81,2.86 C5.19659932,2.86 5.51,3.17340068 5.51,3.56 C5.51,3.94659932 5.19659932,4.26 4.81,4.26 L2.21,4.26 L2.11,4.26 L2,4.22 C1.94384358,4.19939879 1.89017482,4.17256441 1.84,4.14 L1.78,4.14 L1.78,4.14 C1.72671671,4.10367209 1.68228688,4.05582457 1.65,4 C1.62660302,3.97240906 1.60646972,3.94220911 1.59,3.91 C1.58434266,3.86685131 1.58434266,3.82314869 1.59,3.78 C1.58057142,3.73380957 1.58057142,3.68619043 1.59,3.64 C1.59,3.64 1.59,3.64 1.59,3.64 L1.59,1 C1.58999999,0.749914084 1.72341924,0.518825165 1.94,0.393782205 C2.15658075,0.268739245 2.42341925,0.268739245 2.64,0.393782205 C2.85658076,0.518825165 2.99000001,0.749914084 2.99,1 L2.99,1.87 C4.39269065,0.684671888 6.16370341,0.02363519 8,0 C12.418278,0 16,3.581722 16,8 Z M8,4 C7.61340068,4 7.3,4.31340068 7.3,4.7 L7.3,8 C7.3,8.38659932 7.61340068,8.7 8,8.7 L11.3,8.7 C11.6865993,8.7 12,8.38659932 12,8 C12,7.61340068 11.6865993,7.3 11.3,7.3 L8.7,7.3 L8.7,4.7 C8.7,4.31340068 8.38659932,4 8,4 Z" transform="translate(2 2)"/>
</svg>
