<svg xmlns="http://www.w3.org/2000/svg" width="20" height="20" viewBox="0 0 20 20">
  <path fill="#264966" d="M17.2900592,3.70224406 L3.70005917,17.2922441 C3.56837989,17.4265838 3.38817243,17.5022502 3.20005917,17.5022502 C3.0147096,17.5030352 2.83731357,17.4270083 2.71005917,17.2922441 C2.57309479,17.161991 2.49555891,16.9812549 2.49555891,16.7922441 C2.49555891,16.6032332 2.57309479,16.4224971 2.71005917,16.2922441 L16.3000592,2.71224406 C16.4303122,2.57527968 16.6110483,2.4977438 16.8000592,2.4977438 C16.98907,2.4977438 17.1698061,2.57527968 17.3000592,2.71224406 C17.4325531,2.84352351 17.5062558,3.02284993 17.5044071,3.20935833 C17.502488,3.39586673 17.4251779,3.57366778 17.2900592,3.70224406 Z M3.20005917,6.04224406 L4.64005917,6.04224406 L4.64005917,7.50224408 C4.64005918,7.88884338 4.95345985,8.20224405 5.34005917,8.20224405 C5.72665849,8.20224405 6.04005916,7.88884338 6.04005917,7.50224408 L6.04005917,6.04224406 L7.50005919,6.04224406 C7.88665849,6.04224406 8.20005916,5.72884338 8.20005916,5.34224406 C8.20005916,4.95564475 7.88665849,4.64224407 7.50005919,4.64224406 L6.04005917,4.64224406 L6.04005917,3.20224406 C6.04005916,2.81564475 5.72665849,2.50224408 5.34005917,2.50224408 C4.95345985,2.50224408 4.64005918,2.81564475 4.64005917,3.20224406 L4.64005917,4.64224406 L3.20005917,4.64224406 C2.81345985,4.64224407 2.50005919,4.95564475 2.50005919,5.34224406 C2.50005919,5.72884338 2.81345985,6.04224406 3.20005917,6.04224406 Z M16.8000592,13.9622441 L12.5000592,13.9622441 C12.1134598,13.9622441 11.8000592,14.2756447 11.8000592,14.6622441 C11.8000592,15.0488434 12.1134598,15.3622441 12.5000592,15.3622441 L16.8000592,15.3622441 C17.1866585,15.3622441 17.5000592,15.0488434 17.5000592,14.6622441 C17.5000592,14.2756447 17.1866585,13.9622441 16.8000592,13.9622441 L16.8000592,13.9622441 Z"/>
</svg>
