<svg xmlns="http://www.w3.org/2000/svg" width="20" height="20" viewBox="0 0 20 20">
  <path fill="#264966" d="M2.5,3.2 C2.5,2.81340068 2.81340068,2.5 3.2,2.5 L16.8,2.5 C17.1865993,2.5 17.5,2.81340068 17.5,3.2 C17.5,3.58659932 17.1865993,3.9 16.8,3.9 L3.2,3.9 C2.81340068,3.9 2.5,3.58659932 2.5,3.2 Z M16.8,7.03 L13.31,7.03 C12.9234007,7.03 12.61,7.34340068 12.61,7.73 C12.61,8.11659932 12.9234007,8.43 13.31,8.43 L16.8,8.43 C17.1865993,8.43 17.5,8.11659932 17.5,7.73 C17.5,7.34340068 17.1865993,7.03 16.8,7.03 L16.8,7.03 Z M6.69,16.1 L3.2,16.1 C2.81340068,16.1 2.5,16.4134007 2.5,16.8 C2.5,17.1865993 2.81340068,17.5 3.2,17.5 L6.69,17.5 C7.07659932,17.5 7.39,17.1865993 7.39,16.8 C7.39,16.4134007 7.07659932,16.1 6.69,16.1 Z M3.2,8.43 L10.37,8.43 C10.7565993,8.43 11.07,8.11659932 11.07,7.73 C11.07,7.34340068 10.7565993,7.03 10.37,7.03 L3.2,7.03 C2.81340068,7.03 2.5,7.34340068 2.5,7.73 C2.5,8.11659932 2.81340068,8.43 3.2,8.43 Z M16.8,16.1 L9.63,16.1 C9.24340068,16.1 8.93,16.4134007 8.93,16.8 C8.93,17.1865993 9.24340068,17.5 9.63,17.5 L16.8,17.5 C17.1865993,17.5 17.5,17.1865993 17.5,16.8 C17.5,16.4134007 17.1865993,16.1 16.8,16.1 Z M16.8,11.57 L3.2,11.57 C2.81340068,11.57 2.5,11.8834007 2.5,12.27 C2.5,12.6565993 2.81340068,12.97 3.2,12.97 L16.8,12.97 C17.1865993,12.97 17.5,12.6565993 17.5,12.27 C17.5,11.8834007 17.1865993,11.57 16.8,11.57 Z"/>
</svg>
