<svg xmlns="http://www.w3.org/2000/svg" width="20" height="20" viewBox="0 0 20 20">
  <path fill="#264966" d="M10,2 C5.581722,2 2,5.581722 2,10 C2,14.418278 5.581722,18 10,18 C14.418278,18 18,14.418278 18,10 C18,7.87826808 17.1571453,5.84343678 15.6568542,4.34314575 C14.1565632,2.84285472 12.1217319,2 10,2 Z M10,16.6 C6.35492065,16.6 3.4,13.6450793 3.4,10 C3.4,6.35492065 6.35492065,3.4 10,3.4 C13.6450793,3.4 16.6,6.35492065 16.6,10 C16.5944931,13.6427959 13.6427959,16.5944931 10,16.6 Z M13.79,7.33 C13.9269644,7.46025306 14.0045003,7.64098915 14.0045003,7.83 C14.0045003,8.01901085 13.9269644,8.19974694 13.79,8.33 L9.45,12.67 C9.17320224,12.9445556 8.72679776,12.9445556 8.45,12.67 L6.21,10.41 C6.03136721,10.2313672 5.96160316,9.97100423 6.0269873,9.7269873 C6.09237144,9.48297036 6.28297036,9.29237144 6.5269873,9.2269873 C6.77100423,9.16160316 7.03136721,9.23136721 7.21,9.41 L9,11.18 L12.8,7.33 C13.0755847,7.06199214 13.5144153,7.06199214 13.79,7.33 Z"/>
</svg>
