<svg xmlns="http://www.w3.org/2000/svg" width="20" height="20" viewBox="0 0 20 20">
  <path fill="#264966" d="M17.9995662,8.92724406 L17.9995662,12.9272441 C17.9995662,13.3138434 17.6861655,13.6272441 17.2995662,13.6272441 C16.9129669,13.6272441 16.5995662,13.3138434 16.5995662,12.9272441 L16.5995662,10.6172441 L9.4095662,17.7972441 C9.2823118,17.9320083 9.10491576,18.0080352 8.9195662,18.0072502 C8.63796331,18.0018159 8.38619402,17.8304423 8.27786509,17.5704529 C8.16953617,17.3104634 8.22513212,17.011021 8.4195662,16.8072441 L15.6095662,9.62724406 L13.2995662,9.62724406 C12.9129669,9.62724406 12.5995662,9.31384339 12.5995662,8.92724406 C12.5995662,8.54064474 12.9129669,8.22724406 13.2995662,8.22724406 L17.2995662,8.22724406 C17.3890048,8.21302803 17.4801276,8.21302803 17.5695662,8.22724406 C17.7411291,8.29922931 17.877581,8.4356812 17.9495662,8.60724406 C17.987606,8.70945688 18.0046126,8.81829904 17.9995662,8.92724406 L17.9995662,8.92724406 Z M6.6995662,10.3872441 L4.3895662,10.3872441 L11.5795662,3.20724406 C11.8541218,2.9304463 11.8541218,2.48404183 11.5795662,2.20724406 C11.4493131,2.07027968 11.268577,1.9927438 11.0795662,1.9927438 C10.8905554,1.9927438 10.7098193,2.07027968 10.5795662,2.20724406 L3.3995662,9.39724406 L3.3995662,7.08724406 C3.3995662,6.70064474 3.08616552,6.38724406 2.6995662,6.38724406 C2.31296687,6.38724406 1.9995662,6.70064474 1.9995662,7.08724406 L1.9995662,11.0872441 C2.0007452,11.1794338 2.01765479,11.2707455 2.0495662,11.3572441 C2.12413856,11.5270542 2.25975611,11.6626717 2.4295662,11.7372441 C2.51900482,11.7514601 2.61012757,11.7514601 2.6995662,11.7372441 L6.6995662,11.7372441 C7.08616552,11.7372441 7.3995662,11.4238434 7.3995662,11.0372441 C7.3995662,10.6506447 7.08616552,10.3372441 6.6995662,10.3372441 L6.6995662,10.3872441 Z"/>
</svg>
