<svg xmlns="http://www.w3.org/2000/svg" width="20" height="20" viewBox="0 0 20 20">
  <path fill="#264966" d="M17.8601748,8.57820316 L16.2201748,6.37820316 L17.1001748,3.77820316 C17.1887498,3.52873463 17.1221308,3.25050231 16.9301748,3.06820316 C16.7446929,2.87452013 16.4627,2.80793848 16.2101748,2.89820316 L13.6201748,3.77820316 L11.4201748,2.13820316 C11.2084164,1.98004036 10.9249163,1.95673898 10.6901748,2.07820316 C10.450579,2.19654572 10.2992649,2.44097609 10.3001748,2.70820316 L10.3001748,5.44820316 L8.10017481,6.99820316 C7.88382205,7.15269972 7.77190801,7.41511885 7.81017481,7.67820316 C7.85023845,7.94449362 8.04155909,8.16314579 8.30017481,8.23820316 L10.1601748,8.81820316 L2.21017481,16.8182032 C2.07321043,16.9484562 1.99567455,17.1291923 1.99567455,17.3182032 C1.99567455,17.507214 2.07321043,17.6879501 2.21017481,17.8182032 C2.34245606,17.9419811 2.51922345,18.0069161 2.70017481,17.9982032 C2.88828807,17.99823 3.06849553,17.9225429 3.20017481,17.7882032 L11.2001748,9.83820316 L11.7301748,11.6982032 C11.807383,11.9554418 12.0249637,12.145825 12.2901748,12.1882032 L12.4001748,12.1882032 C12.6363112,12.1990452 12.8619694,12.089977 13.0001748,11.8982032 L14.5801748,9.65820316 L17.3201748,9.65820316 C17.5854463,9.65235821 17.8266581,9.50303665 17.9501748,9.26820316 C18.0468359,9.03880719 18.0124432,8.77513008 17.8601748,8.57820316 Z M14.2001748,8.25820316 C13.9676695,8.23800313 13.743518,8.3500789 13.6201748,8.54820316 L12.6201748,9.92820316 L12.1201748,8.31820316 C12.0600858,8.11060206 11.8977759,7.94829214 11.6901748,7.88820316 L11.6901748,7.88820316 L10.0801748,7.38820316 L11.4601748,6.38820316 C11.6501934,6.25764184 11.7597369,6.03855479 11.7501748,5.80820316 L11.7501748,4.11820316 L13.1101748,5.11820316 C13.2936325,5.25582547 13.5334795,5.29330157 13.7501748,5.21820316 L15.3501748,4.67820316 L14.8101748,6.27820316 C14.7313147,6.49454647 14.7690775,6.73622822 14.9101748,6.91820316 L15.9101748,8.27820316 L14.2001748,8.25820316 Z"/>
</svg>
