<svg xmlns="http://www.w3.org/2000/svg" width="20" height="20" viewBox="0 0 20 20">
  <path fill="#264966" d="M17.66,12.3991846 C17.8706123,12.5257468 17.9994449,12.7534703 17.9994449,12.9991846 C17.9994449,13.2448989 17.8706123,13.4726224 17.66,13.5991846 L10.36,17.8991846 C10.1383953,18.0320736 9.8616047,18.0320736 9.64,17.8991846 L2.34,13.5991846 C2.12938773,13.4726224 2.00055513,13.2448989 2.00055513,12.9991846 C2.00055513,12.7534703 2.12938773,12.5257468 2.34,12.3991846 L4.48,11.1391846 C4.64232562,11.0306192 4.84262287,10.9947977 5.03251506,11.0403719 C5.22240724,11.085946 5.38462907,11.2087721 5.48,11.3791846 C5.59094034,11.5418798 5.62708079,11.7442243 5.57932067,11.9352648 C5.53156055,12.1263052 5.404451,12.2878372 5.23,12.3791846 L4.08,12.9991846 L10,16.4891846 L15.92,12.9991846 L14.81,12.3391846 C14.635549,12.2478372 14.5084394,12.0863052 14.4606793,11.8952648 C14.4129192,11.7042243 14.4490597,11.5018798 14.56,11.3391846 C14.6553709,11.1687721 14.8175928,11.045946 15.0074849,11.0003719 C15.1973771,10.9547977 15.3976744,10.9906192 15.56,11.0991846 L17.66,12.3991846 Z M2.34,7.59918459 C2.12938773,7.47262237 2.00055513,7.24489891 2.00055513,6.99918459 C2.00055513,6.75347028 2.12938773,6.52574682 2.34,6.39918459 L9.64,2.09918459 C9.86220176,1.96847 10.1377982,1.96847 10.36,2.09918459 L17.66,6.39918459 C17.8706123,6.52574682 17.9994449,6.75347028 17.9994449,6.99918459 C17.9994449,7.24489891 17.8706123,7.47262237 17.66,7.59918459 L10.36,11.8991846 C10.1383953,12.0320736 9.8616047,12.0320736 9.64,11.8991846 L2.34,7.59918459 Z M4.08,6.99918459 L10,10.4891846 L15.92,6.99918459 L10,3.50918459 L4.08,6.99918459 Z"/>
</svg>
