<svg xmlns="http://www.w3.org/2000/svg" width="20" height="20" viewBox="0 0 20 20">
  <path fill="#264966" d="M16.4964249,6.60357505 C16.5059584,6.54395375 16.5059584,6.48319636 16.4964249,6.42357505 L16.4964249,6.36357505 C16.4689602,6.2849153 16.4245853,6.21323276 16.3664249,6.15357505 L12.3464249,2.21357505 C12.2918127,2.15169844 12.2232568,2.10370933 12.1464249,2.07357505 L12.0764249,2.00357505 C12.0168036,1.99404158 11.9560462,1.99404158 11.8964249,2.00357505 L6.19642495,2.00357505 C4.70525612,2.00357505 3.49642495,3.21240623 3.49642495,4.70357505 L3.49642495,15.3035751 C3.49642495,16.7947439 4.70525612,18.0035751 6.19642495,18.0035751 L13.7964249,18.0035751 C15.2875938,18.0035751 16.4964249,16.7947439 16.4964249,15.3035751 L16.4964249,6.65357505 C16.4964249,6.65357505 16.4964249,6.62357505 16.4964249,6.60357505 Z M14.1064249,6.00357505 L12.5564249,6.00357505 L12.5564249,4.39357505 L14.1064249,6.00357505 Z M13.7964249,16.6035754 L6.19642495,16.6035754 C5.85164351,16.6035754 5.52098342,16.4666112 5.27718613,16.2228139 C5.03338884,15.9790166 4.89642495,15.6483565 4.89642495,15.3035751 L4.89642495,4.70357505 C4.89642495,3.98560488 5.47845477,3.40357505 6.19642495,3.40357505 L11.1964249,3.40357505 L11.1964249,6.65357505 C11.1964249,6.8392266 11.2701747,7.01727434 11.4014502,7.1485498 C11.5327257,7.27982527 11.7107734,7.35357505 11.8964249,7.35357505 L15.0964249,7.35357505 L15.0964249,15.3535751 C15.0695448,16.0519468 14.4953137,16.6040922 13.7964249,16.6035754 Z M9.29642495,11.5035751 L9.29642495,8.08357505 C9.29642495,7.69697574 9.60982563,7.38357508 9.99642495,7.38357508 C10.3830243,7.38357508 10.6964249,7.69697574 10.6964249,8.08357505 L10.6964249,11.5035751 C10.6964249,11.8901744 10.3830243,12.203575 9.99642495,12.203575 C9.60982563,12.203575 9.29642495,11.8901744 9.29642495,11.5035751 L9.29642495,11.5035751 Z M9.99642495,13.0035751 C9.4441402,13.0035751 8.99642495,13.4512903 8.99642495,14.0035751 C8.99642495,14.5558598 9.4441402,15.0035751 9.99642495,15.0035751 C10.5487097,15.0035751 10.9964249,14.5558598 10.9964249,14.0035751 C10.9964249,13.4512903 10.5487097,13.0035751 9.99642495,13.0035751 Z"/>
</svg>
