<svg xmlns="http://www.w3.org/2000/svg" width="20" height="20" viewBox="0 0 20 20">
  <path fill="#264966" d="M9.12,1.07 C8.87886432,0.949933584 8.58990391,0.981172548 8.38,1.15 L3.92,4.65 L1.82,4.65 C0.817114338,4.65546544 0.00546543848,5.46711434 0,6.47 L0,9.53 C0.00546543848,10.5328857 0.817114338,11.3445346 1.82,11.35 L3.92,11.35 L8.38,14.85 C8.50260726,14.9465312 8.653954,14.9993265 8.81,15.0001011 C8.91745189,15.0018664 9.02377612,14.9778577 9.12,14.93 C9.35959586,14.8116574 9.5109099,14.5672271 9.51000408,14.3 L9.51000408,1.7 C9.5109099,1.43277293 9.35959586,1.18834256 9.12,1.07 Z M8.12,12.86 L4.59,10.1 C4.46177726,10.0197715 4.31046593,9.98458279 4.16,10 L1.82,10 C1.58804041,10 1.4,9.81195959 1.4,9.58 L1.4,6.47 C1.4,6.23804041 1.58804041,6.05 1.82,6.05 L4.16,6.05 C4.3163136,6.05090974 4.46816793,5.9979373 4.59,5.9 L8.11,3.14 L8.12,12.86 Z M16,8 C15.9996123,10.7830276 14.5529187,13.3658681 12.18,14.82 C12.0681659,14.8866217 11.9401685,14.9212156 11.81,14.920031 C11.4955543,14.9197508 11.2198627,14.7098564 11.1359437,14.4068156 C11.0520248,14.1037748 11.180475,13.7819642 11.45,13.62 C13.4059991,12.4222228 14.5985323,10.2936004 14.5985323,8 C14.5985323,5.70639961 13.4059991,3.57777719 11.45,2.38 C11.1186292,2.17841606 11.0134161,1.74637086 11.215,1.41500001 C11.416584,1.08362917 11.8486292,0.978416085 12.18,1.18 C14.5529187,2.63413191 15.9996123,5.2169724 16,8 L16,8 Z M11.27,11.76 C11.1417251,11.8695037 10.9786578,11.9297677 10.81,11.9300284 C10.6094855,11.9318457 10.4186854,11.8437841 10.29,11.69 C10.1631935,11.5504279 10.0980632,11.3655972 10.1093573,11.1773614 C10.1206515,10.9891257 10.2074147,10.8134086 10.35,10.69 C11.1432217,10.0173908 11.6005459,9.03000184 11.6005459,7.99 C11.6005459,6.94999816 11.1432217,5.96260917 10.35,5.29 C10.0572891,5.03594902 10.025949,4.59271092 10.28,4.3 C10.534051,4.00728908 10.9772891,3.97594902 11.27,4.23 C12.353095,5.17938331 12.9741845,6.54971412 12.9741845,7.99 C12.9741845,9.43028588 12.353095,10.8006167 11.27,11.75 L11.27,11.76 Z" transform="translate(2 2)"/>
</svg>
