<svg xmlns="http://www.w3.org/2000/svg" width="20" height="20" viewBox="0 0 20 20">
  <path fill="#264966" d="M4.42,9.43713906 C5.87301985,7.97824109 7.84107125,7.14864278 9.9,7.12713906 L8.27,8.76713906 C7.18752531,9.05993761 6.20116281,9.63244172 5.41,10.4271391 C5.13385762,10.7032814 4.68614239,10.7032814 4.41000002,10.427139 C4.13385765,10.1509967 4.13385764,9.70328143 4.41,9.42713906 L4.42,9.43713906 Z M10,13.9271391 C9.46595059,13.9556553 9.04886703,14.3993179 9.05335555,14.9341092 C9.05784406,15.4689006 9.48231568,15.9055 10.0167685,15.9250483 C10.5512213,15.9445966 11.0064544,15.5401735 11.05,15.0071391 C11.0735037,14.7194345 10.971536,14.4356081 10.7703152,14.2286381 C10.5690945,14.0216682 10.2882524,13.9117474 10,13.9271391 L10,13.9271391 Z M3.2,8.20713906 C4.99746168,6.39428914 7.44711595,5.37840311 10,5.38713906 C10.5093053,5.3902509 11.0175631,5.43372031 11.52,5.51713906 L12.7,4.33713906 C8.93996473,3.36112848 4.94457461,4.4580516 2.21,7.21713906 C2.07303562,7.34739211 1.99549974,7.52812821 1.99549974,7.71713906 C1.99549974,7.9061499 2.07303562,8.086886 2.21,8.21713906 C2.48828429,8.48238238 2.9271304,8.47794959 3.2,8.20713906 Z M15.52,5.47713906 L17.79,3.20713906 C17.9269644,3.076886 18.0045003,2.8961499 18.0045003,2.70713906 C18.0045003,2.51812821 17.9269644,2.33739211 17.79,2.20713906 C17.6597469,2.07017468 17.4790108,1.99263879 17.29,1.99263879 C17.1009892,1.99263879 16.9202531,2.07017468 16.79,2.20713906 L14.19,4.80713906 L14.19,4.80713906 L13.1,5.90713906 L13.1,5.90713906 L11.7,7.31713906 L11.7,7.31713906 L10.47,8.54713906 L10.47,8.54713906 L8.24,10.7771391 L8.24,10.7771391 L6.58,12.4271391 L6.58,12.4271391 L2.21,16.8071391 C2.07303562,16.9373921 1.99549974,17.1181282 1.99549974,17.3071391 C1.99549974,17.4961499 2.07303562,17.676886 2.21,17.8071391 C2.33896611,17.9382243 2.51614131,18.0105407 2.7,18.0072539 C2.88811326,18.0072539 3.06832072,17.9314788 3.2,17.7971391 L9,12.0071391 C10.1440644,11.6225326 11.4070423,11.9036222 12.28,12.7371391 C12.4116793,12.8714788 12.5918867,12.9471659 12.78,12.9471391 C12.9653496,12.9479302 13.1427456,12.8719033 13.27,12.7371391 C13.4069644,12.606886 13.4845003,12.4261499 13.4845003,12.2371391 C13.4845003,12.0481282 13.4069644,11.8673921 13.27,11.7371391 C12.524317,11.0151305 11.5537483,10.5704336 10.52,10.4771391 L12.1,8.89713906 C13.0350799,9.21215441 13.8864655,9.73529492 14.59,10.4271391 C14.7208663,10.5553613 14.8967872,10.6271658 15.08,10.6271391 C15.2658701,10.6256344 15.4443667,10.5542357 15.58,10.4271391 C15.8545556,10.1503413 15.8545556,9.70393682 15.58,9.42713906 C14.8869336,8.74352908 14.0731981,8.19425762 13.18,7.80713906 L14.48,6.50713906 C15.3350472,6.95290996 16.117325,7.52613079 16.8,8.20713906 C16.9316793,8.3414788 17.1118867,8.41716593 17.3,8.41713906 C17.4853496,8.41793019 17.6627456,8.34190332 17.79,8.20713906 C17.9269644,8.076886 18.0045003,7.8961499 18.0045003,7.70713906 C18.0045003,7.51812821 17.9269644,7.33739211 17.79,7.20713906 C17.1126574,6.53320981 16.3494133,5.95153039 15.52,5.47713906 Z"/>
</svg>
