<svg xmlns="http://www.w3.org/2000/svg" width="20" height="20" viewBox="0 0 20 20">
  <path fill="#264966" d="M17.795,15.7972501 C17.9319644,15.9275032 18.0095003,16.1082393 18.0095003,16.2972501 C18.0095003,16.486261 17.9319644,16.6669971 17.795,16.7972501 L16.795,17.7972501 C16.6677456,17.9320144 16.4903496,18.0080413 16.305,18.0072562 C16.1168867,18.0072562 15.9366793,17.9315899 15.805,17.7972501 L14.805,16.7972501 C14.5304444,16.5204524 14.5304444,16.0740479 14.805,15.7972501 C15.0154378,15.5853636 15.3382985,15.5328988 15.605,15.6672501 L15.605,9.30725013 C15.3369482,9.4323743 15.0196404,9.38081179 14.805,9.17725013 C14.5304444,8.90045237 14.5304444,8.4540479 14.805,8.17725013 L15.805,7.17725013 C15.862226,7.11837041 15.9300894,7.07086603 16.005,7.03725013 C16.1781835,6.96719395 16.3718165,6.96719395 16.545,7.03725013 C16.6297043,7.06810277 16.7053369,7.11967043 16.765,7.18725013 L17.765,8.18725013 C17.9019644,8.31750319 17.9795003,8.49823928 17.9795003,8.68725013 C17.9795003,8.87626098 17.9019644,9.05699708 17.765,9.18725013 C17.6341337,9.31547238 17.4582128,9.38727684 17.275,9.38725013 C17.1714757,9.38307907 17.0696797,9.35932666 16.975,9.31725013 L16.975,15.6772501 C17.2432564,15.523133 17.5821543,15.5727278 17.795,15.7972501 L17.795,15.7972501 Z M12.795,3.18725013 L11.795,2.18725013 C11.6647469,2.05028575 11.4840108,1.97274987 11.295,1.97274987 C11.1059892,1.97274987 10.9252531,2.05028575 10.795,2.18725013 C10.5870024,2.40178231 10.5462103,2.72811954 10.695,2.98725013 L4.335,2.98725013 C4.46140006,2.72267953 4.40951313,2.40736667 4.205,2.19725013 C4.07474694,2.06028575 3.89401085,1.98274987 3.705,1.98274987 C3.51598915,1.98274987 3.33525306,2.06028575 3.205,2.19725013 L2.205,3.19725013 C2.06803562,3.32750319 1.99049974,3.50823928 1.99049974,3.69725013 C1.99049974,3.88626098 2.06803562,4.06699708 2.205,4.19725013 L3.205,5.19725013 C3.3322544,5.33201439 3.50965043,5.40804127 3.695,5.40725624 C3.9345868,5.40641038 4.157101,5.28309439 4.28481057,5.08038079 C4.41252014,4.87766719 4.42768216,4.62371933 4.325,4.40725013 L10.695,4.40725013 C10.5930303,4.62212464 10.6071431,4.87407515 10.7324715,5.0762178 C10.8578,5.27836045 11.0771952,5.40303578 11.315,5.40725624 C11.5031133,5.40725624 11.6833207,5.33158987 11.815,5.19725013 L12.815,4.19725013 C12.8895028,4.13823049 12.9537064,4.06726859 13.005,3.98725013 C13.0750562,3.81406662 13.0750562,3.62043365 13.005,3.44725013 C12.9542881,3.35202985 12.8903167,3.26449002 12.815,3.18725013 L12.795,3.18725013 Z M12.315,6.98725013 L11.315,6.98725013 C10.9284007,6.98725013 10.615,7.30065081 10.615,7.68725013 C10.615,8.07384946 10.9284007,8.38725013 11.315,8.38725013 L11.615,8.38725013 L11.615,8.68725013 C11.615,9.07384946 11.9284007,9.38725013 12.315,9.38725013 C12.7015993,9.38725013 13.015,9.07384946 13.015,8.68725013 L13.015,7.68725013 C13.015,7.30065081 12.7015993,6.98725013 12.315,6.98725013 L12.315,6.98725013 Z M8.315,6.98725013 L6.755,6.98725013 C6.36840068,6.98725013 6.055,7.30065081 6.055,7.68725013 C6.055,8.07384946 6.36840068,8.38725013 6.755,8.38725013 L8.275,8.38725013 C8.66159932,8.38725013 8.975,8.07384946 8.975,7.68725013 C8.975,7.30065081 8.66159932,6.98725013 8.275,6.98725013 L8.315,6.98725013 Z M3.715,6.98725013 L2.715,6.98725013 C2.33064964,6.99262645 2.02037631,7.30289977 2.015,7.68725013 L2.015,8.68725013 C2.015,9.07384945 2.32840068,9.38725012 2.715,9.38725012 C3.10159932,9.38725012 3.41499999,9.07384945 3.415,8.68725013 L3.415,8.38725013 L3.715,8.38725013 C3.96508592,8.38725014 4.19617484,8.25383089 4.3212178,8.03725014 C4.44626076,7.82066938 4.44626076,7.55383088 4.3212178,7.33725013 C4.19617484,7.12066937 3.96508592,6.98725013 3.715,6.98725013 L3.715,6.98725013 Z M2.715,13.9872524 C3.10159932,13.9872524 3.415,13.6738495 3.415,13.2872501 L3.415,11.7172501 C3.415,11.3306508 3.10159932,11.0172501 2.715,11.0172501 C2.32840068,11.0172501 2.015,11.3306508 2.015,11.7172501 L2.015,13.2372501 C2.00109586,13.4314019 2.06866058,13.622576 2.20147315,13.7648752 C2.33428573,13.9071744 2.52035162,13.9877474 2.715,13.9872524 L2.715,13.9872524 Z M3.715,16.6272501 L3.415,16.6272501 L3.415,16.3272501 C3.415,15.9406508 3.10159932,15.6272501 2.715,15.6272501 C2.32840068,15.6272501 2.015,15.9406508 2.015,16.3272501 L2.015,17.3272501 C2.02037631,17.7116005 2.33064964,18.0218738 2.715,18.0272501 L3.715,18.0272501 C4.10159932,18.0272501 4.415,17.7138495 4.415,17.3272501 C4.415,16.9406508 4.10159932,16.6272501 3.715,16.6272501 L3.715,16.6272501 Z M8.275,16.6272501 L6.755,16.6272501 C6.36840068,16.6272501 6.055,16.9406508 6.055,17.3272501 C6.055,17.7138495 6.36840068,18.0272501 6.755,18.0272501 L8.275,18.0272501 C8.66159932,18.0272501 8.975,17.7138495 8.975,17.3272501 C8.975,16.9406508 8.66159932,16.6272501 8.275,16.6272501 L8.275,16.6272501 Z M12.275,15.6272501 C11.8884007,15.6272501 11.575,15.9406508 11.575,16.3272501 L11.575,16.6272501 L11.275,16.6272501 C10.8884007,16.6272501 10.575,16.9406508 10.575,17.3272501 C10.575,17.7138495 10.8884007,18.0272501 11.275,18.0272501 L12.275,18.0272501 C12.6615993,18.0272501 12.975,17.7138495 12.975,17.3272501 L12.975,16.3272501 C12.9887,16.1398575 12.9264899,15.9548246 12.8023627,15.813771 C12.6782355,15.6727174 12.5026137,15.5874867 12.315,15.5772501 L12.275,15.6272501 Z M12.275,11.0672501 C11.8884007,11.0672501 11.575,11.3806508 11.575,11.7672501 L11.575,13.2872501 C11.575,13.6738495 11.8884007,13.9872501 12.275,13.9872501 C12.6615993,13.9872501 12.975,13.6738495 12.975,13.2872501 L12.975,11.7172501 C12.9920362,11.3342336 12.6977903,11.0087797 12.315,10.9872501 L12.275,11.0672501 Z"/>
</svg>
