<svg xmlns="http://www.w3.org/2000/svg" width="20" height="20" viewBox="0 0 20 20">
  <path fill="none" stroke="#264966" stroke-width="1.4" d="M1.57911721,15.9676792 C1.56067237,16.6228956 1.80812394,17.2576971 2.26514071,17.7275742 C2.72215748,18.1974512 3.34984938,18.4624193 4.00532529,18.4621599 L4.07500824,18.4621599 C4.74416109,18.4463622 5.37659067,18.1529386 5.82074959,17.6522012 L13.2968559,9.28065482 C14.6139017,9.71414195 16.0616841,9.42907613 17.1160858,8.52865515 C18.1704874,7.62823418 18.6787138,6.24293911 18.4567798,4.87426599 C18.4232552,4.66149327 18.2727949,4.48571974 18.0677402,4.41977515 C17.8663212,4.35395018 17.6449992,4.40745179 17.4958886,4.55801259 L15.2953742,6.75852689 C15.2341671,6.81979375 15.1484185,6.84989918 15.0623454,6.84034088 L13.6142377,6.68235524 C13.4806044,6.6675848 13.3751027,6.56208306 13.3603322,6.42844974 L13.2023466,4.98005995 C13.1929187,4.89408602 13.2230112,4.80847817 13.2841606,4.74731324 L15.4846749,2.54679894 C15.6347608,2.3974207 15.6881926,2.17638745 15.6229123,1.97494734 C15.5567002,1.76995119 15.3807025,1.61970396 15.1678573,1.58647193 C13.7991841,1.36453795 12.4138891,1.87276429 11.5134681,2.92716595 C10.6130471,3.98156761 10.3279813,5.42935001 10.7614684,6.74639585 L2.38963998,14.22222 C1.88873615,14.6661915 1.59510263,15.2985307 1.57911721,15.9676792 Z"/>
</svg>
