<svg xmlns="http://www.w3.org/2000/svg" width="20" height="20" viewBox="0 0 20 20">
  <path fill="#264966" d="M15.3306567,1.99998052 L4.67065672,1.99998052 C3.19833379,2.00546409 2.00614029,3.19765759 2.00065672,4.66998052 L2.00065672,11.3299805 C1.95476476,12.892696 3.11668042,14.2286814 4.67065672,14.3999805 L13.0006567,14.3999805 L16.8006567,17.8199805 C16.9290731,17.9370151 17.0969152,18.001295 17.2706567,18.0000003 C17.3672234,18.0003925 17.4627379,17.9799251 17.5506567,17.9399805 C17.8187949,17.84052 17.9977849,17.5859565 18.0006567,17.2999805 L18.0006567,4.66998052 C17.9951731,3.19765759 16.8029796,2.00546409 15.3306567,1.99998052 Z M16.6006567,15.7299805 L13.7706567,13.1799805 C13.6422403,13.062946 13.4743983,12.998666 13.3006567,12.9999805 L4.67065672,12.9999805 C4.00065672,12.9999805 3.40065672,12.0599805 3.40065672,11.3299805 L3.40065672,4.66998052 C3.40065672,3.96857889 3.96925508,3.39998052 4.67065672,3.39998052 L15.3306567,3.39998052 C16.0320583,3.39998052 16.6006567,3.96857889 16.6006567,4.66998052 L16.6006567,15.7299805 Z M14.7006567,6.72998052 C14.7006567,7.11657985 14.387256,7.42998052 14.0006567,7.42998052 L6.00065672,7.42998052 C5.60577312,7.42998052 5.28565672,7.10986412 5.28565672,6.71498052 C5.28565672,6.32009693 5.60577312,5.99998052 6.00065672,5.99998052 L14.0006567,5.99998052 C14.387256,5.99998052 14.7006567,6.3133812 14.7006567,6.69998052 L14.7006567,6.72998052 Z M11.7006567,9.72998052 C11.7006567,10.1165798 11.387256,10.4299805 11.0006567,10.4299805 L6.00065672,10.4299805 C5.60577312,10.4299805 5.28565672,10.1098641 5.28565672,9.71498052 C5.28565672,9.32009693 5.60577312,8.99998052 6.00065672,8.99998052 L11.0006567,8.99998052 C11.387256,8.99998052 11.7006567,9.3133812 11.7006567,9.69998052 L11.7006567,9.72998052 Z"/>
</svg>
