<svg xmlns="http://www.w3.org/2000/svg" width="20" height="20" viewBox="0 0 20 20">
  <path fill="#264966" d="M13.0006676,3.35578644 L12.7406676,3.35578644 L12.7406676,1.70578644 C12.7365736,1.08403053 12.3853646,0.516692861 11.8306676,0.235786438 C11.3076051,-0.0785954792 10.6537302,-0.0785954792 10.1306676,0.235786438 L7.82066762,1.59578644 C7.31054781,1.87899381 6.73394329,2.02055539 6.15066762,2.00578644 L2.70066762,2.00578644 C1.97406516,2.00560701 1.27805786,2.29829196 0.769948996,2.81769214 C0.261840129,3.33709231 -0.0154791277,4.03936339 0.000667616222,4.76578644 L0.000667616222,8.08578644 C0.0116175997,9.57629392 1.22012984,10.7803467 2.71066762,10.7857864 L3.08066762,10.7857864 L3.08066762,13.0057864 C3.12333576,14.1154759 4.03020193,14.9959285 5.14066762,15.0057864 L5.14066762,15.0057864 C6.27609988,15.0003144 7.19519556,14.0812187 7.20066762,12.9457864 L7.20066762,11.0057864 C7.42417677,11.0738785 7.63896591,11.1678488 7.84066762,11.2857864 L10.1506676,12.6257864 C10.4108301,12.7809825 10.7077376,12.8638404 11.0106676,12.8657864 C11.3089735,12.8628223 11.6015696,12.7836492 11.8606676,12.6357864 C12.389057,12.3307291 12.7134479,11.7659073 12.7106676,11.1557864 L12.7106676,9.45578644 L13.0006676,9.45578644 C14.6851361,9.45578644 16.0506676,8.09025492 16.0506676,6.40578644 C16.0506676,4.72131795 14.6851361,3.35578644 13.0006676,3.35578644 Z M5.15066762,13.6157864 L5.15066762,13.6157864 C4.8046622,13.6125346 4.51627211,13.3499705 4.48066762,13.0057864 L4.48066762,10.7857864 L5.79066796,10.7857864 L5.79066796,12.9457864 C5.79102729,13.3044112 5.50893289,13.5997288 5.15066762,13.6157864 Z M11.1506676,11.3657864 C11.059869,11.4264538 10.9414663,11.4264538 10.8506676,11.3657864 L8.53066762,10.0057864 C7.95000245,9.6649729 7.30120365,9.45667434 6.63066762,9.39578644 C6.5841182,9.39110805 6.53721703,9.39110805 6.49066762,9.39578644 L2.71066762,9.39578644 C1.98717459,9.39578644 1.40065519,8.80927946 1.40065519,8.08578644 L1.40065519,4.75578644 C1.39915393,4.41063195 1.53602225,4.07926653 1.78066762,3.83578644 C2.02599564,3.59391676 2.35616262,3.45754345 2.70066762,3.45578644 L6.15066762,3.45578644 C6.98466305,3.45557455 7.80325219,3.23106698 8.52066762,2.80578644 L10.8406676,1.44578644 C10.9340089,1.39417737 11.0473264,1.39417737 11.1406676,1.44578644 C11.2335475,1.49941063 11.2907364,1.59853804 11.2906676,1.70578644 L11.2906676,11.1057864 C11.2997273,11.2125553 11.2447919,11.3145781 11.1506676,11.3657864 Z M13.0006676,8.05578644 L13.0006676,8.05578644 L13.0006676,4.75578644 L13.0006676,4.75578644 C13.9119375,4.75578644 14.6506676,5.4945166 14.6506676,6.40578644 C14.6506676,7.31705627 13.9119375,8.05578644 13.0006676,8.05578644 L13.0006676,8.05578644 Z" transform="translate(1.975 2.497)"/>
</svg>
