<svg xmlns="http://www.w3.org/2000/svg" width="20" height="20" viewBox="0 0 20 20">
  <path fill="#264966" d="M12,17.997302 C11.6814096,17.9989025 11.4019202,17.7851753 11.32,17.477293 L8.00000001,5.397293 L6.76000001,10.177293 C6.68212737,10.4836234 6.40607298,10.6978746 6.09000001,10.697293 L2.70000001,10.697293 C2.31340069,10.697293 2.00000001,10.3838923 2.00000001,9.997293 C2.00000001,9.61069368 2.31340069,9.297293 2.70000001,9.297293 L5.55000001,9.297293 L7.37000001,2.517293 C7.45348387,2.21335508 7.72980513,2.00269797 8.04500001,2.00269797 C8.3601949,2.00269797 8.63651616,2.21335508 8.72000001,2.517293 L12,14.597293 L13.28,9.817293 C13.3578727,9.51096261 13.633927,9.29671145 13.95,9.297293 L17.3,9.297293 C17.6865993,9.29729302 18,9.61069369 18,9.997293 C18,10.3838923 17.6865993,10.697293 17.3,10.697293 L14.45,10.697293 L12.63,17.477293 C12.5561878,17.7696679 12.3010659,17.9802447 12,17.997302 Z"/>
</svg>
