<svg xmlns="http://www.w3.org/2000/svg" width="20" height="20" viewBox="0 0 20 20">
  <path fill="#264966" d="M17.3,2 L2.7,2 C2.31340068,2 2,2.31340068 2,2.7 C2,3.08659932 2.31340068,3.4 2.7,3.4 L4,3.4 L4,17.3 C4,17.6865993 4.31340068,18 4.7,18 L8.3,18 C8.68659932,18 9,17.6865993 9,17.3 L9,3.4 L11,3.4 L11,9.1 C11,9.48659932 11.3134007,9.8 11.7,9.8 L15.3,9.8 C15.4856515,9.8 15.6636993,9.72625021 15.7949747,9.59497475 C15.9262502,9.46369928 16,9.28565154 16,9.1 L16,3.4 L17.3,3.4 C17.6865993,3.4 18,3.08659932 18,2.7 C18,2.31340068 17.6865993,2 17.3,2 Z M7.6,16.6 L5.4,16.6 L5.4,3.4 L7.6,3.4 L7.6,16.6 Z M14.6,8.4 L12.4,8.4 L12.4,3.4 L14.6,3.4 L14.6,8.4 Z"/>
</svg>
