<svg xmlns="http://www.w3.org/2000/svg" width="20" height="20" viewBox="0 0 20 20">
  <path fill="#264966" d="M19.5000262,18.7999738 C19.5000262,19.1865731 19.1866256,19.5000003 18.8000262,19.5000003 L2.41002623,19.5000003 C1.90264665,19.5026513 1.41527343,19.3022796 1.05649689,18.9435031 C0.697720354,18.5847266 0.497348713,18.0973533 0.499999741,17.5899738 L0.499999741,1.19997377 C0.499999741,0.813374441 0.813426909,0.499973766 1.20002623,0.499973766 C1.38567778,0.499973766 1.56372552,0.573723554 1.69500098,0.704999019 C1.82627645,0.836274484 1.90002623,1.01432222 1.90002623,1.19997377 L1.90002623,17.5899738 C1.90002623,17.871639 2.12836101,18.0999738 2.41002623,18.0999738 L18.8000262,18.0999738 C18.9856778,18.0999738 19.1637255,18.1737236 19.295001,18.304999 C19.4262764,18.4362745 19.5000262,18.6143222 19.5000262,18.7999738 Z M4.56002623,13.2599738 C4.74345054,13.2610873 4.91976938,13.1891204 5.05002623,13.0599738 L7.64002623,10.4999738 C7.71520918,10.4236306 7.81787797,10.3806426 7.92502623,10.3806426 C8.0321745,10.3806426 8.13484328,10.4236306 8.21002623,10.4999738 L9.90002623,12.1599738 C10.6057483,12.8603629 11.7443042,12.8603629 12.4500262,12.1599738 L16.8900262,7.70997377 L16.8900262,9.70997377 C16.8900262,10.0965731 17.2034269,10.4099738 17.5900262,10.4099738 C17.9766256,10.4099738 18.2900262,10.0965731 18.2900262,9.70997377 L18.2900262,6.01997377 C18.2927768,5.92744009 18.2757298,5.83538632 18.2400262,5.74997377 C18.167712,5.58093974 18.0309282,5.44775552 17.8600262,5.37997377 C17.7759271,5.33921964 17.6834708,5.31867379 17.5900262,5.3199157 L13.8800262,5.3199157 C13.4934269,5.3199157 13.1800263,5.63337445 13.1800263,6.01997377 C13.1800263,6.40657308 13.4934269,6.71997375 13.8800262,6.71997377 L15.8800262,6.71997377 L11.5000262,11.1699738 C11.3410989,11.3236462 11.0889536,11.3236462 10.9300262,11.1699738 L9.20002623,9.49997377 C8.86228286,9.16105563 8.40349889,8.97055434 7.92502623,8.97055434 C7.44655358,8.97055434 6.9877696,9.16105563 6.65002623,9.49997377 L4.06002623,12.0699738 C3.78547067,12.3467715 3.78547067,12.793176 4.06002623,13.0699738 C4.19436743,13.197958 4.37459251,13.2664435 4.56002623,13.2599738 L4.56002623,13.2599738 Z"/>
</svg>
