<svg xmlns="http://www.w3.org/2000/svg" width="20" height="20" viewBox="0 0 20 20">
  <path fill="#264966" d="M12.3408433,8.76003157 C13.3613585,7.68161813 13.6406493,6.09863277 13.0507978,4.7360976 C12.4609463,3.37356243 11.1155619,2.49391087 9.63084329,2.49999984 L5.21084329,2.49999984 C4.82424397,2.49999984 4.51084329,2.81343225 4.51084329,3.20003157 L4.51084329,16.8000316 C4.51084329,17.1866309 4.82424397,17.5000316 5.21084329,17.5000316 L11.0308433,17.5000316 C13.2390833,17.4940703 15.1120679,15.8764885 15.4393961,13.692635 C15.7667242,11.5087816 14.4502964,9.41315277 12.3408433,8.76003157 Z M5.91084329,3.90003157 L9.63084329,3.90003157 C10.7846162,4.05251705 11.6468696,5.03622587 11.6468696,6.20003157 C11.6468696,7.36383727 10.7846162,8.3475461 9.63084329,8.50003157 L5.91084329,8.50003157 L5.91084329,3.90003157 Z M11.0308433,16.1000316 L5.91084329,16.1000316 L5.91084329,9.94003157 L11.0308433,9.94003157 C12.7318803,9.94003157 14.1108433,11.3189945 14.1108433,13.0200316 C14.1108433,14.7210686 12.7318803,16.1000316 11.0308433,16.1000316 L11.0308433,16.1000316 Z"/>
</svg>
