<svg xmlns="http://www.w3.org/2000/svg" width="20" height="20" viewBox="0 0 20 20">
  <path fill="#264966" d="M2.5,3.2 C2.5,2.81340068 2.81340068,2.5 3.2,2.5 L16.8,2.5 C17.1865993,2.5 17.5,2.81340068 17.5,3.2 C17.5,3.58659932 17.1865993,3.9 16.8,3.9 L3.2,3.9 C2.81340068,3.9 2.5,3.58659932 2.5,3.2 Z M14.94,16.1 L5.06,16.1 C4.67340068,16.1 4.36,16.4134007 4.36,16.8 C4.36,17.1865993 4.67340068,17.5 5.06,17.5 L14.94,17.5 C15.3265993,17.5 15.64,17.1865993 15.64,16.8 C15.64,16.4134007 15.3265993,16.1 14.94,16.1 Z M16.8,11.57 L3.2,11.57 C2.81340068,11.57 2.5,11.8834007 2.5,12.27 C2.5,12.6565993 2.81340068,12.97 3.2,12.97 L16.8,12.97 C17.1865993,12.97 17.5,12.6565993 17.5,12.27 C17.5,11.8834007 17.1865993,11.57 16.8,11.57 Z M5.06,7.03 C4.67340068,7.03 4.36,7.34340068 4.36,7.73 C4.36,8.11659932 4.67340068,8.43 5.06,8.43 L14.94,8.43 C15.3265993,8.43 15.64,8.11659932 15.64,7.73 C15.64,7.34340068 15.3265993,7.03 14.94,7.03 L5.06,7.03 Z"/>
</svg>
