<svg xmlns="http://www.w3.org/2000/svg" width="20" height="20" viewBox="0 0 20 20">
  <path fill="#264966" d="M17.19,4.57 C16.950979,4.40997175 16.639021,4.40997175 16.4,4.57 L13.33,6.7 L10.57,2.78 C10.4336714,2.60334681 10.2231409,2.49988635 10,2.49988635 C9.77685913,2.49988635 9.56632864,2.60334681 9.43,2.78 L6.67,6.7 L3.6,4.57 C3.36097905,4.40997175 3.04902095,4.40997175 2.81,4.57 C2.56317411,4.72370754 2.43919632,5.01565524 2.5,5.3 L4.4,14.15 C4.47015282,14.4697975 4.75260301,14.6982498 5.08,14.7 L14.88,14.7 C15.207397,14.6982498 15.4898472,14.4697975 15.56,14.15 L17.5,5.3 C17.5608037,5.01565524 17.4368259,4.72370754 17.19,4.57 Z M14.33,13.3 L5.67,13.3 L4.26,6.73 L6.5,8.25 C6.65480105,8.36383145 6.84958817,8.40902468 7.03869731,8.37498504 C7.22780645,8.34094539 7.39460851,8.23066611 7.5,8.07 L10,4.4 L12.58,8.07 C12.6834131,8.23307713 12.8504301,8.34535806 13.040478,8.37956667 C13.2305259,8.41377529 13.4262124,8.366781 13.58,8.25 L15.77,6.73 L14.33,13.3 Z M15.64,16.8 C15.64,17.1865993 15.3265993,17.5 14.94,17.5 L5.06,17.5 C4.67340068,17.5 4.36,17.1865993 4.36,16.8 C4.36,16.4134007 4.67340068,16.1 5.06,16.1 L14.94,16.1 C15.3265993,16.1 15.64,16.4134007 15.64,16.8 Z"/>
</svg>
