<svg xmlns="http://www.w3.org/2000/svg" width="20" height="20" viewBox="0 0 20 20">
  <path fill="#264966" d="M16.8,2.75 L3.2,2.75 C2.81340068,2.75 2.5,3.06340068 2.5,3.45 L2.5,4.38 C2.5,4.76659932 2.81340068,5.08 3.2,5.08 C3.58659932,5.08 3.9,4.76659932 3.9,4.38 L3.9,4.15 L9.3,4.15 L9.3,15.85 L9.07,15.85 C8.68340068,15.85 8.37,16.1634007 8.37,16.55 C8.37,16.9365993 8.68340068,17.25 9.07,17.25 L10.93,17.25 C11.3165993,17.25 11.63,16.9365993 11.63,16.55 C11.63,16.1634007 11.3165993,15.85 10.93,15.85 L10.7,15.85 L10.7,4.15 L16.1,4.15 L16.1,4.38 C16.1,4.76659932 16.4134007,5.08 16.8,5.08 C17.1865993,5.08 17.5,4.76659932 17.5,4.38 L17.5,3.45 C17.5,3.06340068 17.1865993,2.75 16.8,2.75 Z"/>
</svg>
