<svg xmlns="http://www.w3.org/2000/svg" width="20" height="20" viewBox="0 0 20 20">
  <path fill="#264966" d="M10.005,5.72998827 C7.64805375,5.7355198 5.74132749,7.64970121 5.74499989,10.0066511 C5.74868291,12.3636009 7.66137353,14.2718226 10.0183255,14.2699883 C12.3752775,14.2681514 14.285,12.3569527 14.285,10 C14.285,8.86579085 13.8337569,7.77818142 13.0308125,6.977113 C12.227868,6.17604459 11.139206,5.72734377 10.005,5.72998827 Z M10.005,12.8700175 C8.84329192,12.8740478 7.7937206,12.177367 7.3463466,11.1052482 C6.8989726,10.0331295 7.14204314,8.79705475 7.96206493,7.97416575 C8.78208672,7.15127675 10.0173056,6.90389331 11.0909793,7.34752247 C12.164653,7.79115163 12.865,8.83828487 12.865,10 C12.8595557,11.5789012 11.5838726,12.8590447 10.005,12.8700175 L10.005,12.8700175 Z M19.465,12.44 L17.985,11.22 C18.1050568,10.4110971 18.1050568,9.58890291 17.985,8.78 L19.465,7.56 C19.7247832,7.34004399 19.7919077,6.96666449 19.625,6.67 L17.695,3.33 C17.5223141,3.03661011 17.1635879,2.91000086 16.845,3.03 L15.045,3.7 C14.4081069,3.18795116 13.6965171,2.77651057 12.935,2.48 L12.615,0.58 C12.5529529,0.246736718 12.2639685,0.00382225089 11.925,0 L8.075,0 C7.7360315,0.00382225089 7.44704705,0.246736718 7.385,0.58 L7.075,2.48 C6.308137,2.77173085 5.59253686,3.18353847 4.955,3.7 L3.155,3 C2.83641209,2.88000086 2.4776859,3.00661011 2.305,3.3 L0.375,6.67 C0.208092347,6.96666449 0.275216752,7.34004399 0.535,7.56 L2.015,8.77 C1.895,9.58560976 1.895,10.4143902 2.015,11.23 L0.545,12.44 C0.278075156,12.6550332 0.206123039,13.0317237 0.375,13.33 L2.285,16.67 C2.4576859,16.9633899 2.81641209,17.0899991 3.135,16.97 L4.935,16.3 C5.57253686,16.8164615 6.288137,17.2282692 7.055,17.52 L7.365,19.42 C7.42704705,19.7532633 7.7160315,19.9961777 8.055,20 L11.905,20 C12.245438,20 12.5366392,19.7553984 12.595,19.42 L12.915,17.52 C13.674986,17.2203106 14.3861158,16.809136 15.025,16.3 L16.825,16.97 C17.1465338,17.0870628 17.5060415,16.9616532 17.685,16.67 L19.605,13.33 C19.7766399,13.0379253 19.7180206,12.6652742 19.465,12.44 Z M16.785,15.44 L15.155,14.83 C14.907805,14.7371255 14.6293817,14.7912634 14.435,14.97 C13.7538479,15.575327 12.9581358,16.0377921 12.095,16.33 C11.8457146,16.4078668 11.6630501,16.6216231 11.625,16.88 L11.335,18.59 L8.675,18.59 L8.385,16.89 C8.34255926,16.6336427 8.16160596,16.4218888 7.915,16.34 C7.04938211,16.0562328 6.25004624,15.6004413 5.565,15 C5.3737542,14.823013 5.0991161,14.768859 4.855,14.86 L3.225,15.47 L1.885,13.15 L3.225,12.05 C3.42440874,11.8806784 3.51628958,11.616521 3.465,11.36 C3.27845566,10.4629286 3.27845566,9.53707141 3.465,8.64 C3.49781522,8.39987008 3.40761744,8.15934267 3.225,8 L1.885,6.85 L3.215,4.55 L4.855,5.16 C5.10283955,5.24596759 5.37798964,5.18396194 5.565,5 C6.25004624,4.39955868 7.04938211,3.94376716 7.915,3.66 C8.16160596,3.57811116 8.34255926,3.3663573 8.385,3.11 L8.665,1.4 L11.335,1.4 L11.615,3.11 C11.6612815,3.36784645 11.8457862,3.57925808 12.095,3.66 C12.956519,3.94623203 13.752113,4.40182856 14.435,5 C14.6293817,5.17873664 14.907805,5.23287449 15.155,5.14 L16.785,4.53 L18.115,6.83 L16.775,8 C16.5734984,8.16350461 16.4807693,8.42623692 16.535,8.68 C16.6239796,9.11447828 16.6708631,9.55652325 16.675,10 C16.672822,10.4568155 16.6259317,10.9123209 16.535,11.36 C16.4807693,11.6137631 16.5734984,11.8764954 16.775,12.04 L18.115,13.15 L16.785,15.44 Z"/>
</svg>
