<svg xmlns="http://www.w3.org/2000/svg" width="20" height="20" viewBox="0 0 20 20">
  <path fill="#264966" d="M2.55 4.09C1.92128187 4.09404333 1.352405 3.71788808 1.10993347 3.13779292.867461946 2.55769776.999436493 1.88859659 1.44401654 1.44401654 1.88859659.999436493 2.55769776.867461946 3.13779292 1.10993347 3.71788808 1.352405 4.09404333 1.92128187 4.09 2.55 4.09 3.40051851 3.40051851 4.09 2.55 4.09zM10.55 4.09C9.92128187 4.09404333 9.352405 3.71788808 9.10993347 3.13779292 8.86746195 2.55769776 8.99943649 1.88859659 9.44401654 1.44401654 9.88859659.999436493 10.5576978.867461946 11.1377929 1.10993347 11.7178881 1.352405 12.0940433 1.92128187 12.09 2.55 12.09 3.40051851 11.4005185 4.09 10.55 4.09zM2.55 10.09C1.92128187 10.0940433 1.352405 9.71788808 1.10993347 9.13779292.867461946 8.55769776.999436493 7.88859659 1.44401654 7.44401654 1.88859659 6.99943649 2.55769776 6.86746195 3.13779292 7.10993347 3.71788808 7.352405 4.09404333 7.92128187 4.09 8.55 4.09 9.40051851 3.40051851 10.09 2.55 10.09zM10.55 10.09C9.92128187 10.0940433 9.352405 9.71788808 9.10993347 9.13779292 8.86746195 8.55769776 8.99943649 7.88859659 9.44401654 7.44401654 9.88859659 6.99943649 10.5576978 6.86746195 11.1377929 7.10993347 11.7178881 7.352405 12.0940433 7.92128187 12.09 8.55 12.09 9.40051851 11.4005185 10.09 10.55 10.09zM2.55 16.09C1.92128187 16.0940433 1.352405 15.7178881 1.10993347 15.1377929.867461946 14.5576978.999436493 13.8885966 1.44401654 13.4440165 1.88859659 12.9994365 2.55769776 12.8674619 3.13779292 13.1099335 3.71788808 13.352405 4.09404333 13.9212819 4.09 14.55 4.09 15.4005185 3.40051851 16.09 2.55 16.09zM10.55 16.09C9.92128187 16.0940433 9.352405 15.7178881 9.10993347 15.1377929 8.86746195 14.5576978 8.99943649 13.8885966 9.44401654 13.4440165 9.88859659 12.9994365 10.5576978 12.8674619 11.1377929 13.1099335 11.7178881 13.352405 12.0940433 13.9212819 12.09 14.55 12.09 15.4005185 11.4005185 16.09 10.55 16.09z" transform="translate(3.5 1.5)"/>
</svg>
