<svg xmlns="http://www.w3.org/2000/svg" width="20" height="20" viewBox="0 0 20 20">
  <path fill="#264966" d="M14.3,7 L14.25,7 L14.25,6.25 C14.25,3.90278981 12.3472102,2 10,2 C7.65278985,2 5.75000004,3.90278981 5.75000004,6.25 L5.75000004,7 L5.75000004,7 C5.02529196,6.98657717 4.32562105,7.2651039 3.80840678,7.77291428 C3.29119251,8.28072465 3,8.97516763 3,9.7 L3,15.3 C3,16.7911688 4.20883122,18 5.70000004,18 L14.3,18 C15.7911689,18 17,16.7911688 17,15.3 L17,9.7 C17,8.20883118 15.7911689,7 14.3,7 Z M7.15000004,6.25 C7.15000004,4.67598846 8.4259885,3.4 10,3.4 C11.5740116,3.4 12.85,4.67598846 12.85,6.25 L12.85,7 L7.15000004,7 L7.15000004,6.25 Z M15.6,15.3 C15.6,16.0179702 15.0179702,16.6 14.3,16.6 L5.70000004,16.6 C5.3552186,16.6 5.02455852,16.4630361 4.78076122,16.2192388 C4.53696393,15.9754415 4.40000004,15.6447814 4.40000004,15.3 L4.40000004,9.7 C4.40000004,8.98202983 4.98202986,8.4 5.70000004,8.4 L14.3,8.4 C14.6447815,8.4 14.9754416,8.53696389 15.2192389,8.78076118 C15.4630361,9.02455848 15.6,9.35521856 15.6,9.7 L15.6,15.3 Z M11.3,11.83 C11.2935377,12.2624482 11.0674437,12.6618809 10.7,12.89 L10.7,13.7 C10.7,14.0865993 10.3865994,14.4 10,14.4 C9.61340073,14.4 9.30000006,14.0865993 9.30000004,13.7 L9.30000004,12.89 C8.93255638,12.6618809 8.70646241,12.2624482 8.70000004,11.83 C8.70000004,11.1120298 9.28202986,10.53 10,10.53 C10.7179702,10.53 11.3,11.1120298 11.3,11.83 L11.3,11.83 Z"/>
</svg>
