<svg xmlns="http://www.w3.org/2000/svg" width="20" height="20" viewBox="0 0 20 20">
  <path  d="M8.35128681,14.0072532 C8.16593724,14.0080382 7.98854121,13.9320113 7.86128681,13.7972471 C7.72432243,13.666994 7.64678655,13.4862579 7.64678655,13.2972471 C7.64678655,13.1082362 7.72432243,12.9275001 7.86128681,12.7972471 L10.6512868,10.0072471 L7.86128681,7.20724707 C7.72432243,7.07699402 7.64678655,6.89625792 7.64678655,6.70724707 C7.64678655,6.51823623 7.72432243,6.33750013 7.86128681,6.20724707 C7.99153986,6.07028269 8.17227596,5.99274681 8.36128681,5.99274681 C8.55029766,5.99274681 8.73103375,6.07028269 8.86128681,6.20724707 L12.1512868,9.50724707 C12.4205223,9.78621458 12.4205223,10.2282796 12.1512868,10.5072471 L8.85128681,13.7972471 C8.71960753,13.9315868 8.53940007,14.0072532 8.35128681,14.0072532 Z"/>
</svg>
